<?xml version="1.0" encoding="UTF-8" standalone="no"?>
<!DOCTYPE svg PUBLIC "-//W3C//DTD SVG 1.1//EN"
 "http://www.w3.org/Graphics/SVG/1.1/DTD/svg11.dtd">
<!-- Generated by graphviz version 2.43.0 (0)
 -->
<!-- Title: atmega644constants.h Pages: 1 -->
<svg width="845pt" height="308pt"
 viewBox="0.00 0.00 844.91 308.00" xmlns="http://www.w3.org/2000/svg" xmlns:xlink="http://www.w3.org/1999/xlink">
<g id="graph0" class="graph" transform="scale(1 1) rotate(0) translate(4 304)">
<title>atmega644constants.h</title>
<polygon fill="white" stroke="transparent" points="-4,4 -4,-304 840.91,-304 840.91,4 -4,4"/>
<!-- Node1 -->
<g id="node1" class="node">
<title>Node1</title>
<g id="a_node1"><a xlink:title="Constants for ATMega644 and EVA board. Defines several useful constants for the ATMega644.">
<polygon fill="#bfbfbf" stroke="black" points="592.91,-280.5 592.91,-299.5 720.91,-299.5 720.91,-280.5 592.91,-280.5"/>
<text text-anchor="middle" x="656.91" y="-287.5" font-family="Helvetica,sans-Serif" font-size="10.00">atmega644constants.h</text>
</a>
</g>
</g>
<!-- Node2 -->
<g id="node2" class="node">
<title>Node2</title>
<g id="a_node2"><a xlink:href="defines_8h.html" target="_top" xlink:title="Simple definitions and assembler&#45;macros, mostly 8/16&#45;Bit values.">
<polygon fill="white" stroke="black" points="522.41,-224.5 522.41,-243.5 583.41,-243.5 583.41,-224.5 522.41,-224.5"/>
<text text-anchor="middle" x="552.91" y="-231.5" font-family="Helvetica,sans-Serif" font-size="10.00">defines.h</text>
</a>
</g>
</g>
<!-- Node1&#45;&gt;Node2 -->
<g id="edge1" class="edge">
<title>Node1&#45;&gt;Node2</title>
<path fill="none" stroke="midnightblue" d="M631.09,-275.59C611.86,-265.61 586.17,-252.27 569.58,-243.65"/>
<polygon fill="midnightblue" stroke="midnightblue" points="629.72,-278.82 640.21,-280.32 632.94,-272.61 629.72,-278.82"/>
</g>
<!-- Node7 -->
<g id="node7" class="node">
<title>Node7</title>
<g id="a_node7"><a xlink:href="util_8c.html" target="_top" xlink:title=" ">
<polygon fill="white" stroke="black" points="615.41,-112.5 615.41,-131.5 656.41,-131.5 656.41,-112.5 615.41,-112.5"/>
<text text-anchor="middle" x="635.91" y="-119.5" font-family="Helvetica,sans-Serif" font-size="10.00">util.c</text>
</a>
</g>
</g>
<!-- Node1&#45;&gt;Node7 -->
<g id="edge37" class="edge">
<title>Node1&#45;&gt;Node7</title>
<path fill="none" stroke="midnightblue" d="M654.5,-269.93C649.95,-233.92 640.25,-157.23 637,-131.57"/>
<polygon fill="midnightblue" stroke="midnightblue" points="651.06,-270.59 655.79,-280.08 658,-269.71 651.06,-270.59"/>
</g>
<!-- Node3 -->
<g id="node3" class="node">
<title>Node3</title>
<g id="a_node3"><a xlink:href="lcd_8h.html" target="_top" xlink:title="Library for LCD use.">
<polygon fill="white" stroke="black" points="297.91,-168.5 297.91,-187.5 337.91,-187.5 337.91,-168.5 297.91,-168.5"/>
<text text-anchor="middle" x="317.91" y="-175.5" font-family="Helvetica,sans-Serif" font-size="10.00">lcd.h</text>
</a>
</g>
</g>
<!-- Node2&#45;&gt;Node3 -->
<g id="edge2" class="edge">
<title>Node2&#45;&gt;Node3</title>
<path fill="none" stroke="midnightblue" d="M512.2,-223.64C461.38,-211.97 376.46,-192.45 337.97,-183.61"/>
<polygon fill="midnightblue" stroke="midnightblue" points="511.66,-227.11 522.19,-225.94 513.23,-220.29 511.66,-227.11"/>
</g>
<!-- Node5 -->
<g id="node5" class="node">
<title>Node5</title>
<g id="a_node5"><a xlink:href="os__core_8c.html" target="_top" xlink:title=" ">
<polygon fill="white" stroke="black" points="11.91,-56.5 11.91,-75.5 73.91,-75.5 73.91,-56.5 11.91,-56.5"/>
<text text-anchor="middle" x="42.91" y="-63.5" font-family="Helvetica,sans-Serif" font-size="10.00">os_core.c</text>
</a>
</g>
</g>
<!-- Node2&#45;&gt;Node5 -->
<g id="edge7" class="edge">
<title>Node2&#45;&gt;Node5</title>
<path fill="none" stroke="midnightblue" d="M511.98,-229.73C407.21,-220.56 132.91,-191.31 66.91,-132 50.27,-117.04 45.14,-89.51 43.58,-75.57"/>
<polygon fill="midnightblue" stroke="midnightblue" points="511.9,-233.23 522.16,-230.6 512.5,-226.26 511.9,-233.23"/>
</g>
<!-- Node2&#45;&gt;Node7 -->
<g id="edge36" class="edge">
<title>Node2&#45;&gt;Node7</title>
<path fill="none" stroke="midnightblue" d="M565.54,-216.27C583.48,-192.49 615.7,-149.79 629.43,-131.59"/>
<polygon fill="midnightblue" stroke="midnightblue" points="562.66,-214.28 559.43,-224.37 568.24,-218.49 562.66,-214.28"/>
</g>
<!-- Node8 -->
<g id="node8" class="node">
<title>Node8</title>
<g id="a_node8"><a xlink:href="os__mem__drivers_8c.html" target="_top" xlink:title=" ">
<polygon fill="white" stroke="black" points="383.91,-112.5 383.91,-131.5 489.91,-131.5 489.91,-112.5 383.91,-112.5"/>
<text text-anchor="middle" x="436.91" y="-119.5" font-family="Helvetica,sans-Serif" font-size="10.00">os_mem_drivers.c</text>
</a>
</g>
</g>
<!-- Node2&#45;&gt;Node8 -->
<g id="edge8" class="edge">
<title>Node2&#45;&gt;Node8</title>
<path fill="none" stroke="midnightblue" d="M536.26,-217.21C511.39,-193.63 465.42,-150.03 445.97,-131.59"/>
<polygon fill="midnightblue" stroke="midnightblue" points="534.15,-220.03 543.81,-224.37 538.96,-214.95 534.15,-220.03"/>
</g>
<!-- Node9 -->
<g id="node9" class="node">
<title>Node9</title>
<g id="a_node9"><a xlink:href="os__mem__drivers_8h.html" target="_top" xlink:title="Drivers for OS memory management.">
<polygon fill="white" stroke="black" points="367.41,-168.5 367.41,-187.5 474.41,-187.5 474.41,-168.5 367.41,-168.5"/>
<text text-anchor="middle" x="420.91" y="-175.5" font-family="Helvetica,sans-Serif" font-size="10.00">os_mem_drivers.h</text>
</a>
</g>
</g>
<!-- Node2&#45;&gt;Node9 -->
<g id="edge9" class="edge">
<title>Node2&#45;&gt;Node9</title>
<path fill="none" stroke="midnightblue" d="M522.7,-220.64C497.92,-210.5 463.52,-196.43 441.73,-187.52"/>
<polygon fill="midnightblue" stroke="midnightblue" points="521.42,-223.9 532,-224.44 524.07,-217.42 521.42,-223.9"/>
</g>
<!-- Node11 -->
<g id="node11" class="node">
<title>Node11</title>
<g id="a_node11"><a xlink:href="os__memheap__drivers_8c.html" target="_top" xlink:title=" ">
<polygon fill="white" stroke="black" points="9.91,-0.5 9.91,-19.5 139.91,-19.5 139.91,-0.5 9.91,-0.5"/>
<text text-anchor="middle" x="74.91" y="-7.5" font-family="Helvetica,sans-Serif" font-size="10.00">os_memheap_drivers.c</text>
</a>
</g>
</g>
<!-- Node2&#45;&gt;Node11 -->
<g id="edge25" class="edge">
<title>Node2&#45;&gt;Node11</title>
<path fill="none" stroke="midnightblue" d="M511.95,-230.93C421.3,-225.97 206.33,-212 137.91,-188 64.35,-162.19 29.58,-149.26 2.91,-76 -0.13,-67.65 -1.39,-63.77 2.91,-56 12.78,-38.21 32.93,-26.52 49.41,-19.53"/>
<polygon fill="midnightblue" stroke="midnightblue" points="511.94,-234.44 522.12,-231.48 512.32,-227.45 511.94,-234.44"/>
</g>
<!-- Node15 -->
<g id="node15" class="node">
<title>Node15</title>
<g id="a_node15"><a xlink:href="os__user__privileges_8h.html" target="_top" xlink:title="User privileges specification used in part by the task manager.">
<polygon fill="white" stroke="black" points="518.91,-0.5 518.91,-19.5 634.91,-19.5 634.91,-0.5 518.91,-0.5"/>
<text text-anchor="middle" x="576.91" y="-7.5" font-family="Helvetica,sans-Serif" font-size="10.00">os_user_privileges.h</text>
</a>
</g>
</g>
<!-- Node2&#45;&gt;Node15 -->
<g id="edge35" class="edge">
<title>Node2&#45;&gt;Node15</title>
<path fill="none" stroke="midnightblue" d="M589.65,-220.79C608.03,-213.38 629.73,-202.52 645.91,-188 687.79,-150.42 693.6,-131.11 704.91,-76 706.7,-67.29 710.05,-63.25 704.91,-56 688.98,-33.51 660.88,-22.18 635.05,-16.5"/>
<polygon fill="midnightblue" stroke="midnightblue" points="588.2,-217.6 580.12,-224.45 590.71,-224.13 588.2,-217.6"/>
</g>
<!-- Node17 -->
<g id="node17" class="node">
<title>Node17</title>
<g id="a_node17"><a xlink:href="os__scheduler_8h.html" target="_top" xlink:title="Scheduling module for the OS.">
<polygon fill="white" stroke="black" points="508.41,-112.5 508.41,-131.5 597.41,-131.5 597.41,-112.5 508.41,-112.5"/>
<text text-anchor="middle" x="552.91" y="-119.5" font-family="Helvetica,sans-Serif" font-size="10.00">os_scheduler.h</text>
</a>
</g>
</g>
<!-- Node2&#45;&gt;Node17 -->
<g id="edge26" class="edge">
<title>Node2&#45;&gt;Node17</title>
<path fill="none" stroke="midnightblue" d="M552.91,-214.35C552.91,-190.25 552.91,-149.31 552.91,-131.59"/>
<polygon fill="midnightblue" stroke="midnightblue" points="549.41,-214.37 552.91,-224.37 556.41,-214.37 549.41,-214.37"/>
</g>
<!-- Node18 -->
<g id="node18" class="node">
<title>Node18</title>
<g id="a_node18"><a xlink:href="os__scheduling__strategies_8h.html" target="_top" xlink:title="Scheduling library for the OS.">
<polygon fill="white" stroke="black" points="546.41,-56.5 546.41,-75.5 695.41,-75.5 695.41,-56.5 546.41,-56.5"/>
<text text-anchor="middle" x="620.91" y="-63.5" font-family="Helvetica,sans-Serif" font-size="10.00">os_scheduling_strategies.h</text>
</a>
</g>
</g>
<!-- Node2&#45;&gt;Node18 -->
<g id="edge34" class="edge">
<title>Node2&#45;&gt;Node18</title>
<path fill="none" stroke="midnightblue" d="M578.56,-219.3C606.29,-202.81 648.82,-172.26 665.91,-132 675.35,-109.76 650.54,-87.38 634.12,-75.56"/>
<polygon fill="midnightblue" stroke="midnightblue" points="576.71,-216.33 569.78,-224.34 580.19,-222.4 576.71,-216.33"/>
</g>
<!-- Node19 -->
<g id="node19" class="node">
<title>Node19</title>
<g id="a_node19"><a xlink:href="os__scheduling__strategies_8c.html" target="_top" xlink:title=" ">
<polygon fill="white" stroke="black" points="688.91,-0.5 688.91,-19.5 836.91,-19.5 836.91,-0.5 688.91,-0.5"/>
<text text-anchor="middle" x="762.91" y="-7.5" font-family="Helvetica,sans-Serif" font-size="10.00">os_scheduling_strategies.c</text>
</a>
</g>
</g>
<!-- Node2&#45;&gt;Node19 -->
<g id="edge33" class="edge">
<title>Node2&#45;&gt;Node19</title>
<path fill="none" stroke="midnightblue" d="M593.57,-224.04C617.66,-217.19 647.73,-205.84 669.91,-188 728.08,-141.24 754.14,-48.18 761,-19.57"/>
<polygon fill="midnightblue" stroke="midnightblue" points="592.4,-220.73 583.65,-226.7 594.21,-227.49 592.4,-220.73"/>
</g>
<!-- Node4 -->
<g id="node4" class="node">
<title>Node4</title>
<g id="a_node4"><a xlink:href="lcd_8c.html" target="_top" xlink:title="Library for LCD use.">
<polygon fill="white" stroke="black" points="101.41,-112.5 101.41,-131.5 140.41,-131.5 140.41,-112.5 101.41,-112.5"/>
<text text-anchor="middle" x="120.91" y="-119.5" font-family="Helvetica,sans-Serif" font-size="10.00">lcd.c</text>
</a>
</g>
</g>
<!-- Node3&#45;&gt;Node4 -->
<g id="edge3" class="edge">
<title>Node3&#45;&gt;Node4</title>
<path fill="none" stroke="midnightblue" d="M288.05,-169.54C254.18,-160.96 197.36,-146.23 148.91,-132 146.17,-131.19 143.29,-130.31 140.46,-129.42"/>
<polygon fill="midnightblue" stroke="midnightblue" points="287.24,-172.94 297.79,-171.99 288.95,-166.15 287.24,-172.94"/>
</g>
<!-- Node3&#45;&gt;Node5 -->
<g id="edge4" class="edge">
<title>Node3&#45;&gt;Node5</title>
<path fill="none" stroke="midnightblue" d="M287.57,-177.6C241.71,-177.12 153.55,-170.7 91.91,-132 69.65,-118.02 53.87,-90.04 46.91,-75.79"/>
<polygon fill="midnightblue" stroke="midnightblue" points="287.75,-181.1 297.75,-177.61 287.76,-174.1 287.75,-181.1"/>
</g>
<!-- Node6 -->
<g id="node6" class="node">
<title>Node6</title>
<g id="a_node6"><a xlink:href="os__scheduler_8c.html" target="_top" xlink:title="Scheduling module for the OS.">
<polygon fill="white" stroke="black" points="412.91,-0.5 412.91,-19.5 500.91,-19.5 500.91,-0.5 412.91,-0.5"/>
<text text-anchor="middle" x="456.91" y="-7.5" font-family="Helvetica,sans-Serif" font-size="10.00">os_scheduler.c</text>
</a>
</g>
</g>
<!-- Node3&#45;&gt;Node6 -->
<g id="edge5" class="edge">
<title>Node3&#45;&gt;Node6</title>
<path fill="none" stroke="midnightblue" d="M331.54,-160.4C342.77,-146.97 359.35,-127.77 374.91,-112 391.72,-94.98 399.4,-94.2 414.91,-76 430.6,-57.59 444.99,-32.94 452.16,-19.92"/>
<polygon fill="midnightblue" stroke="midnightblue" points="328.68,-158.37 324.98,-168.3 334.06,-162.84 328.68,-158.37"/>
</g>
<!-- Node3&#45;&gt;Node7 -->
<g id="edge6" class="edge">
<title>Node3&#45;&gt;Node7</title>
<path fill="none" stroke="midnightblue" d="M348.21,-170.09C351.81,-169.35 355.44,-168.63 358.91,-168 468.49,-148.05 498.28,-156.58 606.91,-132 609.59,-131.39 612.37,-130.66 615.11,-129.88"/>
<polygon fill="midnightblue" stroke="midnightblue" points="347.34,-166.7 338.29,-172.22 348.81,-173.55 347.34,-166.7"/>
</g>
<!-- Node9&#45;&gt;Node8 -->
<g id="edge10" class="edge">
<title>Node9&#45;&gt;Node8</title>
<path fill="none" stroke="midnightblue" d="M426.43,-158.4C429.1,-149.36 432.19,-138.94 434.32,-131.75"/>
<polygon fill="midnightblue" stroke="midnightblue" points="423.04,-157.5 423.56,-168.08 429.75,-159.49 423.04,-157.5"/>
</g>
<!-- Node10 -->
<g id="node10" class="node">
<title>Node10</title>
<g id="a_node10"><a xlink:href="os__memheap__drivers_8h.html" target="_top" xlink:title="Drivers for OS heap management.">
<polygon fill="white" stroke="black" points="158.41,-112.5 158.41,-131.5 289.41,-131.5 289.41,-112.5 158.41,-112.5"/>
<text text-anchor="middle" x="223.91" y="-119.5" font-family="Helvetica,sans-Serif" font-size="10.00">os_memheap_drivers.h</text>
</a>
</g>
</g>
<!-- Node9&#45;&gt;Node10 -->
<g id="edge11" class="edge">
<title>Node9&#45;&gt;Node10</title>
<path fill="none" stroke="midnightblue" d="M379.69,-165.7C342.51,-155.51 288.64,-140.74 254.98,-131.52"/>
<polygon fill="midnightblue" stroke="midnightblue" points="379.13,-169.18 389.7,-168.44 380.98,-162.42 379.13,-169.18"/>
</g>
<!-- Node12 -->
<g id="node12" class="node">
<title>Node12</title>
<g id="a_node12"><a xlink:href="os__memory_8h.html" target="_top" xlink:title="Library for OS memory management.">
<polygon fill="white" stroke="black" points="323.91,-56.5 323.91,-75.5 405.91,-75.5 405.91,-56.5 323.91,-56.5"/>
<text text-anchor="middle" x="364.91" y="-63.5" font-family="Helvetica,sans-Serif" font-size="10.00">os_memory.h</text>
</a>
</g>
</g>
<!-- Node9&#45;&gt;Node12 -->
<g id="edge24" class="edge">
<title>Node9&#45;&gt;Node12</title>
<path fill="none" stroke="midnightblue" d="M400.09,-161.76C390.9,-153.91 380.86,-143.56 374.91,-132 365.42,-113.52 364.37,-88.46 364.56,-75.52"/>
<polygon fill="midnightblue" stroke="midnightblue" points="398.16,-164.7 408.15,-168.23 402.54,-159.24 398.16,-164.7"/>
</g>
<!-- Node10&#45;&gt;Node5 -->
<g id="edge12" class="edge">
<title>Node10&#45;&gt;Node5</title>
<path fill="none" stroke="midnightblue" d="M185.6,-109.57C151.45,-99.38 102.25,-84.7 71.46,-75.52"/>
<polygon fill="midnightblue" stroke="midnightblue" points="184.65,-112.94 195.23,-112.44 186.65,-106.23 184.65,-112.94"/>
</g>
<!-- Node10&#45;&gt;Node6 -->
<g id="edge23" class="edge">
<title>Node10&#45;&gt;Node6</title>
<path fill="none" stroke="midnightblue" d="M241.32,-106.02C258.89,-91.53 287.31,-69.8 314.91,-56 348.57,-39.17 389.84,-26.94 419.2,-19.51"/>
<polygon fill="midnightblue" stroke="midnightblue" points="239.03,-103.37 233.62,-112.48 243.53,-108.73 239.03,-103.37"/>
</g>
<!-- Node10&#45;&gt;Node11 -->
<g id="edge13" class="edge">
<title>Node10&#45;&gt;Node11</title>
<path fill="none" stroke="midnightblue" d="M183.56,-109.13C163.3,-101.81 139.25,-90.93 120.91,-76 101.19,-59.94 86.06,-33.39 79.1,-19.72"/>
<polygon fill="midnightblue" stroke="midnightblue" points="182.56,-112.48 193.15,-112.43 184.84,-105.87 182.56,-112.48"/>
</g>
<!-- Node10&#45;&gt;Node12 -->
<g id="edge14" class="edge">
<title>Node10&#45;&gt;Node12</title>
<path fill="none" stroke="midnightblue" d="M255.84,-108.77C282.33,-98.63 319.31,-84.47 342.68,-75.52"/>
<polygon fill="midnightblue" stroke="midnightblue" points="254.34,-105.6 246.26,-112.44 256.85,-112.14 254.34,-105.6"/>
</g>
<!-- Node16 -->
<g id="node16" class="node">
<title>Node16</title>
<g id="a_node16"><a xlink:href="os__memory__strategies_8h.html" target="_top" xlink:title="Memory allocation library for the OS.">
<polygon fill="white" stroke="black" points="130.41,-56.5 130.41,-75.5 267.41,-75.5 267.41,-56.5 130.41,-56.5"/>
<text text-anchor="middle" x="198.91" y="-63.5" font-family="Helvetica,sans-Serif" font-size="10.00">os_memory_strategies.h</text>
</a>
</g>
</g>
<!-- Node10&#45;&gt;Node16 -->
<g id="edge19" class="edge">
<title>Node10&#45;&gt;Node16</title>
<path fill="none" stroke="midnightblue" d="M215.57,-102.98C211.33,-93.82 206.36,-83.09 202.97,-75.75"/>
<polygon fill="midnightblue" stroke="midnightblue" points="212.41,-104.48 219.79,-112.08 218.76,-101.54 212.41,-104.48"/>
</g>
<!-- Node12&#45;&gt;Node6 -->
<g id="edge17" class="edge">
<title>Node12&#45;&gt;Node6</title>
<path fill="none" stroke="midnightblue" d="M388.46,-51.18C405.39,-41.24 427.7,-28.15 442.17,-19.65"/>
<polygon fill="midnightblue" stroke="midnightblue" points="386.55,-48.24 379.7,-56.32 390.09,-54.28 386.55,-48.24"/>
</g>
<!-- Node13 -->
<g id="node13" class="node">
<title>Node13</title>
<g id="a_node13"><a xlink:href="os__memory_8c.html" target="_top" xlink:title=" ">
<polygon fill="white" stroke="black" points="158.41,-0.5 158.41,-19.5 239.41,-19.5 239.41,-0.5 158.41,-0.5"/>
<text text-anchor="middle" x="198.91" y="-7.5" font-family="Helvetica,sans-Serif" font-size="10.00">os_memory.c</text>
</a>
</g>
</g>
<!-- Node12&#45;&gt;Node13 -->
<g id="edge15" class="edge">
<title>Node12&#45;&gt;Node13</title>
<path fill="none" stroke="midnightblue" d="M328.96,-53.3C297.68,-43.13 253.09,-28.62 225.09,-19.52"/>
<polygon fill="midnightblue" stroke="midnightblue" points="328.02,-56.68 338.61,-56.44 330.18,-50.02 328.02,-56.68"/>
</g>
<!-- Node14 -->
<g id="node14" class="node">
<title>Node14</title>
<g id="a_node14"><a xlink:href="os__memory__strategies_8c.html" target="_top" xlink:title=" ">
<polygon fill="white" stroke="black" points="257.41,-0.5 257.41,-19.5 394.41,-19.5 394.41,-0.5 257.41,-0.5"/>
<text text-anchor="middle" x="325.91" y="-7.5" font-family="Helvetica,sans-Serif" font-size="10.00">os_memory_strategies.c</text>
</a>
</g>
</g>
<!-- Node12&#45;&gt;Node14 -->
<g id="edge16" class="edge">
<title>Node12&#45;&gt;Node14</title>
<path fill="none" stroke="midnightblue" d="M352.53,-47.86C345.78,-38.5 337.71,-27.33 332.23,-19.75"/>
<polygon fill="midnightblue" stroke="midnightblue" points="349.78,-50.03 358.47,-56.08 355.46,-45.93 349.78,-50.03"/>
</g>
<!-- Node12&#45;&gt;Node15 -->
<g id="edge18" class="edge">
<title>Node12&#45;&gt;Node15</title>
<path fill="none" stroke="midnightblue" d="M408.26,-53.96C448.3,-43.76 506.95,-28.82 543.48,-19.52"/>
<polygon fill="midnightblue" stroke="midnightblue" points="407.33,-50.58 398.51,-56.44 409.06,-57.37 407.33,-50.58"/>
</g>
<!-- Node16&#45;&gt;Node11 -->
<g id="edge20" class="edge">
<title>Node16&#45;&gt;Node11</title>
<path fill="none" stroke="midnightblue" d="M169.91,-52.37C146.69,-42.26 114.75,-28.35 94.47,-19.52"/>
<polygon fill="midnightblue" stroke="midnightblue" points="168.7,-55.66 179.27,-56.44 171.5,-49.24 168.7,-55.66"/>
</g>
<!-- Node16&#45;&gt;Node13 -->
<g id="edge21" class="edge">
<title>Node16&#45;&gt;Node13</title>
<path fill="none" stroke="midnightblue" d="M198.91,-45.8C198.91,-36.91 198.91,-26.78 198.91,-19.75"/>
<polygon fill="midnightblue" stroke="midnightblue" points="195.41,-46.08 198.91,-56.08 202.41,-46.08 195.41,-46.08"/>
</g>
<!-- Node16&#45;&gt;Node14 -->
<g id="edge22" class="edge">
<title>Node16&#45;&gt;Node14</title>
<path fill="none" stroke="midnightblue" d="M228.31,-52.5C252.11,-42.38 285.02,-28.39 305.89,-19.52"/>
<polygon fill="midnightblue" stroke="midnightblue" points="226.87,-49.31 219.04,-56.44 229.61,-55.75 226.87,-49.31"/>
</g>
<!-- Node17&#45;&gt;Node6 -->
<g id="edge28" class="edge">
<title>Node17&#45;&gt;Node6</title>
<path fill="none" stroke="midnightblue" d="M538.59,-104.59C517.89,-80.87 480.36,-37.87 464.41,-19.59"/>
<polygon fill="midnightblue" stroke="midnightblue" points="536.17,-107.14 545.38,-112.37 541.44,-102.53 536.17,-107.14"/>
</g>
<!-- Node17&#45;&gt;Node12 -->
<g id="edge27" class="edge">
<title>Node17&#45;&gt;Node12</title>
<path fill="none" stroke="midnightblue" d="M513.11,-109.57C477.65,-99.38 426.55,-84.7 394.56,-75.52"/>
<polygon fill="midnightblue" stroke="midnightblue" points="512.55,-113.05 523.13,-112.44 514.48,-106.32 512.55,-113.05"/>
</g>
<!-- Node17&#45;&gt;Node15 -->
<g id="edge32" class="edge">
<title>Node17&#45;&gt;Node15</title>
<path fill="none" stroke="midnightblue" d="M543.4,-103.38C537.52,-90.09 532.11,-71.56 537.91,-56 543.48,-41.08 556.46,-27.83 565.92,-19.63"/>
<polygon fill="midnightblue" stroke="midnightblue" points="540.26,-104.94 547.81,-112.38 546.55,-101.86 540.26,-104.94"/>
</g>
<!-- Node17&#45;&gt;Node18 -->
<g id="edge29" class="edge">
<title>Node17&#45;&gt;Node18</title>
<path fill="none" stroke="midnightblue" d="M571.68,-106.1C583.91,-96.38 599.47,-84.03 609.79,-75.83"/>
<polygon fill="midnightblue" stroke="midnightblue" points="569.49,-103.36 563.84,-112.32 573.85,-108.85 569.49,-103.36"/>
</g>
<!-- Node18&#45;&gt;Node6 -->
<g id="edge30" class="edge">
<title>Node18&#45;&gt;Node6</title>
<path fill="none" stroke="midnightblue" d="M585.39,-53.3C554.49,-43.13 510.44,-28.62 482.78,-19.52"/>
<polygon fill="midnightblue" stroke="midnightblue" points="584.34,-56.64 594.93,-56.44 586.52,-49.99 584.34,-56.64"/>
</g>
<!-- Node18&#45;&gt;Node19 -->
<g id="edge31" class="edge">
<title>Node18&#45;&gt;Node19</title>
<path fill="none" stroke="midnightblue" d="M653.07,-52.77C679.74,-42.63 716.98,-28.47 740.52,-19.52"/>
<polygon fill="midnightblue" stroke="midnightblue" points="651.52,-49.62 643.42,-56.44 654.01,-56.16 651.52,-49.62"/>
</g>
</g>
</svg>
