<?xml version="1.0" encoding="UTF-8" standalone="no"?>
<!DOCTYPE svg PUBLIC "-//W3C//DTD SVG 1.1//EN"
 "http://www.w3.org/Graphics/SVG/1.1/DTD/svg11.dtd">
<!-- Generated by graphviz version 2.43.0 (0)
 -->
<!-- Title: defines.h Pages: 1 -->
<svg width="821pt" height="252pt"
 viewBox="0.00 0.00 820.86 252.00" xmlns="http://www.w3.org/2000/svg" xmlns:xlink="http://www.w3.org/1999/xlink">
<g id="graph0" class="graph" transform="scale(1 1) rotate(0) translate(4 248)">
<title>defines.h</title>
<polygon fill="white" stroke="transparent" points="-4,4 -4,-248 816.86,-248 816.86,4 -4,4"/>
<!-- Node1 -->
<g id="node1" class="node">
<title>Node1</title>
<g id="a_node1"><a xlink:title="Simple definitions and assembler&#45;macros, mostly 8/16&#45;Bit values.">
<polygon fill="#bfbfbf" stroke="black" points="413.36,-224.5 413.36,-243.5 474.36,-243.5 474.36,-224.5 413.36,-224.5"/>
<text text-anchor="middle" x="443.86" y="-231.5" font-family="Helvetica,sans-Serif" font-size="10.00">defines.h</text>
</a>
</g>
</g>
<!-- Node2 -->
<g id="node2" class="node">
<title>Node2</title>
<g id="a_node2"><a xlink:href="lcd_8h.html" target="_top" xlink:title="Library for LCD use.">
<polygon fill="white" stroke="black" points="136.86,-168.5 136.86,-187.5 176.86,-187.5 176.86,-168.5 136.86,-168.5"/>
<text text-anchor="middle" x="156.86" y="-175.5" font-family="Helvetica,sans-Serif" font-size="10.00">lcd.h</text>
</a>
</g>
</g>
<!-- Node1&#45;&gt;Node2 -->
<g id="edge1" class="edge">
<title>Node1&#45;&gt;Node2</title>
<path fill="none" stroke="midnightblue" d="M403.26,-225.36C340.9,-213.63 223.83,-191.6 176.99,-182.79"/>
<polygon fill="midnightblue" stroke="midnightblue" points="402.67,-228.81 413.15,-227.22 403.97,-221.93 402.67,-228.81"/>
</g>
<!-- Node4 -->
<g id="node4" class="node">
<title>Node4</title>
<g id="a_node4"><a xlink:href="os__core_8c.html" target="_top" xlink:title=" ">
<polygon fill="white" stroke="black" points="11.86,-56.5 11.86,-75.5 73.86,-75.5 73.86,-56.5 11.86,-56.5"/>
<text text-anchor="middle" x="42.86" y="-63.5" font-family="Helvetica,sans-Serif" font-size="10.00">os_core.c</text>
</a>
</g>
</g>
<!-- Node1&#45;&gt;Node4 -->
<g id="edge6" class="edge">
<title>Node1&#45;&gt;Node4</title>
<path fill="none" stroke="midnightblue" d="M402.84,-229.96C328.86,-224.03 176.3,-209.56 127.86,-188 92.41,-172.22 81.88,-164.62 60.86,-132 49.32,-114.09 45.09,-88.79 43.61,-75.66"/>
<polygon fill="midnightblue" stroke="midnightblue" points="402.92,-233.48 413.16,-230.78 403.47,-226.5 402.92,-233.48"/>
</g>
<!-- Node6 -->
<g id="node6" class="node">
<title>Node6</title>
<g id="a_node6"><a xlink:href="util_8c.html" target="_top" xlink:title=" ">
<polygon fill="white" stroke="black" points="185.36,-112.5 185.36,-131.5 226.36,-131.5 226.36,-112.5 185.36,-112.5"/>
<text text-anchor="middle" x="205.86" y="-119.5" font-family="Helvetica,sans-Serif" font-size="10.00">util.c</text>
</a>
</g>
</g>
<!-- Node1&#45;&gt;Node6 -->
<g id="edge35" class="edge">
<title>Node1&#45;&gt;Node6</title>
<path fill="none" stroke="midnightblue" d="M414.43,-220.48C393.76,-211.61 365.51,-199.31 340.86,-188 298.31,-168.47 248.85,-144.27 223.24,-131.62"/>
<polygon fill="midnightblue" stroke="midnightblue" points="413.06,-223.7 423.63,-224.42 415.82,-217.27 413.06,-223.7"/>
</g>
<!-- Node7 -->
<g id="node7" class="node">
<title>Node7</title>
<g id="a_node7"><a xlink:href="os__mem__drivers_8c.html" target="_top" xlink:title=" ">
<polygon fill="white" stroke="black" points="431.86,-112.5 431.86,-131.5 537.86,-131.5 537.86,-112.5 431.86,-112.5"/>
<text text-anchor="middle" x="484.86" y="-119.5" font-family="Helvetica,sans-Serif" font-size="10.00">os_mem_drivers.c</text>
</a>
</g>
</g>
<!-- Node1&#45;&gt;Node7 -->
<g id="edge7" class="edge">
<title>Node1&#45;&gt;Node7</title>
<path fill="none" stroke="midnightblue" d="M453.38,-215.3C457.55,-207.14 462.29,-197.22 465.86,-188 473.51,-168.27 479.8,-144.15 482.85,-131.57"/>
<polygon fill="midnightblue" stroke="midnightblue" points="450.24,-213.75 448.7,-224.24 456.44,-217 450.24,-213.75"/>
</g>
<!-- Node8 -->
<g id="node8" class="node">
<title>Node8</title>
<g id="a_node8"><a xlink:href="os__mem__drivers_8h.html" target="_top" xlink:title="Drivers for OS memory management.">
<polygon fill="white" stroke="black" points="349.36,-168.5 349.36,-187.5 456.36,-187.5 456.36,-168.5 349.36,-168.5"/>
<text text-anchor="middle" x="402.86" y="-175.5" font-family="Helvetica,sans-Serif" font-size="10.00">os_mem_drivers.h</text>
</a>
</g>
</g>
<!-- Node1&#45;&gt;Node8 -->
<g id="edge8" class="edge">
<title>Node1&#45;&gt;Node8</title>
<path fill="none" stroke="midnightblue" d="M430.85,-215.86C423.75,-206.5 415.26,-195.33 409.51,-187.75"/>
<polygon fill="midnightblue" stroke="midnightblue" points="428.26,-218.24 437.09,-224.08 433.83,-214 428.26,-218.24"/>
</g>
<!-- Node10 -->
<g id="node10" class="node">
<title>Node10</title>
<g id="a_node10"><a xlink:href="os__memheap__drivers_8c.html" target="_top" xlink:title=" ">
<polygon fill="white" stroke="black" points="9.86,-0.5 9.86,-19.5 139.86,-19.5 139.86,-0.5 9.86,-0.5"/>
<text text-anchor="middle" x="74.86" y="-7.5" font-family="Helvetica,sans-Serif" font-size="10.00">os_memheap_drivers.c</text>
</a>
</g>
</g>
<!-- Node1&#45;&gt;Node10 -->
<g id="edge24" class="edge">
<title>Node1&#45;&gt;Node10</title>
<path fill="none" stroke="midnightblue" d="M402.97,-231.77C321.17,-228.68 140.71,-218.52 87.86,-188 33.75,-156.75 22.79,-135.23 2.86,-76 0.03,-67.58 -1.45,-63.77 2.86,-56 12.72,-38.21 32.88,-26.52 49.36,-19.53"/>
<polygon fill="midnightblue" stroke="midnightblue" points="403.02,-235.27 413.14,-232.14 403.27,-228.28 403.02,-235.27"/>
</g>
<!-- Node14 -->
<g id="node14" class="node">
<title>Node14</title>
<g id="a_node14"><a xlink:href="os__user__privileges_8h.html" target="_top" xlink:title="User privileges specification used in part by the task manager.">
<polygon fill="white" stroke="black" points="518.86,-0.5 518.86,-19.5 634.86,-19.5 634.86,-0.5 518.86,-0.5"/>
<text text-anchor="middle" x="576.86" y="-7.5" font-family="Helvetica,sans-Serif" font-size="10.00">os_user_privileges.h</text>
</a>
</g>
</g>
<!-- Node1&#45;&gt;Node14 -->
<g id="edge34" class="edge">
<title>Node1&#45;&gt;Node14</title>
<path fill="none" stroke="midnightblue" d="M484.85,-229.93C523.07,-225.48 580.41,-214.58 622.86,-188 650.4,-170.76 652.43,-159.42 669.86,-132 689.02,-101.88 716.16,-85.37 695.86,-56 681.99,-35.92 657.92,-24.79 635.04,-18.63"/>
<polygon fill="midnightblue" stroke="midnightblue" points="484.17,-226.49 474.6,-231.03 484.92,-233.45 484.17,-226.49"/>
</g>
<!-- Node16 -->
<g id="node16" class="node">
<title>Node16</title>
<g id="a_node16"><a xlink:href="os__scheduler_8h.html" target="_top" xlink:title="Scheduling module for the OS.">
<polygon fill="white" stroke="black" points="556.36,-112.5 556.36,-131.5 645.36,-131.5 645.36,-112.5 556.36,-112.5"/>
<text text-anchor="middle" x="600.86" y="-119.5" font-family="Helvetica,sans-Serif" font-size="10.00">os_scheduler.h</text>
</a>
</g>
</g>
<!-- Node1&#45;&gt;Node16 -->
<g id="edge25" class="edge">
<title>Node1&#45;&gt;Node16</title>
<path fill="none" stroke="midnightblue" d="M464.68,-218.42C497.88,-195.15 561.83,-150.35 588.6,-131.59"/>
<polygon fill="midnightblue" stroke="midnightblue" points="462.36,-215.76 456.18,-224.37 466.38,-221.5 462.36,-215.76"/>
</g>
<!-- Node17 -->
<g id="node17" class="node">
<title>Node17</title>
<g id="a_node17"><a xlink:href="os__scheduling__strategies_8h.html" target="_top" xlink:title="Scheduling library for the OS.">
<polygon fill="white" stroke="black" points="537.36,-56.5 537.36,-75.5 686.36,-75.5 686.36,-56.5 537.36,-56.5"/>
<text text-anchor="middle" x="611.86" y="-63.5" font-family="Helvetica,sans-Serif" font-size="10.00">os_scheduling_strategies.h</text>
</a>
</g>
</g>
<!-- Node1&#45;&gt;Node17 -->
<g id="edge33" class="edge">
<title>Node1&#45;&gt;Node17</title>
<path fill="none" stroke="midnightblue" d="M484.55,-226.71C534.6,-216.56 617.5,-191.31 654.86,-132 667.77,-111.51 641.61,-87.89 624.7,-75.54"/>
<polygon fill="midnightblue" stroke="midnightblue" points="483.86,-223.28 474.7,-228.6 485.18,-230.15 483.86,-223.28"/>
</g>
<!-- Node18 -->
<g id="node18" class="node">
<title>Node18</title>
<g id="a_node18"><a xlink:href="os__scheduling__strategies_8c.html" target="_top" xlink:title=" ">
<polygon fill="white" stroke="black" points="664.86,-0.5 664.86,-19.5 812.86,-19.5 812.86,-0.5 664.86,-0.5"/>
<text text-anchor="middle" x="738.86" y="-7.5" font-family="Helvetica,sans-Serif" font-size="10.00">os_scheduling_strategies.c</text>
</a>
</g>
</g>
<!-- Node1&#45;&gt;Node18 -->
<g id="edge32" class="edge">
<title>Node1&#45;&gt;Node18</title>
<path fill="none" stroke="midnightblue" d="M484.91,-232.09C528.48,-229.36 597.82,-219.83 647.86,-188 710.84,-147.94 732.33,-49.47 737.5,-19.68"/>
<polygon fill="midnightblue" stroke="midnightblue" points="484.48,-228.6 474.68,-232.63 484.85,-235.59 484.48,-228.6"/>
</g>
<!-- Node3 -->
<g id="node3" class="node">
<title>Node3</title>
<g id="a_node3"><a xlink:href="lcd_8c.html" target="_top" xlink:title="Library for LCD use.">
<polygon fill="white" stroke="black" points="89.36,-112.5 89.36,-131.5 128.36,-131.5 128.36,-112.5 89.36,-112.5"/>
<text text-anchor="middle" x="108.86" y="-119.5" font-family="Helvetica,sans-Serif" font-size="10.00">lcd.c</text>
</a>
</g>
</g>
<!-- Node2&#45;&gt;Node3 -->
<g id="edge2" class="edge">
<title>Node2&#45;&gt;Node3</title>
<path fill="none" stroke="midnightblue" d="M142.14,-160.43C133.72,-150.97 123.51,-139.48 116.64,-131.75"/>
<polygon fill="midnightblue" stroke="midnightblue" points="139.68,-162.93 148.94,-168.08 144.91,-158.28 139.68,-162.93"/>
</g>
<!-- Node2&#45;&gt;Node4 -->
<g id="edge3" class="edge">
<title>Node2&#45;&gt;Node4</title>
<path fill="none" stroke="midnightblue" d="M127.41,-164.38C111.91,-156.68 93.39,-145.68 79.86,-132 63.07,-115.01 51.3,-88.86 46.01,-75.5"/>
<polygon fill="midnightblue" stroke="midnightblue" points="126.06,-167.61 136.59,-168.74 129.06,-161.29 126.06,-167.61"/>
</g>
<!-- Node5 -->
<g id="node5" class="node">
<title>Node5</title>
<g id="a_node5"><a xlink:href="os__scheduler_8c.html" target="_top" xlink:title="Scheduling module for the OS.">
<polygon fill="white" stroke="black" points="412.86,-0.5 412.86,-19.5 500.86,-19.5 500.86,-0.5 412.86,-0.5"/>
<text text-anchor="middle" x="456.86" y="-7.5" font-family="Helvetica,sans-Serif" font-size="10.00">os_scheduler.c</text>
</a>
</g>
</g>
<!-- Node2&#45;&gt;Node5 -->
<g id="edge4" class="edge">
<title>Node2&#45;&gt;Node5</title>
<path fill="none" stroke="midnightblue" d="M157.89,-157.99C159.62,-143.67 164.16,-124.43 175.86,-112 176.01,-111.85 365,-43.98 432.92,-19.6"/>
<polygon fill="midnightblue" stroke="midnightblue" points="154.38,-157.94 157.01,-168.21 161.35,-158.54 154.38,-157.94"/>
</g>
<!-- Node2&#45;&gt;Node6 -->
<g id="edge5" class="edge">
<title>Node2&#45;&gt;Node6</title>
<path fill="none" stroke="midnightblue" d="M171.9,-160.43C180.49,-150.97 190.91,-139.48 197.92,-131.75"/>
<polygon fill="midnightblue" stroke="midnightblue" points="169.08,-158.33 164.95,-168.08 174.27,-163.03 169.08,-158.33"/>
</g>
<!-- Node8&#45;&gt;Node7 -->
<g id="edge9" class="edge">
<title>Node8&#45;&gt;Node7</title>
<path fill="none" stroke="midnightblue" d="M424.7,-162.62C439.68,-152.76 459.06,-139.99 471.72,-131.65"/>
<polygon fill="midnightblue" stroke="midnightblue" points="422.46,-159.9 416.04,-168.32 426.31,-165.75 422.46,-159.9"/>
</g>
<!-- Node9 -->
<g id="node9" class="node">
<title>Node9</title>
<g id="a_node9"><a xlink:href="os__memheap__drivers_8h.html" target="_top" xlink:title="Drivers for OS heap management.">
<polygon fill="white" stroke="black" points="244.36,-112.5 244.36,-131.5 375.36,-131.5 375.36,-112.5 244.36,-112.5"/>
<text text-anchor="middle" x="309.86" y="-119.5" font-family="Helvetica,sans-Serif" font-size="10.00">os_memheap_drivers.h</text>
</a>
</g>
</g>
<!-- Node8&#45;&gt;Node9 -->
<g id="edge10" class="edge">
<title>Node8&#45;&gt;Node9</title>
<path fill="none" stroke="midnightblue" d="M379.06,-163.18C361.94,-153.24 339.4,-140.15 324.77,-131.65"/>
<polygon fill="midnightblue" stroke="midnightblue" points="377.52,-166.33 387.92,-168.32 381.03,-160.28 377.52,-166.33"/>
</g>
<!-- Node11 -->
<g id="node11" class="node">
<title>Node11</title>
<g id="a_node11"><a xlink:href="os__memory_8h.html" target="_top" xlink:title="Library for OS memory management.">
<polygon fill="white" stroke="black" points="361.86,-56.5 361.86,-75.5 443.86,-75.5 443.86,-56.5 361.86,-56.5"/>
<text text-anchor="middle" x="402.86" y="-63.5" font-family="Helvetica,sans-Serif" font-size="10.00">os_memory.h</text>
</a>
</g>
</g>
<!-- Node8&#45;&gt;Node11 -->
<g id="edge23" class="edge">
<title>Node8&#45;&gt;Node11</title>
<path fill="none" stroke="midnightblue" d="M402.86,-158.35C402.86,-134.25 402.86,-93.31 402.86,-75.59"/>
<polygon fill="midnightblue" stroke="midnightblue" points="399.36,-158.37 402.86,-168.37 406.36,-158.37 399.36,-158.37"/>
</g>
<!-- Node9&#45;&gt;Node4 -->
<g id="edge11" class="edge">
<title>Node9&#45;&gt;Node4</title>
<path fill="none" stroke="midnightblue" d="M257.72,-110.45C203.14,-99.42 119.24,-82.45 74.13,-73.32"/>
<polygon fill="midnightblue" stroke="midnightblue" points="257.06,-113.89 267.56,-112.44 258.45,-107.03 257.06,-113.89"/>
</g>
<!-- Node9&#45;&gt;Node5 -->
<g id="edge22" class="edge">
<title>Node9&#45;&gt;Node5</title>
<path fill="none" stroke="midnightblue" d="M318.16,-102.94C325.53,-88.59 337.51,-68.87 352.86,-56 373.82,-38.44 402.68,-26.68 424.69,-19.6"/>
<polygon fill="midnightblue" stroke="midnightblue" points="314.85,-101.74 313.63,-112.26 321.15,-104.8 314.85,-101.74"/>
</g>
<!-- Node9&#45;&gt;Node10 -->
<g id="edge12" class="edge">
<title>Node9&#45;&gt;Node10</title>
<path fill="none" stroke="midnightblue" d="M245.38,-110.66C198.96,-102.29 141.11,-89.68 120.86,-76 99.56,-61.6 84.93,-33.81 78.52,-19.69"/>
<polygon fill="midnightblue" stroke="midnightblue" points="244.94,-114.13 255.39,-112.43 246.16,-107.24 244.94,-114.13"/>
</g>
<!-- Node9&#45;&gt;Node11 -->
<g id="edge13" class="edge">
<title>Node9&#45;&gt;Node11</title>
<path fill="none" stroke="midnightblue" d="M333.67,-107.18C350.78,-97.24 373.33,-84.15 387.96,-75.65"/>
<polygon fill="midnightblue" stroke="midnightblue" points="331.7,-104.28 324.81,-112.32 335.21,-110.33 331.7,-104.28"/>
</g>
<!-- Node15 -->
<g id="node15" class="node">
<title>Node15</title>
<g id="a_node15"><a xlink:href="os__memory__strategies_8h.html" target="_top" xlink:title="Memory allocation library for the OS.">
<polygon fill="white" stroke="black" points="130.36,-56.5 130.36,-75.5 267.36,-75.5 267.36,-56.5 130.36,-56.5"/>
<text text-anchor="middle" x="198.86" y="-63.5" font-family="Helvetica,sans-Serif" font-size="10.00">os_memory_strategies.h</text>
</a>
</g>
</g>
<!-- Node9&#45;&gt;Node15 -->
<g id="edge18" class="edge">
<title>Node9&#45;&gt;Node15</title>
<path fill="none" stroke="midnightblue" d="M282.86,-107.86C262.28,-97.85 234.52,-84.35 216.65,-75.65"/>
<polygon fill="midnightblue" stroke="midnightblue" points="281.51,-111.1 292.03,-112.32 284.57,-104.8 281.51,-111.1"/>
</g>
<!-- Node11&#45;&gt;Node5 -->
<g id="edge16" class="edge">
<title>Node11&#45;&gt;Node5</title>
<path fill="none" stroke="midnightblue" d="M418.86,-49C428.43,-39.43 440.22,-27.64 448.11,-19.75"/>
<polygon fill="midnightblue" stroke="midnightblue" points="416.38,-46.54 411.78,-56.08 421.33,-51.49 416.38,-46.54"/>
</g>
<!-- Node12 -->
<g id="node12" class="node">
<title>Node12</title>
<g id="a_node12"><a xlink:href="os__memory_8c.html" target="_top" xlink:title=" ">
<polygon fill="white" stroke="black" points="158.36,-0.5 158.36,-19.5 239.36,-19.5 239.36,-0.5 158.36,-0.5"/>
<text text-anchor="middle" x="198.86" y="-7.5" font-family="Helvetica,sans-Serif" font-size="10.00">os_memory.c</text>
</a>
</g>
</g>
<!-- Node11&#45;&gt;Node12 -->
<g id="edge14" class="edge">
<title>Node11&#45;&gt;Node12</title>
<path fill="none" stroke="midnightblue" d="M360.66,-53.83C322.14,-43.63 266.04,-28.78 231.04,-19.52"/>
<polygon fill="midnightblue" stroke="midnightblue" points="359.98,-57.27 370.54,-56.44 361.77,-50.5 359.98,-57.27"/>
</g>
<!-- Node13 -->
<g id="node13" class="node">
<title>Node13</title>
<g id="a_node13"><a xlink:href="os__memory__strategies_8c.html" target="_top" xlink:title=" ">
<polygon fill="white" stroke="black" points="257.36,-0.5 257.36,-19.5 394.36,-19.5 394.36,-0.5 257.36,-0.5"/>
<text text-anchor="middle" x="325.86" y="-7.5" font-family="Helvetica,sans-Serif" font-size="10.00">os_memory_strategies.c</text>
</a>
</g>
</g>
<!-- Node11&#45;&gt;Node13 -->
<g id="edge15" class="edge">
<title>Node11&#45;&gt;Node13</title>
<path fill="none" stroke="midnightblue" d="M381.96,-50.34C367.95,-40.52 349.98,-27.91 338.2,-19.65"/>
<polygon fill="midnightblue" stroke="midnightblue" points="380.29,-53.45 390.49,-56.32 384.31,-47.72 380.29,-53.45"/>
</g>
<!-- Node11&#45;&gt;Node14 -->
<g id="edge17" class="edge">
<title>Node11&#45;&gt;Node14</title>
<path fill="none" stroke="midnightblue" d="M440.12,-53.44C472.93,-43.26 519.95,-28.66 549.42,-19.52"/>
<polygon fill="midnightblue" stroke="midnightblue" points="438.95,-50.14 430.43,-56.44 441.02,-56.82 438.95,-50.14"/>
</g>
<!-- Node15&#45;&gt;Node10 -->
<g id="edge19" class="edge">
<title>Node15&#45;&gt;Node10</title>
<path fill="none" stroke="midnightblue" d="M169.86,-52.37C146.63,-42.26 114.7,-28.35 94.42,-19.52"/>
<polygon fill="midnightblue" stroke="midnightblue" points="168.65,-55.66 179.22,-56.44 171.44,-49.24 168.65,-55.66"/>
</g>
<!-- Node15&#45;&gt;Node12 -->
<g id="edge20" class="edge">
<title>Node15&#45;&gt;Node12</title>
<path fill="none" stroke="midnightblue" d="M198.86,-45.8C198.86,-36.91 198.86,-26.78 198.86,-19.75"/>
<polygon fill="midnightblue" stroke="midnightblue" points="195.36,-46.08 198.86,-56.08 202.36,-46.08 195.36,-46.08"/>
</g>
<!-- Node15&#45;&gt;Node13 -->
<g id="edge21" class="edge">
<title>Node15&#45;&gt;Node13</title>
<path fill="none" stroke="midnightblue" d="M228.25,-52.5C252.06,-42.38 284.97,-28.39 305.83,-19.52"/>
<polygon fill="midnightblue" stroke="midnightblue" points="226.82,-49.31 218.99,-56.44 229.56,-55.75 226.82,-49.31"/>
</g>
<!-- Node16&#45;&gt;Node5 -->
<g id="edge27" class="edge">
<title>Node16&#45;&gt;Node5</title>
<path fill="none" stroke="midnightblue" d="M573.54,-107.76C557.79,-99.57 537.97,-88.29 521.86,-76 498.77,-58.39 475.66,-32.96 464.23,-19.74"/>
<polygon fill="midnightblue" stroke="midnightblue" points="572.26,-111.03 582.76,-112.44 575.43,-104.79 572.26,-111.03"/>
</g>
<!-- Node16&#45;&gt;Node11 -->
<g id="edge26" class="edge">
<title>Node16&#45;&gt;Node11</title>
<path fill="none" stroke="midnightblue" d="M559.42,-109.7C522.06,-99.51 467.92,-84.74 434.09,-75.52"/>
<polygon fill="midnightblue" stroke="midnightblue" points="558.92,-113.19 569.49,-112.44 560.76,-106.44 558.92,-113.19"/>
</g>
<!-- Node16&#45;&gt;Node14 -->
<g id="edge31" class="edge">
<title>Node16&#45;&gt;Node14</title>
<path fill="none" stroke="midnightblue" d="M566.2,-108.24C551.97,-101.08 536.95,-90.59 528.86,-76 516.83,-54.28 544.38,-31.52 562.53,-19.55"/>
<polygon fill="midnightblue" stroke="midnightblue" points="564.81,-111.45 575.36,-112.47 567.75,-105.1 564.81,-111.45"/>
</g>
<!-- Node16&#45;&gt;Node17 -->
<g id="edge28" class="edge">
<title>Node16&#45;&gt;Node17</title>
<path fill="none" stroke="midnightblue" d="M604.71,-102.1C606.54,-93.14 608.63,-82.86 610.08,-75.75"/>
<polygon fill="midnightblue" stroke="midnightblue" points="601.25,-101.59 602.68,-112.08 608.11,-102.98 601.25,-101.59"/>
</g>
<!-- Node17&#45;&gt;Node5 -->
<g id="edge29" class="edge">
<title>Node17&#45;&gt;Node5</title>
<path fill="none" stroke="midnightblue" d="M577.53,-53.04C548.37,-42.88 507.23,-28.55 481.31,-19.52"/>
<polygon fill="midnightblue" stroke="midnightblue" points="576.71,-56.46 587.3,-56.44 579.01,-49.85 576.71,-56.46"/>
</g>
<!-- Node17&#45;&gt;Node18 -->
<g id="edge30" class="edge">
<title>Node17&#45;&gt;Node18</title>
<path fill="none" stroke="midnightblue" d="M641.25,-52.5C665.06,-42.38 697.97,-28.39 718.83,-19.52"/>
<polygon fill="midnightblue" stroke="midnightblue" points="639.82,-49.31 631.99,-56.44 642.56,-55.75 639.82,-49.31"/>
</g>
</g>
</svg>
