<?xml version="1.0" encoding="UTF-8" standalone="no"?>
<!DOCTYPE svg PUBLIC "-//W3C//DTD SVG 1.1//EN"
 "http://www.w3.org/Graphics/SVG/1.1/DTD/svg11.dtd">
<!-- Generated by graphviz version 2.43.0 (0)
 -->
<!-- Title: os_memory.c Pages: 1 -->
<svg width="559pt" height="364pt"
 viewBox="0.00 0.00 559.00 364.00" xmlns="http://www.w3.org/2000/svg" xmlns:xlink="http://www.w3.org/1999/xlink">
<g id="graph0" class="graph" transform="scale(1 1) rotate(0) translate(4 360)">
<title>os_memory.c</title>
<polygon fill="white" stroke="transparent" points="-4,4 -4,-360 555,-360 555,4 -4,4"/>
<!-- Node1 -->
<g id="node1" class="node">
<title>Node1</title>
<g id="a_node1"><a xlink:title=" ">
<polygon fill="#bfbfbf" stroke="black" points="237,-336.5 237,-355.5 318,-355.5 318,-336.5 237,-336.5"/>
<text text-anchor="middle" x="277.5" y="-343.5" font-family="Helvetica,sans-Serif" font-size="10.00">os_memory.c</text>
</a>
</g>
</g>
<!-- Node2 -->
<g id="node2" class="node">
<title>Node2</title>
<g id="a_node2"><a xlink:href="os__memory_8h.html" target="_top" xlink:title="Library for OS memory management.">
<polygon fill="white" stroke="black" points="287.5,-280.5 287.5,-299.5 369.5,-299.5 369.5,-280.5 287.5,-280.5"/>
<text text-anchor="middle" x="328.5" y="-287.5" font-family="Helvetica,sans-Serif" font-size="10.00">os_memory.h</text>
</a>
</g>
</g>
<!-- Node1&#45;&gt;Node2 -->
<g id="edge1" class="edge">
<title>Node1&#45;&gt;Node2</title>
<path fill="none" stroke="midnightblue" d="M285.92,-336.08C293.35,-328.22 304.35,-316.57 313.31,-307.08"/>
<polygon fill="midnightblue" stroke="midnightblue" points="315.91,-309.42 320.24,-299.75 310.82,-304.62 315.91,-309.42"/>
</g>
<!-- Node14 -->
<g id="node14" class="node">
<title>Node14</title>
<g id="a_node14"><a xlink:href="os__core_8h.html" target="_top" xlink:title="Core of the OS.">
<polygon fill="white" stroke="black" points="191,-280.5 191,-299.5 254,-299.5 254,-280.5 191,-280.5"/>
<text text-anchor="middle" x="222.5" y="-287.5" font-family="Helvetica,sans-Serif" font-size="10.00">os_core.h</text>
</a>
</g>
</g>
<!-- Node1&#45;&gt;Node14 -->
<g id="edge16" class="edge">
<title>Node1&#45;&gt;Node14</title>
<path fill="none" stroke="midnightblue" d="M268.42,-336.08C260.33,-328.14 248.3,-316.34 238.59,-306.8"/>
<polygon fill="midnightblue" stroke="midnightblue" points="241,-304.26 231.41,-299.75 236.1,-309.25 241,-304.26"/>
</g>
<!-- Node16 -->
<g id="node16" class="node">
<title>Node16</title>
<g id="a_node16"><a xlink:href="os__memory__strategies_8h.html" target="_top" xlink:title="Memory allocation library for the OS.">
<polygon fill="white" stroke="black" points="407,-280.5 407,-299.5 544,-299.5 544,-280.5 407,-280.5"/>
<text text-anchor="middle" x="475.5" y="-287.5" font-family="Helvetica,sans-Serif" font-size="10.00">os_memory_strategies.h</text>
</a>
</g>
</g>
<!-- Node1&#45;&gt;Node16 -->
<g id="edge18" class="edge">
<title>Node1&#45;&gt;Node16</title>
<path fill="none" stroke="midnightblue" d="M308.87,-336.44C342.76,-327.2 396.9,-312.44 434.22,-302.26"/>
<polygon fill="midnightblue" stroke="midnightblue" points="435.55,-305.52 444.27,-299.52 433.7,-298.77 435.55,-305.52"/>
</g>
<!-- Node17 -->
<g id="node17" class="node">
<title>Node17</title>
<g id="a_node17"><a xlink:href="util_8h.html" target="_top" xlink:title="Little helpers that don&#39;t fit elsewhere.">
<polygon fill="white" stroke="black" points="129,-280.5 129,-299.5 170,-299.5 170,-280.5 129,-280.5"/>
<text text-anchor="middle" x="149.5" y="-287.5" font-family="Helvetica,sans-Serif" font-size="10.00">util.h</text>
</a>
</g>
</g>
<!-- Node1&#45;&gt;Node17 -->
<g id="edge20" class="edge">
<title>Node1&#45;&gt;Node17</title>
<path fill="none" stroke="midnightblue" d="M257.22,-336.44C236.15,-327.56 202.98,-313.56 179.01,-303.45"/>
<polygon fill="midnightblue" stroke="midnightblue" points="180.26,-300.18 169.69,-299.52 177.54,-306.63 180.26,-300.18"/>
</g>
<!-- Node3 -->
<g id="node3" class="node">
<title>Node3</title>
<g id="a_node3"><a xlink:href="os__mem__drivers_8h.html" target="_top" xlink:title="Drivers for OS memory management.">
<polygon fill="white" stroke="black" points="342,-168.5 342,-187.5 449,-187.5 449,-168.5 342,-168.5"/>
<text text-anchor="middle" x="395.5" y="-175.5" font-family="Helvetica,sans-Serif" font-size="10.00">os_mem_drivers.h</text>
</a>
</g>
</g>
<!-- Node2&#45;&gt;Node3 -->
<g id="edge2" class="edge">
<title>Node2&#45;&gt;Node3</title>
<path fill="none" stroke="midnightblue" d="M338.97,-280.31C348.56,-271.88 362.57,-258.3 371.5,-244 380.46,-229.65 386.82,-211.45 390.73,-197.96"/>
<polygon fill="midnightblue" stroke="midnightblue" points="394.21,-198.5 393.44,-187.93 387.45,-196.67 394.21,-198.5"/>
</g>
<!-- Node8 -->
<g id="node8" class="node">
<title>Node8</title>
<g id="a_node8"><a xlink:href="os__memheap__drivers_8h.html" target="_top" xlink:title="Drivers for OS heap management.">
<polygon fill="white" stroke="black" points="420,-224.5 420,-243.5 551,-243.5 551,-224.5 420,-224.5"/>
<text text-anchor="middle" x="485.5" y="-231.5" font-family="Helvetica,sans-Serif" font-size="10.00">os_memheap_drivers.h</text>
</a>
</g>
</g>
<!-- Node2&#45;&gt;Node8 -->
<g id="edge7" class="edge">
<title>Node2&#45;&gt;Node8</title>
<path fill="none" stroke="midnightblue" d="M353.38,-280.44C379.79,-271.36 421.72,-256.94 451.24,-246.78"/>
<polygon fill="midnightblue" stroke="midnightblue" points="452.42,-250.08 460.74,-243.52 450.14,-243.46 452.42,-250.08"/>
</g>
<!-- Node10 -->
<g id="node10" class="node">
<title>Node10</title>
<g id="a_node10"><a xlink:href="os__scheduler_8h.html" target="_top" xlink:title="Scheduling module for the OS.">
<polygon fill="white" stroke="black" points="274,-224.5 274,-243.5 363,-243.5 363,-224.5 274,-224.5"/>
<text text-anchor="middle" x="318.5" y="-231.5" font-family="Helvetica,sans-Serif" font-size="10.00">os_scheduler.h</text>
</a>
</g>
</g>
<!-- Node2&#45;&gt;Node10 -->
<g id="edge10" class="edge">
<title>Node2&#45;&gt;Node10</title>
<path fill="none" stroke="midnightblue" d="M326.85,-280.08C325.52,-272.93 323.62,-262.64 321.96,-253.69"/>
<polygon fill="midnightblue" stroke="midnightblue" points="325.38,-252.95 320.12,-243.75 318.5,-254.22 325.38,-252.95"/>
</g>
<!-- Node4 -->
<g id="node4" class="node">
<title>Node4</title>
<g id="a_node4"><a xlink:href="defines_8h.html" target="_top" xlink:title="Simple definitions and assembler&#45;macros, mostly 8/16&#45;Bit values.">
<polygon fill="white" stroke="black" points="283,-112.5 283,-131.5 344,-131.5 344,-112.5 283,-112.5"/>
<text text-anchor="middle" x="313.5" y="-119.5" font-family="Helvetica,sans-Serif" font-size="10.00">defines.h</text>
</a>
</g>
</g>
<!-- Node3&#45;&gt;Node4 -->
<g id="edge3" class="edge">
<title>Node3&#45;&gt;Node4</title>
<path fill="none" stroke="midnightblue" d="M382.33,-168.32C369.65,-159.98 350.27,-147.21 335.29,-137.35"/>
<polygon fill="midnightblue" stroke="midnightblue" points="336.92,-134.23 326.64,-131.65 333.07,-140.08 336.92,-134.23"/>
</g>
<!-- Node7 -->
<g id="node7" class="node">
<title>Node7</title>
<g id="a_node7"><a xlink:title=" ">
<polygon fill="white" stroke="#bfbfbf" points="363,-112.5 363,-131.5 428,-131.5 428,-112.5 363,-112.5"/>
<text text-anchor="middle" x="395.5" y="-119.5" font-family="Helvetica,sans-Serif" font-size="10.00">inttypes.h</text>
</a>
</g>
</g>
<!-- Node3&#45;&gt;Node7 -->
<g id="edge6" class="edge">
<title>Node3&#45;&gt;Node7</title>
<path fill="none" stroke="midnightblue" d="M395.5,-168.08C395.5,-161.01 395.5,-150.86 395.5,-141.99"/>
<polygon fill="midnightblue" stroke="midnightblue" points="399,-141.75 395.5,-131.75 392,-141.75 399,-141.75"/>
</g>
<!-- Node5 -->
<g id="node5" class="node">
<title>Node5</title>
<g id="a_node5"><a xlink:href="atmega644constants_8h.html" target="_top" xlink:title="Constants for ATMega644 and EVA board. Defines several useful constants for the ATMega644.">
<polygon fill="white" stroke="black" points="249.5,-56.5 249.5,-75.5 377.5,-75.5 377.5,-56.5 249.5,-56.5"/>
<text text-anchor="middle" x="313.5" y="-63.5" font-family="Helvetica,sans-Serif" font-size="10.00">atmega644constants.h</text>
</a>
</g>
</g>
<!-- Node4&#45;&gt;Node5 -->
<g id="edge4" class="edge">
<title>Node4&#45;&gt;Node5</title>
<path fill="none" stroke="midnightblue" d="M313.5,-112.08C313.5,-105.01 313.5,-94.86 313.5,-85.99"/>
<polygon fill="midnightblue" stroke="midnightblue" points="317,-85.75 313.5,-75.75 310,-85.75 317,-85.75"/>
</g>
<!-- Node6 -->
<g id="node6" class="node">
<title>Node6</title>
<g id="a_node6"><a xlink:title=" ">
<polygon fill="white" stroke="#bfbfbf" points="287,-0.5 287,-19.5 340,-19.5 340,-0.5 287,-0.5"/>
<text text-anchor="middle" x="313.5" y="-7.5" font-family="Helvetica,sans-Serif" font-size="10.00">avr/io.h</text>
</a>
</g>
</g>
<!-- Node5&#45;&gt;Node6 -->
<g id="edge5" class="edge">
<title>Node5&#45;&gt;Node6</title>
<path fill="none" stroke="midnightblue" d="M313.5,-56.08C313.5,-49.01 313.5,-38.86 313.5,-29.99"/>
<polygon fill="midnightblue" stroke="midnightblue" points="317,-29.75 313.5,-19.75 310,-29.75 317,-29.75"/>
</g>
<!-- Node8&#45;&gt;Node3 -->
<g id="edge8" class="edge">
<title>Node8&#45;&gt;Node3</title>
<path fill="none" stroke="midnightblue" d="M471.04,-224.32C457,-215.9 435.45,-202.97 418.96,-193.07"/>
<polygon fill="midnightblue" stroke="midnightblue" points="420.3,-189.8 409.92,-187.65 416.7,-195.8 420.3,-189.8"/>
</g>
<!-- Node9 -->
<g id="node9" class="node">
<title>Node9</title>
<g id="a_node9"><a xlink:title=" ">
<polygon fill="white" stroke="#bfbfbf" points="467.5,-168.5 467.5,-187.5 523.5,-187.5 523.5,-168.5 467.5,-168.5"/>
<text text-anchor="middle" x="495.5" y="-175.5" font-family="Helvetica,sans-Serif" font-size="10.00">stddef.h</text>
</a>
</g>
</g>
<!-- Node8&#45;&gt;Node9 -->
<g id="edge9" class="edge">
<title>Node8&#45;&gt;Node9</title>
<path fill="none" stroke="midnightblue" d="M487.15,-224.08C488.48,-216.93 490.38,-206.64 492.04,-197.69"/>
<polygon fill="midnightblue" stroke="midnightblue" points="495.5,-198.22 493.88,-187.75 488.62,-196.95 495.5,-198.22"/>
</g>
<!-- Node10&#45;&gt;Node4 -->
<g id="edge11" class="edge">
<title>Node10&#45;&gt;Node4</title>
<path fill="none" stroke="midnightblue" d="M318.11,-224.37C317.3,-206.62 315.44,-165.67 314.35,-141.6"/>
<polygon fill="midnightblue" stroke="midnightblue" points="317.84,-141.42 313.89,-131.59 310.85,-141.74 317.84,-141.42"/>
</g>
<!-- Node11 -->
<g id="node11" class="node">
<title>Node11</title>
<g id="a_node11"><a xlink:href="os__process_8h.html" target="_top" xlink:title="Struct specifying a process.">
<polygon fill="white" stroke="black" points="24.5,-168.5 24.5,-187.5 104.5,-187.5 104.5,-168.5 24.5,-168.5"/>
<text text-anchor="middle" x="64.5" y="-175.5" font-family="Helvetica,sans-Serif" font-size="10.00">os_process.h</text>
</a>
</g>
</g>
<!-- Node10&#45;&gt;Node11 -->
<g id="edge12" class="edge">
<title>Node10&#45;&gt;Node11</title>
<path fill="none" stroke="midnightblue" d="M278.25,-224.44C233.85,-215 162.35,-199.8 114.41,-189.61"/>
<polygon fill="midnightblue" stroke="midnightblue" points="115.07,-186.17 104.56,-187.52 113.61,-193.02 115.07,-186.17"/>
</g>
<!-- Node12 -->
<g id="node12" class="node">
<title>Node12</title>
<g id="a_node12"><a xlink:title=" ">
<polygon fill="white" stroke="#bfbfbf" points="101.5,-112.5 101.5,-131.5 163.5,-131.5 163.5,-112.5 101.5,-112.5"/>
<text text-anchor="middle" x="132.5" y="-119.5" font-family="Helvetica,sans-Serif" font-size="10.00">stdbool.h</text>
</a>
</g>
</g>
<!-- Node10&#45;&gt;Node12 -->
<g id="edge15" class="edge">
<title>Node10&#45;&gt;Node12</title>
<path fill="none" stroke="midnightblue" d="M303.9,-224.37C271.85,-205.41 195.06,-160 156.08,-136.94"/>
<polygon fill="midnightblue" stroke="midnightblue" points="157.42,-133.67 147.03,-131.59 153.85,-139.69 157.42,-133.67"/>
</g>
<!-- Node11&#45;&gt;Node12 -->
<g id="edge13" class="edge">
<title>Node11&#45;&gt;Node12</title>
<path fill="none" stroke="midnightblue" d="M75.43,-168.32C85.67,-160.18 101.22,-147.84 113.5,-138.09"/>
<polygon fill="midnightblue" stroke="midnightblue" points="115.72,-140.79 121.38,-131.83 111.37,-135.31 115.72,-140.79"/>
</g>
<!-- Node13 -->
<g id="node13" class="node">
<title>Node13</title>
<g id="a_node13"><a xlink:title=" ">
<polygon fill="white" stroke="#bfbfbf" points="0,-112.5 0,-131.5 53,-131.5 53,-112.5 0,-112.5"/>
<text text-anchor="middle" x="26.5" y="-119.5" font-family="Helvetica,sans-Serif" font-size="10.00">stdint.h</text>
</a>
</g>
</g>
<!-- Node11&#45;&gt;Node13 -->
<g id="edge14" class="edge">
<title>Node11&#45;&gt;Node13</title>
<path fill="none" stroke="midnightblue" d="M58.23,-168.08C52.86,-160.46 44.98,-149.26 38.42,-139.94"/>
<polygon fill="midnightblue" stroke="midnightblue" points="41.28,-137.91 32.66,-131.75 35.55,-141.94 41.28,-137.91"/>
</g>
<!-- Node15 -->
<g id="node15" class="node">
<title>Node15</title>
<g id="a_node15"><a xlink:title=" ">
<polygon fill="white" stroke="#bfbfbf" points="161,-224.5 161,-243.5 256,-243.5 256,-224.5 161,-224.5"/>
<text text-anchor="middle" x="208.5" y="-231.5" font-family="Helvetica,sans-Serif" font-size="10.00">avr/pgmspace.h</text>
</a>
</g>
</g>
<!-- Node14&#45;&gt;Node15 -->
<g id="edge17" class="edge">
<title>Node14&#45;&gt;Node15</title>
<path fill="none" stroke="midnightblue" d="M220.19,-280.08C218.33,-272.93 215.66,-262.64 213.35,-253.69"/>
<polygon fill="midnightblue" stroke="midnightblue" points="216.67,-252.55 210.77,-243.75 209.89,-254.31 216.67,-252.55"/>
</g>
<!-- Node16&#45;&gt;Node8 -->
<g id="edge19" class="edge">
<title>Node16&#45;&gt;Node8</title>
<path fill="none" stroke="midnightblue" d="M477.15,-280.08C478.48,-272.93 480.38,-262.64 482.04,-253.69"/>
<polygon fill="midnightblue" stroke="midnightblue" points="485.5,-254.22 483.88,-243.75 478.62,-252.95 485.5,-254.22"/>
</g>
<!-- Node17&#45;&gt;Node12 -->
<g id="edge22" class="edge">
<title>Node17&#45;&gt;Node12</title>
<path fill="none" stroke="midnightblue" d="M148.59,-280.08C145.91,-253.95 138.05,-177.21 134.4,-141.58"/>
<polygon fill="midnightblue" stroke="midnightblue" points="137.88,-141.16 133.38,-131.57 130.91,-141.87 137.88,-141.16"/>
</g>
<!-- Node17&#45;&gt;Node13 -->
<g id="edge23" class="edge">
<title>Node17&#45;&gt;Node13</title>
<path fill="none" stroke="midnightblue" d="M128.83,-280.68C97.54,-266.82 39.28,-235.71 15.5,-188 8.18,-173.31 12.51,-154.67 17.74,-141.13"/>
<polygon fill="midnightblue" stroke="midnightblue" points="20.97,-142.48 21.74,-131.91 14.55,-139.69 20.97,-142.48"/>
</g>
<!-- Node17&#45;&gt;Node15 -->
<g id="edge21" class="edge">
<title>Node17&#45;&gt;Node15</title>
<path fill="none" stroke="midnightblue" d="M158.98,-280.32C167.7,-272.34 180.84,-260.31 191.4,-250.65"/>
<polygon fill="midnightblue" stroke="midnightblue" points="193.83,-253.17 198.85,-243.83 189.11,-248 193.83,-253.17"/>
</g>
</g>
</svg>
