<?xml version="1.0" encoding="UTF-8" standalone="no"?>
<!DOCTYPE svg PUBLIC "-//W3C//DTD SVG 1.1//EN"
 "http://www.w3.org/Graphics/SVG/1.1/DTD/svg11.dtd">
<!-- Generated by graphviz version 2.43.0 (0)
 -->
<!-- Title: os_scheduler.c Pages: 1 -->
<svg width="904pt" height="364pt"
 viewBox="0.00 0.00 904.00 364.00" xmlns="http://www.w3.org/2000/svg" xmlns:xlink="http://www.w3.org/1999/xlink">
<g id="graph0" class="graph" transform="scale(1 1) rotate(0) translate(4 360)">
<title>os_scheduler.c</title>
<polygon fill="white" stroke="transparent" points="-4,4 -4,-360 900,-360 900,4 -4,4"/>
<!-- Node1 -->
<g id="node1" class="node">
<title>Node1</title>
<g id="a_node1"><a xlink:title="Scheduling module for the OS.">
<polygon fill="#bfbfbf" stroke="black" points="435.5,-336.5 435.5,-355.5 523.5,-355.5 523.5,-336.5 435.5,-336.5"/>
<text text-anchor="middle" x="479.5" y="-343.5" font-family="Helvetica,sans-Serif" font-size="10.00">os_scheduler.c</text>
</a>
</g>
</g>
<!-- Node2 -->
<g id="node2" class="node">
<title>Node2</title>
<g id="a_node2"><a xlink:href="os__scheduler_8h.html" target="_top" xlink:title="Scheduling module for the OS.">
<polygon fill="white" stroke="black" points="270,-224.5 270,-243.5 359,-243.5 359,-224.5 270,-224.5"/>
<text text-anchor="middle" x="314.5" y="-231.5" font-family="Helvetica,sans-Serif" font-size="10.00">os_scheduler.h</text>
</a>
</g>
</g>
<!-- Node1&#45;&gt;Node2 -->
<g id="edge1" class="edge">
<title>Node1&#45;&gt;Node2</title>
<path fill="none" stroke="midnightblue" d="M460.67,-336.35C443.03,-327.94 416.22,-314.38 394.5,-300 371.58,-284.83 347.37,-264.47 331.67,-250.61"/>
<polygon fill="midnightblue" stroke="midnightblue" points="333.67,-247.7 323.88,-243.65 329,-252.92 333.67,-247.7"/>
</g>
<!-- Node7 -->
<g id="node7" class="node">
<title>Node7</title>
<g id="a_node7"><a xlink:title=" ">
<polygon fill="white" stroke="#bfbfbf" points="443.5,-112.5 443.5,-131.5 505.5,-131.5 505.5,-112.5 443.5,-112.5"/>
<text text-anchor="middle" x="474.5" y="-119.5" font-family="Helvetica,sans-Serif" font-size="10.00">stdbool.h</text>
</a>
</g>
</g>
<!-- Node1&#45;&gt;Node7 -->
<g id="edge39" class="edge">
<title>Node1&#45;&gt;Node7</title>
<path fill="none" stroke="midnightblue" d="M463.77,-336.24C451.61,-328.48 435.69,-315.93 428.5,-300 403.42,-244.42 441.85,-172.62 462.62,-140.22"/>
<polygon fill="midnightblue" stroke="midnightblue" points="465.58,-142.09 468.18,-131.82 459.74,-138.23 465.58,-142.09"/>
</g>
<!-- Node9 -->
<g id="node9" class="node">
<title>Node9</title>
<g id="a_node9"><a xlink:href="lcd_8h.html" target="_top" xlink:title="Library for LCD use.">
<polygon fill="white" stroke="black" points="586.5,-224.5 586.5,-243.5 626.5,-243.5 626.5,-224.5 586.5,-224.5"/>
<text text-anchor="middle" x="606.5" y="-231.5" font-family="Helvetica,sans-Serif" font-size="10.00">lcd.h</text>
</a>
</g>
</g>
<!-- Node1&#45;&gt;Node9 -->
<g id="edge9" class="edge">
<title>Node1&#45;&gt;Node9</title>
<path fill="none" stroke="midnightblue" d="M489.47,-336.38C499.94,-327.32 516.88,-312.66 531.5,-300 551.06,-283.06 573.48,-263.62 588.68,-250.45"/>
<polygon fill="midnightblue" stroke="midnightblue" points="591.05,-253.03 596.31,-243.83 586.46,-247.74 591.05,-253.03"/>
</g>
<!-- Node12 -->
<g id="node12" class="node">
<title>Node12</title>
<g id="a_node12"><a xlink:href="util_8h.html" target="_top" xlink:title="Little helpers that don&#39;t fit elsewhere.">
<polygon fill="white" stroke="black" points="730,-168.5 730,-187.5 771,-187.5 771,-168.5 730,-168.5"/>
<text text-anchor="middle" x="750.5" y="-175.5" font-family="Helvetica,sans-Serif" font-size="10.00">util.h</text>
</a>
</g>
</g>
<!-- Node1&#45;&gt;Node12 -->
<g id="edge37" class="edge">
<title>Node1&#45;&gt;Node12</title>
<path fill="none" stroke="midnightblue" d="M494.34,-336.5C509.9,-327.54 535.03,-312.97 556.5,-300 619.2,-262.14 692.29,-216 728.23,-193.18"/>
<polygon fill="midnightblue" stroke="midnightblue" points="730.38,-195.96 736.94,-187.64 726.62,-190.05 730.38,-195.96"/>
</g>
<!-- Node13 -->
<g id="node13" class="node">
<title>Node13</title>
<g id="a_node13"><a xlink:href="os__core_8h.html" target="_top" xlink:title="Core of the OS.">
<polygon fill="white" stroke="black" points="833,-224.5 833,-243.5 896,-243.5 896,-224.5 833,-224.5"/>
<text text-anchor="middle" x="864.5" y="-231.5" font-family="Helvetica,sans-Serif" font-size="10.00">os_core.h</text>
</a>
</g>
</g>
<!-- Node1&#45;&gt;Node13 -->
<g id="edge19" class="edge">
<title>Node1&#45;&gt;Node13</title>
<path fill="none" stroke="midnightblue" d="M523.9,-338.32C568.75,-331.01 639.75,-317.9 699.5,-300 722.43,-293.13 727.24,-288.81 749.5,-280 777.76,-268.82 809.98,-256.22 833.11,-247.21"/>
<polygon fill="midnightblue" stroke="midnightblue" points="834.39,-250.47 842.43,-243.58 831.85,-243.95 834.39,-250.47"/>
</g>
<!-- Node14 -->
<g id="node14" class="node">
<title>Node14</title>
<g id="a_node14"><a xlink:href="os__input_8h.html" target="_top" xlink:title="Input library for the OS.">
<polygon fill="white" stroke="black" points="726,-224.5 726,-243.5 793,-243.5 793,-224.5 726,-224.5"/>
<text text-anchor="middle" x="759.5" y="-231.5" font-family="Helvetica,sans-Serif" font-size="10.00">os_input.h</text>
</a>
</g>
</g>
<!-- Node1&#45;&gt;Node14 -->
<g id="edge21" class="edge">
<title>Node1&#45;&gt;Node14</title>
<path fill="none" stroke="midnightblue" d="M523.85,-339.39C563.19,-333.27 621.53,-321.37 668.5,-300 696.75,-287.15 725.2,-265 742.58,-250.18"/>
<polygon fill="midnightblue" stroke="midnightblue" points="744.94,-252.77 750.18,-243.57 740.34,-247.49 744.94,-252.77"/>
</g>
<!-- Node15 -->
<g id="node15" class="node">
<title>Node15</title>
<g id="a_node15"><a xlink:href="os__memheap__drivers_8h.html" target="_top" xlink:title="Drivers for OS heap management.">
<polygon fill="white" stroke="black" points="0,-224.5 0,-243.5 131,-243.5 131,-224.5 0,-224.5"/>
<text text-anchor="middle" x="65.5" y="-231.5" font-family="Helvetica,sans-Serif" font-size="10.00">os_memheap_drivers.h</text>
</a>
</g>
</g>
<!-- Node1&#45;&gt;Node15 -->
<g id="edge23" class="edge">
<title>Node1&#45;&gt;Node15</title>
<path fill="none" stroke="midnightblue" d="M435.22,-342.69C337.7,-337.23 110.93,-322.26 84.5,-300 71.17,-288.77 66.91,-268.76 65.68,-253.89"/>
<polygon fill="midnightblue" stroke="midnightblue" points="69.17,-253.6 65.23,-243.76 62.18,-253.91 69.17,-253.6"/>
</g>
<!-- Node19 -->
<g id="node19" class="node">
<title>Node19</title>
<g id="a_node19"><a xlink:href="os__memory_8h.html" target="_top" xlink:title="Library for OS memory management.">
<polygon fill="white" stroke="black" points="93.5,-280.5 93.5,-299.5 175.5,-299.5 175.5,-280.5 93.5,-280.5"/>
<text text-anchor="middle" x="134.5" y="-287.5" font-family="Helvetica,sans-Serif" font-size="10.00">os_memory.h</text>
</a>
</g>
</g>
<!-- Node1&#45;&gt;Node19 -->
<g id="edge28" class="edge">
<title>Node1&#45;&gt;Node19</title>
<path fill="none" stroke="midnightblue" d="M435.12,-338.53C379.48,-330.35 280.93,-315.61 185.77,-300.01"/>
<polygon fill="midnightblue" stroke="midnightblue" points="186.12,-296.52 175.68,-298.35 184.98,-303.43 186.12,-296.52"/>
</g>
<!-- Node20 -->
<g id="node20" class="node">
<title>Node20</title>
<g id="a_node20"><a xlink:href="os__scheduling__strategies_8h.html" target="_top" xlink:title="Scheduling library for the OS.">
<polygon fill="white" stroke="black" points="194,-280.5 194,-299.5 343,-299.5 343,-280.5 194,-280.5"/>
<text text-anchor="middle" x="268.5" y="-287.5" font-family="Helvetica,sans-Serif" font-size="10.00">os_scheduling_strategies.h</text>
</a>
</g>
</g>
<!-- Node1&#45;&gt;Node20 -->
<g id="edge32" class="edge">
<title>Node1&#45;&gt;Node20</title>
<path fill="none" stroke="midnightblue" d="M446.07,-336.44C409.64,-327.12 351.27,-312.18 311.47,-302"/>
<polygon fill="midnightblue" stroke="midnightblue" points="312.33,-298.61 301.78,-299.52 310.6,-305.39 312.33,-298.61"/>
</g>
<!-- Node21 -->
<g id="node21" class="node">
<title>Node21</title>
<g id="a_node21"><a xlink:href="os__taskman_8h.html" target="_top" xlink:title="TaskManager library for the OS.">
<polygon fill="white" stroke="black" points="437,-280.5 437,-299.5 522,-299.5 522,-280.5 437,-280.5"/>
<text text-anchor="middle" x="479.5" y="-287.5" font-family="Helvetica,sans-Serif" font-size="10.00">os_taskman.h</text>
</a>
</g>
</g>
<!-- Node1&#45;&gt;Node21 -->
<g id="edge35" class="edge">
<title>Node1&#45;&gt;Node21</title>
<path fill="none" stroke="midnightblue" d="M479.5,-336.08C479.5,-329.01 479.5,-318.86 479.5,-309.99"/>
<polygon fill="midnightblue" stroke="midnightblue" points="483,-309.75 479.5,-299.75 476,-309.75 483,-309.75"/>
</g>
<!-- Node22 -->
<g id="node22" class="node">
<title>Node22</title>
<g id="a_node22"><a xlink:title=" ">
<polygon fill="white" stroke="#bfbfbf" points="758.5,-280.5 758.5,-299.5 844.5,-299.5 844.5,-280.5 758.5,-280.5"/>
<text text-anchor="middle" x="801.5" y="-287.5" font-family="Helvetica,sans-Serif" font-size="10.00">avr/interrupt.h</text>
</a>
</g>
</g>
<!-- Node1&#45;&gt;Node22 -->
<g id="edge38" class="edge">
<title>Node1&#45;&gt;Node22</title>
<path fill="none" stroke="midnightblue" d="M523.6,-337.6C582.17,-327.78 685.53,-310.45 748.35,-299.91"/>
<polygon fill="midnightblue" stroke="midnightblue" points="749.16,-303.33 758.45,-298.22 748.01,-296.42 749.16,-303.33"/>
</g>
<!-- Node3 -->
<g id="node3" class="node">
<title>Node3</title>
<g id="a_node3"><a xlink:href="defines_8h.html" target="_top" xlink:title="Simple definitions and assembler&#45;macros, mostly 8/16&#45;Bit values.">
<polygon fill="white" stroke="black" points="238,-112.5 238,-131.5 299,-131.5 299,-112.5 238,-112.5"/>
<text text-anchor="middle" x="268.5" y="-119.5" font-family="Helvetica,sans-Serif" font-size="10.00">defines.h</text>
</a>
</g>
</g>
<!-- Node2&#45;&gt;Node3 -->
<g id="edge2" class="edge">
<title>Node2&#45;&gt;Node3</title>
<path fill="none" stroke="midnightblue" d="M310.89,-224.37C303.4,-206.46 286.03,-164.92 276.01,-140.95"/>
<polygon fill="midnightblue" stroke="midnightblue" points="279.18,-139.47 272.09,-131.59 272.72,-142.17 279.18,-139.47"/>
</g>
<!-- Node6 -->
<g id="node6" class="node">
<title>Node6</title>
<g id="a_node6"><a xlink:href="os__process_8h.html" target="_top" xlink:title="Struct specifying a process.">
<polygon fill="white" stroke="black" points="487.5,-168.5 487.5,-187.5 567.5,-187.5 567.5,-168.5 487.5,-168.5"/>
<text text-anchor="middle" x="527.5" y="-175.5" font-family="Helvetica,sans-Serif" font-size="10.00">os_process.h</text>
</a>
</g>
</g>
<!-- Node2&#45;&gt;Node6 -->
<g id="edge5" class="edge">
<title>Node2&#45;&gt;Node6</title>
<path fill="none" stroke="midnightblue" d="M348.25,-224.44C385.02,-215.12 443.95,-200.18 484.12,-190"/>
<polygon fill="midnightblue" stroke="midnightblue" points="485.07,-193.37 493.91,-187.52 483.35,-186.58 485.07,-193.37"/>
</g>
<!-- Node2&#45;&gt;Node7 -->
<g id="edge8" class="edge">
<title>Node2&#45;&gt;Node7</title>
<path fill="none" stroke="midnightblue" d="M319.91,-224.3C328.79,-210.68 347.63,-184.17 369.5,-168 389.32,-153.34 414.65,-142.31 435.47,-134.84"/>
<polygon fill="midnightblue" stroke="midnightblue" points="436.67,-138.12 444.98,-131.55 434.38,-131.51 436.67,-138.12"/>
</g>
<!-- Node4 -->
<g id="node4" class="node">
<title>Node4</title>
<g id="a_node4"><a xlink:href="atmega644constants_8h.html" target="_top" xlink:title="Constants for ATMega644 and EVA board. Defines several useful constants for the ATMega644.">
<polygon fill="white" stroke="black" points="204.5,-56.5 204.5,-75.5 332.5,-75.5 332.5,-56.5 204.5,-56.5"/>
<text text-anchor="middle" x="268.5" y="-63.5" font-family="Helvetica,sans-Serif" font-size="10.00">atmega644constants.h</text>
</a>
</g>
</g>
<!-- Node3&#45;&gt;Node4 -->
<g id="edge3" class="edge">
<title>Node3&#45;&gt;Node4</title>
<path fill="none" stroke="midnightblue" d="M268.5,-112.08C268.5,-105.01 268.5,-94.86 268.5,-85.99"/>
<polygon fill="midnightblue" stroke="midnightblue" points="272,-85.75 268.5,-75.75 265,-85.75 272,-85.75"/>
</g>
<!-- Node5 -->
<g id="node5" class="node">
<title>Node5</title>
<g id="a_node5"><a xlink:title=" ">
<polygon fill="white" stroke="#bfbfbf" points="242,-0.5 242,-19.5 295,-19.5 295,-0.5 242,-0.5"/>
<text text-anchor="middle" x="268.5" y="-7.5" font-family="Helvetica,sans-Serif" font-size="10.00">avr/io.h</text>
</a>
</g>
</g>
<!-- Node4&#45;&gt;Node5 -->
<g id="edge4" class="edge">
<title>Node4&#45;&gt;Node5</title>
<path fill="none" stroke="midnightblue" d="M268.5,-56.08C268.5,-49.01 268.5,-38.86 268.5,-29.99"/>
<polygon fill="midnightblue" stroke="midnightblue" points="272,-29.75 268.5,-19.75 265,-29.75 272,-29.75"/>
</g>
<!-- Node6&#45;&gt;Node7 -->
<g id="edge6" class="edge">
<title>Node6&#45;&gt;Node7</title>
<path fill="none" stroke="midnightblue" d="M518.75,-168.08C511.03,-160.22 499.6,-148.57 490.28,-139.08"/>
<polygon fill="midnightblue" stroke="midnightblue" points="492.59,-136.44 483.09,-131.75 487.6,-141.34 492.59,-136.44"/>
</g>
<!-- Node8 -->
<g id="node8" class="node">
<title>Node8</title>
<g id="a_node8"><a xlink:title=" ">
<polygon fill="white" stroke="#bfbfbf" points="678,-112.5 678,-131.5 731,-131.5 731,-112.5 678,-112.5"/>
<text text-anchor="middle" x="704.5" y="-119.5" font-family="Helvetica,sans-Serif" font-size="10.00">stdint.h</text>
</a>
</g>
</g>
<!-- Node6&#45;&gt;Node8 -->
<g id="edge7" class="edge">
<title>Node6&#45;&gt;Node8</title>
<path fill="none" stroke="midnightblue" d="M555.55,-168.44C585.94,-159.17 634.54,-144.34 667.91,-134.16"/>
<polygon fill="midnightblue" stroke="midnightblue" points="669.2,-137.43 677.74,-131.16 667.16,-130.73 669.2,-137.43"/>
</g>
<!-- Node9&#45;&gt;Node3 -->
<g id="edge14" class="edge">
<title>Node9&#45;&gt;Node3</title>
<path fill="none" stroke="midnightblue" d="M586.37,-226.45C530.97,-208.42 375.66,-157.87 304.7,-134.78"/>
<polygon fill="midnightblue" stroke="midnightblue" points="305.45,-131.35 294.86,-131.58 303.29,-138 305.45,-131.35"/>
</g>
<!-- Node9&#45;&gt;Node7 -->
<g id="edge11" class="edge">
<title>Node9&#45;&gt;Node7</title>
<path fill="none" stroke="midnightblue" d="M604.59,-224.27C601.17,-210.6 592.81,-184.03 576.5,-168 559.66,-151.44 535.7,-140.44 515.23,-133.47"/>
<polygon fill="midnightblue" stroke="midnightblue" points="516.1,-130.07 505.51,-130.36 513.97,-136.74 516.1,-130.07"/>
</g>
<!-- Node9&#45;&gt;Node8 -->
<g id="edge12" class="edge">
<title>Node9&#45;&gt;Node8</title>
<path fill="none" stroke="midnightblue" d="M626.67,-225.72C643.78,-218.57 667.82,-206.1 682.5,-188 693.28,-174.71 698.88,-155.88 701.73,-141.9"/>
<polygon fill="midnightblue" stroke="midnightblue" points="705.2,-142.38 703.47,-131.93 698.3,-141.18 705.2,-142.38"/>
</g>
<!-- Node10 -->
<g id="node10" class="node">
<title>Node10</title>
<g id="a_node10"><a xlink:title=" ">
<polygon fill="white" stroke="#bfbfbf" points="752,-112.5 752,-131.5 847,-131.5 847,-112.5 752,-112.5"/>
<text text-anchor="middle" x="799.5" y="-119.5" font-family="Helvetica,sans-Serif" font-size="10.00">avr/pgmspace.h</text>
</a>
</g>
</g>
<!-- Node9&#45;&gt;Node10 -->
<g id="edge10" class="edge">
<title>Node9&#45;&gt;Node10</title>
<path fill="none" stroke="midnightblue" d="M626.74,-233.8C662.7,-234.06 737.93,-229.26 780.5,-188 792.89,-175.99 797.32,-156.39 798.84,-141.84"/>
<polygon fill="midnightblue" stroke="midnightblue" points="802.36,-141.72 799.54,-131.51 795.37,-141.25 802.36,-141.72"/>
</g>
<!-- Node11 -->
<g id="node11" class="node">
<title>Node11</title>
<g id="a_node11"><a xlink:title=" ">
<polygon fill="white" stroke="#bfbfbf" points="623.5,-168.5 623.5,-187.5 673.5,-187.5 673.5,-168.5 623.5,-168.5"/>
<text text-anchor="middle" x="648.5" y="-175.5" font-family="Helvetica,sans-Serif" font-size="10.00">stdio.h</text>
</a>
</g>
</g>
<!-- Node9&#45;&gt;Node11 -->
<g id="edge13" class="edge">
<title>Node9&#45;&gt;Node11</title>
<path fill="none" stroke="midnightblue" d="M613.44,-224.08C619.43,-216.38 628.25,-205.03 635.55,-195.65"/>
<polygon fill="midnightblue" stroke="midnightblue" points="638.32,-197.79 641.69,-187.75 632.79,-193.5 638.32,-197.79"/>
</g>
<!-- Node9&#45;&gt;Node12 -->
<g id="edge15" class="edge">
<title>Node9&#45;&gt;Node12</title>
<path fill="none" stroke="midnightblue" d="M626.52,-225.49C650.86,-216.37 692.15,-200.88 720.34,-190.31"/>
<polygon fill="midnightblue" stroke="midnightblue" points="721.58,-193.58 729.71,-186.79 719.12,-187.03 721.58,-193.58"/>
</g>
<!-- Node12&#45;&gt;Node7 -->
<g id="edge17" class="edge">
<title>Node12&#45;&gt;Node7</title>
<path fill="none" stroke="midnightblue" d="M729.76,-172.94C684.37,-164.06 575.53,-142.77 515.68,-131.06"/>
<polygon fill="midnightblue" stroke="midnightblue" points="516.29,-127.61 505.8,-129.12 514.94,-134.48 516.29,-127.61"/>
</g>
<!-- Node12&#45;&gt;Node8 -->
<g id="edge18" class="edge">
<title>Node12&#45;&gt;Node8</title>
<path fill="none" stroke="midnightblue" d="M742.9,-168.08C736.27,-160.3 726.48,-148.8 718.44,-139.37"/>
<polygon fill="midnightblue" stroke="midnightblue" points="721.1,-137.09 711.95,-131.75 715.77,-141.63 721.1,-137.09"/>
</g>
<!-- Node12&#45;&gt;Node10 -->
<g id="edge16" class="edge">
<title>Node12&#45;&gt;Node10</title>
<path fill="none" stroke="midnightblue" d="M758.59,-168.08C765.66,-160.3 776.09,-148.8 784.65,-139.37"/>
<polygon fill="midnightblue" stroke="midnightblue" points="787.43,-141.51 791.56,-131.75 782.25,-136.8 787.43,-141.51"/>
</g>
<!-- Node13&#45;&gt;Node10 -->
<g id="edge20" class="edge">
<title>Node13&#45;&gt;Node10</title>
<path fill="none" stroke="midnightblue" d="M859.4,-224.37C848.72,-206.3 823.83,-164.18 809.73,-140.31"/>
<polygon fill="midnightblue" stroke="midnightblue" points="812.68,-138.42 804.58,-131.59 806.65,-141.98 812.68,-138.42"/>
</g>
<!-- Node14&#45;&gt;Node8 -->
<g id="edge22" class="edge">
<title>Node14&#45;&gt;Node8</title>
<path fill="none" stroke="midnightblue" d="M766.75,-224.12C776.39,-211.15 791.07,-186.54 780.5,-168 771.82,-152.78 755.75,-142.18 740.61,-135.11"/>
<polygon fill="midnightblue" stroke="midnightblue" points="741.95,-131.87 731.38,-131.15 739.19,-138.31 741.95,-131.87"/>
</g>
<!-- Node16 -->
<g id="node16" class="node">
<title>Node16</title>
<g id="a_node16"><a xlink:href="os__mem__drivers_8h.html" target="_top" xlink:title="Drivers for OS memory management.">
<polygon fill="white" stroke="black" points="106,-168.5 106,-187.5 213,-187.5 213,-168.5 106,-168.5"/>
<text text-anchor="middle" x="159.5" y="-175.5" font-family="Helvetica,sans-Serif" font-size="10.00">os_mem_drivers.h</text>
</a>
</g>
</g>
<!-- Node15&#45;&gt;Node16 -->
<g id="edge24" class="edge">
<title>Node15&#45;&gt;Node16</title>
<path fill="none" stroke="midnightblue" d="M80.6,-224.32C95.4,-215.82 118.19,-202.73 135.48,-192.8"/>
<polygon fill="midnightblue" stroke="midnightblue" points="137.51,-195.67 144.43,-187.65 134.02,-189.6 137.51,-195.67"/>
</g>
<!-- Node18 -->
<g id="node18" class="node">
<title>Node18</title>
<g id="a_node18"><a xlink:title=" ">
<polygon fill="white" stroke="#bfbfbf" points="31.5,-168.5 31.5,-187.5 87.5,-187.5 87.5,-168.5 31.5,-168.5"/>
<text text-anchor="middle" x="59.5" y="-175.5" font-family="Helvetica,sans-Serif" font-size="10.00">stddef.h</text>
</a>
</g>
</g>
<!-- Node15&#45;&gt;Node18 -->
<g id="edge27" class="edge">
<title>Node15&#45;&gt;Node18</title>
<path fill="none" stroke="midnightblue" d="M64.51,-224.08C63.71,-216.93 62.57,-206.64 61.58,-197.69"/>
<polygon fill="midnightblue" stroke="midnightblue" points="65.06,-197.3 60.47,-187.75 58.1,-198.08 65.06,-197.3"/>
</g>
<!-- Node16&#45;&gt;Node3 -->
<g id="edge25" class="edge">
<title>Node16&#45;&gt;Node3</title>
<path fill="none" stroke="midnightblue" d="M177.01,-168.32C194.57,-159.62 221.83,-146.12 242.03,-136.11"/>
<polygon fill="midnightblue" stroke="midnightblue" points="243.62,-139.23 251.03,-131.65 240.52,-132.96 243.62,-139.23"/>
</g>
<!-- Node17 -->
<g id="node17" class="node">
<title>Node17</title>
<g id="a_node17"><a xlink:title=" ">
<polygon fill="white" stroke="#bfbfbf" points="127,-112.5 127,-131.5 192,-131.5 192,-112.5 127,-112.5"/>
<text text-anchor="middle" x="159.5" y="-119.5" font-family="Helvetica,sans-Serif" font-size="10.00">inttypes.h</text>
</a>
</g>
</g>
<!-- Node16&#45;&gt;Node17 -->
<g id="edge26" class="edge">
<title>Node16&#45;&gt;Node17</title>
<path fill="none" stroke="midnightblue" d="M159.5,-168.08C159.5,-161.01 159.5,-150.86 159.5,-141.99"/>
<polygon fill="midnightblue" stroke="midnightblue" points="163,-141.75 159.5,-131.75 156,-141.75 163,-141.75"/>
</g>
<!-- Node19&#45;&gt;Node2 -->
<g id="edge31" class="edge">
<title>Node19&#45;&gt;Node2</title>
<path fill="none" stroke="midnightblue" d="M163.02,-280.44C193.57,-271.28 242.21,-256.69 276.1,-246.52"/>
<polygon fill="midnightblue" stroke="midnightblue" points="277.54,-249.74 286.11,-243.52 275.53,-243.04 277.54,-249.74"/>
</g>
<!-- Node19&#45;&gt;Node15 -->
<g id="edge30" class="edge">
<title>Node19&#45;&gt;Node15</title>
<path fill="none" stroke="midnightblue" d="M123.41,-280.32C113.01,-272.18 97.24,-259.84 84.78,-250.09"/>
<polygon fill="midnightblue" stroke="midnightblue" points="86.82,-247.24 76.79,-243.83 82.51,-252.75 86.82,-247.24"/>
</g>
<!-- Node19&#45;&gt;Node16 -->
<g id="edge29" class="edge">
<title>Node19&#45;&gt;Node16</title>
<path fill="none" stroke="midnightblue" d="M136.46,-280.37C140.5,-262.62 149.8,-221.67 155.27,-197.6"/>
<polygon fill="midnightblue" stroke="midnightblue" points="158.74,-198.12 157.55,-187.59 151.92,-196.57 158.74,-198.12"/>
</g>
<!-- Node20&#45;&gt;Node2 -->
<g id="edge34" class="edge">
<title>Node20&#45;&gt;Node2</title>
<path fill="none" stroke="midnightblue" d="M276.1,-280.08C282.73,-272.3 292.52,-260.8 300.56,-251.37"/>
<polygon fill="midnightblue" stroke="midnightblue" points="303.23,-253.63 307.05,-243.75 297.9,-249.09 303.23,-253.63"/>
</g>
<!-- Node20&#45;&gt;Node3 -->
<g id="edge33" class="edge">
<title>Node20&#45;&gt;Node3</title>
<path fill="none" stroke="midnightblue" d="M266.76,-280.42C265.03,-271.4 262.49,-256.77 261.5,-244 258.7,-207.76 262.86,-165.34 265.87,-141.57"/>
<polygon fill="midnightblue" stroke="midnightblue" points="269.36,-141.89 267.22,-131.52 262.42,-140.96 269.36,-141.89"/>
</g>
<!-- Node21&#45;&gt;Node7 -->
<g id="edge36" class="edge">
<title>Node21&#45;&gt;Node7</title>
<path fill="none" stroke="midnightblue" d="M479.23,-280.08C478.44,-253.95 476.13,-177.21 475.06,-141.58"/>
<polygon fill="midnightblue" stroke="midnightblue" points="478.56,-141.46 474.76,-131.57 471.56,-141.67 478.56,-141.46"/>
</g>
</g>
</svg>
