<?xml version="1.0" encoding="UTF-8" standalone="no"?>
<!DOCTYPE svg PUBLIC "-//W3C//DTD SVG 1.1//EN"
 "http://www.w3.org/Graphics/SVG/1.1/DTD/svg11.dtd">
<!-- Generated by graphviz version 2.43.0 (0)
 -->
<!-- Title: util.h Pages: 1 -->
<svg width="338pt" height="140pt"
 viewBox="0.00 0.00 338.00 140.00" xmlns="http://www.w3.org/2000/svg" xmlns:xlink="http://www.w3.org/1999/xlink">
<g id="graph0" class="graph" transform="scale(1 1) rotate(0) translate(4 136)">
<title>util.h</title>
<polygon fill="white" stroke="transparent" points="-4,4 -4,-136 334,-136 334,4 -4,4"/>
<!-- Node1 -->
<g id="node1" class="node">
<title>Node1</title>
<g id="a_node1"><a xlink:title="Little helpers that don&#39;t fit elsewhere.">
<polygon fill="#bfbfbf" stroke="black" points="138,-112.5 138,-131.5 179,-131.5 179,-112.5 138,-112.5"/>
<text text-anchor="middle" x="158.5" y="-119.5" font-family="Helvetica,sans-Serif" font-size="10.00">util.h</text>
</a>
</g>
</g>
<!-- Node2 -->
<g id="node2" class="node">
<title>Node2</title>
<g id="a_node2"><a xlink:href="lcd_8c.html" target="_top" xlink:title="Library for LCD use.">
<polygon fill="white" stroke="black" points="0,-0.5 0,-19.5 39,-19.5 39,-0.5 0,-0.5"/>
<text text-anchor="middle" x="19.5" y="-7.5" font-family="Helvetica,sans-Serif" font-size="10.00">lcd.c</text>
</a>
</g>
</g>
<!-- Node1&#45;&gt;Node2 -->
<g id="edge1" class="edge">
<title>Node1&#45;&gt;Node2</title>
<path fill="none" stroke="midnightblue" d="M135.98,-106.68C122.98,-98.17 106.49,-86.92 92.5,-76 68.43,-57.2 42.12,-32.7 28.62,-19.81"/>
<polygon fill="midnightblue" stroke="midnightblue" points="134.44,-109.86 144.74,-112.36 138.25,-103.98 134.44,-109.86"/>
</g>
<!-- Node3 -->
<g id="node3" class="node">
<title>Node3</title>
<g id="a_node3"><a xlink:href="lcd_8h.html" target="_top" xlink:title="Library for LCD use.">
<polygon fill="white" stroke="black" points="114.5,-56.5 114.5,-75.5 154.5,-75.5 154.5,-56.5 114.5,-56.5"/>
<text text-anchor="middle" x="134.5" y="-63.5" font-family="Helvetica,sans-Serif" font-size="10.00">lcd.h</text>
</a>
</g>
</g>
<!-- Node1&#45;&gt;Node3 -->
<g id="edge2" class="edge">
<title>Node1&#45;&gt;Node3</title>
<path fill="none" stroke="midnightblue" d="M150.36,-102.69C146.32,-93.59 141.62,-83.01 138.39,-75.75"/>
<polygon fill="midnightblue" stroke="midnightblue" points="147.28,-104.37 154.54,-112.08 153.67,-101.52 147.28,-104.37"/>
</g>
<!-- Node4 -->
<g id="node4" class="node">
<title>Node4</title>
<g id="a_node4"><a xlink:href="os__core_8c.html" target="_top" xlink:title=" ">
<polygon fill="white" stroke="black" points="57.5,-0.5 57.5,-19.5 119.5,-19.5 119.5,-0.5 57.5,-0.5"/>
<text text-anchor="middle" x="88.5" y="-7.5" font-family="Helvetica,sans-Serif" font-size="10.00">os_core.c</text>
</a>
</g>
</g>
<!-- Node1&#45;&gt;Node4 -->
<g id="edge7" class="edge">
<title>Node1&#45;&gt;Node4</title>
<path fill="none" stroke="midnightblue" d="M135.71,-106.53C125.09,-98.69 113.13,-88.13 105.5,-76 94.2,-58.03 90.37,-32.76 89.11,-19.65"/>
<polygon fill="midnightblue" stroke="midnightblue" points="134,-109.6 144.2,-112.44 138,-103.86 134,-109.6"/>
</g>
<!-- Node5 -->
<g id="node5" class="node">
<title>Node5</title>
<g id="a_node5"><a xlink:href="os__scheduler_8c.html" target="_top" xlink:title="Scheduling module for the OS.">
<polygon fill="white" stroke="black" points="137.5,-0.5 137.5,-19.5 225.5,-19.5 225.5,-0.5 137.5,-0.5"/>
<text text-anchor="middle" x="181.5" y="-7.5" font-family="Helvetica,sans-Serif" font-size="10.00">os_scheduler.c</text>
</a>
</g>
</g>
<!-- Node1&#45;&gt;Node5 -->
<g id="edge9" class="edge">
<title>Node1&#45;&gt;Node5</title>
<path fill="none" stroke="midnightblue" d="M162.4,-102.35C167.44,-78.25 176,-37.31 179.7,-19.59"/>
<polygon fill="midnightblue" stroke="midnightblue" points="158.93,-101.86 160.3,-112.37 165.78,-103.3 158.93,-101.86"/>
</g>
<!-- Node6 -->
<g id="node6" class="node">
<title>Node6</title>
<g id="a_node6"><a xlink:href="util_8c.html" target="_top" xlink:title=" ">
<polygon fill="white" stroke="black" points="244,-0.5 244,-19.5 285,-19.5 285,-0.5 244,-0.5"/>
<text text-anchor="middle" x="264.5" y="-7.5" font-family="Helvetica,sans-Serif" font-size="10.00">util.c</text>
</a>
</g>
</g>
<!-- Node1&#45;&gt;Node6 -->
<g id="edge10" class="edge">
<title>Node1&#45;&gt;Node6</title>
<path fill="none" stroke="midnightblue" d="M174.02,-104.9C196.81,-81.25 238.53,-37.95 256.22,-19.59"/>
<polygon fill="midnightblue" stroke="midnightblue" points="171.24,-102.74 166.82,-112.37 176.28,-107.6 171.24,-102.74"/>
</g>
<!-- Node7 -->
<g id="node7" class="node">
<title>Node7</title>
<g id="a_node7"><a xlink:href="os__memory_8c.html" target="_top" xlink:title=" ">
<polygon fill="white" stroke="black" points="249,-56.5 249,-75.5 330,-75.5 330,-56.5 249,-56.5"/>
<text text-anchor="middle" x="289.5" y="-63.5" font-family="Helvetica,sans-Serif" font-size="10.00">os_memory.c</text>
</a>
</g>
</g>
<!-- Node1&#45;&gt;Node7 -->
<g id="edge8" class="edge">
<title>Node1&#45;&gt;Node7</title>
<path fill="none" stroke="midnightblue" d="M188.82,-108.5C213.38,-98.38 247.32,-84.39 268.84,-75.52"/>
<polygon fill="midnightblue" stroke="midnightblue" points="187.17,-105.4 179.26,-112.44 189.84,-111.87 187.17,-105.4"/>
</g>
<!-- Node3&#45;&gt;Node2 -->
<g id="edge3" class="edge">
<title>Node3&#45;&gt;Node2</title>
<path fill="none" stroke="midnightblue" d="M107.02,-52.1C85.53,-42.01 56.28,-28.27 37.64,-19.52"/>
<polygon fill="midnightblue" stroke="midnightblue" points="105.74,-55.36 116.28,-56.44 108.71,-49.02 105.74,-55.36"/>
</g>
<!-- Node3&#45;&gt;Node4 -->
<g id="edge4" class="edge">
<title>Node3&#45;&gt;Node4</title>
<path fill="none" stroke="midnightblue" d="M120.39,-48.43C112.32,-38.97 102.54,-27.48 95.95,-19.75"/>
<polygon fill="midnightblue" stroke="midnightblue" points="117.75,-50.74 126.9,-56.08 123.08,-46.2 117.75,-50.74"/>
</g>
<!-- Node3&#45;&gt;Node5 -->
<g id="edge5" class="edge">
<title>Node3&#45;&gt;Node5</title>
<path fill="none" stroke="midnightblue" d="M148.92,-48.43C157.16,-38.97 167.15,-27.48 173.88,-19.75"/>
<polygon fill="midnightblue" stroke="midnightblue" points="146.19,-46.24 142.26,-56.08 151.47,-50.84 146.19,-46.24"/>
</g>
<!-- Node3&#45;&gt;Node6 -->
<g id="edge6" class="edge">
<title>Node3&#45;&gt;Node6</title>
<path fill="none" stroke="midnightblue" d="M163.99,-52.75C188.33,-42.64 222.26,-28.55 243.8,-19.6"/>
<polygon fill="midnightblue" stroke="midnightblue" points="162.42,-49.61 154.53,-56.68 165.11,-56.08 162.42,-49.61"/>
</g>
</g>
</svg>
