<?xml version="1.0" encoding="UTF-8" standalone="no"?>
<!DOCTYPE svg PUBLIC "-//W3C//DTD SVG 1.1//EN"
 "http://www.w3.org/Graphics/SVG/1.1/DTD/svg11.dtd">
<!-- Generated by graphviz version 2.43.0 (0)
 -->
<!-- Title: atmega644constants.h Pages: 1 -->
<svg width="834pt" height="308pt"
 viewBox="0.00 0.00 834.00 308.00" xmlns="http://www.w3.org/2000/svg" xmlns:xlink="http://www.w3.org/1999/xlink">
<g id="graph0" class="graph" transform="scale(1 1) rotate(0) translate(4 304)">
<title>atmega644constants.h</title>
<polygon fill="white" stroke="transparent" points="-4,4 -4,-304 830,-304 830,4 -4,4"/>
<!-- Node1 -->
<g id="node1" class="node">
<title>Node1</title>
<g id="a_node1"><a xlink:title="Constants for ATMega644 and EVA board. Defines several useful constants for the ATMega644.">
<polygon fill="#bfbfbf" stroke="black" points="553,-280.5 553,-299.5 681,-299.5 681,-280.5 553,-280.5"/>
<text text-anchor="middle" x="617" y="-287.5" font-family="Helvetica,sans-Serif" font-size="10.00">atmega644constants.h</text>
</a>
</g>
</g>
<!-- Node2 -->
<g id="node2" class="node">
<title>Node2</title>
<g id="a_node2"><a xlink:href="defines_8h.html" target="_top" xlink:title="Simple definitions and assembler&#45;macros, mostly 8/16&#45;Bit values.">
<polygon fill="white" stroke="black" points="520.5,-224.5 520.5,-243.5 581.5,-243.5 581.5,-224.5 520.5,-224.5"/>
<text text-anchor="middle" x="551" y="-231.5" font-family="Helvetica,sans-Serif" font-size="10.00">defines.h</text>
</a>
</g>
</g>
<!-- Node1&#45;&gt;Node2 -->
<g id="edge1" class="edge">
<title>Node1&#45;&gt;Node2</title>
<path fill="none" stroke="midnightblue" d="M598.45,-273.82C586.62,-264.15 571.71,-251.95 561.8,-243.83"/>
<polygon fill="midnightblue" stroke="midnightblue" points="596.44,-276.7 606.4,-280.32 600.87,-271.28 596.44,-276.7"/>
</g>
<!-- Node7 -->
<g id="node7" class="node">
<title>Node7</title>
<g id="a_node7"><a xlink:href="util_8c.html" target="_top" xlink:title=" ">
<polygon fill="white" stroke="black" points="638.5,-112.5 638.5,-131.5 679.5,-131.5 679.5,-112.5 638.5,-112.5"/>
<text text-anchor="middle" x="659" y="-119.5" font-family="Helvetica,sans-Serif" font-size="10.00">util.c</text>
</a>
</g>
</g>
<!-- Node1&#45;&gt;Node7 -->
<g id="edge38" class="edge">
<title>Node1&#45;&gt;Node7</title>
<path fill="none" stroke="midnightblue" d="M621.83,-269.93C630.94,-233.92 650.34,-157.23 656.83,-131.57"/>
<polygon fill="midnightblue" stroke="midnightblue" points="618.32,-269.52 619.26,-280.08 625.1,-271.24 618.32,-269.52"/>
</g>
<!-- Node3 -->
<g id="node3" class="node">
<title>Node3</title>
<g id="a_node3"><a xlink:href="lcd_8h.html" target="_top" xlink:title="Library for LCD use.">
<polygon fill="white" stroke="black" points="171,-168.5 171,-187.5 211,-187.5 211,-168.5 171,-168.5"/>
<text text-anchor="middle" x="191" y="-175.5" font-family="Helvetica,sans-Serif" font-size="10.00">lcd.h</text>
</a>
</g>
</g>
<!-- Node2&#45;&gt;Node3 -->
<g id="edge2" class="edge">
<title>Node2&#45;&gt;Node3</title>
<path fill="none" stroke="midnightblue" d="M510.02,-226.85C432.87,-215.28 268.67,-190.65 211.3,-182.04"/>
<polygon fill="midnightblue" stroke="midnightblue" points="509.9,-230.37 520.31,-228.4 510.94,-223.45 509.9,-230.37"/>
</g>
<!-- Node5 -->
<g id="node5" class="node">
<title>Node5</title>
<g id="a_node5"><a xlink:href="os__core_8c.html" target="_top" xlink:title=" ">
<polygon fill="white" stroke="black" points="30,-56.5 30,-75.5 92,-75.5 92,-56.5 30,-56.5"/>
<text text-anchor="middle" x="61" y="-63.5" font-family="Helvetica,sans-Serif" font-size="10.00">os_core.c</text>
</a>
</g>
</g>
<!-- Node2&#45;&gt;Node5 -->
<g id="edge7" class="edge">
<title>Node2&#45;&gt;Node5</title>
<path fill="none" stroke="midnightblue" d="M510.2,-230.65C423.85,-225.3 225.39,-210.86 162,-188 119.09,-172.52 102.14,-169.38 76,-132 63.92,-114.73 61.44,-89.16 61.01,-75.82"/>
<polygon fill="midnightblue" stroke="midnightblue" points="510.2,-234.16 520.4,-231.27 510.63,-227.17 510.2,-234.16"/>
</g>
<!-- Node2&#45;&gt;Node7 -->
<g id="edge37" class="edge">
<title>Node2&#45;&gt;Node7</title>
<path fill="none" stroke="midnightblue" d="M566.51,-217.21C589.66,-193.63 632.46,-150.03 650.56,-131.59"/>
<polygon fill="midnightblue" stroke="midnightblue" points="563.98,-214.78 559.47,-224.37 568.98,-219.68 563.98,-214.78"/>
</g>
<!-- Node8 -->
<g id="node8" class="node">
<title>Node8</title>
<g id="a_node8"><a xlink:href="os__mem__drivers_8c.html" target="_top" xlink:title=" ">
<polygon fill="white" stroke="black" points="407,-112.5 407,-131.5 513,-131.5 513,-112.5 407,-112.5"/>
<text text-anchor="middle" x="460" y="-119.5" font-family="Helvetica,sans-Serif" font-size="10.00">os_mem_drivers.c</text>
</a>
</g>
</g>
<!-- Node2&#45;&gt;Node8 -->
<g id="edge8" class="edge">
<title>Node2&#45;&gt;Node8</title>
<path fill="none" stroke="midnightblue" d="M537.42,-216.59C517.8,-192.87 482.23,-149.87 467.11,-131.59"/>
<polygon fill="midnightblue" stroke="midnightblue" points="534.79,-218.89 543.86,-224.37 540.18,-214.43 534.79,-218.89"/>
</g>
<!-- Node9 -->
<g id="node9" class="node">
<title>Node9</title>
<g id="a_node9"><a xlink:href="os__mem__drivers_8h.html" target="_top" xlink:title="Drivers for OS memory management.">
<polygon fill="white" stroke="black" points="363.5,-168.5 363.5,-187.5 470.5,-187.5 470.5,-168.5 363.5,-168.5"/>
<text text-anchor="middle" x="417" y="-175.5" font-family="Helvetica,sans-Serif" font-size="10.00">os_mem_drivers.h</text>
</a>
</g>
</g>
<!-- Node2&#45;&gt;Node9 -->
<g id="edge9" class="edge">
<title>Node2&#45;&gt;Node9</title>
<path fill="none" stroke="midnightblue" d="M520.32,-220.64C495.18,-210.5 460.25,-196.43 438.13,-187.52"/>
<polygon fill="midnightblue" stroke="midnightblue" points="519.18,-223.95 529.77,-224.44 521.8,-217.46 519.18,-223.95"/>
</g>
<!-- Node10 -->
<g id="node10" class="node">
<title>Node10</title>
<g id="a_node10"><a xlink:href="os__memheap__drivers_8h.html" target="_top" xlink:title="Drivers for OS heap management.">
<polygon fill="white" stroke="black" points="219.5,-112.5 219.5,-131.5 350.5,-131.5 350.5,-112.5 219.5,-112.5"/>
<text text-anchor="middle" x="285" y="-119.5" font-family="Helvetica,sans-Serif" font-size="10.00">os_memheap_drivers.h</text>
</a>
</g>
</g>
<!-- Node2&#45;&gt;Node10 -->
<g id="edge26" class="edge">
<title>Node2&#45;&gt;Node10</title>
<path fill="none" stroke="midnightblue" d="M510.22,-229.84C469.01,-225.26 404.53,-214.23 355,-188 327.74,-173.56 303.14,-145.79 291.72,-131.68"/>
<polygon fill="midnightblue" stroke="midnightblue" points="510.12,-233.34 520.42,-230.89 510.84,-226.38 510.12,-233.34"/>
</g>
<!-- Node11 -->
<g id="node11" class="node">
<title>Node11</title>
<g id="a_node11"><a xlink:href="os__memheap__drivers_8c.html" target="_top" xlink:title=" ">
<polygon fill="white" stroke="black" points="0,-0.5 0,-19.5 130,-19.5 130,-0.5 0,-0.5"/>
<text text-anchor="middle" x="65" y="-7.5" font-family="Helvetica,sans-Serif" font-size="10.00">os_memheap_drivers.c</text>
</a>
</g>
</g>
<!-- Node2&#45;&gt;Node11 -->
<g id="edge25" class="edge">
<title>Node2&#45;&gt;Node11</title>
<path fill="none" stroke="midnightblue" d="M510.05,-232.76C414.12,-231.58 177.79,-224.9 109,-188 53.21,-158.08 41.02,-136.06 21,-76 18.19,-67.57 17.64,-64.23 21,-56 27.27,-40.62 41.61,-27.64 52.22,-19.63"/>
<polygon fill="midnightblue" stroke="midnightblue" points="510.19,-236.26 520.23,-232.87 510.27,-229.26 510.19,-236.26"/>
</g>
<!-- Node15 -->
<g id="node15" class="node">
<title>Node15</title>
<g id="a_node15"><a xlink:href="os__user__privileges_8h.html" target="_top" xlink:title="User privileges specification used in part by the task manager.">
<polygon fill="white" stroke="black" points="509,-0.5 509,-19.5 625,-19.5 625,-0.5 509,-0.5"/>
<text text-anchor="middle" x="567" y="-7.5" font-family="Helvetica,sans-Serif" font-size="10.00">os_user_privileges.h</text>
</a>
</g>
</g>
<!-- Node2&#45;&gt;Node15 -->
<g id="edge36" class="edge">
<title>Node2&#45;&gt;Node15</title>
<path fill="none" stroke="midnightblue" d="M591.52,-223.01C614.45,-215.93 642.72,-204.68 664,-188 709.12,-152.63 716.47,-132.16 728,-76 729.79,-67.29 733.37,-63.08 728,-56 715.24,-39.18 664.97,-26.94 623.96,-19.51"/>
<polygon fill="midnightblue" stroke="midnightblue" points="590.33,-219.71 581.72,-225.89 592.31,-226.43 590.33,-219.71"/>
</g>
<!-- Node17 -->
<g id="node17" class="node">
<title>Node17</title>
<g id="a_node17"><a xlink:href="os__scheduler_8h.html" target="_top" xlink:title="Scheduling module for the OS.">
<polygon fill="white" stroke="black" points="531.5,-112.5 531.5,-131.5 620.5,-131.5 620.5,-112.5 531.5,-112.5"/>
<text text-anchor="middle" x="576" y="-119.5" font-family="Helvetica,sans-Serif" font-size="10.00">os_scheduler.h</text>
</a>
</g>
</g>
<!-- Node2&#45;&gt;Node17 -->
<g id="edge27" class="edge">
<title>Node2&#45;&gt;Node17</title>
<path fill="none" stroke="midnightblue" d="M555.24,-214.35C560.72,-190.25 570.02,-149.31 574.05,-131.59"/>
<polygon fill="midnightblue" stroke="midnightblue" points="551.77,-213.84 552.96,-224.37 558.59,-215.39 551.77,-213.84"/>
</g>
<!-- Node18 -->
<g id="node18" class="node">
<title>Node18</title>
<g id="a_node18"><a xlink:href="os__scheduling__strategies_8h.html" target="_top" xlink:title="Scheduling library for the OS.">
<polygon fill="white" stroke="black" points="569.5,-56.5 569.5,-75.5 718.5,-75.5 718.5,-56.5 569.5,-56.5"/>
<text text-anchor="middle" x="644" y="-63.5" font-family="Helvetica,sans-Serif" font-size="10.00">os_scheduling_strategies.h</text>
</a>
</g>
</g>
<!-- Node2&#45;&gt;Node18 -->
<g id="edge35" class="edge">
<title>Node2&#45;&gt;Node18</title>
<path fill="none" stroke="midnightblue" d="M583.31,-220.33C617.03,-205.09 667.87,-175.96 689,-132 699.46,-110.23 674.27,-87.67 657.5,-75.7"/>
<polygon fill="midnightblue" stroke="midnightblue" points="581.65,-217.23 573.87,-224.43 584.44,-223.65 581.65,-217.23"/>
</g>
<!-- Node19 -->
<g id="node19" class="node">
<title>Node19</title>
<g id="a_node19"><a xlink:href="os__scheduling__strategies_8c.html" target="_top" xlink:title=" ">
<polygon fill="white" stroke="black" points="678,-0.5 678,-19.5 826,-19.5 826,-0.5 678,-0.5"/>
<text text-anchor="middle" x="752" y="-7.5" font-family="Helvetica,sans-Serif" font-size="10.00">os_scheduling_strategies.c</text>
</a>
</g>
</g>
<!-- Node2&#45;&gt;Node19 -->
<g id="edge34" class="edge">
<title>Node2&#45;&gt;Node19</title>
<path fill="none" stroke="midnightblue" d="M591.42,-226.8C620.72,-220.73 660.1,-209.2 689,-188 745.81,-146.33 751.6,-48.97 752.03,-19.56"/>
<polygon fill="midnightblue" stroke="midnightblue" points="590.66,-223.38 581.51,-228.72 591.99,-230.25 590.66,-223.38"/>
</g>
<!-- Node4 -->
<g id="node4" class="node">
<title>Node4</title>
<g id="a_node4"><a xlink:href="lcd_8c.html" target="_top" xlink:title="Library for LCD use.">
<polygon fill="white" stroke="black" points="85.5,-112.5 85.5,-131.5 124.5,-131.5 124.5,-112.5 85.5,-112.5"/>
<text text-anchor="middle" x="105" y="-119.5" font-family="Helvetica,sans-Serif" font-size="10.00">lcd.c</text>
</a>
</g>
</g>
<!-- Node3&#45;&gt;Node4 -->
<g id="edge3" class="edge">
<title>Node3&#45;&gt;Node4</title>
<path fill="none" stroke="midnightblue" d="M168.55,-162.9C152.78,-153 132.19,-140.07 118.78,-131.65"/>
<polygon fill="midnightblue" stroke="midnightblue" points="166.85,-165.97 177.18,-168.32 170.57,-160.04 166.85,-165.97"/>
</g>
<!-- Node3&#45;&gt;Node5 -->
<g id="edge4" class="edge">
<title>Node3&#45;&gt;Node5</title>
<path fill="none" stroke="midnightblue" d="M178.17,-160.12C167.12,-146.24 150.26,-126.55 133,-112 115.53,-97.27 92.82,-83.88 77.62,-75.61"/>
<polygon fill="midnightblue" stroke="midnightblue" points="175.63,-162.56 184.54,-168.29 181.15,-158.25 175.63,-162.56"/>
</g>
<!-- Node6 -->
<g id="node6" class="node">
<title>Node6</title>
<g id="a_node6"><a xlink:href="os__scheduler_8c.html" target="_top" xlink:title="Scheduling module for the OS.">
<polygon fill="white" stroke="black" points="403,-0.5 403,-19.5 491,-19.5 491,-0.5 403,-0.5"/>
<text text-anchor="middle" x="447" y="-7.5" font-family="Helvetica,sans-Serif" font-size="10.00">os_scheduler.c</text>
</a>
</g>
</g>
<!-- Node3&#45;&gt;Node6 -->
<g id="edge5" class="edge">
<title>Node3&#45;&gt;Node6</title>
<path fill="none" stroke="midnightblue" d="M192.23,-158.19C194.09,-143.97 198.68,-124.77 210,-112 236.94,-81.6 256.71,-92.1 294,-76 314.47,-67.16 319.5,-64.77 340,-56 370.02,-43.16 404.89,-28.55 426.46,-19.55"/>
<polygon fill="midnightblue" stroke="midnightblue" points="188.73,-158.02 191.26,-168.31 195.7,-158.69 188.73,-158.02"/>
</g>
<!-- Node3&#45;&gt;Node7 -->
<g id="edge6" class="edge">
<title>Node3&#45;&gt;Node7</title>
<path fill="none" stroke="midnightblue" d="M221.49,-175.96C293.35,-173.05 478.63,-162.93 630,-132 632.69,-131.45 635.48,-130.75 638.22,-129.99"/>
<polygon fill="midnightblue" stroke="midnightblue" points="221.2,-172.47 211.34,-176.35 221.47,-179.46 221.2,-172.47"/>
</g>
<!-- Node9&#45;&gt;Node8 -->
<g id="edge10" class="edge">
<title>Node9&#45;&gt;Node8</title>
<path fill="none" stroke="midnightblue" d="M430.42,-160.14C437.91,-150.74 446.94,-139.4 453.03,-131.75"/>
<polygon fill="midnightblue" stroke="midnightblue" points="427.59,-158.08 424.1,-168.08 433.07,-162.44 427.59,-158.08"/>
</g>
<!-- Node9&#45;&gt;Node10 -->
<g id="edge11" class="edge">
<title>Node9&#45;&gt;Node10</title>
<path fill="none" stroke="midnightblue" d="M386.78,-164.64C362.01,-154.5 327.6,-140.43 305.82,-131.52"/>
<polygon fill="midnightblue" stroke="midnightblue" points="385.5,-167.9 396.08,-168.44 388.15,-161.42 385.5,-167.9"/>
</g>
<!-- Node12 -->
<g id="node12" class="node">
<title>Node12</title>
<g id="a_node12"><a xlink:href="os__memory_8h.html" target="_top" xlink:title="Library for OS memory management.">
<polygon fill="white" stroke="black" points="380,-56.5 380,-75.5 462,-75.5 462,-56.5 380,-56.5"/>
<text text-anchor="middle" x="421" y="-63.5" font-family="Helvetica,sans-Serif" font-size="10.00">os_memory.h</text>
</a>
</g>
</g>
<!-- Node9&#45;&gt;Node12 -->
<g id="edge24" class="edge">
<title>Node9&#45;&gt;Node12</title>
<path fill="none" stroke="midnightblue" d="M406.52,-159.04C400.23,-146.06 394.14,-128.05 398,-112 401.24,-98.52 409.25,-84.54 414.9,-75.81"/>
<polygon fill="midnightblue" stroke="midnightblue" points="403.63,-161.06 411.42,-168.24 409.81,-157.77 403.63,-161.06"/>
</g>
<!-- Node10&#45;&gt;Node5 -->
<g id="edge12" class="edge">
<title>Node10&#45;&gt;Node5</title>
<path fill="none" stroke="midnightblue" d="M239.68,-110.08C195.89,-99.52 130.69,-83.8 92.35,-74.56"/>
<polygon fill="midnightblue" stroke="midnightblue" points="238.96,-113.5 249.51,-112.44 240.61,-106.7 238.96,-113.5"/>
</g>
<!-- Node10&#45;&gt;Node6 -->
<g id="edge23" class="edge">
<title>Node10&#45;&gt;Node6</title>
<path fill="none" stroke="midnightblue" d="M303.64,-105.95C320.76,-92.35 347.04,-72.07 371,-56 391.25,-42.42 415.66,-28.35 431.26,-19.64"/>
<polygon fill="midnightblue" stroke="midnightblue" points="301.2,-103.41 295.58,-112.39 305.57,-108.88 301.2,-103.41"/>
</g>
<!-- Node10&#45;&gt;Node11 -->
<g id="edge13" class="edge">
<title>Node10&#45;&gt;Node11</title>
<path fill="none" stroke="midnightblue" d="M230.78,-110.08C202.29,-102.93 167.47,-91.92 139,-76 111.54,-60.64 85.32,-33.78 72.75,-19.89"/>
<polygon fill="midnightblue" stroke="midnightblue" points="230.03,-113.49 240.57,-112.44 231.68,-106.69 230.03,-113.49"/>
</g>
<!-- Node10&#45;&gt;Node12 -->
<g id="edge14" class="edge">
<title>Node10&#45;&gt;Node12</title>
<path fill="none" stroke="midnightblue" d="M316.13,-108.64C341.66,-98.5 377.11,-84.43 399.55,-75.52"/>
<polygon fill="midnightblue" stroke="midnightblue" points="314.55,-105.5 306.55,-112.44 317.14,-112.01 314.55,-105.5"/>
</g>
<!-- Node16 -->
<g id="node16" class="node">
<title>Node16</title>
<g id="a_node16"><a xlink:href="os__memory__strategies_8h.html" target="_top" xlink:title="Memory allocation library for the OS.">
<polygon fill="white" stroke="black" points="148.5,-56.5 148.5,-75.5 285.5,-75.5 285.5,-56.5 148.5,-56.5"/>
<text text-anchor="middle" x="217" y="-63.5" font-family="Helvetica,sans-Serif" font-size="10.00">os_memory_strategies.h</text>
</a>
</g>
</g>
<!-- Node10&#45;&gt;Node16 -->
<g id="edge19" class="edge">
<title>Node10&#45;&gt;Node16</title>
<path fill="none" stroke="midnightblue" d="M266.24,-106.1C254,-96.38 238.44,-84.03 228.12,-75.83"/>
<polygon fill="midnightblue" stroke="midnightblue" points="264.07,-108.85 274.07,-112.32 268.42,-103.36 264.07,-108.85"/>
</g>
<!-- Node12&#45;&gt;Node6 -->
<g id="edge17" class="edge">
<title>Node12&#45;&gt;Node6</title>
<path fill="none" stroke="midnightblue" d="M429.67,-46.98C434.09,-37.82 439.25,-27.09 442.79,-19.75"/>
<polygon fill="midnightblue" stroke="midnightblue" points="426.48,-45.55 425.29,-56.08 432.79,-48.59 426.48,-45.55"/>
</g>
<!-- Node13 -->
<g id="node13" class="node">
<title>Node13</title>
<g id="a_node13"><a xlink:href="os__memory_8c.html" target="_top" xlink:title=" ">
<polygon fill="white" stroke="black" points="303.5,-0.5 303.5,-19.5 384.5,-19.5 384.5,-0.5 303.5,-0.5"/>
<text text-anchor="middle" x="344" y="-7.5" font-family="Helvetica,sans-Serif" font-size="10.00">os_memory.c</text>
</a>
</g>
</g>
<!-- Node12&#45;&gt;Node13 -->
<g id="edge15" class="edge">
<title>Node12&#45;&gt;Node13</title>
<path fill="none" stroke="midnightblue" d="M400.1,-50.34C386.09,-40.52 368.12,-27.91 356.34,-19.65"/>
<polygon fill="midnightblue" stroke="midnightblue" points="398.43,-53.45 408.63,-56.32 402.45,-47.72 398.43,-53.45"/>
</g>
<!-- Node14 -->
<g id="node14" class="node">
<title>Node14</title>
<g id="a_node14"><a xlink:href="os__memory__strategies_8c.html" target="_top" xlink:title=" ">
<polygon fill="white" stroke="black" points="148.5,-0.5 148.5,-19.5 285.5,-19.5 285.5,-0.5 148.5,-0.5"/>
<text text-anchor="middle" x="217" y="-7.5" font-family="Helvetica,sans-Serif" font-size="10.00">os_memory_strategies.c</text>
</a>
</g>
</g>
<!-- Node12&#45;&gt;Node14 -->
<g id="edge16" class="edge">
<title>Node12&#45;&gt;Node14</title>
<path fill="none" stroke="midnightblue" d="M378.8,-53.83C340.28,-43.63 284.18,-28.78 249.17,-19.52"/>
<polygon fill="midnightblue" stroke="midnightblue" points="378.11,-57.27 388.68,-56.44 379.9,-50.5 378.11,-57.27"/>
</g>
<!-- Node12&#45;&gt;Node15 -->
<g id="edge18" class="edge">
<title>Node12&#45;&gt;Node15</title>
<path fill="none" stroke="midnightblue" d="M453.7,-52.91C481.15,-42.75 519.67,-28.51 543.97,-19.52"/>
<polygon fill="midnightblue" stroke="midnightblue" points="452.3,-49.69 444.13,-56.44 454.73,-56.26 452.3,-49.69"/>
</g>
<!-- Node16&#45;&gt;Node11 -->
<g id="edge20" class="edge">
<title>Node16&#45;&gt;Node11</title>
<path fill="none" stroke="midnightblue" d="M183.33,-53.04C154.73,-42.88 114.39,-28.55 88.97,-19.52"/>
<polygon fill="midnightblue" stroke="midnightblue" points="182.32,-56.39 192.92,-56.44 184.66,-49.8 182.32,-56.39"/>
</g>
<!-- Node16&#45;&gt;Node13 -->
<g id="edge21" class="edge">
<title>Node16&#45;&gt;Node13</title>
<path fill="none" stroke="midnightblue" d="M246.39,-52.5C270.2,-42.38 303.11,-28.39 323.97,-19.52"/>
<polygon fill="midnightblue" stroke="midnightblue" points="244.96,-49.31 237.12,-56.44 247.7,-55.75 244.96,-49.31"/>
</g>
<!-- Node16&#45;&gt;Node14 -->
<g id="edge22" class="edge">
<title>Node16&#45;&gt;Node14</title>
<path fill="none" stroke="midnightblue" d="M217,-45.8C217,-36.91 217,-26.78 217,-19.75"/>
<polygon fill="midnightblue" stroke="midnightblue" points="213.5,-46.08 217,-56.08 220.5,-46.08 213.5,-46.08"/>
</g>
<!-- Node17&#45;&gt;Node6 -->
<g id="edge29" class="edge">
<title>Node17&#45;&gt;Node6</title>
<path fill="none" stroke="midnightblue" d="M558.19,-105.82C530.72,-82.39 478.89,-38.19 457.08,-19.59"/>
<polygon fill="midnightblue" stroke="midnightblue" points="556,-108.54 565.88,-112.37 560.54,-103.22 556,-108.54"/>
</g>
<!-- Node17&#45;&gt;Node12 -->
<g id="edge28" class="edge">
<title>Node17&#45;&gt;Node12</title>
<path fill="none" stroke="midnightblue" d="M541.67,-109.04C512.5,-98.88 471.36,-84.55 445.45,-75.52"/>
<polygon fill="midnightblue" stroke="midnightblue" points="540.84,-112.46 551.44,-112.44 543.15,-105.85 540.84,-112.46"/>
</g>
<!-- Node17&#45;&gt;Node15 -->
<g id="edge33" class="edge">
<title>Node17&#45;&gt;Node15</title>
<path fill="none" stroke="midnightblue" d="M568.44,-102.78C565.49,-94.72 562.47,-85.04 561,-76 557.77,-56.09 561.93,-32.44 564.77,-19.88"/>
<polygon fill="midnightblue" stroke="midnightblue" points="565.24,-104.21 572.14,-112.25 571.76,-101.66 565.24,-104.21"/>
</g>
<!-- Node17&#45;&gt;Node18 -->
<g id="edge30" class="edge">
<title>Node17&#45;&gt;Node18</title>
<path fill="none" stroke="midnightblue" d="M594.76,-106.1C607,-96.38 622.56,-84.03 632.88,-75.83"/>
<polygon fill="midnightblue" stroke="midnightblue" points="592.58,-103.36 586.93,-112.32 596.93,-108.85 592.58,-103.36"/>
</g>
<!-- Node18&#45;&gt;Node6 -->
<g id="edge31" class="edge">
<title>Node18&#45;&gt;Node6</title>
<path fill="none" stroke="midnightblue" d="M602.77,-53.7C565.59,-43.51 511.73,-28.74 478.07,-19.52"/>
<polygon fill="midnightblue" stroke="midnightblue" points="602.22,-57.18 612.78,-56.44 604.07,-50.42 602.22,-57.18"/>
</g>
<!-- Node18&#45;&gt;Node19 -->
<g id="edge32" class="edge">
<title>Node18&#45;&gt;Node19</title>
<path fill="none" stroke="midnightblue" d="M670.55,-51.73C690.55,-41.73 717.39,-28.31 734.69,-19.65"/>
<polygon fill="midnightblue" stroke="midnightblue" points="668.73,-48.72 661.35,-56.32 671.86,-54.98 668.73,-48.72"/>
</g>
</g>
</svg>
