<?xml version="1.0" encoding="UTF-8" standalone="no"?>
<!DOCTYPE svg PUBLIC "-//W3C//DTD SVG 1.1//EN"
 "http://www.w3.org/Graphics/SVG/1.1/DTD/svg11.dtd">
<!-- Generated by graphviz version 2.43.0 (0)
 -->
<!-- Title: defines.h Pages: 1 -->
<svg width="825pt" height="252pt"
 viewBox="0.00 0.00 825.00 252.00" xmlns="http://www.w3.org/2000/svg" xmlns:xlink="http://www.w3.org/1999/xlink">
<g id="graph0" class="graph" transform="scale(1 1) rotate(0) translate(4 248)">
<title>defines.h</title>
<polygon fill="white" stroke="transparent" points="-4,4 -4,-248 821,-248 821,4 -4,4"/>
<!-- Node1 -->
<g id="node1" class="node">
<title>Node1</title>
<g id="a_node1"><a xlink:title="Simple definitions and assembler&#45;macros, mostly 8/16&#45;Bit values.">
<polygon fill="#bfbfbf" stroke="black" points="391.5,-224.5 391.5,-243.5 452.5,-243.5 452.5,-224.5 391.5,-224.5"/>
<text text-anchor="middle" x="422" y="-231.5" font-family="Helvetica,sans-Serif" font-size="10.00">defines.h</text>
</a>
</g>
</g>
<!-- Node2 -->
<g id="node2" class="node">
<title>Node2</title>
<g id="a_node2"><a xlink:href="lcd_8h.html" target="_top" xlink:title="Library for LCD use.">
<polygon fill="white" stroke="black" points="156,-168.5 156,-187.5 196,-187.5 196,-168.5 156,-168.5"/>
<text text-anchor="middle" x="176" y="-175.5" font-family="Helvetica,sans-Serif" font-size="10.00">lcd.h</text>
</a>
</g>
</g>
<!-- Node1&#45;&gt;Node2 -->
<g id="edge1" class="edge">
<title>Node1&#45;&gt;Node2</title>
<path fill="none" stroke="midnightblue" d="M381.55,-224.12C328.33,-212.44 236.8,-192.35 196.3,-183.46"/>
<polygon fill="midnightblue" stroke="midnightblue" points="380.82,-227.54 391.34,-226.27 382.32,-220.71 380.82,-227.54"/>
</g>
<!-- Node4 -->
<g id="node4" class="node">
<title>Node4</title>
<g id="a_node4"><a xlink:href="os__core_8c.html" target="_top" xlink:title=" ">
<polygon fill="white" stroke="black" points="30,-56.5 30,-75.5 92,-75.5 92,-56.5 30,-56.5"/>
<text text-anchor="middle" x="61" y="-63.5" font-family="Helvetica,sans-Serif" font-size="10.00">os_core.c</text>
</a>
</g>
</g>
<!-- Node1&#45;&gt;Node4 -->
<g id="edge6" class="edge">
<title>Node1&#45;&gt;Node4</title>
<path fill="none" stroke="midnightblue" d="M381.04,-232.95C325.54,-231.43 224.49,-223.46 147,-188 111.71,-171.85 101.25,-164.47 80,-132 68.28,-114.1 63.62,-88.8 61.91,-75.67"/>
<polygon fill="midnightblue" stroke="midnightblue" points="381.11,-236.45 391.19,-233.17 381.26,-229.45 381.11,-236.45"/>
</g>
<!-- Node6 -->
<g id="node6" class="node">
<title>Node6</title>
<g id="a_node6"><a xlink:href="util_8c.html" target="_top" xlink:title=" ">
<polygon fill="white" stroke="black" points="204.5,-112.5 204.5,-131.5 245.5,-131.5 245.5,-112.5 204.5,-112.5"/>
<text text-anchor="middle" x="225" y="-119.5" font-family="Helvetica,sans-Serif" font-size="10.00">util.c</text>
</a>
</g>
</g>
<!-- Node1&#45;&gt;Node6 -->
<g id="edge36" class="edge">
<title>Node1&#45;&gt;Node6</title>
<path fill="none" stroke="midnightblue" d="M397.73,-219.45C356.63,-196.5 274.48,-150.63 240.39,-131.59"/>
<polygon fill="midnightblue" stroke="midnightblue" points="396.1,-222.55 406.54,-224.37 399.52,-216.44 396.1,-222.55"/>
</g>
<!-- Node7 -->
<g id="node7" class="node">
<title>Node7</title>
<g id="a_node7"><a xlink:href="os__mem__drivers_8c.html" target="_top" xlink:title=" ">
<polygon fill="white" stroke="black" points="451,-112.5 451,-131.5 557,-131.5 557,-112.5 451,-112.5"/>
<text text-anchor="middle" x="504" y="-119.5" font-family="Helvetica,sans-Serif" font-size="10.00">os_mem_drivers.c</text>
</a>
</g>
</g>
<!-- Node1&#45;&gt;Node7 -->
<g id="edge7" class="edge">
<title>Node1&#45;&gt;Node7</title>
<path fill="none" stroke="midnightblue" d="M448.83,-219.35C461.45,-211.7 475.73,-201.05 485,-188 497.39,-170.55 501.77,-145.06 503.26,-131.78"/>
<polygon fill="midnightblue" stroke="midnightblue" points="446.97,-216.39 440.03,-224.39 450.45,-222.46 446.97,-216.39"/>
</g>
<!-- Node8 -->
<g id="node8" class="node">
<title>Node8</title>
<g id="a_node8"><a xlink:href="os__mem__drivers_8h.html" target="_top" xlink:title="Drivers for OS memory management.">
<polygon fill="white" stroke="black" points="368.5,-168.5 368.5,-187.5 475.5,-187.5 475.5,-168.5 368.5,-168.5"/>
<text text-anchor="middle" x="422" y="-175.5" font-family="Helvetica,sans-Serif" font-size="10.00">os_mem_drivers.h</text>
</a>
</g>
</g>
<!-- Node1&#45;&gt;Node8 -->
<g id="edge8" class="edge">
<title>Node1&#45;&gt;Node8</title>
<path fill="none" stroke="midnightblue" d="M422,-213.8C422,-204.91 422,-194.78 422,-187.75"/>
<polygon fill="midnightblue" stroke="midnightblue" points="418.5,-214.08 422,-224.08 425.5,-214.08 418.5,-214.08"/>
</g>
<!-- Node9 -->
<g id="node9" class="node">
<title>Node9</title>
<g id="a_node9"><a xlink:href="os__memheap__drivers_8h.html" target="_top" xlink:title="Drivers for OS heap management.">
<polygon fill="white" stroke="black" points="263.5,-112.5 263.5,-131.5 394.5,-131.5 394.5,-112.5 263.5,-112.5"/>
<text text-anchor="middle" x="329" y="-119.5" font-family="Helvetica,sans-Serif" font-size="10.00">os_memheap_drivers.h</text>
</a>
</g>
</g>
<!-- Node1&#45;&gt;Node9 -->
<g id="edge25" class="edge">
<title>Node1&#45;&gt;Node9</title>
<path fill="none" stroke="midnightblue" d="M397.45,-219.23C385.02,-211.33 370.41,-200.51 360,-188 345.45,-170.51 335.92,-145.03 331.63,-131.77"/>
<polygon fill="midnightblue" stroke="midnightblue" points="395.66,-222.24 406.02,-224.45 399.3,-216.26 395.66,-222.24"/>
</g>
<!-- Node10 -->
<g id="node10" class="node">
<title>Node10</title>
<g id="a_node10"><a xlink:href="os__memheap__drivers_8c.html" target="_top" xlink:title=" ">
<polygon fill="white" stroke="black" points="0,-0.5 0,-19.5 130,-19.5 130,-0.5 0,-0.5"/>
<text text-anchor="middle" x="65" y="-7.5" font-family="Helvetica,sans-Serif" font-size="10.00">os_memheap_drivers.c</text>
</a>
</g>
</g>
<!-- Node1&#45;&gt;Node10 -->
<g id="edge24" class="edge">
<title>Node1&#45;&gt;Node10</title>
<path fill="none" stroke="midnightblue" d="M380.88,-230.96C306.4,-226.64 152.69,-214.7 107,-188 52.82,-156.33 41.18,-135.43 21,-76 18.14,-67.58 17.64,-64.23 21,-56 27.27,-40.62 41.61,-27.64 52.22,-19.63"/>
<polygon fill="midnightblue" stroke="midnightblue" points="381.09,-234.48 391.27,-231.54 381.48,-227.49 381.09,-234.48"/>
</g>
<!-- Node14 -->
<g id="node14" class="node">
<title>Node14</title>
<g id="a_node14"><a xlink:href="os__user__privileges_8h.html" target="_top" xlink:title="User privileges specification used in part by the task manager.">
<polygon fill="white" stroke="black" points="509,-0.5 509,-19.5 625,-19.5 625,-0.5 509,-0.5"/>
<text text-anchor="middle" x="567" y="-7.5" font-family="Helvetica,sans-Serif" font-size="10.00">os_user_privileges.h</text>
</a>
</g>
</g>
<!-- Node1&#45;&gt;Node14 -->
<g id="edge35" class="edge">
<title>Node1&#45;&gt;Node14</title>
<path fill="none" stroke="midnightblue" d="M462.65,-232.08C508.38,-229.42 583.5,-220.01 639,-188 667.9,-171.33 670.87,-160.01 689,-132 708.32,-102.15 735.15,-84.59 714,-56 693.68,-28.53 656.93,-17.28 625.26,-12.9"/>
<polygon fill="midnightblue" stroke="midnightblue" points="462.34,-228.59 452.53,-232.59 462.69,-235.59 462.34,-228.59"/>
</g>
<!-- Node16 -->
<g id="node16" class="node">
<title>Node16</title>
<g id="a_node16"><a xlink:href="os__scheduler_8h.html" target="_top" xlink:title="Scheduling module for the OS.">
<polygon fill="white" stroke="black" points="575.5,-112.5 575.5,-131.5 664.5,-131.5 664.5,-112.5 575.5,-112.5"/>
<text text-anchor="middle" x="620" y="-119.5" font-family="Helvetica,sans-Serif" font-size="10.00">os_scheduler.h</text>
</a>
</g>
</g>
<!-- Node1&#45;&gt;Node16 -->
<g id="edge26" class="edge">
<title>Node1&#45;&gt;Node16</title>
<path fill="none" stroke="midnightblue" d="M446.64,-219.55C462.94,-210.64 484.77,-198.66 504,-188 540.14,-167.96 582.45,-144.17 604.64,-131.67"/>
<polygon fill="midnightblue" stroke="midnightblue" points="444.84,-216.55 437.74,-224.41 448.2,-222.69 444.84,-216.55"/>
</g>
<!-- Node17 -->
<g id="node17" class="node">
<title>Node17</title>
<g id="a_node17"><a xlink:href="os__scheduling__strategies_8h.html" target="_top" xlink:title="Scheduling library for the OS.">
<polygon fill="white" stroke="black" points="555.5,-56.5 555.5,-75.5 704.5,-75.5 704.5,-56.5 555.5,-56.5"/>
<text text-anchor="middle" x="630" y="-63.5" font-family="Helvetica,sans-Serif" font-size="10.00">os_scheduling_strategies.h</text>
</a>
</g>
</g>
<!-- Node1&#45;&gt;Node17 -->
<g id="edge34" class="edge">
<title>Node1&#45;&gt;Node17</title>
<path fill="none" stroke="midnightblue" d="M462.71,-230.19C521.01,-223.72 626.48,-202.38 674,-132 687.65,-111.78 660.7,-88.06 643.25,-75.62"/>
<polygon fill="midnightblue" stroke="midnightblue" points="462.34,-226.71 452.74,-231.2 463.05,-233.67 462.34,-226.71"/>
</g>
<!-- Node18 -->
<g id="node18" class="node">
<title>Node18</title>
<g id="a_node18"><a xlink:href="os__scheduling__strategies_8c.html" target="_top" xlink:title=" ">
<polygon fill="white" stroke="black" points="669,-0.5 669,-19.5 817,-19.5 817,-0.5 669,-0.5"/>
<text text-anchor="middle" x="743" y="-7.5" font-family="Helvetica,sans-Serif" font-size="10.00">os_scheduling_strategies.c</text>
</a>
</g>
</g>
<!-- Node1&#45;&gt;Node18 -->
<g id="edge33" class="edge">
<title>Node1&#45;&gt;Node18</title>
<path fill="none" stroke="midnightblue" d="M463.05,-233.87C513.95,-233.13 601.73,-225.8 665,-188 727.27,-150.8 739.99,-50.37 742.44,-19.89"/>
<polygon fill="midnightblue" stroke="midnightblue" points="462.75,-230.37 452.77,-233.93 462.79,-237.37 462.75,-230.37"/>
</g>
<!-- Node3 -->
<g id="node3" class="node">
<title>Node3</title>
<g id="a_node3"><a xlink:href="lcd_8c.html" target="_top" xlink:title="Library for LCD use.">
<polygon fill="white" stroke="black" points="108.5,-112.5 108.5,-131.5 147.5,-131.5 147.5,-112.5 108.5,-112.5"/>
<text text-anchor="middle" x="128" y="-119.5" font-family="Helvetica,sans-Serif" font-size="10.00">lcd.c</text>
</a>
</g>
</g>
<!-- Node2&#45;&gt;Node3 -->
<g id="edge2" class="edge">
<title>Node2&#45;&gt;Node3</title>
<path fill="none" stroke="midnightblue" d="M161.27,-160.43C152.86,-150.97 142.65,-139.48 135.78,-131.75"/>
<polygon fill="midnightblue" stroke="midnightblue" points="158.81,-162.93 168.07,-168.08 164.05,-158.28 158.81,-162.93"/>
</g>
<!-- Node2&#45;&gt;Node4 -->
<g id="edge3" class="edge">
<title>Node2&#45;&gt;Node4</title>
<path fill="none" stroke="midnightblue" d="M146.61,-164.31C131.13,-156.6 112.6,-145.6 99,-132 82.18,-115.18 70.07,-89.42 64.47,-75.94"/>
<polygon fill="midnightblue" stroke="midnightblue" points="145.24,-167.54 155.78,-168.69 148.26,-161.22 145.24,-167.54"/>
</g>
<!-- Node5 -->
<g id="node5" class="node">
<title>Node5</title>
<g id="a_node5"><a xlink:href="os__scheduler_8c.html" target="_top" xlink:title="Scheduling module for the OS.">
<polygon fill="white" stroke="black" points="403,-0.5 403,-19.5 491,-19.5 491,-0.5 403,-0.5"/>
<text text-anchor="middle" x="447" y="-7.5" font-family="Helvetica,sans-Serif" font-size="10.00">os_scheduler.c</text>
</a>
</g>
</g>
<!-- Node2&#45;&gt;Node5 -->
<g id="edge4" class="edge">
<title>Node2&#45;&gt;Node5</title>
<path fill="none" stroke="midnightblue" d="M177.02,-158C178.76,-143.67 183.3,-124.43 195,-112 227.36,-77.59 251.04,-93.29 295,-76 343.34,-56.98 399.31,-32.36 427.95,-19.57"/>
<polygon fill="midnightblue" stroke="midnightblue" points="173.52,-157.94 176.15,-168.21 180.49,-158.54 173.52,-157.94"/>
</g>
<!-- Node2&#45;&gt;Node6 -->
<g id="edge5" class="edge">
<title>Node2&#45;&gt;Node6</title>
<path fill="none" stroke="midnightblue" d="M191.03,-160.43C199.62,-150.97 210.04,-139.48 217.06,-131.75"/>
<polygon fill="midnightblue" stroke="midnightblue" points="188.22,-158.33 184.09,-168.08 193.4,-163.03 188.22,-158.33"/>
</g>
<!-- Node8&#45;&gt;Node7 -->
<g id="edge9" class="edge">
<title>Node8&#45;&gt;Node7</title>
<path fill="none" stroke="midnightblue" d="M443.83,-162.62C458.81,-152.76 478.2,-139.99 490.86,-131.65"/>
<polygon fill="midnightblue" stroke="midnightblue" points="441.6,-159.9 435.17,-168.32 445.45,-165.75 441.6,-159.9"/>
</g>
<!-- Node8&#45;&gt;Node9 -->
<g id="edge10" class="edge">
<title>Node8&#45;&gt;Node9</title>
<path fill="none" stroke="midnightblue" d="M398.19,-163.18C381.08,-153.24 358.53,-140.15 343.9,-131.65"/>
<polygon fill="midnightblue" stroke="midnightblue" points="396.65,-166.33 407.06,-168.32 400.17,-160.28 396.65,-166.33"/>
</g>
<!-- Node11 -->
<g id="node11" class="node">
<title>Node11</title>
<g id="a_node11"><a xlink:href="os__memory_8h.html" target="_top" xlink:title="Library for OS memory management.">
<polygon fill="white" stroke="black" points="380,-56.5 380,-75.5 462,-75.5 462,-56.5 380,-56.5"/>
<text text-anchor="middle" x="421" y="-63.5" font-family="Helvetica,sans-Serif" font-size="10.00">os_memory.h</text>
</a>
</g>
</g>
<!-- Node8&#45;&gt;Node11 -->
<g id="edge23" class="edge">
<title>Node8&#45;&gt;Node11</title>
<path fill="none" stroke="midnightblue" d="M421.83,-158.35C421.61,-134.25 421.24,-93.31 421.08,-75.59"/>
<polygon fill="midnightblue" stroke="midnightblue" points="418.33,-158.4 421.92,-168.37 425.33,-158.34 418.33,-158.4"/>
</g>
<!-- Node9&#45;&gt;Node4 -->
<g id="edge11" class="edge">
<title>Node9&#45;&gt;Node4</title>
<path fill="none" stroke="midnightblue" d="M276.66,-110.45C221.88,-99.42 137.66,-82.45 92.38,-73.32"/>
<polygon fill="midnightblue" stroke="midnightblue" points="276.04,-113.9 286.53,-112.44 277.42,-107.04 276.04,-113.9"/>
</g>
<!-- Node9&#45;&gt;Node5 -->
<g id="edge22" class="edge">
<title>Node9&#45;&gt;Node5</title>
<path fill="none" stroke="midnightblue" d="M337.7,-102.97C345.12,-88.95 356.82,-69.64 371,-56 387.58,-40.06 410.82,-27.35 427.23,-19.56"/>
<polygon fill="midnightblue" stroke="midnightblue" points="334.47,-101.59 333.08,-112.1 340.72,-104.75 334.47,-101.59"/>
</g>
<!-- Node9&#45;&gt;Node10 -->
<g id="edge12" class="edge">
<title>Node9&#45;&gt;Node10</title>
<path fill="none" stroke="midnightblue" d="M253.37,-111.78C217.29,-105.25 174.38,-94.27 139,-76 110.74,-61.41 84.48,-33.71 72.23,-19.65"/>
<polygon fill="midnightblue" stroke="midnightblue" points="252.91,-115.25 263.36,-113.5 254.1,-108.35 252.91,-115.25"/>
</g>
<!-- Node9&#45;&gt;Node11 -->
<g id="edge13" class="edge">
<title>Node9&#45;&gt;Node11</title>
<path fill="none" stroke="midnightblue" d="M352.55,-107.18C369.48,-97.24 391.78,-84.15 406.26,-75.65"/>
<polygon fill="midnightblue" stroke="midnightblue" points="350.63,-104.24 343.78,-112.32 354.18,-110.28 350.63,-104.24"/>
</g>
<!-- Node15 -->
<g id="node15" class="node">
<title>Node15</title>
<g id="a_node15"><a xlink:href="os__memory__strategies_8h.html" target="_top" xlink:title="Memory allocation library for the OS.">
<polygon fill="white" stroke="black" points="148.5,-56.5 148.5,-75.5 285.5,-75.5 285.5,-56.5 148.5,-56.5"/>
<text text-anchor="middle" x="217" y="-63.5" font-family="Helvetica,sans-Serif" font-size="10.00">os_memory_strategies.h</text>
</a>
</g>
</g>
<!-- Node9&#45;&gt;Node15 -->
<g id="edge18" class="edge">
<title>Node9&#45;&gt;Node15</title>
<path fill="none" stroke="midnightblue" d="M301.75,-107.86C280.98,-97.85 252.98,-84.35 234.95,-75.65"/>
<polygon fill="midnightblue" stroke="midnightblue" points="300.48,-111.13 311.01,-112.32 303.52,-104.83 300.48,-111.13"/>
</g>
<!-- Node11&#45;&gt;Node5 -->
<g id="edge16" class="edge">
<title>Node11&#45;&gt;Node5</title>
<path fill="none" stroke="midnightblue" d="M429.67,-46.98C434.09,-37.82 439.25,-27.09 442.79,-19.75"/>
<polygon fill="midnightblue" stroke="midnightblue" points="426.48,-45.55 425.29,-56.08 432.79,-48.59 426.48,-45.55"/>
</g>
<!-- Node12 -->
<g id="node12" class="node">
<title>Node12</title>
<g id="a_node12"><a xlink:href="os__memory_8c.html" target="_top" xlink:title=" ">
<polygon fill="white" stroke="black" points="303.5,-0.5 303.5,-19.5 384.5,-19.5 384.5,-0.5 303.5,-0.5"/>
<text text-anchor="middle" x="344" y="-7.5" font-family="Helvetica,sans-Serif" font-size="10.00">os_memory.c</text>
</a>
</g>
</g>
<!-- Node11&#45;&gt;Node12 -->
<g id="edge14" class="edge">
<title>Node11&#45;&gt;Node12</title>
<path fill="none" stroke="midnightblue" d="M400.1,-50.34C386.09,-40.52 368.12,-27.91 356.34,-19.65"/>
<polygon fill="midnightblue" stroke="midnightblue" points="398.43,-53.45 408.63,-56.32 402.45,-47.72 398.43,-53.45"/>
</g>
<!-- Node13 -->
<g id="node13" class="node">
<title>Node13</title>
<g id="a_node13"><a xlink:href="os__memory__strategies_8c.html" target="_top" xlink:title=" ">
<polygon fill="white" stroke="black" points="148.5,-0.5 148.5,-19.5 285.5,-19.5 285.5,-0.5 148.5,-0.5"/>
<text text-anchor="middle" x="217" y="-7.5" font-family="Helvetica,sans-Serif" font-size="10.00">os_memory_strategies.c</text>
</a>
</g>
</g>
<!-- Node11&#45;&gt;Node13 -->
<g id="edge15" class="edge">
<title>Node11&#45;&gt;Node13</title>
<path fill="none" stroke="midnightblue" d="M378.8,-53.83C340.28,-43.63 284.18,-28.78 249.17,-19.52"/>
<polygon fill="midnightblue" stroke="midnightblue" points="378.11,-57.27 388.68,-56.44 379.9,-50.5 378.11,-57.27"/>
</g>
<!-- Node11&#45;&gt;Node14 -->
<g id="edge17" class="edge">
<title>Node11&#45;&gt;Node14</title>
<path fill="none" stroke="midnightblue" d="M453.7,-52.91C481.15,-42.75 519.67,-28.51 543.97,-19.52"/>
<polygon fill="midnightblue" stroke="midnightblue" points="452.3,-49.69 444.13,-56.44 454.73,-56.26 452.3,-49.69"/>
</g>
<!-- Node15&#45;&gt;Node10 -->
<g id="edge19" class="edge">
<title>Node15&#45;&gt;Node10</title>
<path fill="none" stroke="midnightblue" d="M183.33,-53.04C154.73,-42.88 114.39,-28.55 88.97,-19.52"/>
<polygon fill="midnightblue" stroke="midnightblue" points="182.32,-56.39 192.92,-56.44 184.66,-49.8 182.32,-56.39"/>
</g>
<!-- Node15&#45;&gt;Node12 -->
<g id="edge20" class="edge">
<title>Node15&#45;&gt;Node12</title>
<path fill="none" stroke="midnightblue" d="M246.39,-52.5C270.2,-42.38 303.11,-28.39 323.97,-19.52"/>
<polygon fill="midnightblue" stroke="midnightblue" points="244.96,-49.31 237.12,-56.44 247.7,-55.75 244.96,-49.31"/>
</g>
<!-- Node15&#45;&gt;Node13 -->
<g id="edge21" class="edge">
<title>Node15&#45;&gt;Node13</title>
<path fill="none" stroke="midnightblue" d="M217,-45.8C217,-36.91 217,-26.78 217,-19.75"/>
<polygon fill="midnightblue" stroke="midnightblue" points="213.5,-46.08 217,-56.08 220.5,-46.08 213.5,-46.08"/>
</g>
<!-- Node16&#45;&gt;Node5 -->
<g id="edge28" class="edge">
<title>Node16&#45;&gt;Node5</title>
<path fill="none" stroke="midnightblue" d="M594.39,-107.69C578.24,-99.07 557.1,-87.38 539,-76 509.03,-57.16 475.45,-32.47 458.35,-19.62"/>
<polygon fill="midnightblue" stroke="midnightblue" points="592.78,-110.79 603.25,-112.38 596.05,-104.61 592.78,-110.79"/>
</g>
<!-- Node16&#45;&gt;Node11 -->
<g id="edge27" class="edge">
<title>Node16&#45;&gt;Node11</title>
<path fill="none" stroke="midnightblue" d="M578.35,-109.7C540.79,-99.51 486.39,-84.74 452.38,-75.52"/>
<polygon fill="midnightblue" stroke="midnightblue" points="577.9,-113.2 588.47,-112.44 579.73,-106.45 577.9,-113.2"/>
</g>
<!-- Node16&#45;&gt;Node14 -->
<g id="edge32" class="edge">
<title>Node16&#45;&gt;Node14</title>
<path fill="none" stroke="midnightblue" d="M584.55,-108.2C570.22,-101.06 555.16,-90.61 547,-76 536.64,-57.44 550.74,-32.85 560.02,-19.88"/>
<polygon fill="midnightblue" stroke="midnightblue" points="583.24,-111.44 593.79,-112.41 586.15,-105.08 583.24,-111.44"/>
</g>
<!-- Node16&#45;&gt;Node17 -->
<g id="edge29" class="edge">
<title>Node16&#45;&gt;Node17</title>
<path fill="none" stroke="midnightblue" d="M623.5,-102.1C625.16,-93.14 627.06,-82.86 628.38,-75.75"/>
<polygon fill="midnightblue" stroke="midnightblue" points="620.03,-101.61 621.65,-112.08 626.91,-102.89 620.03,-101.61"/>
</g>
<!-- Node17&#45;&gt;Node5 -->
<g id="edge30" class="edge">
<title>Node17&#45;&gt;Node5</title>
<path fill="none" stroke="midnightblue" d="M591.26,-53.57C556.74,-43.38 506.99,-28.7 475.86,-19.52"/>
<polygon fill="midnightblue" stroke="midnightblue" points="590.42,-56.97 601,-56.44 592.4,-50.26 590.42,-56.97"/>
</g>
<!-- Node17&#45;&gt;Node18 -->
<g id="edge31" class="edge">
<title>Node17&#45;&gt;Node18</title>
<path fill="none" stroke="midnightblue" d="M657,-52.1C678.11,-42.01 706.86,-28.27 725.18,-19.52"/>
<polygon fill="midnightblue" stroke="midnightblue" points="655.42,-48.97 647.91,-56.44 658.44,-55.29 655.42,-48.97"/>
</g>
</g>
</svg>
