<?xml version="1.0" encoding="UTF-8" standalone="no"?>
<!DOCTYPE svg PUBLIC "-//W3C//DTD SVG 1.1//EN"
 "http://www.w3.org/Graphics/SVG/1.1/DTD/svg11.dtd">
<!-- Generated by graphviz version 2.43.0 (0)
 -->
<!-- Title: ISR Pages: 1 -->
<svg width="323pt" height="85pt"
 viewBox="0.00 0.00 323.00 85.00" xmlns="http://www.w3.org/2000/svg" xmlns:xlink="http://www.w3.org/1999/xlink">
<g id="graph0" class="graph" transform="scale(1 1) rotate(0) translate(4 81)">
<title>ISR</title>
<polygon fill="white" stroke="transparent" points="-4,4 -4,-81 319,-81 319,4 -4,4"/>
<!-- Node1 -->
<g id="node1" class="node">
<title>Node1</title>
<g id="a_node1"><a xlink:title=" ">
<polygon fill="#bfbfbf" stroke="black" points="0,-38.5 0,-57.5 32,-57.5 32,-38.5 0,-38.5"/>
<text text-anchor="middle" x="16" y="-45.5" font-family="Helvetica,sans-Serif" font-size="10.00">ISR</text>
</a>
</g>
</g>
<!-- Node2 -->
<g id="node2" class="node">
<title>Node2</title>
<g id="a_node2"><a xlink:href="os__input_8c.html#a137e8a89b9524ec791fffccedb04fef0" target="_top" xlink:title="Refreshes the button states.">
<polygon fill="white" stroke="black" points="226,-57.5 226,-76.5 300,-76.5 300,-57.5 226,-57.5"/>
<text text-anchor="middle" x="263" y="-64.5" font-family="Helvetica,sans-Serif" font-size="10.00">os_getInput</text>
</a>
</g>
</g>
<!-- Node1&#45;&gt;Node2 -->
<g id="edge1" class="edge">
<title>Node1&#45;&gt;Node2</title>
<path fill="none" stroke="midnightblue" d="M32.22,-55.3C42.15,-59.65 55.54,-64.75 68,-67 117.9,-75.99 176.2,-74.41 215.77,-71.58"/>
<polygon fill="midnightblue" stroke="midnightblue" points="216.2,-75.05 225.9,-70.8 215.67,-68.08 216.2,-75.05"/>
</g>
<!-- Node3 -->
<g id="node3" class="node">
<title>Node3</title>
<g id="a_node3"><a xlink:href="os__taskman_8h.html#a95445fd0daa95f57aee301b431d6e18b" target="_top" xlink:title="Main loop for the TaskManager.">
<polygon fill="white" stroke="black" points="72,-0.5 72,-19.5 171,-19.5 171,-0.5 72,-0.5"/>
<text text-anchor="middle" x="121.5" y="-7.5" font-family="Helvetica,sans-Serif" font-size="10.00">os_taskManMain</text>
</a>
</g>
</g>
<!-- Node1&#45;&gt;Node3 -->
<g id="edge2" class="edge">
<title>Node1&#45;&gt;Node3</title>
<path fill="none" stroke="midnightblue" d="M32.16,-42.31C42.3,-38.52 55.94,-33.43 68,-29 73.29,-27.06 78.88,-25.02 84.37,-23.03"/>
<polygon fill="midnightblue" stroke="midnightblue" points="85.83,-26.22 94.04,-19.52 83.45,-19.64 85.83,-26.22"/>
</g>
<!-- Node5 -->
<g id="node5" class="node">
<title>Node5</title>
<g id="a_node5"><a xlink:href="os__input_8c.html#ad2eb8a84abf9fcfe88654e1118b351f5" target="_top" xlink:title="Waits for all buttons to be released.">
<polygon fill="white" stroke="black" points="68,-38.5 68,-57.5 175,-57.5 175,-38.5 68,-38.5"/>
<text text-anchor="middle" x="121.5" y="-45.5" font-family="Helvetica,sans-Serif" font-size="10.00">os_waitForNoInput</text>
</a>
</g>
</g>
<!-- Node1&#45;&gt;Node5 -->
<g id="edge4" class="edge">
<title>Node1&#45;&gt;Node5</title>
<path fill="none" stroke="midnightblue" d="M32.27,-48C39.29,-48 48.13,-48 57.49,-48"/>
<polygon fill="midnightblue" stroke="midnightblue" points="57.79,-51.5 67.79,-48 57.79,-44.5 57.79,-51.5"/>
</g>
<!-- Node4 -->
<g id="node4" class="node">
<title>Node4</title>
<g id="a_node4"><a xlink:href="os__user__privileges_8h.html#addb3b2a8da2f06e6a1bc024a743dd1d4" target="_top" xlink:title=" ">
<polygon fill="white" stroke="black" points="211,-0.5 211,-19.5 315,-19.5 315,-0.5 211,-0.5"/>
<text text-anchor="middle" x="263" y="-7.5" font-family="Helvetica,sans-Serif" font-size="10.00">os_askPermission</text>
</a>
</g>
</g>
<!-- Node3&#45;&gt;Node4 -->
<g id="edge3" class="edge">
<title>Node3&#45;&gt;Node4</title>
<path fill="none" stroke="midnightblue" d="M171.29,-10C180.74,-10 190.75,-10 200.54,-10"/>
<polygon fill="midnightblue" stroke="midnightblue" points="200.63,-13.5 210.63,-10 200.63,-6.5 200.63,-13.5"/>
</g>
<!-- Node5&#45;&gt;Node2 -->
<g id="edge5" class="edge">
<title>Node5&#45;&gt;Node2</title>
<path fill="none" stroke="midnightblue" d="M175.24,-55.18C188.51,-56.99 202.66,-58.92 215.59,-60.68"/>
<polygon fill="midnightblue" stroke="midnightblue" points="215.29,-64.17 225.67,-62.05 216.23,-57.23 215.29,-64.17"/>
</g>
</g>
</svg>
