<?xml version="1.0" encoding="UTF-8" standalone="no"?>
<!DOCTYPE svg PUBLIC "-//W3C//DTD SVG 1.1//EN"
 "http://www.w3.org/Graphics/SVG/1.1/DTD/svg11.dtd">
<!-- Generated by graphviz version 2.43.0 (0)
 -->
<!-- Title: os_scheduler.c Pages: 1 -->
<svg width="913pt" height="364pt"
 viewBox="0.00 0.00 912.50 364.00" xmlns="http://www.w3.org/2000/svg" xmlns:xlink="http://www.w3.org/1999/xlink">
<g id="graph0" class="graph" transform="scale(1 1) rotate(0) translate(4 360)">
<title>os_scheduler.c</title>
<polygon fill="white" stroke="transparent" points="-4,4 -4,-360 908.5,-360 908.5,4 -4,4"/>
<!-- Node1 -->
<g id="node1" class="node">
<title>Node1</title>
<g id="a_node1"><a xlink:title="Scheduling module for the OS.">
<polygon fill="#bfbfbf" stroke="black" points="371.5,-336.5 371.5,-355.5 459.5,-355.5 459.5,-336.5 371.5,-336.5"/>
<text text-anchor="middle" x="415.5" y="-343.5" font-family="Helvetica,sans-Serif" font-size="10.00">os_scheduler.c</text>
</a>
</g>
</g>
<!-- Node2 -->
<g id="node2" class="node">
<title>Node2</title>
<g id="a_node2"><a xlink:href="os__scheduler_8h.html" target="_top" xlink:title="Scheduling module for the OS.">
<polygon fill="white" stroke="black" points="515,-224.5 515,-243.5 604,-243.5 604,-224.5 515,-224.5"/>
<text text-anchor="middle" x="559.5" y="-231.5" font-family="Helvetica,sans-Serif" font-size="10.00">os_scheduler.h</text>
</a>
</g>
</g>
<!-- Node1&#45;&gt;Node2 -->
<g id="edge1" class="edge">
<title>Node1&#45;&gt;Node2</title>
<path fill="none" stroke="midnightblue" d="M426.8,-336.37C451.3,-317.65 509.56,-273.15 540.08,-249.83"/>
<polygon fill="midnightblue" stroke="midnightblue" points="542.43,-252.44 548.25,-243.59 538.18,-246.88 542.43,-252.44"/>
</g>
<!-- Node7 -->
<g id="node7" class="node">
<title>Node7</title>
<g id="a_node7"><a xlink:title=" ">
<polygon fill="white" stroke="#bfbfbf" points="347.5,-112.5 347.5,-131.5 409.5,-131.5 409.5,-112.5 347.5,-112.5"/>
<text text-anchor="middle" x="378.5" y="-119.5" font-family="Helvetica,sans-Serif" font-size="10.00">stdbool.h</text>
</a>
</g>
</g>
<!-- Node1&#45;&gt;Node7 -->
<g id="edge40" class="edge">
<title>Node1&#45;&gt;Node7</title>
<path fill="none" stroke="midnightblue" d="M399.72,-336.47C387.3,-328.77 370.89,-316.18 363.5,-300 339.08,-246.58 359.3,-174.67 371.25,-141.35"/>
<polygon fill="midnightblue" stroke="midnightblue" points="374.67,-142.21 374.91,-131.62 368.12,-139.75 374.67,-142.21"/>
</g>
<!-- Node9 -->
<g id="node9" class="node">
<title>Node9</title>
<g id="a_node9"><a xlink:href="lcd_8h.html" target="_top" xlink:title="Library for LCD use.">
<polygon fill="white" stroke="black" points="233.5,-224.5 233.5,-243.5 273.5,-243.5 273.5,-224.5 233.5,-224.5"/>
<text text-anchor="middle" x="253.5" y="-231.5" font-family="Helvetica,sans-Serif" font-size="10.00">lcd.h</text>
</a>
</g>
</g>
<!-- Node1&#45;&gt;Node9 -->
<g id="edge9" class="edge">
<title>Node1&#45;&gt;Node9</title>
<path fill="none" stroke="midnightblue" d="M396.6,-336.44C378.93,-328.1 352.09,-314.58 330.5,-300 308.24,-284.96 284.98,-264.58 269.93,-250.67"/>
<polygon fill="midnightblue" stroke="midnightblue" points="272.16,-247.97 262.47,-243.69 267.37,-253.08 272.16,-247.97"/>
</g>
<!-- Node12 -->
<g id="node12" class="node">
<title>Node12</title>
<g id="a_node12"><a xlink:href="util_8h.html" target="_top" xlink:title="Little helpers that don&#39;t fit elsewhere.">
<polygon fill="white" stroke="black" points="131,-168.5 131,-187.5 172,-187.5 172,-168.5 131,-168.5"/>
<text text-anchor="middle" x="151.5" y="-175.5" font-family="Helvetica,sans-Serif" font-size="10.00">util.h</text>
</a>
</g>
</g>
<!-- Node1&#45;&gt;Node12 -->
<g id="edge38" class="edge">
<title>Node1&#45;&gt;Node12</title>
<path fill="none" stroke="midnightblue" d="M387.64,-336.39C363.76,-328.48 328.85,-315.63 300.5,-300 263.76,-279.74 257.09,-270.42 224.5,-244 204.67,-227.92 182.93,-208.29 168.38,-194.83"/>
<polygon fill="midnightblue" stroke="midnightblue" points="170.41,-191.95 160.71,-187.7 165.65,-197.07 170.41,-191.95"/>
</g>
<!-- Node13 -->
<g id="node13" class="node">
<title>Node13</title>
<g id="a_node13"><a xlink:href="os__core_8h.html" target="_top" xlink:title="Core of the OS.">
<polygon fill="white" stroke="black" points="0,-224.5 0,-243.5 63,-243.5 63,-224.5 0,-224.5"/>
<text text-anchor="middle" x="31.5" y="-231.5" font-family="Helvetica,sans-Serif" font-size="10.00">os_core.h</text>
</a>
</g>
</g>
<!-- Node1&#45;&gt;Node13 -->
<g id="edge19" class="edge">
<title>Node1&#45;&gt;Node13</title>
<path fill="none" stroke="midnightblue" d="M371.23,-341.14C319.59,-335.75 232.17,-323.81 160.5,-300 121.25,-286.96 79.03,-263.74 53.96,-248.87"/>
<polygon fill="midnightblue" stroke="midnightblue" points="55.6,-245.78 45.23,-243.62 52,-251.78 55.6,-245.78"/>
</g>
<!-- Node14 -->
<g id="node14" class="node">
<title>Node14</title>
<g id="a_node14"><a xlink:href="os__input_8h.html" target="_top" xlink:title="Input library for the OS.">
<polygon fill="white" stroke="black" points="98,-224.5 98,-243.5 165,-243.5 165,-224.5 98,-224.5"/>
<text text-anchor="middle" x="131.5" y="-231.5" font-family="Helvetica,sans-Serif" font-size="10.00">os_input.h</text>
</a>
</g>
</g>
<!-- Node1&#45;&gt;Node14 -->
<g id="edge21" class="edge">
<title>Node1&#45;&gt;Node14</title>
<path fill="none" stroke="midnightblue" d="M371.36,-344.68C323.12,-342.51 245.03,-333.5 187.5,-300 167.86,-288.56 151.74,-267.67 141.92,-252.66"/>
<polygon fill="midnightblue" stroke="midnightblue" points="144.66,-250.43 136.4,-243.8 138.72,-254.13 144.66,-250.43"/>
</g>
<!-- Node15 -->
<g id="node15" class="node">
<title>Node15</title>
<g id="a_node15"><a xlink:href="os__memheap__drivers_8h.html" target="_top" xlink:title="Drivers for OS heap management.">
<polygon fill="white" stroke="black" points="661,-224.5 661,-243.5 792,-243.5 792,-224.5 661,-224.5"/>
<text text-anchor="middle" x="726.5" y="-231.5" font-family="Helvetica,sans-Serif" font-size="10.00">os_memheap_drivers.h</text>
</a>
</g>
</g>
<!-- Node1&#45;&gt;Node15 -->
<g id="edge23" class="edge">
<title>Node1&#45;&gt;Node15</title>
<path fill="none" stroke="midnightblue" d="M459.62,-340.97C523.25,-334.54 637.04,-320.56 672.5,-300 691.86,-288.77 707.33,-267.84 716.66,-252.76"/>
<polygon fill="midnightblue" stroke="midnightblue" points="719.85,-254.25 721.89,-243.85 713.81,-250.7 719.85,-254.25"/>
</g>
<!-- Node19 -->
<g id="node19" class="node">
<title>Node19</title>
<g id="a_node19"><a xlink:href="os__memory_8h.html" target="_top" xlink:title="Library for OS memory management.">
<polygon fill="white" stroke="black" points="718.5,-280.5 718.5,-299.5 800.5,-299.5 800.5,-280.5 718.5,-280.5"/>
<text text-anchor="middle" x="759.5" y="-287.5" font-family="Helvetica,sans-Serif" font-size="10.00">os_memory.h</text>
</a>
</g>
</g>
<!-- Node1&#45;&gt;Node19 -->
<g id="edge29" class="edge">
<title>Node1&#45;&gt;Node19</title>
<path fill="none" stroke="midnightblue" d="M459.58,-338.24C516.27,-329.53 617.75,-313.85 704.5,-300 705.76,-299.8 707.04,-299.59 708.33,-299.39"/>
<polygon fill="midnightblue" stroke="midnightblue" points="709.05,-302.82 718.36,-297.77 707.93,-295.91 709.05,-302.82"/>
</g>
<!-- Node20 -->
<g id="node20" class="node">
<title>Node20</title>
<g id="a_node20"><a xlink:href="os__scheduling__strategies_8h.html" target="_top" xlink:title="Scheduling library for the OS.">
<polygon fill="white" stroke="black" points="514,-280.5 514,-299.5 663,-299.5 663,-280.5 514,-280.5"/>
<text text-anchor="middle" x="588.5" y="-287.5" font-family="Helvetica,sans-Serif" font-size="10.00">os_scheduling_strategies.h</text>
</a>
</g>
</g>
<!-- Node1&#45;&gt;Node20 -->
<g id="edge33" class="edge">
<title>Node1&#45;&gt;Node20</title>
<path fill="none" stroke="midnightblue" d="M442.91,-336.44C472.27,-327.28 519.02,-312.69 551.6,-302.52"/>
<polygon fill="midnightblue" stroke="midnightblue" points="552.71,-305.84 561.22,-299.52 550.63,-299.16 552.71,-305.84"/>
</g>
<!-- Node21 -->
<g id="node21" class="node">
<title>Node21</title>
<g id="a_node21"><a xlink:href="os__taskman_8h.html" target="_top" xlink:title="TaskManager library for the OS.">
<polygon fill="white" stroke="black" points="373,-280.5 373,-299.5 458,-299.5 458,-280.5 373,-280.5"/>
<text text-anchor="middle" x="415.5" y="-287.5" font-family="Helvetica,sans-Serif" font-size="10.00">os_taskman.h</text>
</a>
</g>
</g>
<!-- Node1&#45;&gt;Node21 -->
<g id="edge36" class="edge">
<title>Node1&#45;&gt;Node21</title>
<path fill="none" stroke="midnightblue" d="M415.5,-336.08C415.5,-329.01 415.5,-318.86 415.5,-309.99"/>
<polygon fill="midnightblue" stroke="midnightblue" points="419,-309.75 415.5,-299.75 412,-309.75 419,-309.75"/>
</g>
<!-- Node22 -->
<g id="node22" class="node">
<title>Node22</title>
<g id="a_node22"><a xlink:title=" ">
<polygon fill="white" stroke="#bfbfbf" points="818.5,-280.5 818.5,-299.5 904.5,-299.5 904.5,-280.5 818.5,-280.5"/>
<text text-anchor="middle" x="861.5" y="-287.5" font-family="Helvetica,sans-Serif" font-size="10.00">avr/interrupt.h</text>
</a>
</g>
</g>
<!-- Node1&#45;&gt;Node22 -->
<g id="edge39" class="edge">
<title>Node1&#45;&gt;Node22</title>
<path fill="none" stroke="midnightblue" d="M459.63,-340.8C530.81,-333.84 675.62,-318.92 808.45,-300.08"/>
<polygon fill="midnightblue" stroke="midnightblue" points="809,-303.54 818.4,-298.66 808.01,-296.61 809,-303.54"/>
</g>
<!-- Node3 -->
<g id="node3" class="node">
<title>Node3</title>
<g id="a_node3"><a xlink:href="defines_8h.html" target="_top" xlink:title="Simple definitions and assembler&#45;macros, mostly 8/16&#45;Bit values.">
<polygon fill="white" stroke="black" points="602,-112.5 602,-131.5 663,-131.5 663,-112.5 602,-112.5"/>
<text text-anchor="middle" x="632.5" y="-119.5" font-family="Helvetica,sans-Serif" font-size="10.00">defines.h</text>
</a>
</g>
</g>
<!-- Node2&#45;&gt;Node3 -->
<g id="edge2" class="edge">
<title>Node2&#45;&gt;Node3</title>
<path fill="none" stroke="midnightblue" d="M565.23,-224.37C577.28,-206.22 605.42,-163.8 621.22,-139.99"/>
<polygon fill="midnightblue" stroke="midnightblue" points="624.19,-141.86 626.8,-131.59 618.35,-137.99 624.19,-141.86"/>
</g>
<!-- Node6 -->
<g id="node6" class="node">
<title>Node6</title>
<g id="a_node6"><a xlink:href="os__process_8h.html" target="_top" xlink:title="Struct specifying a process.">
<polygon fill="white" stroke="black" points="372.5,-168.5 372.5,-187.5 452.5,-187.5 452.5,-168.5 372.5,-168.5"/>
<text text-anchor="middle" x="412.5" y="-175.5" font-family="Helvetica,sans-Serif" font-size="10.00">os_process.h</text>
</a>
</g>
</g>
<!-- Node2&#45;&gt;Node6 -->
<g id="edge5" class="edge">
<title>Node2&#45;&gt;Node6</title>
<path fill="none" stroke="midnightblue" d="M536.21,-224.44C511.69,-215.44 472.9,-201.19 445.3,-191.05"/>
<polygon fill="midnightblue" stroke="midnightblue" points="446.28,-187.68 435.68,-187.52 443.86,-194.25 446.28,-187.68"/>
</g>
<!-- Node2&#45;&gt;Node7 -->
<g id="edge8" class="edge">
<title>Node2&#45;&gt;Node7</title>
<path fill="none" stroke="midnightblue" d="M558.34,-224.48C556.01,-210.61 549.43,-183.17 532.5,-168 501.39,-140.12 453.87,-129.46 419.85,-125.42"/>
<polygon fill="midnightblue" stroke="midnightblue" points="420.07,-121.92 409.76,-124.36 419.34,-128.88 420.07,-121.92"/>
</g>
<!-- Node4 -->
<g id="node4" class="node">
<title>Node4</title>
<g id="a_node4"><a xlink:href="atmega644constants_8h.html" target="_top" xlink:title="Constants for ATMega644 and EVA board. Defines several useful constants for the ATMega644.">
<polygon fill="white" stroke="black" points="568.5,-56.5 568.5,-75.5 696.5,-75.5 696.5,-56.5 568.5,-56.5"/>
<text text-anchor="middle" x="632.5" y="-63.5" font-family="Helvetica,sans-Serif" font-size="10.00">atmega644constants.h</text>
</a>
</g>
</g>
<!-- Node3&#45;&gt;Node4 -->
<g id="edge3" class="edge">
<title>Node3&#45;&gt;Node4</title>
<path fill="none" stroke="midnightblue" d="M632.5,-112.08C632.5,-105.01 632.5,-94.86 632.5,-85.99"/>
<polygon fill="midnightblue" stroke="midnightblue" points="636,-85.75 632.5,-75.75 629,-85.75 636,-85.75"/>
</g>
<!-- Node5 -->
<g id="node5" class="node">
<title>Node5</title>
<g id="a_node5"><a xlink:title=" ">
<polygon fill="white" stroke="#bfbfbf" points="606,-0.5 606,-19.5 659,-19.5 659,-0.5 606,-0.5"/>
<text text-anchor="middle" x="632.5" y="-7.5" font-family="Helvetica,sans-Serif" font-size="10.00">avr/io.h</text>
</a>
</g>
</g>
<!-- Node4&#45;&gt;Node5 -->
<g id="edge4" class="edge">
<title>Node4&#45;&gt;Node5</title>
<path fill="none" stroke="midnightblue" d="M632.5,-56.08C632.5,-49.01 632.5,-38.86 632.5,-29.99"/>
<polygon fill="midnightblue" stroke="midnightblue" points="636,-29.75 632.5,-19.75 629,-29.75 636,-29.75"/>
</g>
<!-- Node6&#45;&gt;Node7 -->
<g id="edge6" class="edge">
<title>Node6&#45;&gt;Node7</title>
<path fill="none" stroke="midnightblue" d="M406.89,-168.08C402.13,-160.53 395.18,-149.49 389.35,-140.23"/>
<polygon fill="midnightblue" stroke="midnightblue" points="392.3,-138.35 384.01,-131.75 386.38,-142.08 392.3,-138.35"/>
</g>
<!-- Node8 -->
<g id="node8" class="node">
<title>Node8</title>
<g id="a_node8"><a xlink:title=" ">
<polygon fill="white" stroke="#bfbfbf" points="152,-112.5 152,-131.5 205,-131.5 205,-112.5 152,-112.5"/>
<text text-anchor="middle" x="178.5" y="-119.5" font-family="Helvetica,sans-Serif" font-size="10.00">stdint.h</text>
</a>
</g>
</g>
<!-- Node6&#45;&gt;Node8 -->
<g id="edge7" class="edge">
<title>Node6&#45;&gt;Node8</title>
<path fill="none" stroke="midnightblue" d="M375.42,-168.44C331.52,-158.31 258.85,-141.54 215.14,-131.46"/>
<polygon fill="midnightblue" stroke="midnightblue" points="215.75,-128 205.21,-129.16 214.17,-134.82 215.75,-128"/>
</g>
<!-- Node9&#45;&gt;Node3 -->
<g id="edge14" class="edge">
<title>Node9&#45;&gt;Node3</title>
<path fill="none" stroke="midnightblue" d="M273.54,-229.7C310.93,-223.31 393.66,-208.11 461.5,-188 512.49,-172.88 569.95,-149.73 603.59,-135.52"/>
<polygon fill="midnightblue" stroke="midnightblue" points="604.99,-138.73 612.83,-131.59 602.25,-132.29 604.99,-138.73"/>
</g>
<!-- Node9&#45;&gt;Node7 -->
<g id="edge11" class="edge">
<title>Node9&#45;&gt;Node7</title>
<path fill="none" stroke="midnightblue" d="M263.31,-224.37C284.39,-205.81 334.28,-161.91 360.96,-138.44"/>
<polygon fill="midnightblue" stroke="midnightblue" points="363.54,-140.83 368.74,-131.59 358.92,-135.57 363.54,-140.83"/>
</g>
<!-- Node9&#45;&gt;Node8 -->
<g id="edge12" class="edge">
<title>Node9&#45;&gt;Node8</title>
<path fill="none" stroke="midnightblue" d="M246.5,-224.2C239.46,-215.24 228.41,-200.89 219.5,-188 208.51,-172.1 196.83,-153.39 188.76,-140.13"/>
<polygon fill="midnightblue" stroke="midnightblue" points="191.75,-138.31 183.58,-131.56 185.76,-141.93 191.75,-138.31"/>
</g>
<!-- Node10 -->
<g id="node10" class="node">
<title>Node10</title>
<g id="a_node10"><a xlink:title=" ">
<polygon fill="white" stroke="#bfbfbf" points="17,-112.5 17,-131.5 112,-131.5 112,-112.5 17,-112.5"/>
<text text-anchor="middle" x="64.5" y="-119.5" font-family="Helvetica,sans-Serif" font-size="10.00">avr/pgmspace.h</text>
</a>
</g>
</g>
<!-- Node9&#45;&gt;Node10 -->
<g id="edge10" class="edge">
<title>Node9&#45;&gt;Node10</title>
<path fill="none" stroke="midnightblue" d="M233.26,-229.51C206.03,-224.08 156.92,-211.7 121.5,-188 102.67,-175.4 86.23,-155.06 75.91,-140.49"/>
<polygon fill="midnightblue" stroke="midnightblue" points="78.57,-138.18 70.04,-131.89 72.78,-142.12 78.57,-138.18"/>
</g>
<!-- Node11 -->
<g id="node11" class="node">
<title>Node11</title>
<g id="a_node11"><a xlink:title=" ">
<polygon fill="white" stroke="#bfbfbf" points="228.5,-168.5 228.5,-187.5 278.5,-187.5 278.5,-168.5 228.5,-168.5"/>
<text text-anchor="middle" x="253.5" y="-175.5" font-family="Helvetica,sans-Serif" font-size="10.00">stdio.h</text>
</a>
</g>
</g>
<!-- Node9&#45;&gt;Node11 -->
<g id="edge13" class="edge">
<title>Node9&#45;&gt;Node11</title>
<path fill="none" stroke="midnightblue" d="M253.5,-224.08C253.5,-217.01 253.5,-206.86 253.5,-197.99"/>
<polygon fill="midnightblue" stroke="midnightblue" points="257,-197.75 253.5,-187.75 250,-197.75 257,-197.75"/>
</g>
<!-- Node9&#45;&gt;Node12 -->
<g id="edge15" class="edge">
<title>Node9&#45;&gt;Node12</title>
<path fill="none" stroke="midnightblue" d="M237.11,-224.32C220.83,-215.7 195.63,-202.36 176.78,-192.39"/>
<polygon fill="midnightblue" stroke="midnightblue" points="178.32,-189.24 167.85,-187.65 175.05,-195.43 178.32,-189.24"/>
</g>
<!-- Node12&#45;&gt;Node7 -->
<g id="edge17" class="edge">
<title>Node12&#45;&gt;Node7</title>
<path fill="none" stroke="midnightblue" d="M172.05,-172.11C209.34,-163.24 288.81,-144.34 337.55,-132.74"/>
<polygon fill="midnightblue" stroke="midnightblue" points="338.54,-136.1 347.46,-130.39 336.92,-129.29 338.54,-136.1"/>
</g>
<!-- Node12&#45;&gt;Node8 -->
<g id="edge18" class="edge">
<title>Node12&#45;&gt;Node8</title>
<path fill="none" stroke="midnightblue" d="M155.96,-168.08C159.65,-160.69 165.02,-149.95 169.59,-140.81"/>
<polygon fill="midnightblue" stroke="midnightblue" points="172.78,-142.26 174.12,-131.75 166.52,-139.13 172.78,-142.26"/>
</g>
<!-- Node12&#45;&gt;Node10 -->
<g id="edge16" class="edge">
<title>Node12&#45;&gt;Node10</title>
<path fill="none" stroke="midnightblue" d="M137.52,-168.32C123.95,-159.9 103.12,-146.97 87.18,-137.07"/>
<polygon fill="midnightblue" stroke="midnightblue" points="88.79,-133.95 78.44,-131.65 85.09,-139.9 88.79,-133.95"/>
</g>
<!-- Node13&#45;&gt;Node10 -->
<g id="edge20" class="edge">
<title>Node13&#45;&gt;Node10</title>
<path fill="none" stroke="midnightblue" d="M34.03,-224.15C37.63,-211.63 44.46,-188.04 50.5,-168 53.16,-159.18 56.19,-149.41 58.75,-141.23"/>
<polygon fill="midnightblue" stroke="midnightblue" points="62.11,-142.2 61.77,-131.61 55.44,-140.1 62.11,-142.2"/>
</g>
<!-- Node14&#45;&gt;Node8 -->
<g id="edge22" class="edge">
<title>Node14&#45;&gt;Node8</title>
<path fill="none" stroke="midnightblue" d="M127.01,-224.11C121.12,-211.12 112.54,-186.49 121.5,-168 127.9,-154.8 140.25,-144.3 151.83,-136.78"/>
<polygon fill="midnightblue" stroke="midnightblue" points="153.66,-139.77 160.42,-131.61 150.05,-133.77 153.66,-139.77"/>
</g>
<!-- Node15&#45;&gt;Node3 -->
<g id="edge24" class="edge">
<title>Node15&#45;&gt;Node3</title>
<path fill="none" stroke="midnightblue" d="M719.12,-224.37C703.47,-206.05 666.72,-163.05 646.48,-139.36"/>
<polygon fill="midnightblue" stroke="midnightblue" points="649,-136.92 639.84,-131.59 643.68,-141.47 649,-136.92"/>
</g>
<!-- Node16 -->
<g id="node16" class="node">
<title>Node16</title>
<g id="a_node16"><a xlink:href="os__mem__drivers_8h.html" target="_top" xlink:title="Drivers for OS memory management.">
<polygon fill="white" stroke="black" points="773,-168.5 773,-187.5 880,-187.5 880,-168.5 773,-168.5"/>
<text text-anchor="middle" x="826.5" y="-175.5" font-family="Helvetica,sans-Serif" font-size="10.00">os_mem_drivers.h</text>
</a>
</g>
</g>
<!-- Node15&#45;&gt;Node16 -->
<g id="edge25" class="edge">
<title>Node15&#45;&gt;Node16</title>
<path fill="none" stroke="midnightblue" d="M742.57,-224.32C758.46,-215.74 783.01,-202.49 801.46,-192.52"/>
<polygon fill="midnightblue" stroke="midnightblue" points="803.34,-195.49 810.47,-187.65 800.01,-189.33 803.34,-195.49"/>
</g>
<!-- Node18 -->
<g id="node18" class="node">
<title>Node18</title>
<g id="a_node18"><a xlink:title=" ">
<polygon fill="white" stroke="#bfbfbf" points="698.5,-168.5 698.5,-187.5 754.5,-187.5 754.5,-168.5 698.5,-168.5"/>
<text text-anchor="middle" x="726.5" y="-175.5" font-family="Helvetica,sans-Serif" font-size="10.00">stddef.h</text>
</a>
</g>
</g>
<!-- Node15&#45;&gt;Node18 -->
<g id="edge28" class="edge">
<title>Node15&#45;&gt;Node18</title>
<path fill="none" stroke="midnightblue" d="M726.5,-224.08C726.5,-217.01 726.5,-206.86 726.5,-197.99"/>
<polygon fill="midnightblue" stroke="midnightblue" points="730,-197.75 726.5,-187.75 723,-197.75 730,-197.75"/>
</g>
<!-- Node16&#45;&gt;Node3 -->
<g id="edge26" class="edge">
<title>Node16&#45;&gt;Node3</title>
<path fill="none" stroke="midnightblue" d="M795.76,-168.44C762.56,-159.2 709.51,-144.44 672.94,-134.26"/>
<polygon fill="midnightblue" stroke="midnightblue" points="673.67,-130.83 663.1,-131.52 671.79,-137.57 673.67,-130.83"/>
</g>
<!-- Node17 -->
<g id="node17" class="node">
<title>Node17</title>
<g id="a_node17"><a xlink:title=" ">
<polygon fill="white" stroke="#bfbfbf" points="794,-112.5 794,-131.5 859,-131.5 859,-112.5 794,-112.5"/>
<text text-anchor="middle" x="826.5" y="-119.5" font-family="Helvetica,sans-Serif" font-size="10.00">inttypes.h</text>
</a>
</g>
</g>
<!-- Node16&#45;&gt;Node17 -->
<g id="edge27" class="edge">
<title>Node16&#45;&gt;Node17</title>
<path fill="none" stroke="midnightblue" d="M826.5,-168.08C826.5,-161.01 826.5,-150.86 826.5,-141.99"/>
<polygon fill="midnightblue" stroke="midnightblue" points="830,-141.75 826.5,-131.75 823,-141.75 830,-141.75"/>
</g>
<!-- Node19&#45;&gt;Node2 -->
<g id="edge32" class="edge">
<title>Node19&#45;&gt;Node2</title>
<path fill="none" stroke="midnightblue" d="M727.81,-280.44C693.43,-271.16 638.42,-256.31 600.71,-246.13"/>
<polygon fill="midnightblue" stroke="midnightblue" points="601.61,-242.74 591.04,-243.52 599.78,-249.5 601.61,-242.74"/>
</g>
<!-- Node19&#45;&gt;Node15 -->
<g id="edge31" class="edge">
<title>Node19&#45;&gt;Node15</title>
<path fill="none" stroke="midnightblue" d="M754.05,-280.08C749.49,-272.61 742.83,-261.72 737.21,-252.52"/>
<polygon fill="midnightblue" stroke="midnightblue" points="740.05,-250.46 731.85,-243.75 734.08,-254.11 740.05,-250.46"/>
</g>
<!-- Node19&#45;&gt;Node16 -->
<g id="edge30" class="edge">
<title>Node19&#45;&gt;Node16</title>
<path fill="none" stroke="midnightblue" d="M769.67,-280.23C779,-271.75 792.66,-258.13 801.5,-244 810.61,-229.44 817.3,-211.03 821.46,-197.52"/>
<polygon fill="midnightblue" stroke="midnightblue" points="824.83,-198.49 824.25,-187.91 818.1,-196.54 824.83,-198.49"/>
</g>
<!-- Node20&#45;&gt;Node2 -->
<g id="edge35" class="edge">
<title>Node20&#45;&gt;Node2</title>
<path fill="none" stroke="midnightblue" d="M583.71,-280.08C579.74,-272.69 573.97,-261.95 569.07,-252.81"/>
<polygon fill="midnightblue" stroke="midnightblue" points="572.01,-250.91 564.2,-243.75 565.85,-254.22 572.01,-250.91"/>
</g>
<!-- Node20&#45;&gt;Node3 -->
<g id="edge34" class="edge">
<title>Node20&#45;&gt;Node3</title>
<path fill="none" stroke="midnightblue" d="M594.45,-280.47C600.24,-271.72 608.85,-257.52 613.5,-244 625.45,-209.27 629.93,-166.32 631.57,-142.05"/>
<polygon fill="midnightblue" stroke="midnightblue" points="635.08,-141.95 632.17,-131.76 628.09,-141.54 635.08,-141.95"/>
</g>
<!-- Node21&#45;&gt;Node7 -->
<g id="edge37" class="edge">
<title>Node21&#45;&gt;Node7</title>
<path fill="none" stroke="midnightblue" d="M423.88,-280.33C442.66,-259.79 484.72,-207.01 461.5,-168 452.18,-152.34 435.3,-141.8 419.18,-134.88"/>
<polygon fill="midnightblue" stroke="midnightblue" points="420.43,-131.61 409.85,-131.21 417.87,-138.12 420.43,-131.61"/>
</g>
</g>
</svg>
