<?xml version="1.0" encoding="UTF-8" standalone="no"?>
<!DOCTYPE svg PUBLIC "-//W3C//DTD SVG 1.1//EN"
 "http://www.w3.org/Graphics/SVG/1.1/DTD/svg11.dtd">
<!-- Generated by graphviz version 2.43.0 (0)
 -->
<!-- Title: rfid_receive Pages: 1 -->
<svg width="570pt" height="104pt"
 viewBox="0.00 0.00 570.00 104.00" xmlns="http://www.w3.org/2000/svg" xmlns:xlink="http://www.w3.org/1999/xlink">
<g id="graph0" class="graph" transform="scale(1 1) rotate(0) translate(4 100)">
<title>rfid_receive</title>
<polygon fill="white" stroke="transparent" points="-4,4 -4,-100 566,-100 566,4 -4,4"/>
<!-- Node1 -->
<g id="node1" class="node">
<title>Node1</title>
<g id="a_node1"><a xlink:title="Receives one RFID&#45;Tag. This is the only one external called function.">
<polygon fill="#bfbfbf" stroke="black" points="0,-38.5 0,-57.5 74,-57.5 74,-38.5 0,-38.5"/>
<text text-anchor="middle" x="37" y="-45.5" font-family="Helvetica,sans-Serif" font-size="10.00">rfid_receive</text>
</a>
</g>
</g>
<!-- Node2 -->
<g id="node2" class="node">
<title>Node2</title>
<g id="a_node2"><a xlink:href="util_8c.html#a6203c4722e9cbe1542b6ccbe98362dd2" target="_top" xlink:title="Waits for some milliseconds.">
<polygon fill="white" stroke="black" points="132.5,-76.5 132.5,-95.5 190.5,-95.5 190.5,-76.5 132.5,-76.5"/>
<text text-anchor="middle" x="161.5" y="-83.5" font-family="Helvetica,sans-Serif" font-size="10.00">delayMs</text>
</a>
</g>
</g>
<!-- Node1&#45;&gt;Node2 -->
<g id="edge1" class="edge">
<title>Node1&#45;&gt;Node2</title>
<path fill="none" stroke="midnightblue" d="M68.91,-57.59C85.15,-62.62 105.18,-68.84 122.38,-74.17"/>
<polygon fill="midnightblue" stroke="midnightblue" points="121.53,-77.58 132.12,-77.2 123.6,-70.89 121.53,-77.58"/>
</g>
<!-- Node5 -->
<g id="node5" class="node">
<title>Node5</title>
<g id="a_node5"><a xlink:href="lcd_8c.html#ad235a86241458b1e7b8771688bfdaf9a" target="_top" xlink:title="Clear all data from display.">
<polygon fill="white" stroke="black" points="131.5,-38.5 131.5,-57.5 191.5,-57.5 191.5,-38.5 131.5,-38.5"/>
<text text-anchor="middle" x="161.5" y="-45.5" font-family="Helvetica,sans-Serif" font-size="10.00">lcd_clear</text>
</a>
</g>
</g>
<!-- Node1&#45;&gt;Node5 -->
<g id="edge4" class="edge">
<title>Node1&#45;&gt;Node5</title>
<path fill="none" stroke="midnightblue" d="M74.09,-48C88.89,-48 106.05,-48 121.16,-48"/>
<polygon fill="midnightblue" stroke="midnightblue" points="121.25,-51.5 131.25,-48 121.25,-44.5 121.25,-51.5"/>
</g>
<!-- Node8 -->
<g id="node8" class="node">
<title>Node8</title>
<g id="a_node8"><a xlink:href="lcd_8c.html#ac474e7328f850a8b9af9de57df93e2f3" target="_top" xlink:title="Write one hexadecimal byte.">
<polygon fill="white" stroke="black" points="110,-0.5 110,-19.5 213,-19.5 213,-0.5 110,-0.5"/>
<text text-anchor="middle" x="161.5" y="-7.5" font-family="Helvetica,sans-Serif" font-size="10.00">lcd_writeHexByte</text>
</a>
</g>
</g>
<!-- Node1&#45;&gt;Node8 -->
<g id="edge7" class="edge">
<title>Node1&#45;&gt;Node8</title>
<path fill="none" stroke="midnightblue" d="M68.91,-38.41C84.29,-33.64 103.08,-27.81 119.63,-22.68"/>
<polygon fill="midnightblue" stroke="midnightblue" points="121.08,-25.89 129.6,-19.59 119.01,-19.21 121.08,-25.89"/>
</g>
<!-- Node3 -->
<g id="node3" class="node">
<title>Node3</title>
<g id="a_node3"><a xlink:href="util_8c.html#a0ed4ceac216999d297c20ed56cd2f2e0" target="_top" xlink:title="Precise system time in ms.">
<polygon fill="white" stroke="black" points="249,-76.5 249,-95.5 383,-95.5 383,-76.5 249,-76.5"/>
<text text-anchor="middle" x="316" y="-83.5" font-family="Helvetica,sans-Serif" font-size="10.00">os_systemTime_precise</text>
</a>
</g>
</g>
<!-- Node2&#45;&gt;Node3 -->
<g id="edge2" class="edge">
<title>Node2&#45;&gt;Node3</title>
<path fill="none" stroke="midnightblue" d="M190.83,-86C204.51,-86 221.65,-86 238.79,-86"/>
<polygon fill="midnightblue" stroke="midnightblue" points="238.85,-89.5 248.85,-86 238.85,-82.5 238.85,-89.5"/>
</g>
<!-- Node4 -->
<g id="node4" class="node">
<title>Node4</title>
<g id="a_node4"><a xlink:href="util_8c.html#aa7568de3711b151bbc57bb3517a5cb0a" target="_top" xlink:title=" ">
<polygon fill="white" stroke="black" points="419,-76.5 419,-95.5 562,-95.5 562,-76.5 419,-76.5"/>
<text text-anchor="middle" x="490.5" y="-83.5" font-family="Helvetica,sans-Serif" font-size="10.00">os_systemTime_augment</text>
</a>
</g>
</g>
<!-- Node3&#45;&gt;Node4 -->
<g id="edge3" class="edge">
<title>Node3&#45;&gt;Node4</title>
<path fill="none" stroke="midnightblue" d="M383.2,-86C391.6,-86 400.27,-86 408.86,-86"/>
<polygon fill="midnightblue" stroke="midnightblue" points="408.89,-89.5 418.89,-86 408.89,-82.5 408.89,-89.5"/>
</g>
<!-- Node6 -->
<g id="node6" class="node">
<title>Node6</title>
<g id="a_node6"><a xlink:href="lcd_8c.html#acb116d89c358367b8fd1164120d320e3" target="_top" xlink:title="Send command to LCD.">
<polygon fill="white" stroke="black" points="273.5,-38.5 273.5,-57.5 358.5,-57.5 358.5,-38.5 273.5,-38.5"/>
<text text-anchor="middle" x="316" y="-45.5" font-family="Helvetica,sans-Serif" font-size="10.00">lcd_command</text>
</a>
</g>
</g>
<!-- Node5&#45;&gt;Node6 -->
<g id="edge5" class="edge">
<title>Node5&#45;&gt;Node6</title>
<path fill="none" stroke="midnightblue" d="M191.54,-48C211.81,-48 239.41,-48 263.37,-48"/>
<polygon fill="midnightblue" stroke="midnightblue" points="263.39,-51.5 273.39,-48 263.39,-44.5 263.39,-51.5"/>
</g>
<!-- Node7 -->
<g id="node7" class="node">
<title>Node7</title>
<g id="a_node7"><a xlink:href="lcd_8c.html#a26a89cb41bb1496462fda420cbe79a07" target="_top" xlink:title=" ">
<polygon fill="white" stroke="black" points="443,-38.5 443,-57.5 538,-57.5 538,-38.5 443,-38.5"/>
<text text-anchor="middle" x="490.5" y="-45.5" font-family="Helvetica,sans-Serif" font-size="10.00">lcd_sendStream</text>
</a>
</g>
</g>
<!-- Node6&#45;&gt;Node7 -->
<g id="edge6" class="edge">
<title>Node6&#45;&gt;Node7</title>
<path fill="none" stroke="midnightblue" d="M358.76,-48C381.01,-48 408.69,-48 432.85,-48"/>
<polygon fill="midnightblue" stroke="midnightblue" points="432.96,-51.5 442.96,-48 432.96,-44.5 432.96,-51.5"/>
</g>
<!-- Node9 -->
<g id="node9" class="node">
<title>Node9</title>
<g id="a_node9"><a xlink:href="lcd_8c.html#a01b53b89b0c268d2324d86f3fe33405d" target="_top" xlink:title="Write a half&#45;byte (a nibble)">
<polygon fill="white" stroke="black" points="260,-0.5 260,-19.5 372,-19.5 372,-0.5 260,-0.5"/>
<text text-anchor="middle" x="316" y="-7.5" font-family="Helvetica,sans-Serif" font-size="10.00">lcd_writeHexNibble</text>
</a>
</g>
</g>
<!-- Node8&#45;&gt;Node9 -->
<g id="edge8" class="edge">
<title>Node8&#45;&gt;Node9</title>
<path fill="none" stroke="midnightblue" d="M213.28,-10C224.99,-10 237.61,-10 249.83,-10"/>
<polygon fill="midnightblue" stroke="midnightblue" points="249.99,-13.5 259.99,-10 249.99,-6.5 249.99,-13.5"/>
</g>
<!-- Node10 -->
<g id="node10" class="node">
<title>Node10</title>
<g id="a_node10"><a xlink:href="lcd_8c.html#a93cd5600fa3b27381a4cf57d21f27ebf" target="_top" xlink:title="Write one character.">
<polygon fill="white" stroke="black" points="449,-0.5 449,-19.5 532,-19.5 532,-0.5 449,-0.5"/>
<text text-anchor="middle" x="490.5" y="-7.5" font-family="Helvetica,sans-Serif" font-size="10.00">lcd_writeChar</text>
</a>
</g>
</g>
<!-- Node9&#45;&gt;Node10 -->
<g id="edge9" class="edge">
<title>Node9&#45;&gt;Node10</title>
<path fill="none" stroke="midnightblue" d="M372.05,-10C393.49,-10 417.9,-10 438.89,-10"/>
<polygon fill="midnightblue" stroke="midnightblue" points="438.9,-13.5 448.9,-10 438.9,-6.5 438.9,-13.5"/>
</g>
</g>
</svg>
