<?xml version="1.0" encoding="UTF-8" standalone="no"?>
<!DOCTYPE svg PUBLIC "-//W3C//DTD SVG 1.1//EN"
 "http://www.w3.org/Graphics/SVG/1.1/DTD/svg11.dtd">
<!-- Generated by graphviz version 2.43.0 (0)
 -->
<!-- Title: rfid_init Pages: 1 -->
<svg width="557pt" height="142pt"
 viewBox="0.00 0.00 557.00 142.00" xmlns="http://www.w3.org/2000/svg" xmlns:xlink="http://www.w3.org/1999/xlink">
<g id="graph0" class="graph" transform="scale(1 1) rotate(0) translate(4 138)">
<title>rfid_init</title>
<polygon fill="white" stroke="transparent" points="-4,4 -4,-138 553,-138 553,4 -4,4"/>
<!-- Node1 -->
<g id="node1" class="node">
<title>Node1</title>
<g id="a_node1"><a xlink:title="Initializes the RFID.">
<polygon fill="#bfbfbf" stroke="black" points="0,-76.5 0,-95.5 53,-95.5 53,-76.5 0,-76.5"/>
<text text-anchor="middle" x="26.5" y="-83.5" font-family="Helvetica,sans-Serif" font-size="10.00">rfid_init</text>
</a>
</g>
</g>
<!-- Node2 -->
<g id="node2" class="node">
<title>Node2</title>
<g id="a_node2"><a xlink:href="util_8c.html#a6203c4722e9cbe1542b6ccbe98362dd2" target="_top" xlink:title="Waits for some milliseconds.">
<polygon fill="white" stroke="black" points="115.5,-114.5 115.5,-133.5 173.5,-133.5 173.5,-114.5 115.5,-114.5"/>
<text text-anchor="middle" x="144.5" y="-121.5" font-family="Helvetica,sans-Serif" font-size="10.00">delayMs</text>
</a>
</g>
</g>
<!-- Node1&#45;&gt;Node2 -->
<g id="edge1" class="edge">
<title>Node1&#45;&gt;Node2</title>
<path fill="none" stroke="midnightblue" d="M53.24,-94.43C68.64,-99.48 88.49,-105.98 105.65,-111.6"/>
<polygon fill="midnightblue" stroke="midnightblue" points="104.8,-115.01 115.39,-114.79 106.98,-108.35 104.8,-115.01"/>
</g>
<!-- Node5 -->
<g id="node5" class="node">
<title>Node5</title>
<g id="a_node5"><a xlink:href="lcd_8c.html#a12c915502d2f5eb5bca74e503ad88669" target="_top" xlink:title="Write char PROGMEM* string.">
<polygon fill="white" stroke="black" points="89,-76.5 89,-95.5 200,-95.5 200,-76.5 89,-76.5"/>
<text text-anchor="middle" x="144.5" y="-83.5" font-family="Helvetica,sans-Serif" font-size="10.00">lcd_writeProgString</text>
</a>
</g>
</g>
<!-- Node1&#45;&gt;Node5 -->
<g id="edge4" class="edge">
<title>Node1&#45;&gt;Node5</title>
<path fill="none" stroke="midnightblue" d="M53.24,-86C60.91,-86 69.67,-86 78.66,-86"/>
<polygon fill="midnightblue" stroke="midnightblue" points="78.85,-89.5 88.85,-86 78.85,-82.5 78.85,-89.5"/>
</g>
<!-- Node7 -->
<g id="node7" class="node">
<title>Node7</title>
<g id="a_node7"><a xlink:href="os__memory_8c.html#a5644c571680a5c019c91c30bee4d5d7e" target="_top" xlink:title="Function used to allocate private memory.">
<polygon fill="white" stroke="black" points="111.5,-38.5 111.5,-57.5 177.5,-57.5 177.5,-38.5 111.5,-38.5"/>
<text text-anchor="middle" x="144.5" y="-45.5" font-family="Helvetica,sans-Serif" font-size="10.00">os_malloc</text>
</a>
</g>
</g>
<!-- Node1&#45;&gt;Node7 -->
<g id="edge6" class="edge">
<title>Node1&#45;&gt;Node7</title>
<path fill="none" stroke="midnightblue" d="M53.24,-77.57C68.31,-72.63 87.63,-66.3 104.53,-60.77"/>
<polygon fill="midnightblue" stroke="midnightblue" points="105.74,-64.05 114.15,-57.62 103.56,-57.4 105.74,-64.05"/>
</g>
<!-- Node3 -->
<g id="node3" class="node">
<title>Node3</title>
<g id="a_node3"><a xlink:href="util_8c.html#a0ed4ceac216999d297c20ed56cd2f2e0" target="_top" xlink:title="Precise system time in ms.">
<polygon fill="white" stroke="black" points="236,-114.5 236,-133.5 370,-133.5 370,-114.5 236,-114.5"/>
<text text-anchor="middle" x="303" y="-121.5" font-family="Helvetica,sans-Serif" font-size="10.00">os_systemTime_precise</text>
</a>
</g>
</g>
<!-- Node2&#45;&gt;Node3 -->
<g id="edge2" class="edge">
<title>Node2&#45;&gt;Node3</title>
<path fill="none" stroke="midnightblue" d="M173.84,-124C188.48,-124 207.12,-124 225.63,-124"/>
<polygon fill="midnightblue" stroke="midnightblue" points="225.86,-127.5 235.86,-124 225.86,-120.5 225.86,-127.5"/>
</g>
<!-- Node4 -->
<g id="node4" class="node">
<title>Node4</title>
<g id="a_node4"><a xlink:href="util_8c.html#aa7568de3711b151bbc57bb3517a5cb0a" target="_top" xlink:title=" ">
<polygon fill="white" stroke="black" points="406,-114.5 406,-133.5 549,-133.5 549,-114.5 406,-114.5"/>
<text text-anchor="middle" x="477.5" y="-121.5" font-family="Helvetica,sans-Serif" font-size="10.00">os_systemTime_augment</text>
</a>
</g>
</g>
<!-- Node3&#45;&gt;Node4 -->
<g id="edge3" class="edge">
<title>Node3&#45;&gt;Node4</title>
<path fill="none" stroke="midnightblue" d="M370.2,-124C378.6,-124 387.27,-124 395.86,-124"/>
<polygon fill="midnightblue" stroke="midnightblue" points="395.89,-127.5 405.89,-124 395.89,-120.5 395.89,-127.5"/>
</g>
<!-- Node6 -->
<g id="node6" class="node">
<title>Node6</title>
<g id="a_node6"><a xlink:href="lcd_8c.html#a93cd5600fa3b27381a4cf57d21f27ebf" target="_top" xlink:title="Write one character.">
<polygon fill="white" stroke="black" points="261.5,-76.5 261.5,-95.5 344.5,-95.5 344.5,-76.5 261.5,-76.5"/>
<text text-anchor="middle" x="303" y="-83.5" font-family="Helvetica,sans-Serif" font-size="10.00">lcd_writeChar</text>
</a>
</g>
</g>
<!-- Node5&#45;&gt;Node6 -->
<g id="edge5" class="edge">
<title>Node5&#45;&gt;Node6</title>
<path fill="none" stroke="midnightblue" d="M200.24,-86C216.72,-86 234.74,-86 250.98,-86"/>
<polygon fill="midnightblue" stroke="midnightblue" points="251.35,-89.5 261.35,-86 251.35,-82.5 251.35,-89.5"/>
</g>
<!-- Node8 -->
<g id="node8" class="node">
<title>Node8</title>
<g id="a_node8"><a xlink:href="os__scheduler_8c.html#a917313bbbb324677f26dfdf2ad80de3d" target="_top" xlink:title="Returns the currently active process.">
<polygon fill="white" stroke="black" points="250,-38.5 250,-57.5 356,-57.5 356,-38.5 250,-38.5"/>
<text text-anchor="middle" x="303" y="-45.5" font-family="Helvetica,sans-Serif" font-size="10.00">os_getCurrentProc</text>
</a>
</g>
</g>
<!-- Node7&#45;&gt;Node8 -->
<g id="edge7" class="edge">
<title>Node7&#45;&gt;Node8</title>
<path fill="none" stroke="midnightblue" d="M177.55,-48C195.54,-48 218.6,-48 239.97,-48"/>
<polygon fill="midnightblue" stroke="midnightblue" points="239.97,-51.5 249.97,-48 239.97,-44.5 239.97,-51.5"/>
</g>
<!-- Node9 -->
<g id="node9" class="node">
<title>Node9</title>
<g id="a_node9"><a xlink:href="os__memory_8c.html#a5898dee5872eb916998a582be5531506" target="_top" xlink:title=" ">
<polygon fill="white" stroke="black" points="254,-0.5 254,-19.5 352,-19.5 352,-0.5 254,-0.5"/>
<text text-anchor="middle" x="303" y="-7.5" font-family="Helvetica,sans-Serif" font-size="10.00">os_mallocOwner</text>
</a>
</g>
</g>
<!-- Node7&#45;&gt;Node9 -->
<g id="edge8" class="edge">
<title>Node7&#45;&gt;Node9</title>
<path fill="none" stroke="midnightblue" d="M177.55,-40.22C199.24,-34.95 228.31,-27.89 252.9,-21.92"/>
<polygon fill="midnightblue" stroke="midnightblue" points="253.89,-25.28 262.78,-19.52 252.24,-18.48 253.89,-25.28"/>
</g>
<!-- Node10 -->
<g id="node10" class="node">
<title>Node10</title>
<g id="a_node10"><a xlink:href="os__scheduler_8c.html#a9d27b2dbf45ce6648916ed5ceb0a38df" target="_top" xlink:title="Enters a critical code section.">
<polygon fill="white" stroke="black" points="413,-0.5 413,-19.5 542,-19.5 542,-0.5 413,-0.5"/>
<text text-anchor="middle" x="477.5" y="-7.5" font-family="Helvetica,sans-Serif" font-size="10.00">os_enterCriticalSection</text>
</a>
</g>
</g>
<!-- Node9&#45;&gt;Node10 -->
<g id="edge9" class="edge">
<title>Node9&#45;&gt;Node10</title>
<path fill="none" stroke="midnightblue" d="M352.05,-10C367.8,-10 385.68,-10 402.88,-10"/>
<polygon fill="midnightblue" stroke="midnightblue" points="402.9,-13.5 412.9,-10 402.9,-6.5 402.9,-13.5"/>
</g>
</g>
</svg>
