<?xml version="1.0" encoding="UTF-8" standalone="no"?>
<!DOCTYPE svg PUBLIC "-//W3C//DTD SVG 1.1//EN"
 "http://www.w3.org/Graphics/SVG/1.1/DTD/svg11.dtd">
<!-- Generated by graphviz version 2.43.0 (0)
 -->
<!-- Title: os_mem_drivers.h Pages: 1 -->
<svg width="633pt" height="196pt"
 viewBox="0.00 0.00 633.00 196.00" xmlns="http://www.w3.org/2000/svg" xmlns:xlink="http://www.w3.org/1999/xlink">
<g id="graph0" class="graph" transform="scale(1 1) rotate(0) translate(4 192)">
<title>os_mem_drivers.h</title>
<polygon fill="white" stroke="transparent" points="-4,4 -4,-192 629,-192 629,4 -4,4"/>
<!-- Node1 -->
<g id="node1" class="node">
<title>Node1</title>
<g id="a_node1"><a xlink:title="Drivers for OS memory management.">
<polygon fill="#bfbfbf" stroke="black" points="144.5,-168.5 144.5,-187.5 251.5,-187.5 251.5,-168.5 144.5,-168.5"/>
<text text-anchor="middle" x="198" y="-175.5" font-family="Helvetica,sans-Serif" font-size="10.00">os_mem_drivers.h</text>
</a>
</g>
</g>
<!-- Node2 -->
<g id="node2" class="node">
<title>Node2</title>
<g id="a_node2"><a xlink:href="os__mem__drivers_8c.html" target="_top" xlink:title=" ">
<polygon fill="white" stroke="black" points="8,-112.5 8,-131.5 114,-131.5 114,-112.5 8,-112.5"/>
<text text-anchor="middle" x="61" y="-119.5" font-family="Helvetica,sans-Serif" font-size="10.00">os_mem_drivers.c</text>
</a>
</g>
</g>
<!-- Node1&#45;&gt;Node2 -->
<g id="edge1" class="edge">
<title>Node1&#45;&gt;Node2</title>
<path fill="none" stroke="midnightblue" d="M166.98,-164.77C141.24,-154.63 105.31,-140.47 82.61,-131.52"/>
<polygon fill="midnightblue" stroke="midnightblue" points="165.71,-168.03 176.29,-168.44 168.27,-161.52 165.71,-168.03"/>
</g>
<!-- Node3 -->
<g id="node3" class="node">
<title>Node3</title>
<g id="a_node3"><a xlink:href="os__memheap__drivers_8h.html" target="_top" xlink:title="Drivers for OS heap management.">
<polygon fill="white" stroke="black" points="132.5,-112.5 132.5,-131.5 263.5,-131.5 263.5,-112.5 132.5,-112.5"/>
<text text-anchor="middle" x="198" y="-119.5" font-family="Helvetica,sans-Serif" font-size="10.00">os_memheap_drivers.h</text>
</a>
</g>
</g>
<!-- Node1&#45;&gt;Node3 -->
<g id="edge2" class="edge">
<title>Node1&#45;&gt;Node3</title>
<path fill="none" stroke="midnightblue" d="M198,-157.8C198,-148.91 198,-138.78 198,-131.75"/>
<polygon fill="midnightblue" stroke="midnightblue" points="194.5,-158.08 198,-168.08 201.5,-158.08 194.5,-158.08"/>
</g>
<!-- Node6 -->
<g id="node6" class="node">
<title>Node6</title>
<g id="a_node6"><a xlink:href="os__memory_8h.html" target="_top" xlink:title="Library for OS memory management.">
<polygon fill="white" stroke="black" points="276,-56.5 276,-75.5 358,-75.5 358,-56.5 276,-56.5"/>
<text text-anchor="middle" x="317" y="-63.5" font-family="Helvetica,sans-Serif" font-size="10.00">os_memory.h</text>
</a>
</g>
</g>
<!-- Node1&#45;&gt;Node6 -->
<g id="edge15" class="edge">
<title>Node1&#45;&gt;Node6</title>
<path fill="none" stroke="midnightblue" d="M225.96,-163.62C240.68,-155.72 258.45,-144.77 272,-132 290.18,-114.87 305.25,-89.24 312.45,-75.86"/>
<polygon fill="midnightblue" stroke="midnightblue" points="224.07,-160.66 216.8,-168.36 227.29,-166.87 224.07,-160.66"/>
</g>
<!-- Node4 -->
<g id="node4" class="node">
<title>Node4</title>
<g id="a_node4"><a xlink:href="os__core_8c.html" target="_top" xlink:title=" ">
<polygon fill="white" stroke="black" points="2,-56.5 2,-75.5 64,-75.5 64,-56.5 2,-56.5"/>
<text text-anchor="middle" x="33" y="-63.5" font-family="Helvetica,sans-Serif" font-size="10.00">os_core.c</text>
</a>
</g>
</g>
<!-- Node3&#45;&gt;Node4 -->
<g id="edge3" class="edge">
<title>Node3&#45;&gt;Node4</title>
<path fill="none" stroke="midnightblue" d="M162.26,-109.3C131.17,-99.13 86.85,-84.62 59.02,-75.52"/>
<polygon fill="midnightblue" stroke="midnightblue" points="161.26,-112.66 171.86,-112.44 163.44,-106.01 161.26,-112.66"/>
</g>
<!-- Node5 -->
<g id="node5" class="node">
<title>Node5</title>
<g id="a_node5"><a xlink:href="os__memheap__drivers_8c.html" target="_top" xlink:title=" ">
<polygon fill="white" stroke="black" points="0,-0.5 0,-19.5 130,-19.5 130,-0.5 0,-0.5"/>
<text text-anchor="middle" x="65" y="-7.5" font-family="Helvetica,sans-Serif" font-size="10.00">os_memheap_drivers.c</text>
</a>
</g>
</g>
<!-- Node3&#45;&gt;Node5 -->
<g id="edge4" class="edge">
<title>Node3&#45;&gt;Node5</title>
<path fill="none" stroke="midnightblue" d="M165.16,-108.49C147.83,-100.84 126.91,-89.85 111,-76 91.81,-59.3 76.44,-33.03 69.32,-19.57"/>
<polygon fill="midnightblue" stroke="midnightblue" points="163.8,-111.72 174.37,-112.4 166.53,-105.27 163.8,-111.72"/>
</g>
<!-- Node3&#45;&gt;Node6 -->
<g id="edge5" class="edge">
<title>Node3&#45;&gt;Node6</title>
<path fill="none" stroke="midnightblue" d="M226.14,-108.23C248.4,-98.13 278.86,-84.31 298.23,-75.52"/>
<polygon fill="midnightblue" stroke="midnightblue" points="224.52,-105.12 216.86,-112.44 227.41,-111.5 224.52,-105.12"/>
</g>
<!-- Node9 -->
<g id="node9" class="node">
<title>Node9</title>
<g id="a_node9"><a xlink:href="os__scheduler_8c.html" target="_top" xlink:title="Scheduling module for the OS.">
<polygon fill="white" stroke="black" points="537,-0.5 537,-19.5 625,-19.5 625,-0.5 537,-0.5"/>
<text text-anchor="middle" x="581" y="-7.5" font-family="Helvetica,sans-Serif" font-size="10.00">os_scheduler.c</text>
</a>
</g>
</g>
<!-- Node3&#45;&gt;Node9 -->
<g id="edge14" class="edge">
<title>Node3&#45;&gt;Node9</title>
<path fill="none" stroke="midnightblue" d="M241.56,-109.84C275.76,-100.98 324.53,-88.1 367,-76 434.59,-56.74 513.58,-32.22 554.06,-19.51"/>
<polygon fill="midnightblue" stroke="midnightblue" points="240.25,-106.57 231.44,-112.46 242,-113.35 240.25,-106.57"/>
</g>
<!-- Node11 -->
<g id="node11" class="node">
<title>Node11</title>
<g id="a_node11"><a xlink:href="os__memory__strategies_8h.html" target="_top" xlink:title="Memory allocation library for the OS.">
<polygon fill="white" stroke="black" points="120.5,-56.5 120.5,-75.5 257.5,-75.5 257.5,-56.5 120.5,-56.5"/>
<text text-anchor="middle" x="189" y="-63.5" font-family="Helvetica,sans-Serif" font-size="10.00">os_memory_strategies.h</text>
</a>
</g>
</g>
<!-- Node3&#45;&gt;Node11 -->
<g id="edge10" class="edge">
<title>Node3&#45;&gt;Node11</title>
<path fill="none" stroke="midnightblue" d="M194.85,-102.1C193.36,-93.14 191.64,-82.86 190.46,-75.75"/>
<polygon fill="midnightblue" stroke="midnightblue" points="191.42,-102.79 196.51,-112.08 198.32,-101.64 191.42,-102.79"/>
</g>
<!-- Node7 -->
<g id="node7" class="node">
<title>Node7</title>
<g id="a_node7"><a xlink:href="os__memory_8c.html" target="_top" xlink:title=" ">
<polygon fill="white" stroke="black" points="148.5,-0.5 148.5,-19.5 229.5,-19.5 229.5,-0.5 148.5,-0.5"/>
<text text-anchor="middle" x="189" y="-7.5" font-family="Helvetica,sans-Serif" font-size="10.00">os_memory.c</text>
</a>
</g>
</g>
<!-- Node6&#45;&gt;Node7 -->
<g id="edge6" class="edge">
<title>Node6&#45;&gt;Node7</title>
<path fill="none" stroke="midnightblue" d="M287.38,-52.5C263.38,-42.38 230.22,-28.39 209.19,-19.52"/>
<polygon fill="midnightblue" stroke="midnightblue" points="286.14,-55.78 296.72,-56.44 288.86,-49.33 286.14,-55.78"/>
</g>
<!-- Node8 -->
<g id="node8" class="node">
<title>Node8</title>
<g id="a_node8"><a xlink:href="os__memory__strategies_8c.html" target="_top" xlink:title=" ">
<polygon fill="white" stroke="black" points="247.5,-0.5 247.5,-19.5 384.5,-19.5 384.5,-0.5 247.5,-0.5"/>
<text text-anchor="middle" x="316" y="-7.5" font-family="Helvetica,sans-Serif" font-size="10.00">os_memory_strategies.c</text>
</a>
</g>
</g>
<!-- Node6&#45;&gt;Node8 -->
<g id="edge7" class="edge">
<title>Node6&#45;&gt;Node8</title>
<path fill="none" stroke="midnightblue" d="M316.64,-45.8C316.48,-36.91 316.29,-26.78 316.16,-19.75"/>
<polygon fill="midnightblue" stroke="midnightblue" points="313.15,-46.15 316.83,-56.08 320.15,-46.02 313.15,-46.15"/>
</g>
<!-- Node6&#45;&gt;Node9 -->
<g id="edge8" class="edge">
<title>Node6&#45;&gt;Node9</title>
<path fill="none" stroke="midnightblue" d="M368.17,-54.53C418,-44.34 492.8,-29.04 539.17,-19.56"/>
<polygon fill="midnightblue" stroke="midnightblue" points="367.35,-51.13 358.25,-56.56 368.75,-57.99 367.35,-51.13"/>
</g>
<!-- Node10 -->
<g id="node10" class="node">
<title>Node10</title>
<g id="a_node10"><a xlink:href="os__user__privileges_8h.html" target="_top" xlink:title="User privileges specification used in part by the task manager.">
<polygon fill="white" stroke="black" points="403,-0.5 403,-19.5 519,-19.5 519,-0.5 403,-0.5"/>
<text text-anchor="middle" x="461" y="-7.5" font-family="Helvetica,sans-Serif" font-size="10.00">os_user_privileges.h</text>
</a>
</g>
</g>
<!-- Node6&#45;&gt;Node10 -->
<g id="edge9" class="edge">
<title>Node6&#45;&gt;Node10</title>
<path fill="none" stroke="midnightblue" d="M349.25,-52.91C376.32,-42.75 414.32,-28.51 438.29,-19.52"/>
<polygon fill="midnightblue" stroke="midnightblue" points="347.95,-49.66 339.82,-56.44 350.41,-56.21 347.95,-49.66"/>
</g>
<!-- Node11&#45;&gt;Node5 -->
<g id="edge11" class="edge">
<title>Node11&#45;&gt;Node5</title>
<path fill="none" stroke="midnightblue" d="M159.99,-52.37C136.77,-42.26 104.84,-28.35 84.56,-19.52"/>
<polygon fill="midnightblue" stroke="midnightblue" points="158.79,-55.66 169.35,-56.44 161.58,-49.24 158.79,-55.66"/>
</g>
<!-- Node11&#45;&gt;Node7 -->
<g id="edge12" class="edge">
<title>Node11&#45;&gt;Node7</title>
<path fill="none" stroke="midnightblue" d="M189,-45.8C189,-36.91 189,-26.78 189,-19.75"/>
<polygon fill="midnightblue" stroke="midnightblue" points="185.5,-46.08 189,-56.08 192.5,-46.08 185.5,-46.08"/>
</g>
<!-- Node11&#45;&gt;Node8 -->
<g id="edge13" class="edge">
<title>Node11&#45;&gt;Node8</title>
<path fill="none" stroke="midnightblue" d="M218.39,-52.5C242.2,-42.38 275.11,-28.39 295.97,-19.52"/>
<polygon fill="midnightblue" stroke="midnightblue" points="216.96,-49.31 209.12,-56.44 219.7,-55.75 216.96,-49.31"/>
</g>
</g>
</svg>
