<?xml version="1.0" encoding="UTF-8" standalone="no"?>
<!DOCTYPE svg PUBLIC "-//W3C//DTD SVG 1.1//EN"
 "http://www.w3.org/Graphics/SVG/1.1/DTD/svg11.dtd">
<!-- Generated by graphviz version 2.43.0 (0)
 -->
<!-- Title: os_memheap_drivers.c Pages: 1 -->
<svg width="380pt" height="364pt"
 viewBox="0.00 0.00 380.00 364.00" xmlns="http://www.w3.org/2000/svg" xmlns:xlink="http://www.w3.org/1999/xlink">
<g id="graph0" class="graph" transform="scale(1 1) rotate(0) translate(4 360)">
<title>os_memheap_drivers.c</title>
<polygon fill="white" stroke="transparent" points="-4,4 -4,-360 376,-360 376,4 -4,4"/>
<!-- Node1 -->
<g id="node1" class="node">
<title>Node1</title>
<g id="a_node1"><a xlink:title=" ">
<polygon fill="#bfbfbf" stroke="black" points="134.5,-336.5 134.5,-355.5 264.5,-355.5 264.5,-336.5 134.5,-336.5"/>
<text text-anchor="middle" x="199.5" y="-343.5" font-family="Helvetica,sans-Serif" font-size="10.00">os_memheap_drivers.c</text>
</a>
</g>
</g>
<!-- Node2 -->
<g id="node2" class="node">
<title>Node2</title>
<g id="a_node2"><a xlink:href="os__memheap__drivers_8h.html" target="_top" xlink:title="Drivers for OS heap management.">
<polygon fill="white" stroke="black" points="86,-224.5 86,-243.5 217,-243.5 217,-224.5 86,-224.5"/>
<text text-anchor="middle" x="151.5" y="-231.5" font-family="Helvetica,sans-Serif" font-size="10.00">os_memheap_drivers.h</text>
</a>
</g>
</g>
<!-- Node1&#45;&gt;Node2 -->
<g id="edge1" class="edge">
<title>Node1&#45;&gt;Node2</title>
<path fill="none" stroke="midnightblue" d="M134.37,-337.31C111.27,-331.09 87.55,-319.94 73.5,-300 57.97,-277.96 88.85,-259.05 116.22,-247.4"/>
<polygon fill="midnightblue" stroke="midnightblue" points="117.7,-250.58 125.67,-243.59 115.09,-244.08 117.7,-250.58"/>
</g>
<!-- Node3 -->
<g id="node3" class="node">
<title>Node3</title>
<g id="a_node3"><a xlink:href="defines_8h.html" target="_top" xlink:title="Simple definitions and assembler&#45;macros, mostly 8/16&#45;Bit values.">
<polygon fill="white" stroke="black" points="179,-112.5 179,-131.5 240,-131.5 240,-112.5 179,-112.5"/>
<text text-anchor="middle" x="209.5" y="-119.5" font-family="Helvetica,sans-Serif" font-size="10.00">defines.h</text>
</a>
</g>
</g>
<!-- Node1&#45;&gt;Node3 -->
<g id="edge9" class="edge">
<title>Node1&#45;&gt;Node3</title>
<path fill="none" stroke="midnightblue" d="M207.17,-336.46C214.28,-327.93 224.35,-314.09 228.5,-300 245.04,-243.8 226.67,-173.77 216.02,-141.22"/>
<polygon fill="midnightblue" stroke="midnightblue" points="219.31,-140.02 212.76,-131.69 212.68,-142.28 219.31,-140.02"/>
</g>
<!-- Node9 -->
<g id="node9" class="node">
<title>Node9</title>
<g id="a_node9"><a xlink:href="os__memory__strategies_8h.html" target="_top" xlink:title="Memory allocation library for the OS.">
<polygon fill="white" stroke="black" points="83,-280.5 83,-299.5 220,-299.5 220,-280.5 83,-280.5"/>
<text text-anchor="middle" x="151.5" y="-287.5" font-family="Helvetica,sans-Serif" font-size="10.00">os_memory_strategies.h</text>
</a>
</g>
</g>
<!-- Node1&#45;&gt;Node9 -->
<g id="edge10" class="edge">
<title>Node1&#45;&gt;Node9</title>
<path fill="none" stroke="midnightblue" d="M191.57,-336.08C184.65,-328.3 174.43,-316.8 166.05,-307.37"/>
<polygon fill="midnightblue" stroke="midnightblue" points="168.54,-304.9 159.28,-299.75 163.31,-309.55 168.54,-304.9"/>
</g>
<!-- Node10 -->
<g id="node10" class="node">
<title>Node10</title>
<g id="a_node10"><a xlink:title=" ">
<polygon fill="white" stroke="#bfbfbf" points="277,-280.5 277,-299.5 372,-299.5 372,-280.5 277,-280.5"/>
<text text-anchor="middle" x="324.5" y="-287.5" font-family="Helvetica,sans-Serif" font-size="10.00">avr/pgmspace.h</text>
</a>
</g>
</g>
<!-- Node1&#45;&gt;Node10 -->
<g id="edge12" class="edge">
<title>Node1&#45;&gt;Node10</title>
<path fill="none" stroke="midnightblue" d="M219.31,-336.44C239.79,-327.6 271.98,-313.69 295.36,-303.59"/>
<polygon fill="midnightblue" stroke="midnightblue" points="296.99,-306.7 304.79,-299.52 294.22,-300.27 296.99,-306.7"/>
</g>
<!-- Node2&#45;&gt;Node3 -->
<g id="edge2" class="edge">
<title>Node2&#45;&gt;Node3</title>
<path fill="none" stroke="midnightblue" d="M161.17,-224.25C169.99,-215.77 182.78,-202.16 190.5,-188 198.42,-173.48 203.37,-155.3 206.22,-141.86"/>
<polygon fill="midnightblue" stroke="midnightblue" points="209.69,-142.35 208.15,-131.87 202.82,-141.03 209.69,-142.35"/>
</g>
<!-- Node6 -->
<g id="node6" class="node">
<title>Node6</title>
<g id="a_node6"><a xlink:href="os__mem__drivers_8h.html" target="_top" xlink:title="Drivers for OS memory management.">
<polygon fill="white" stroke="black" points="0,-168.5 0,-187.5 107,-187.5 107,-168.5 0,-168.5"/>
<text text-anchor="middle" x="53.5" y="-175.5" font-family="Helvetica,sans-Serif" font-size="10.00">os_mem_drivers.h</text>
</a>
</g>
</g>
<!-- Node2&#45;&gt;Node6 -->
<g id="edge5" class="edge">
<title>Node2&#45;&gt;Node6</title>
<path fill="none" stroke="midnightblue" d="M135.75,-224.32C120.18,-215.74 96.12,-202.49 78.04,-192.52"/>
<polygon fill="midnightblue" stroke="midnightblue" points="79.65,-189.42 69.21,-187.65 76.28,-195.55 79.65,-189.42"/>
</g>
<!-- Node8 -->
<g id="node8" class="node">
<title>Node8</title>
<g id="a_node8"><a xlink:title=" ">
<polygon fill="white" stroke="#bfbfbf" points="125.5,-168.5 125.5,-187.5 181.5,-187.5 181.5,-168.5 125.5,-168.5"/>
<text text-anchor="middle" x="153.5" y="-175.5" font-family="Helvetica,sans-Serif" font-size="10.00">stddef.h</text>
</a>
</g>
</g>
<!-- Node2&#45;&gt;Node8 -->
<g id="edge8" class="edge">
<title>Node2&#45;&gt;Node8</title>
<path fill="none" stroke="midnightblue" d="M151.83,-224.08C152.09,-217.01 152.47,-206.86 152.8,-197.99"/>
<polygon fill="midnightblue" stroke="midnightblue" points="156.3,-197.87 153.18,-187.75 149.31,-197.61 156.3,-197.87"/>
</g>
<!-- Node4 -->
<g id="node4" class="node">
<title>Node4</title>
<g id="a_node4"><a xlink:href="atmega644constants_8h.html" target="_top" xlink:title="Constants for ATMega644 and EVA board. Defines several useful constants for the ATMega644.">
<polygon fill="white" stroke="black" points="145.5,-56.5 145.5,-75.5 273.5,-75.5 273.5,-56.5 145.5,-56.5"/>
<text text-anchor="middle" x="209.5" y="-63.5" font-family="Helvetica,sans-Serif" font-size="10.00">atmega644constants.h</text>
</a>
</g>
</g>
<!-- Node3&#45;&gt;Node4 -->
<g id="edge3" class="edge">
<title>Node3&#45;&gt;Node4</title>
<path fill="none" stroke="midnightblue" d="M209.5,-112.08C209.5,-105.01 209.5,-94.86 209.5,-85.99"/>
<polygon fill="midnightblue" stroke="midnightblue" points="213,-85.75 209.5,-75.75 206,-85.75 213,-85.75"/>
</g>
<!-- Node5 -->
<g id="node5" class="node">
<title>Node5</title>
<g id="a_node5"><a xlink:title=" ">
<polygon fill="white" stroke="#bfbfbf" points="183,-0.5 183,-19.5 236,-19.5 236,-0.5 183,-0.5"/>
<text text-anchor="middle" x="209.5" y="-7.5" font-family="Helvetica,sans-Serif" font-size="10.00">avr/io.h</text>
</a>
</g>
</g>
<!-- Node4&#45;&gt;Node5 -->
<g id="edge4" class="edge">
<title>Node4&#45;&gt;Node5</title>
<path fill="none" stroke="midnightblue" d="M209.5,-56.08C209.5,-49.01 209.5,-38.86 209.5,-29.99"/>
<polygon fill="midnightblue" stroke="midnightblue" points="213,-29.75 209.5,-19.75 206,-29.75 213,-29.75"/>
</g>
<!-- Node6&#45;&gt;Node3 -->
<g id="edge6" class="edge">
<title>Node6&#45;&gt;Node3</title>
<path fill="none" stroke="midnightblue" d="M78.22,-168.44C104.35,-159.4 145.76,-145.06 175.08,-134.92"/>
<polygon fill="midnightblue" stroke="midnightblue" points="176.59,-138.1 184.9,-131.52 174.3,-131.48 176.59,-138.1"/>
</g>
<!-- Node7 -->
<g id="node7" class="node">
<title>Node7</title>
<g id="a_node7"><a xlink:title=" ">
<polygon fill="white" stroke="#bfbfbf" points="21,-112.5 21,-131.5 86,-131.5 86,-112.5 21,-112.5"/>
<text text-anchor="middle" x="53.5" y="-119.5" font-family="Helvetica,sans-Serif" font-size="10.00">inttypes.h</text>
</a>
</g>
</g>
<!-- Node6&#45;&gt;Node7 -->
<g id="edge7" class="edge">
<title>Node6&#45;&gt;Node7</title>
<path fill="none" stroke="midnightblue" d="M53.5,-168.08C53.5,-161.01 53.5,-150.86 53.5,-141.99"/>
<polygon fill="midnightblue" stroke="midnightblue" points="57,-141.75 53.5,-131.75 50,-141.75 57,-141.75"/>
</g>
<!-- Node9&#45;&gt;Node2 -->
<g id="edge11" class="edge">
<title>Node9&#45;&gt;Node2</title>
<path fill="none" stroke="midnightblue" d="M151.5,-280.08C151.5,-273.01 151.5,-262.86 151.5,-253.99"/>
<polygon fill="midnightblue" stroke="midnightblue" points="155,-253.75 151.5,-243.75 148,-253.75 155,-253.75"/>
</g>
</g>
</svg>
