<?xml version="1.0" encoding="UTF-8" standalone="no"?>
<!DOCTYPE svg PUBLIC "-//W3C//DTD SVG 1.1//EN"
 "http://www.w3.org/Graphics/SVG/1.1/DTD/svg11.dtd">
<!-- Generated by graphviz version 2.43.0 (0)
 -->
<!-- Title: util.h Pages: 1 -->
<svg width="413pt" height="140pt"
 viewBox="0.00 0.00 412.50 140.00" xmlns="http://www.w3.org/2000/svg" xmlns:xlink="http://www.w3.org/1999/xlink">
<g id="graph0" class="graph" transform="scale(1 1) rotate(0) translate(4 136)">
<title>util.h</title>
<polygon fill="white" stroke="transparent" points="-4,4 -4,-136 408.5,-136 408.5,4 -4,4"/>
<!-- Node1 -->
<g id="node1" class="node">
<title>Node1</title>
<g id="a_node1"><a xlink:title="Little helpers that don&#39;t fit elsewhere.">
<polygon fill="#bfbfbf" stroke="black" points="162,-112.5 162,-131.5 203,-131.5 203,-112.5 162,-112.5"/>
<text text-anchor="middle" x="182.5" y="-119.5" font-family="Helvetica,sans-Serif" font-size="10.00">util.h</text>
</a>
</g>
</g>
<!-- Node2 -->
<g id="node2" class="node">
<title>Node2</title>
<g id="a_node2"><a xlink:href="lcd_8c.html" target="_top" xlink:title="Library for LCD use.">
<polygon fill="white" stroke="black" points="0,-0.5 0,-19.5 39,-19.5 39,-0.5 0,-0.5"/>
<text text-anchor="middle" x="19.5" y="-7.5" font-family="Helvetica,sans-Serif" font-size="10.00">lcd.c</text>
</a>
</g>
</g>
<!-- Node1&#45;&gt;Node2 -->
<g id="edge1" class="edge">
<title>Node1&#45;&gt;Node2</title>
<path fill="none" stroke="midnightblue" d="M152.54,-108.43C134.49,-100.28 111.41,-88.82 92.5,-76 66.93,-58.67 40.82,-33.13 27.86,-19.81"/>
<polygon fill="midnightblue" stroke="midnightblue" points="151.43,-111.77 161.99,-112.61 154.26,-105.37 151.43,-111.77"/>
</g>
<!-- Node3 -->
<g id="node3" class="node">
<title>Node3</title>
<g id="a_node3"><a xlink:href="lcd_8h.html" target="_top" xlink:title="Library for LCD use.">
<polygon fill="white" stroke="black" points="114.5,-56.5 114.5,-75.5 154.5,-75.5 154.5,-56.5 114.5,-56.5"/>
<text text-anchor="middle" x="134.5" y="-63.5" font-family="Helvetica,sans-Serif" font-size="10.00">lcd.h</text>
</a>
</g>
</g>
<!-- Node1&#45;&gt;Node3 -->
<g id="edge2" class="edge">
<title>Node1&#45;&gt;Node3</title>
<path fill="none" stroke="midnightblue" d="M167.77,-104.43C159.36,-94.97 149.15,-83.48 142.28,-75.75"/>
<polygon fill="midnightblue" stroke="midnightblue" points="165.31,-106.93 174.57,-112.08 170.55,-102.28 165.31,-106.93"/>
</g>
<!-- Node4 -->
<g id="node4" class="node">
<title>Node4</title>
<g id="a_node4"><a xlink:href="os__core_8c.html" target="_top" xlink:title=" ">
<polygon fill="white" stroke="black" points="57.5,-0.5 57.5,-19.5 119.5,-19.5 119.5,-0.5 57.5,-0.5"/>
<text text-anchor="middle" x="88.5" y="-7.5" font-family="Helvetica,sans-Serif" font-size="10.00">os_core.c</text>
</a>
</g>
</g>
<!-- Node1&#45;&gt;Node4 -->
<g id="edge7" class="edge">
<title>Node1&#45;&gt;Node4</title>
<path fill="none" stroke="midnightblue" d="M152.17,-109.98C136.09,-102.67 117.28,-91.53 105.5,-76 92.67,-59.09 89.49,-33.37 88.72,-19.91"/>
<polygon fill="midnightblue" stroke="midnightblue" points="151.17,-113.35 161.74,-114.04 153.9,-106.91 151.17,-113.35"/>
</g>
<!-- Node5 -->
<g id="node5" class="node">
<title>Node5</title>
<g id="a_node5"><a xlink:href="os__scheduler_8c.html" target="_top" xlink:title="Scheduling module for the OS.">
<polygon fill="white" stroke="black" points="137.5,-0.5 137.5,-19.5 225.5,-19.5 225.5,-0.5 137.5,-0.5"/>
<text text-anchor="middle" x="181.5" y="-7.5" font-family="Helvetica,sans-Serif" font-size="10.00">os_scheduler.c</text>
</a>
</g>
</g>
<!-- Node1&#45;&gt;Node5 -->
<g id="edge9" class="edge">
<title>Node1&#45;&gt;Node5</title>
<path fill="none" stroke="midnightblue" d="M182.33,-102.35C182.11,-78.25 181.74,-37.31 181.58,-19.59"/>
<polygon fill="midnightblue" stroke="midnightblue" points="178.83,-102.4 182.42,-112.37 185.83,-102.34 178.83,-102.4"/>
</g>
<!-- Node6 -->
<g id="node6" class="node">
<title>Node6</title>
<g id="a_node6"><a xlink:href="util_8c.html" target="_top" xlink:title=" ">
<polygon fill="white" stroke="black" points="244,-0.5 244,-19.5 285,-19.5 285,-0.5 244,-0.5"/>
<text text-anchor="middle" x="264.5" y="-7.5" font-family="Helvetica,sans-Serif" font-size="10.00">util.c</text>
</a>
</g>
</g>
<!-- Node1&#45;&gt;Node6 -->
<g id="edge12" class="edge">
<title>Node1&#45;&gt;Node6</title>
<path fill="none" stroke="midnightblue" d="M194.97,-104.27C212.7,-80.49 244.53,-37.79 258.1,-19.59"/>
<polygon fill="midnightblue" stroke="midnightblue" points="192.1,-102.26 188.93,-112.37 197.72,-106.44 192.1,-102.26"/>
</g>
<!-- Node7 -->
<g id="node7" class="node">
<title>Node7</title>
<g id="a_node7"><a xlink:href="os__memory_8c.html" target="_top" xlink:title=" ">
<polygon fill="white" stroke="black" points="249,-56.5 249,-75.5 330,-75.5 330,-56.5 249,-56.5"/>
<text text-anchor="middle" x="289.5" y="-63.5" font-family="Helvetica,sans-Serif" font-size="10.00">os_memory.c</text>
</a>
</g>
</g>
<!-- Node1&#45;&gt;Node7 -->
<g id="edge8" class="edge">
<title>Node1&#45;&gt;Node7</title>
<path fill="none" stroke="midnightblue" d="M208.8,-107.73C228.61,-97.73 255.21,-84.31 272.35,-75.65"/>
<polygon fill="midnightblue" stroke="midnightblue" points="207.04,-104.69 199.69,-112.32 210.2,-110.94 207.04,-104.69"/>
</g>
<!-- Node8 -->
<g id="node8" class="node">
<title>Node8</title>
<g id="a_node8"><a xlink:href="os__spi_8h.html" target="_top" xlink:title="Driver for AVRs SPI module.">
<polygon fill="white" stroke="black" points="348.5,-56.5 348.5,-75.5 404.5,-75.5 404.5,-56.5 348.5,-56.5"/>
<text text-anchor="middle" x="376.5" y="-63.5" font-family="Helvetica,sans-Serif" font-size="10.00">os_spi.h</text>
</a>
</g>
</g>
<!-- Node1&#45;&gt;Node8 -->
<g id="edge10" class="edge">
<title>Node1&#45;&gt;Node8</title>
<path fill="none" stroke="midnightblue" d="M213.03,-112.5C250.18,-102.16 312.4,-84.84 348.41,-74.82"/>
<polygon fill="midnightblue" stroke="midnightblue" points="211.96,-109.17 203.26,-115.22 213.83,-115.91 211.96,-109.17"/>
</g>
<!-- Node3&#45;&gt;Node2 -->
<g id="edge3" class="edge">
<title>Node3&#45;&gt;Node2</title>
<path fill="none" stroke="midnightblue" d="M107.02,-52.1C85.53,-42.01 56.28,-28.27 37.64,-19.52"/>
<polygon fill="midnightblue" stroke="midnightblue" points="105.74,-55.36 116.28,-56.44 108.71,-49.02 105.74,-55.36"/>
</g>
<!-- Node3&#45;&gt;Node4 -->
<g id="edge4" class="edge">
<title>Node3&#45;&gt;Node4</title>
<path fill="none" stroke="midnightblue" d="M120.39,-48.43C112.32,-38.97 102.54,-27.48 95.95,-19.75"/>
<polygon fill="midnightblue" stroke="midnightblue" points="117.75,-50.74 126.9,-56.08 123.08,-46.2 117.75,-50.74"/>
</g>
<!-- Node3&#45;&gt;Node5 -->
<g id="edge5" class="edge">
<title>Node3&#45;&gt;Node5</title>
<path fill="none" stroke="midnightblue" d="M148.92,-48.43C157.16,-38.97 167.15,-27.48 173.88,-19.75"/>
<polygon fill="midnightblue" stroke="midnightblue" points="146.19,-46.24 142.26,-56.08 151.47,-50.84 146.19,-46.24"/>
</g>
<!-- Node3&#45;&gt;Node6 -->
<g id="edge6" class="edge">
<title>Node3&#45;&gt;Node6</title>
<path fill="none" stroke="midnightblue" d="M163.99,-52.75C188.33,-42.64 222.26,-28.55 243.8,-19.6"/>
<polygon fill="midnightblue" stroke="midnightblue" points="162.42,-49.61 154.53,-56.68 165.11,-56.08 162.42,-49.61"/>
</g>
<!-- Node9 -->
<g id="node9" class="node">
<title>Node9</title>
<g id="a_node9"><a xlink:href="os__spi_8c.html" target="_top" xlink:title="Driver for AVRs SPI module.">
<polygon fill="white" stroke="black" points="348.5,-0.5 348.5,-19.5 404.5,-19.5 404.5,-0.5 348.5,-0.5"/>
<text text-anchor="middle" x="376.5" y="-7.5" font-family="Helvetica,sans-Serif" font-size="10.00">os_spi.c</text>
</a>
</g>
</g>
<!-- Node8&#45;&gt;Node9 -->
<g id="edge11" class="edge">
<title>Node8&#45;&gt;Node9</title>
<path fill="none" stroke="midnightblue" d="M376.5,-45.8C376.5,-36.91 376.5,-26.78 376.5,-19.75"/>
<polygon fill="midnightblue" stroke="midnightblue" points="373,-46.08 376.5,-56.08 380,-46.08 373,-46.08"/>
</g>
</g>
</svg>
