<?xml version="1.0" encoding="UTF-8" standalone="no"?>
<!DOCTYPE svg PUBLIC "-//W3C//DTD SVG 1.1//EN"
 "http://www.w3.org/Graphics/SVG/1.1/DTD/svg11.dtd">
<!-- Generated by graphviz version 2.43.0 (0)
 -->
<!-- Title: defines.h Pages: 1 -->
<svg width="1000pt" height="252pt"
 viewBox="0.00 0.00 1000.37 252.00" xmlns="http://www.w3.org/2000/svg" xmlns:xlink="http://www.w3.org/1999/xlink">
<g id="graph0" class="graph" transform="scale(1 1) rotate(0) translate(4 248)">
<title>defines.h</title>
<polygon fill="white" stroke="transparent" points="-4,4 -4,-248 996.37,-248 996.37,4 -4,4"/>
<!-- Node1 -->
<g id="node1" class="node">
<title>Node1</title>
<g id="a_node1"><a xlink:title="Simple definitions and assembler&#45;macros, mostly 8/16&#45;Bit values.">
<polygon fill="#bfbfbf" stroke="black" points="496.5,-224.5 496.5,-243.5 557.5,-243.5 557.5,-224.5 496.5,-224.5"/>
<text text-anchor="middle" x="527" y="-231.5" font-family="Helvetica,sans-Serif" font-size="10.00">defines.h</text>
</a>
</g>
</g>
<!-- Node2 -->
<g id="node2" class="node">
<title>Node2</title>
<g id="a_node2"><a xlink:href="lcd_8h.html" target="_top" xlink:title="Library for LCD use.">
<polygon fill="white" stroke="black" points="459,-168.5 459,-187.5 499,-187.5 499,-168.5 459,-168.5"/>
<text text-anchor="middle" x="479" y="-175.5" font-family="Helvetica,sans-Serif" font-size="10.00">lcd.h</text>
</a>
</g>
</g>
<!-- Node1&#45;&gt;Node2 -->
<g id="edge1" class="edge">
<title>Node1&#45;&gt;Node2</title>
<path fill="none" stroke="midnightblue" d="M512.27,-216.43C503.86,-206.97 493.65,-195.48 486.78,-187.75"/>
<polygon fill="midnightblue" stroke="midnightblue" points="509.81,-218.93 519.07,-224.08 515.05,-214.28 509.81,-218.93"/>
</g>
<!-- Node4 -->
<g id="node4" class="node">
<title>Node4</title>
<g id="a_node4"><a xlink:href="os__core_8c.html" target="_top" xlink:title=" ">
<polygon fill="white" stroke="black" points="287,-56.5 287,-75.5 349,-75.5 349,-56.5 287,-56.5"/>
<text text-anchor="middle" x="318" y="-63.5" font-family="Helvetica,sans-Serif" font-size="10.00">os_core.c</text>
</a>
</g>
</g>
<!-- Node1&#45;&gt;Node4 -->
<g id="edge6" class="edge">
<title>Node1&#45;&gt;Node4</title>
<path fill="none" stroke="midnightblue" d="M486.38,-229.64C433.53,-224.36 345.51,-212.12 325,-188 297.06,-155.14 309.38,-97.32 315.4,-75.58"/>
<polygon fill="midnightblue" stroke="midnightblue" points="486.16,-233.14 496.45,-230.61 486.83,-226.17 486.16,-233.14"/>
</g>
<!-- Node6 -->
<g id="node6" class="node">
<title>Node6</title>
<g id="a_node6"><a xlink:href="util_8c.html" target="_top" xlink:title=" ">
<polygon fill="white" stroke="black" points="505.5,-112.5 505.5,-131.5 546.5,-131.5 546.5,-112.5 505.5,-112.5"/>
<text text-anchor="middle" x="526" y="-119.5" font-family="Helvetica,sans-Serif" font-size="10.00">util.c</text>
</a>
</g>
</g>
<!-- Node1&#45;&gt;Node6 -->
<g id="edge37" class="edge">
<title>Node1&#45;&gt;Node6</title>
<path fill="none" stroke="midnightblue" d="M526.83,-214.35C526.61,-190.25 526.24,-149.31 526.08,-131.59"/>
<polygon fill="midnightblue" stroke="midnightblue" points="523.33,-214.4 526.92,-224.37 530.33,-214.34 523.33,-214.4"/>
</g>
<!-- Node7 -->
<g id="node7" class="node">
<title>Node7</title>
<g id="a_node7"><a xlink:href="os__mem__drivers_8c.html" target="_top" xlink:title=" ">
<polygon fill="white" stroke="black" points="565,-112.5 565,-131.5 671,-131.5 671,-112.5 565,-112.5"/>
<text text-anchor="middle" x="618" y="-119.5" font-family="Helvetica,sans-Serif" font-size="10.00">os_mem_drivers.c</text>
</a>
</g>
</g>
<!-- Node1&#45;&gt;Node7 -->
<g id="edge7" class="edge">
<title>Node1&#45;&gt;Node7</title>
<path fill="none" stroke="midnightblue" d="M540.58,-216.59C560.2,-192.87 595.77,-149.87 610.89,-131.59"/>
<polygon fill="midnightblue" stroke="midnightblue" points="537.82,-214.43 534.14,-224.37 543.21,-218.89 537.82,-214.43"/>
</g>
<!-- Node8 -->
<g id="node8" class="node">
<title>Node8</title>
<g id="a_node8"><a xlink:href="os__mem__drivers_8h.html" target="_top" xlink:title="Drivers for OS memory management.">
<polygon fill="white" stroke="black" points="333.5,-168.5 333.5,-187.5 440.5,-187.5 440.5,-168.5 333.5,-168.5"/>
<text text-anchor="middle" x="387" y="-175.5" font-family="Helvetica,sans-Serif" font-size="10.00">os_mem_drivers.h</text>
</a>
</g>
</g>
<!-- Node1&#45;&gt;Node8 -->
<g id="edge8" class="edge">
<title>Node1&#45;&gt;Node8</title>
<path fill="none" stroke="midnightblue" d="M495.3,-220.77C469,-210.63 432.28,-196.47 409.08,-187.52"/>
<polygon fill="midnightblue" stroke="midnightblue" points="494.23,-224.11 504.82,-224.44 496.75,-217.58 494.23,-224.11"/>
</g>
<!-- Node9 -->
<g id="node9" class="node">
<title>Node9</title>
<g id="a_node9"><a xlink:href="os__memheap__drivers_8h.html" target="_top" xlink:title="Drivers for OS heap management.">
<polygon fill="white" stroke="black" points="145.5,-112.5 145.5,-131.5 276.5,-131.5 276.5,-112.5 145.5,-112.5"/>
<text text-anchor="middle" x="211" y="-119.5" font-family="Helvetica,sans-Serif" font-size="10.00">os_memheap_drivers.h</text>
</a>
</g>
</g>
<!-- Node1&#45;&gt;Node9 -->
<g id="edge25" class="edge">
<title>Node1&#45;&gt;Node9</title>
<path fill="none" stroke="midnightblue" d="M486.38,-231.28C437.84,-227.88 355.13,-217.83 291,-188 260.82,-173.96 232.26,-146.01 218.9,-131.77"/>
<polygon fill="midnightblue" stroke="midnightblue" points="486.29,-234.78 496.5,-231.92 486.74,-227.79 486.29,-234.78"/>
</g>
<!-- Node10 -->
<g id="node10" class="node">
<title>Node10</title>
<g id="a_node10"><a xlink:href="os__memheap__drivers_8c.html" target="_top" xlink:title=" ">
<polygon fill="white" stroke="black" points="0,-0.5 0,-19.5 130,-19.5 130,-0.5 0,-0.5"/>
<text text-anchor="middle" x="65" y="-7.5" font-family="Helvetica,sans-Serif" font-size="10.00">os_memheap_drivers.c</text>
</a>
</g>
</g>
<!-- Node1&#45;&gt;Node10 -->
<g id="edge24" class="edge">
<title>Node1&#45;&gt;Node10</title>
<path fill="none" stroke="midnightblue" d="M486.14,-229.7C432.39,-224.58 335.44,-212.62 256,-188 199.78,-170.57 185.66,-163.58 136,-132 103.25,-111.17 86.51,-110.64 69,-76 59.72,-57.64 61.61,-32.53 63.48,-19.55"/>
<polygon fill="midnightblue" stroke="midnightblue" points="486.02,-233.21 496.3,-230.64 486.66,-226.24 486.02,-233.21"/>
</g>
<!-- Node14 -->
<g id="node14" class="node">
<title>Node14</title>
<g id="a_node14"><a xlink:href="os__user__privileges_8h.html" target="_top" xlink:title="User privileges specification used in part by the task manager.">
<polygon fill="white" stroke="black" points="717,-0.5 717,-19.5 833,-19.5 833,-0.5 717,-0.5"/>
<text text-anchor="middle" x="775" y="-7.5" font-family="Helvetica,sans-Serif" font-size="10.00">os_user_privileges.h</text>
</a>
</g>
</g>
<!-- Node1&#45;&gt;Node14 -->
<g id="edge36" class="edge">
<title>Node1&#45;&gt;Node14</title>
<path fill="none" stroke="midnightblue" d="M567.64,-230.36C649.89,-224.64 833.23,-209.81 892,-188 934.07,-172.39 953.78,-170.98 976,-132 992.74,-102.63 1000.17,-82.35 979,-56 960.97,-33.56 886.85,-21.65 833.15,-15.83"/>
<polygon fill="midnightblue" stroke="midnightblue" points="567.4,-226.87 557.66,-231.05 567.88,-233.85 567.4,-226.87"/>
</g>
<!-- Node16 -->
<g id="node16" class="node">
<title>Node16</title>
<g id="a_node16"><a xlink:href="os__scheduler_8h.html" target="_top" xlink:title="Scheduling module for the OS.">
<polygon fill="white" stroke="black" points="673.5,-168.5 673.5,-187.5 762.5,-187.5 762.5,-168.5 673.5,-168.5"/>
<text text-anchor="middle" x="718" y="-175.5" font-family="Helvetica,sans-Serif" font-size="10.00">os_scheduler.h</text>
</a>
</g>
</g>
<!-- Node1&#45;&gt;Node16 -->
<g id="edge26" class="edge">
<title>Node1&#45;&gt;Node16</title>
<path fill="none" stroke="midnightblue" d="M566.97,-221.7C603.02,-211.51 655.24,-196.74 687.88,-187.52"/>
<polygon fill="midnightblue" stroke="midnightblue" points="565.94,-218.35 557.26,-224.44 567.84,-225.09 565.94,-218.35"/>
</g>
<!-- Node17 -->
<g id="node17" class="node">
<title>Node17</title>
<g id="a_node17"><a xlink:href="os__scheduling__strategies_8h.html" target="_top" xlink:title="Scheduling library for the OS.">
<polygon fill="white" stroke="black" points="802.5,-112.5 802.5,-131.5 951.5,-131.5 951.5,-112.5 802.5,-112.5"/>
<text text-anchor="middle" x="877" y="-119.5" font-family="Helvetica,sans-Serif" font-size="10.00">os_scheduling_strategies.h</text>
</a>
</g>
</g>
<!-- Node1&#45;&gt;Node17 -->
<g id="edge35" class="edge">
<title>Node1&#45;&gt;Node17</title>
<path fill="none" stroke="midnightblue" d="M567.81,-230.16C617.49,-225.66 703.25,-214.51 772,-188 809.21,-173.65 847.78,-145.84 866.09,-131.7"/>
<polygon fill="midnightblue" stroke="midnightblue" points="567.44,-226.68 557.78,-231.02 568.04,-233.65 567.44,-226.68"/>
</g>
<!-- Node18 -->
<g id="node18" class="node">
<title>Node18</title>
<g id="a_node18"><a xlink:href="os__scheduling__strategies_8c.html" target="_top" xlink:title=" ">
<polygon fill="white" stroke="black" points="822,-56.5 822,-75.5 970,-75.5 970,-56.5 822,-56.5"/>
<text text-anchor="middle" x="896" y="-63.5" font-family="Helvetica,sans-Serif" font-size="10.00">os_scheduling_strategies.c</text>
</a>
</g>
</g>
<!-- Node1&#45;&gt;Node18 -->
<g id="edge34" class="edge">
<title>Node1&#45;&gt;Node18</title>
<path fill="none" stroke="midnightblue" d="M567.73,-230.19C666.8,-222.37 915.58,-196.56 961,-132 977.07,-109.16 940.79,-87.17 916.23,-75.54"/>
<polygon fill="midnightblue" stroke="midnightblue" points="567.22,-226.72 557.52,-230.97 567.75,-233.7 567.22,-226.72"/>
</g>
<!-- Node3 -->
<g id="node3" class="node">
<title>Node3</title>
<g id="a_node3"><a xlink:href="lcd_8c.html" target="_top" xlink:title="Library for LCD use.">
<polygon fill="white" stroke="black" points="371.5,-112.5 371.5,-131.5 410.5,-131.5 410.5,-112.5 371.5,-112.5"/>
<text text-anchor="middle" x="391" y="-119.5" font-family="Helvetica,sans-Serif" font-size="10.00">lcd.c</text>
</a>
</g>
</g>
<!-- Node2&#45;&gt;Node3 -->
<g id="edge2" class="edge">
<title>Node2&#45;&gt;Node3</title>
<path fill="none" stroke="midnightblue" d="M456.02,-162.9C439.89,-153 418.82,-140.07 405.1,-131.65"/>
<polygon fill="midnightblue" stroke="midnightblue" points="454.51,-166.08 464.86,-168.32 458.17,-160.11 454.51,-166.08"/>
</g>
<!-- Node2&#45;&gt;Node4 -->
<g id="edge3" class="edge">
<title>Node2&#45;&gt;Node4</title>
<path fill="none" stroke="midnightblue" d="M466.77,-159.94C455.83,-145.64 438.66,-125.45 420,-112 397.08,-95.47 367.12,-83.16 345.62,-75.63"/>
<polygon fill="midnightblue" stroke="midnightblue" points="464.25,-162.41 473.02,-168.36 469.87,-158.24 464.25,-162.41"/>
</g>
<!-- Node5 -->
<g id="node5" class="node">
<title>Node5</title>
<g id="a_node5"><a xlink:href="os__scheduler_8c.html" target="_top" xlink:title="Scheduling module for the OS.">
<polygon fill="white" stroke="black" points="433,-0.5 433,-19.5 521,-19.5 521,-0.5 433,-0.5"/>
<text text-anchor="middle" x="477" y="-7.5" font-family="Helvetica,sans-Serif" font-size="10.00">os_scheduler.c</text>
</a>
</g>
</g>
<!-- Node2&#45;&gt;Node5 -->
<g id="edge4" class="edge">
<title>Node2&#45;&gt;Node5</title>
<path fill="none" stroke="midnightblue" d="M478.77,-157.93C478.34,-121.92 477.41,-45.23 477.1,-19.57"/>
<polygon fill="midnightblue" stroke="midnightblue" points="475.27,-158.12 478.89,-168.08 482.27,-158.03 475.27,-158.12"/>
</g>
<!-- Node2&#45;&gt;Node6 -->
<g id="edge5" class="edge">
<title>Node2&#45;&gt;Node6</title>
<path fill="none" stroke="midnightblue" d="M493.42,-160.43C501.66,-150.97 511.65,-139.48 518.38,-131.75"/>
<polygon fill="midnightblue" stroke="midnightblue" points="490.69,-158.24 486.76,-168.08 495.97,-162.84 490.69,-158.24"/>
</g>
<!-- Node8&#45;&gt;Node7 -->
<g id="edge9" class="edge">
<title>Node8&#45;&gt;Node7</title>
<path fill="none" stroke="midnightblue" d="M433.4,-166.15C477.05,-155.95 541.51,-140.88 581.57,-131.52"/>
<polygon fill="midnightblue" stroke="midnightblue" points="432.54,-162.76 423.6,-168.44 434.14,-169.58 432.54,-162.76"/>
</g>
<!-- Node8&#45;&gt;Node9 -->
<g id="edge10" class="edge">
<title>Node8&#45;&gt;Node9</title>
<path fill="none" stroke="midnightblue" d="M349.31,-165.44C316.13,-155.26 268.57,-140.66 238.76,-131.52"/>
<polygon fill="midnightblue" stroke="midnightblue" points="348.53,-168.86 359.11,-168.44 350.58,-162.16 348.53,-168.86"/>
</g>
<!-- Node11 -->
<g id="node11" class="node">
<title>Node11</title>
<g id="a_node11"><a xlink:href="os__memory_8h.html" target="_top" xlink:title="Library for OS memory management.">
<polygon fill="white" stroke="black" points="367,-56.5 367,-75.5 449,-75.5 449,-56.5 367,-56.5"/>
<text text-anchor="middle" x="408" y="-63.5" font-family="Helvetica,sans-Serif" font-size="10.00">os_memory.h</text>
</a>
</g>
</g>
<!-- Node8&#45;&gt;Node11 -->
<g id="edge23" class="edge">
<title>Node8&#45;&gt;Node11</title>
<path fill="none" stroke="midnightblue" d="M373.54,-159.92C364.87,-146.73 356.34,-128.07 363,-112 369.43,-96.48 384.09,-83.53 394.94,-75.56"/>
<polygon fill="midnightblue" stroke="midnightblue" points="370.72,-161.99 379.39,-168.08 376.41,-157.92 370.72,-161.99"/>
</g>
<!-- Node9&#45;&gt;Node4 -->
<g id="edge11" class="edge">
<title>Node9&#45;&gt;Node4</title>
<path fill="none" stroke="midnightblue" d="M237.3,-107.73C257.11,-97.73 283.71,-84.31 300.85,-75.65"/>
<polygon fill="midnightblue" stroke="midnightblue" points="235.54,-104.69 228.19,-112.32 238.7,-110.94 235.54,-104.69"/>
</g>
<!-- Node9&#45;&gt;Node5 -->
<g id="edge22" class="edge">
<title>Node9&#45;&gt;Node5</title>
<path fill="none" stroke="midnightblue" d="M223.63,-104.36C235.88,-89.4 255.84,-68 278,-56 304.32,-41.75 382.61,-26.7 432.79,-18.12"/>
<polygon fill="midnightblue" stroke="midnightblue" points="220.8,-102.28 217.34,-112.3 226.29,-106.63 220.8,-102.28"/>
</g>
<!-- Node9&#45;&gt;Node10 -->
<g id="edge12" class="edge">
<title>Node9&#45;&gt;Node10</title>
<path fill="none" stroke="midnightblue" d="M143.29,-109.68C121.85,-103.06 99.68,-92.58 84,-76 69.14,-60.28 65.83,-33.58 65.14,-19.8"/>
<polygon fill="midnightblue" stroke="midnightblue" points="142.49,-113.09 153.06,-112.46 144.4,-106.36 142.49,-113.09"/>
</g>
<!-- Node9&#45;&gt;Node11 -->
<g id="edge13" class="edge">
<title>Node9&#45;&gt;Node11</title>
<path fill="none" stroke="midnightblue" d="M252.23,-109.7C289.41,-99.51 343.27,-84.74 376.93,-75.52"/>
<polygon fill="midnightblue" stroke="midnightblue" points="250.93,-106.42 242.22,-112.44 252.78,-113.18 250.93,-106.42"/>
</g>
<!-- Node15 -->
<g id="node15" class="node">
<title>Node15</title>
<g id="a_node15"><a xlink:href="os__memory__strategies_8h.html" target="_top" xlink:title="Memory allocation library for the OS.">
<polygon fill="white" stroke="black" points="93.5,-56.5 93.5,-75.5 230.5,-75.5 230.5,-56.5 93.5,-56.5"/>
<text text-anchor="middle" x="162" y="-63.5" font-family="Helvetica,sans-Serif" font-size="10.00">os_memory_strategies.h</text>
</a>
</g>
</g>
<!-- Node9&#45;&gt;Node15 -->
<g id="edge18" class="edge">
<title>Node9&#45;&gt;Node15</title>
<path fill="none" stroke="midnightblue" d="M195.97,-104.43C187.38,-94.97 176.96,-83.48 169.94,-75.75"/>
<polygon fill="midnightblue" stroke="midnightblue" points="193.6,-107.03 202.91,-112.08 198.78,-102.33 193.6,-107.03"/>
</g>
<!-- Node11&#45;&gt;Node5 -->
<g id="edge16" class="edge">
<title>Node11&#45;&gt;Node5</title>
<path fill="none" stroke="midnightblue" d="M427.04,-50.1C439.46,-40.38 455.24,-28.03 465.71,-19.83"/>
<polygon fill="midnightblue" stroke="midnightblue" points="424.8,-47.4 419.09,-56.32 429.12,-52.92 424.8,-47.4"/>
</g>
<!-- Node12 -->
<g id="node12" class="node">
<title>Node12</title>
<g id="a_node12"><a xlink:href="os__memory_8c.html" target="_top" xlink:title=" ">
<polygon fill="white" stroke="black" points="326.5,-0.5 326.5,-19.5 407.5,-19.5 407.5,-0.5 326.5,-0.5"/>
<text text-anchor="middle" x="367" y="-7.5" font-family="Helvetica,sans-Serif" font-size="10.00">os_memory.c</text>
</a>
</g>
</g>
<!-- Node11&#45;&gt;Node12 -->
<g id="edge14" class="edge">
<title>Node11&#45;&gt;Node12</title>
<path fill="none" stroke="midnightblue" d="M394.98,-47.86C387.88,-38.5 379.4,-27.33 373.64,-19.75"/>
<polygon fill="midnightblue" stroke="midnightblue" points="392.39,-50.24 401.23,-56.08 397.97,-46 392.39,-50.24"/>
</g>
<!-- Node13 -->
<g id="node13" class="node">
<title>Node13</title>
<g id="a_node13"><a xlink:href="os__memory__strategies_8c.html" target="_top" xlink:title=" ">
<polygon fill="white" stroke="black" points="156.5,-0.5 156.5,-19.5 293.5,-19.5 293.5,-0.5 156.5,-0.5"/>
<text text-anchor="middle" x="225" y="-7.5" font-family="Helvetica,sans-Serif" font-size="10.00">os_memory_strategies.c</text>
</a>
</g>
</g>
<!-- Node11&#45;&gt;Node13 -->
<g id="edge15" class="edge">
<title>Node11&#45;&gt;Node13</title>
<path fill="none" stroke="midnightblue" d="M369.26,-53.57C334.74,-43.38 284.99,-28.7 253.86,-19.52"/>
<polygon fill="midnightblue" stroke="midnightblue" points="368.42,-56.97 379,-56.44 370.4,-50.26 368.42,-56.97"/>
</g>
<!-- Node11&#45;&gt;Node14 -->
<g id="edge17" class="edge">
<title>Node11&#45;&gt;Node14</title>
<path fill="none" stroke="midnightblue" d="M459.04,-57.49C526.78,-47.52 646.06,-29.97 717.09,-19.52"/>
<polygon fill="midnightblue" stroke="midnightblue" points="458.42,-54.04 449.03,-58.96 459.43,-60.97 458.42,-54.04"/>
</g>
<!-- Node15&#45;&gt;Node10 -->
<g id="edge19" class="edge">
<title>Node15&#45;&gt;Node10</title>
<path fill="none" stroke="midnightblue" d="M137.66,-51.45C119.76,-41.48 95.95,-28.23 80.55,-19.65"/>
<polygon fill="midnightblue" stroke="midnightblue" points="135.98,-54.52 146.42,-56.32 139.38,-48.4 135.98,-54.52"/>
</g>
<!-- Node15&#45;&gt;Node12 -->
<g id="edge20" class="edge">
<title>Node15&#45;&gt;Node12</title>
<path fill="none" stroke="midnightblue" d="M204.41,-53.83C243.11,-43.63 299.49,-28.78 334.67,-19.52"/>
<polygon fill="midnightblue" stroke="midnightblue" points="203.26,-50.51 194.48,-56.44 205.04,-57.28 203.26,-50.51"/>
</g>
<!-- Node15&#45;&gt;Node13 -->
<g id="edge21" class="edge">
<title>Node15&#45;&gt;Node13</title>
<path fill="none" stroke="midnightblue" d="M180.04,-49.54C191.27,-39.91 205.32,-27.87 214.69,-19.83"/>
<polygon fill="midnightblue" stroke="midnightblue" points="177.44,-47.16 172.12,-56.32 181.99,-52.47 177.44,-47.16"/>
</g>
<!-- Node16&#45;&gt;Node5 -->
<g id="edge29" class="edge">
<title>Node16&#45;&gt;Node5</title>
<path fill="none" stroke="midnightblue" d="M718.01,-158.3C717.08,-144.15 713.69,-124.98 703,-112 656.71,-55.76 572.64,-29.71 521.11,-18.54"/>
<polygon fill="midnightblue" stroke="midnightblue" points="714.51,-158.49 718.32,-168.37 721.51,-158.27 714.51,-158.49"/>
</g>
<!-- Node16&#45;&gt;Node7 -->
<g id="edge27" class="edge">
<title>Node16&#45;&gt;Node7</title>
<path fill="none" stroke="midnightblue" d="M692.91,-163.45C674.45,-153.48 649.9,-140.23 634.03,-131.65"/>
<polygon fill="midnightblue" stroke="midnightblue" points="691.47,-166.65 701.93,-168.32 694.8,-160.49 691.47,-166.65"/>
</g>
<!-- Node16&#45;&gt;Node11 -->
<g id="edge28" class="edge">
<title>Node16&#45;&gt;Node11</title>
<path fill="none" stroke="midnightblue" d="M712.12,-158.42C706.38,-143.43 696.12,-123.09 680,-112 643.23,-86.69 515.68,-74.38 449.13,-69.55"/>
<polygon fill="midnightblue" stroke="midnightblue" points="708.92,-159.88 715.52,-168.17 715.53,-157.58 708.92,-159.88"/>
</g>
<!-- Node16&#45;&gt;Node14 -->
<g id="edge33" class="edge">
<title>Node16&#45;&gt;Node14</title>
<path fill="none" stroke="midnightblue" d="M732.75,-160.58C739.27,-152.5 746.48,-142.29 751,-132 768.41,-92.4 773.29,-39.96 774.57,-19.59"/>
<polygon fill="midnightblue" stroke="midnightblue" points="729.9,-158.54 726.1,-168.43 735.23,-163.06 729.9,-158.54"/>
</g>
<!-- Node16&#45;&gt;Node17 -->
<g id="edge30" class="edge">
<title>Node16&#45;&gt;Node17</title>
<path fill="none" stroke="midnightblue" d="M752.83,-165.17C782.77,-155 825.22,-140.59 851.92,-131.52"/>
<polygon fill="midnightblue" stroke="midnightblue" points="751.54,-161.91 743.19,-168.44 753.79,-168.54 751.54,-161.91"/>
</g>
<!-- Node17&#45;&gt;Node5 -->
<g id="edge31" class="edge">
<title>Node17&#45;&gt;Node5</title>
<path fill="none" stroke="midnightblue" d="M849.5,-108.24C817.37,-93.77 762.31,-70.33 713,-56 647.31,-36.91 568.93,-23.81 521.08,-16.86"/>
<polygon fill="midnightblue" stroke="midnightblue" points="848.16,-111.47 858.71,-112.42 851.05,-105.1 848.16,-111.47"/>
</g>
<!-- Node17&#45;&gt;Node18 -->
<g id="edge32" class="edge">
<title>Node17&#45;&gt;Node18</title>
<path fill="none" stroke="midnightblue" d="M883.55,-102.4C886.72,-93.36 890.39,-82.94 892.92,-75.75"/>
<polygon fill="midnightblue" stroke="midnightblue" points="880.15,-101.49 880.14,-112.08 886.76,-103.81 880.15,-101.49"/>
</g>
</g>
</svg>
