<?xml version="1.0" encoding="UTF-8" standalone="no"?>
<!DOCTYPE svg PUBLIC "-//W3C//DTD SVG 1.1//EN"
 "http://www.w3.org/Graphics/SVG/1.1/DTD/svg11.dtd">
<!-- Generated by graphviz version 2.43.0 (0)
 -->
<!-- Title: lcd.h Pages: 1 -->
<svg width="293pt" height="84pt"
 viewBox="0.00 0.00 293.00 84.00" xmlns="http://www.w3.org/2000/svg" xmlns:xlink="http://www.w3.org/1999/xlink">
<g id="graph0" class="graph" transform="scale(1 1) rotate(0) translate(4 80)">
<title>lcd.h</title>
<polygon fill="white" stroke="transparent" points="-4,4 -4,-80 289,-80 289,4 -4,4"/>
<!-- Node1 -->
<g id="node1" class="node">
<title>Node1</title>
<g id="a_node1"><a xlink:title="Library for LCD use.">
<polygon fill="#bfbfbf" stroke="black" points="114.5,-56.5 114.5,-75.5 154.5,-75.5 154.5,-56.5 114.5,-56.5"/>
<text text-anchor="middle" x="134.5" y="-63.5" font-family="Helvetica,sans-Serif" font-size="10.00">lcd.h</text>
</a>
</g>
</g>
<!-- Node2 -->
<g id="node2" class="node">
<title>Node2</title>
<g id="a_node2"><a xlink:href="lcd_8c.html" target="_top" xlink:title="Library for LCD use.">
<polygon fill="white" stroke="black" points="0,-0.5 0,-19.5 39,-19.5 39,-0.5 0,-0.5"/>
<text text-anchor="middle" x="19.5" y="-7.5" font-family="Helvetica,sans-Serif" font-size="10.00">lcd.c</text>
</a>
</g>
</g>
<!-- Node1&#45;&gt;Node2 -->
<g id="edge1" class="edge">
<title>Node1&#45;&gt;Node2</title>
<path fill="none" stroke="midnightblue" d="M107.02,-52.1C85.53,-42.01 56.28,-28.27 37.64,-19.52"/>
<polygon fill="midnightblue" stroke="midnightblue" points="105.74,-55.36 116.28,-56.44 108.71,-49.02 105.74,-55.36"/>
</g>
<!-- Node3 -->
<g id="node3" class="node">
<title>Node3</title>
<g id="a_node3"><a xlink:href="os__core_8c.html" target="_top" xlink:title=" ">
<polygon fill="white" stroke="black" points="57.5,-0.5 57.5,-19.5 119.5,-19.5 119.5,-0.5 57.5,-0.5"/>
<text text-anchor="middle" x="88.5" y="-7.5" font-family="Helvetica,sans-Serif" font-size="10.00">os_core.c</text>
</a>
</g>
</g>
<!-- Node1&#45;&gt;Node3 -->
<g id="edge2" class="edge">
<title>Node1&#45;&gt;Node3</title>
<path fill="none" stroke="midnightblue" d="M120.39,-48.43C112.32,-38.97 102.54,-27.48 95.95,-19.75"/>
<polygon fill="midnightblue" stroke="midnightblue" points="117.75,-50.74 126.9,-56.08 123.08,-46.2 117.75,-50.74"/>
</g>
<!-- Node4 -->
<g id="node4" class="node">
<title>Node4</title>
<g id="a_node4"><a xlink:href="os__scheduler_8c.html" target="_top" xlink:title="Scheduling module for the OS.">
<polygon fill="white" stroke="black" points="137.5,-0.5 137.5,-19.5 225.5,-19.5 225.5,-0.5 137.5,-0.5"/>
<text text-anchor="middle" x="181.5" y="-7.5" font-family="Helvetica,sans-Serif" font-size="10.00">os_scheduler.c</text>
</a>
</g>
</g>
<!-- Node1&#45;&gt;Node4 -->
<g id="edge3" class="edge">
<title>Node1&#45;&gt;Node4</title>
<path fill="none" stroke="midnightblue" d="M148.92,-48.43C157.16,-38.97 167.15,-27.48 173.88,-19.75"/>
<polygon fill="midnightblue" stroke="midnightblue" points="146.19,-46.24 142.26,-56.08 151.47,-50.84 146.19,-46.24"/>
</g>
<!-- Node5 -->
<g id="node5" class="node">
<title>Node5</title>
<g id="a_node5"><a xlink:href="util_8c.html" target="_top" xlink:title=" ">
<polygon fill="white" stroke="black" points="244,-0.5 244,-19.5 285,-19.5 285,-0.5 244,-0.5"/>
<text text-anchor="middle" x="264.5" y="-7.5" font-family="Helvetica,sans-Serif" font-size="10.00">util.c</text>
</a>
</g>
</g>
<!-- Node1&#45;&gt;Node5 -->
<g id="edge4" class="edge">
<title>Node1&#45;&gt;Node5</title>
<path fill="none" stroke="midnightblue" d="M163.99,-52.75C188.33,-42.64 222.26,-28.55 243.8,-19.6"/>
<polygon fill="midnightblue" stroke="midnightblue" points="162.42,-49.61 154.53,-56.68 165.11,-56.08 162.42,-49.61"/>
</g>
</g>
</svg>
