<?xml version="1.0" encoding="UTF-8" standalone="no"?>
<!DOCTYPE svg PUBLIC "-//W3C//DTD SVG 1.1//EN"
 "http://www.w3.org/Graphics/SVG/1.1/DTD/svg11.dtd">
<!-- Generated by graphviz version 2.43.0 (0)
 -->
<!-- Title: lcd.h Pages: 1 -->
<svg width="411pt" height="196pt"
 viewBox="0.00 0.00 410.50 196.00" xmlns="http://www.w3.org/2000/svg" xmlns:xlink="http://www.w3.org/1999/xlink">
<g id="graph0" class="graph" transform="scale(1 1) rotate(0) translate(4 192)">
<title>lcd.h</title>
<polygon fill="white" stroke="transparent" points="-4,4 -4,-192 406.5,-192 406.5,4 -4,4"/>
<!-- Node1 -->
<g id="node1" class="node">
<title>Node1</title>
<g id="a_node1"><a xlink:title="Library for LCD use.">
<polygon fill="#bfbfbf" stroke="black" points="172.5,-168.5 172.5,-187.5 212.5,-187.5 212.5,-168.5 172.5,-168.5"/>
<text text-anchor="middle" x="192.5" y="-175.5" font-family="Helvetica,sans-Serif" font-size="10.00">lcd.h</text>
</a>
</g>
</g>
<!-- Node2 -->
<g id="node2" class="node">
<title>Node2</title>
<g id="a_node2"><a xlink:title=" ">
<polygon fill="white" stroke="#bfbfbf" points="0,-56.5 0,-75.5 95,-75.5 95,-56.5 0,-56.5"/>
<text text-anchor="middle" x="47.5" y="-63.5" font-family="Helvetica,sans-Serif" font-size="10.00">avr/pgmspace.h</text>
</a>
</g>
</g>
<!-- Node1&#45;&gt;Node2 -->
<g id="edge1" class="edge">
<title>Node1&#45;&gt;Node2</title>
<path fill="none" stroke="midnightblue" d="M172.43,-171.17C151.36,-164.32 118.08,-151.37 94.5,-132 78.41,-118.79 65.09,-98.84 56.78,-84.53"/>
<polygon fill="midnightblue" stroke="midnightblue" points="59.78,-82.72 51.86,-75.67 53.66,-86.11 59.78,-82.72"/>
</g>
<!-- Node3 -->
<g id="node3" class="node">
<title>Node3</title>
<g id="a_node3"><a xlink:title=" ">
<polygon fill="white" stroke="#bfbfbf" points="113.5,-56.5 113.5,-75.5 175.5,-75.5 175.5,-56.5 113.5,-56.5"/>
<text text-anchor="middle" x="144.5" y="-63.5" font-family="Helvetica,sans-Serif" font-size="10.00">stdbool.h</text>
</a>
</g>
</g>
<!-- Node1&#45;&gt;Node3 -->
<g id="edge2" class="edge">
<title>Node1&#45;&gt;Node3</title>
<path fill="none" stroke="midnightblue" d="M188.73,-168.37C180.92,-150.46 162.79,-108.92 152.33,-84.95"/>
<polygon fill="midnightblue" stroke="midnightblue" points="155.46,-83.36 148.25,-75.59 149.04,-86.16 155.46,-83.36"/>
</g>
<!-- Node4 -->
<g id="node4" class="node">
<title>Node4</title>
<g id="a_node4"><a xlink:title=" ">
<polygon fill="white" stroke="#bfbfbf" points="194,-56.5 194,-75.5 247,-75.5 247,-56.5 194,-56.5"/>
<text text-anchor="middle" x="220.5" y="-63.5" font-family="Helvetica,sans-Serif" font-size="10.00">stdint.h</text>
</a>
</g>
</g>
<!-- Node1&#45;&gt;Node4 -->
<g id="edge3" class="edge">
<title>Node1&#45;&gt;Node4</title>
<path fill="none" stroke="midnightblue" d="M194.7,-168.37C199.22,-150.62 209.64,-109.67 215.77,-85.6"/>
<polygon fill="midnightblue" stroke="midnightblue" points="219.24,-86.15 218.31,-75.59 212.45,-84.42 219.24,-86.15"/>
</g>
<!-- Node5 -->
<g id="node5" class="node">
<title>Node5</title>
<g id="a_node5"><a xlink:title=" ">
<polygon fill="white" stroke="#bfbfbf" points="239.5,-112.5 239.5,-131.5 289.5,-131.5 289.5,-112.5 239.5,-112.5"/>
<text text-anchor="middle" x="264.5" y="-119.5" font-family="Helvetica,sans-Serif" font-size="10.00">stdio.h</text>
</a>
</g>
</g>
<!-- Node1&#45;&gt;Node5 -->
<g id="edge4" class="edge">
<title>Node1&#45;&gt;Node5</title>
<path fill="none" stroke="midnightblue" d="M204.07,-168.32C214.92,-160.18 231.38,-147.84 244.38,-138.09"/>
<polygon fill="midnightblue" stroke="midnightblue" points="246.82,-140.63 252.72,-131.83 242.62,-135.03 246.82,-140.63"/>
</g>
<!-- Node6 -->
<g id="node6" class="node">
<title>Node6</title>
<g id="a_node6"><a xlink:href="defines_8h.html" target="_top" xlink:title="Simple definitions and assembler&#45;macros, mostly 8/16&#45;Bit values.">
<polygon fill="white" stroke="black" points="308,-112.5 308,-131.5 369,-131.5 369,-112.5 308,-112.5"/>
<text text-anchor="middle" x="338.5" y="-119.5" font-family="Helvetica,sans-Serif" font-size="10.00">defines.h</text>
</a>
</g>
</g>
<!-- Node1&#45;&gt;Node6 -->
<g id="edge5" class="edge">
<title>Node1&#45;&gt;Node6</title>
<path fill="none" stroke="midnightblue" d="M212.8,-169.49C236.91,-160.57 277.45,-145.58 305.95,-135.04"/>
<polygon fill="midnightblue" stroke="midnightblue" points="307.32,-138.26 315.49,-131.51 304.89,-131.7 307.32,-138.26"/>
</g>
<!-- Node9 -->
<g id="node9" class="node">
<title>Node9</title>
<g id="a_node9"><a xlink:href="util_8h.html" target="_top" xlink:title="Little helpers that don&#39;t fit elsewhere.">
<polygon fill="white" stroke="black" points="104,-112.5 104,-131.5 145,-131.5 145,-112.5 104,-112.5"/>
<text text-anchor="middle" x="124.5" y="-119.5" font-family="Helvetica,sans-Serif" font-size="10.00">util.h</text>
</a>
</g>
</g>
<!-- Node1&#45;&gt;Node9 -->
<g id="edge8" class="edge">
<title>Node1&#45;&gt;Node9</title>
<path fill="none" stroke="midnightblue" d="M181.57,-168.32C171.33,-160.18 155.78,-147.84 143.5,-138.09"/>
<polygon fill="midnightblue" stroke="midnightblue" points="145.63,-135.31 135.62,-131.83 141.28,-140.79 145.63,-135.31"/>
</g>
<!-- Node7 -->
<g id="node7" class="node">
<title>Node7</title>
<g id="a_node7"><a xlink:href="atmega644constants_8h.html" target="_top" xlink:title="Constants for ATMega644 and EVA board. Defines several useful constants for the ATMega644.">
<polygon fill="white" stroke="black" points="274.5,-56.5 274.5,-75.5 402.5,-75.5 402.5,-56.5 274.5,-56.5"/>
<text text-anchor="middle" x="338.5" y="-63.5" font-family="Helvetica,sans-Serif" font-size="10.00">atmega644constants.h</text>
</a>
</g>
</g>
<!-- Node6&#45;&gt;Node7 -->
<g id="edge6" class="edge">
<title>Node6&#45;&gt;Node7</title>
<path fill="none" stroke="midnightblue" d="M338.5,-112.08C338.5,-105.01 338.5,-94.86 338.5,-85.99"/>
<polygon fill="midnightblue" stroke="midnightblue" points="342,-85.75 338.5,-75.75 335,-85.75 342,-85.75"/>
</g>
<!-- Node8 -->
<g id="node8" class="node">
<title>Node8</title>
<g id="a_node8"><a xlink:title=" ">
<polygon fill="white" stroke="#bfbfbf" points="312,-0.5 312,-19.5 365,-19.5 365,-0.5 312,-0.5"/>
<text text-anchor="middle" x="338.5" y="-7.5" font-family="Helvetica,sans-Serif" font-size="10.00">avr/io.h</text>
</a>
</g>
</g>
<!-- Node7&#45;&gt;Node8 -->
<g id="edge7" class="edge">
<title>Node7&#45;&gt;Node8</title>
<path fill="none" stroke="midnightblue" d="M338.5,-56.08C338.5,-49.01 338.5,-38.86 338.5,-29.99"/>
<polygon fill="midnightblue" stroke="midnightblue" points="342,-29.75 338.5,-19.75 335,-29.75 342,-29.75"/>
</g>
<!-- Node9&#45;&gt;Node2 -->
<g id="edge9" class="edge">
<title>Node9&#45;&gt;Node2</title>
<path fill="none" stroke="midnightblue" d="M112.13,-112.32C100.34,-104.06 82.37,-91.45 68.36,-81.63"/>
<polygon fill="midnightblue" stroke="midnightblue" points="70.04,-78.53 59.84,-75.65 66.02,-84.26 70.04,-78.53"/>
</g>
<!-- Node9&#45;&gt;Node3 -->
<g id="edge10" class="edge">
<title>Node9&#45;&gt;Node3</title>
<path fill="none" stroke="midnightblue" d="M127.8,-112.08C130.48,-104.85 134.35,-94.41 137.69,-85.4"/>
<polygon fill="midnightblue" stroke="midnightblue" points="141.07,-86.34 141.26,-75.75 134.5,-83.91 141.07,-86.34"/>
</g>
<!-- Node9&#45;&gt;Node4 -->
<g id="edge11" class="edge">
<title>Node9&#45;&gt;Node4</title>
<path fill="none" stroke="midnightblue" d="M139.92,-112.32C155.04,-103.82 178.32,-90.73 195.97,-80.8"/>
<polygon fill="midnightblue" stroke="midnightblue" points="198.11,-83.61 205.11,-75.65 194.68,-77.51 198.11,-83.61"/>
</g>
</g>
</svg>
