<?xml version="1.0" encoding="UTF-8" standalone="no"?>
<!DOCTYPE svg PUBLIC "-//W3C//DTD SVG 1.1//EN"
 "http://www.w3.org/Graphics/SVG/1.1/DTD/svg11.dtd">
<!-- Generated by graphviz version 2.43.0 (0)
 -->
<!-- Title: os_scheduling_strategies.h Pages: 1 -->
<svg width="288pt" height="252pt"
 viewBox="0.00 0.00 287.50 252.00" xmlns="http://www.w3.org/2000/svg" xmlns:xlink="http://www.w3.org/1999/xlink">
<g id="graph0" class="graph" transform="scale(1 1) rotate(0) translate(4 248)">
<title>os_scheduling_strategies.h</title>
<polygon fill="white" stroke="transparent" points="-4,4 -4,-248 283.5,-248 283.5,4 -4,4"/>
<!-- Node1 -->
<g id="node1" class="node">
<title>Node1</title>
<g id="a_node1"><a xlink:title="Scheduling library for the OS.">
<polygon fill="#bfbfbf" stroke="black" points="45.5,-224.5 45.5,-243.5 194.5,-243.5 194.5,-224.5 45.5,-224.5"/>
<text text-anchor="middle" x="120" y="-231.5" font-family="Helvetica,sans-Serif" font-size="10.00">os_scheduling_strategies.h</text>
</a>
</g>
</g>
<!-- Node2 -->
<g id="node2" class="node">
<title>Node2</title>
<g id="a_node2"><a xlink:href="defines_8h.html" target="_top" xlink:title="Simple definitions and assembler&#45;macros, mostly 8/16&#45;Bit values.">
<polygon fill="white" stroke="black" points="53.5,-112.5 53.5,-131.5 114.5,-131.5 114.5,-112.5 53.5,-112.5"/>
<text text-anchor="middle" x="84" y="-119.5" font-family="Helvetica,sans-Serif" font-size="10.00">defines.h</text>
</a>
</g>
</g>
<!-- Node1&#45;&gt;Node2 -->
<g id="edge1" class="edge">
<title>Node1&#45;&gt;Node2</title>
<path fill="none" stroke="midnightblue" d="M116.54,-224.44C112.96,-215.44 107.29,-200.83 103,-188 97.81,-172.49 92.66,-154.65 89.03,-141.59"/>
<polygon fill="midnightblue" stroke="midnightblue" points="92.39,-140.62 86.37,-131.9 85.64,-142.47 92.39,-140.62"/>
</g>
<!-- Node5 -->
<g id="node5" class="node">
<title>Node5</title>
<g id="a_node5"><a xlink:href="os__scheduler_8h.html" target="_top" xlink:title="Scheduling module for the OS.">
<polygon fill="white" stroke="black" points="112.5,-168.5 112.5,-187.5 201.5,-187.5 201.5,-168.5 112.5,-168.5"/>
<text text-anchor="middle" x="157" y="-175.5" font-family="Helvetica,sans-Serif" font-size="10.00">os_scheduler.h</text>
</a>
</g>
</g>
<!-- Node1&#45;&gt;Node5 -->
<g id="edge4" class="edge">
<title>Node1&#45;&gt;Node5</title>
<path fill="none" stroke="midnightblue" d="M126.11,-224.08C131.28,-216.53 138.85,-205.49 145.19,-196.23"/>
<polygon fill="midnightblue" stroke="midnightblue" points="148.24,-197.98 151,-187.75 142.46,-194.02 148.24,-197.98"/>
</g>
<!-- Node3 -->
<g id="node3" class="node">
<title>Node3</title>
<g id="a_node3"><a xlink:href="atmega644constants_8h.html" target="_top" xlink:title="Constants for ATMega644 and EVA board. Defines several useful constants for the ATMega644.">
<polygon fill="white" stroke="black" points="0,-56.5 0,-75.5 128,-75.5 128,-56.5 0,-56.5"/>
<text text-anchor="middle" x="64" y="-63.5" font-family="Helvetica,sans-Serif" font-size="10.00">atmega644constants.h</text>
</a>
</g>
</g>
<!-- Node2&#45;&gt;Node3 -->
<g id="edge2" class="edge">
<title>Node2&#45;&gt;Node3</title>
<path fill="none" stroke="midnightblue" d="M80.7,-112.08C78.02,-104.85 74.15,-94.41 70.81,-85.4"/>
<polygon fill="midnightblue" stroke="midnightblue" points="74,-83.91 67.24,-75.75 67.43,-86.34 74,-83.91"/>
</g>
<!-- Node4 -->
<g id="node4" class="node">
<title>Node4</title>
<g id="a_node4"><a xlink:title=" ">
<polygon fill="white" stroke="#bfbfbf" points="37.5,-0.5 37.5,-19.5 90.5,-19.5 90.5,-0.5 37.5,-0.5"/>
<text text-anchor="middle" x="64" y="-7.5" font-family="Helvetica,sans-Serif" font-size="10.00">avr/io.h</text>
</a>
</g>
</g>
<!-- Node3&#45;&gt;Node4 -->
<g id="edge3" class="edge">
<title>Node3&#45;&gt;Node4</title>
<path fill="none" stroke="midnightblue" d="M64,-56.08C64,-49.01 64,-38.86 64,-29.99"/>
<polygon fill="midnightblue" stroke="midnightblue" points="67.5,-29.75 64,-19.75 60.5,-29.75 67.5,-29.75"/>
</g>
<!-- Node5&#45;&gt;Node2 -->
<g id="edge5" class="edge">
<title>Node5&#45;&gt;Node2</title>
<path fill="none" stroke="midnightblue" d="M145.27,-168.32C134.16,-160.11 117.26,-147.6 104.02,-137.81"/>
<polygon fill="midnightblue" stroke="midnightblue" points="106.06,-134.97 95.94,-131.83 101.9,-140.59 106.06,-134.97"/>
</g>
<!-- Node6 -->
<g id="node6" class="node">
<title>Node6</title>
<g id="a_node6"><a xlink:href="os__process_8h.html" target="_top" xlink:title="Struct specifying a process.">
<polygon fill="white" stroke="black" points="185,-112.5 185,-131.5 265,-131.5 265,-112.5 185,-112.5"/>
<text text-anchor="middle" x="225" y="-119.5" font-family="Helvetica,sans-Serif" font-size="10.00">os_process.h</text>
</a>
</g>
</g>
<!-- Node5&#45;&gt;Node6 -->
<g id="edge6" class="edge">
<title>Node5&#45;&gt;Node6</title>
<path fill="none" stroke="midnightblue" d="M167.93,-168.32C178.17,-160.18 193.72,-147.84 206,-138.09"/>
<polygon fill="midnightblue" stroke="midnightblue" points="208.22,-140.79 213.88,-131.83 203.87,-135.31 208.22,-140.79"/>
</g>
<!-- Node7 -->
<g id="node7" class="node">
<title>Node7</title>
<g id="a_node7"><a xlink:title=" ">
<polygon fill="white" stroke="#bfbfbf" points="146,-56.5 146,-75.5 208,-75.5 208,-56.5 146,-56.5"/>
<text text-anchor="middle" x="177" y="-63.5" font-family="Helvetica,sans-Serif" font-size="10.00">stdbool.h</text>
</a>
</g>
</g>
<!-- Node5&#45;&gt;Node7 -->
<g id="edge9" class="edge">
<title>Node5&#45;&gt;Node7</title>
<path fill="none" stroke="midnightblue" d="M158.57,-168.37C161.8,-150.62 169.24,-109.67 173.62,-85.6"/>
<polygon fill="midnightblue" stroke="midnightblue" points="177.09,-86.06 175.44,-75.59 170.21,-84.8 177.09,-86.06"/>
</g>
<!-- Node6&#45;&gt;Node7 -->
<g id="edge7" class="edge">
<title>Node6&#45;&gt;Node7</title>
<path fill="none" stroke="midnightblue" d="M217.07,-112.08C210.15,-104.3 199.93,-92.8 191.55,-83.37"/>
<polygon fill="midnightblue" stroke="midnightblue" points="194.04,-80.9 184.78,-75.75 188.81,-85.55 194.04,-80.9"/>
</g>
<!-- Node8 -->
<g id="node8" class="node">
<title>Node8</title>
<g id="a_node8"><a xlink:title=" ">
<polygon fill="white" stroke="#bfbfbf" points="226.5,-56.5 226.5,-75.5 279.5,-75.5 279.5,-56.5 226.5,-56.5"/>
<text text-anchor="middle" x="253" y="-63.5" font-family="Helvetica,sans-Serif" font-size="10.00">stdint.h</text>
</a>
</g>
</g>
<!-- Node6&#45;&gt;Node8 -->
<g id="edge8" class="edge">
<title>Node6&#45;&gt;Node8</title>
<path fill="none" stroke="midnightblue" d="M229.62,-112.08C233.46,-104.69 239.02,-93.95 243.76,-84.81"/>
<polygon fill="midnightblue" stroke="midnightblue" points="246.97,-86.24 248.46,-75.75 240.75,-83.02 246.97,-86.24"/>
</g>
</g>
</svg>
