<?xml version="1.0" encoding="UTF-8" standalone="no"?>
<!DOCTYPE svg PUBLIC "-//W3C//DTD SVG 1.1//EN"
 "http://www.w3.org/Graphics/SVG/1.1/DTD/svg11.dtd">
<!-- Generated by graphviz version 2.43.0 (0)
 -->
<!-- Title: os_scheduler.h Pages: 1 -->
<svg width="651pt" height="140pt"
 viewBox="0.00 0.00 650.50 140.00" xmlns="http://www.w3.org/2000/svg" xmlns:xlink="http://www.w3.org/1999/xlink">
<g id="graph0" class="graph" transform="scale(1 1) rotate(0) translate(4 136)">
<title>os_scheduler.h</title>
<polygon fill="white" stroke="transparent" points="-4,4 -4,-136 646.5,-136 646.5,4 -4,4"/>
<!-- Node1 -->
<g id="node1" class="node">
<title>Node1</title>
<g id="a_node1"><a xlink:title="Scheduling module for the OS.">
<polygon fill="#bfbfbf" stroke="black" points="302,-112.5 302,-131.5 391,-131.5 391,-112.5 302,-112.5"/>
<text text-anchor="middle" x="346.5" y="-119.5" font-family="Helvetica,sans-Serif" font-size="10.00">os_scheduler.h</text>
</a>
</g>
</g>
<!-- Node2 -->
<g id="node2" class="node">
<title>Node2</title>
<g id="a_node2"><a xlink:href="os__mem__drivers_8c.html" target="_top" xlink:title=" ">
<polygon fill="white" stroke="black" points="112.5,-56.5 112.5,-75.5 218.5,-75.5 218.5,-56.5 112.5,-56.5"/>
<text text-anchor="middle" x="165.5" y="-63.5" font-family="Helvetica,sans-Serif" font-size="10.00">os_mem_drivers.c</text>
</a>
</g>
</g>
<!-- Node1&#45;&gt;Node2 -->
<g id="edge1" class="edge">
<title>Node1&#45;&gt;Node2</title>
<path fill="none" stroke="midnightblue" d="M308.18,-109.57C274.04,-99.38 224.84,-84.7 194.05,-75.52"/>
<polygon fill="midnightblue" stroke="midnightblue" points="307.24,-112.94 317.82,-112.44 309.24,-106.23 307.24,-112.94"/>
</g>
<!-- Node3 -->
<g id="node3" class="node">
<title>Node3</title>
<g id="a_node3"><a xlink:href="os__memory_8h.html" target="_top" xlink:title="Library for OS memory management.">
<polygon fill="white" stroke="black" points="236.5,-56.5 236.5,-75.5 318.5,-75.5 318.5,-56.5 236.5,-56.5"/>
<text text-anchor="middle" x="277.5" y="-63.5" font-family="Helvetica,sans-Serif" font-size="10.00">os_memory.h</text>
</a>
</g>
</g>
<!-- Node1&#45;&gt;Node3 -->
<g id="edge2" class="edge">
<title>Node1&#45;&gt;Node3</title>
<path fill="none" stroke="midnightblue" d="M327.46,-106.1C315.04,-96.38 299.26,-84.03 288.79,-75.83"/>
<polygon fill="midnightblue" stroke="midnightblue" points="325.38,-108.92 335.41,-112.32 329.7,-103.4 325.38,-108.92"/>
</g>
<!-- Node6 -->
<g id="node6" class="node">
<title>Node6</title>
<g id="a_node6"><a xlink:href="os__scheduler_8c.html" target="_top" xlink:title="Scheduling module for the OS.">
<polygon fill="white" stroke="black" points="388.5,-0.5 388.5,-19.5 476.5,-19.5 476.5,-0.5 388.5,-0.5"/>
<text text-anchor="middle" x="432.5" y="-7.5" font-family="Helvetica,sans-Serif" font-size="10.00">os_scheduler.c</text>
</a>
</g>
</g>
<!-- Node1&#45;&gt;Node6 -->
<g id="edge7" class="edge">
<title>Node1&#45;&gt;Node6</title>
<path fill="none" stroke="midnightblue" d="M359.58,-104.27C378.17,-80.49 411.56,-37.79 425.78,-19.59"/>
<polygon fill="midnightblue" stroke="midnightblue" points="356.65,-102.33 353.25,-112.37 362.16,-106.65 356.65,-102.33"/>
</g>
<!-- Node7 -->
<g id="node7" class="node">
<title>Node7</title>
<g id="a_node7"><a xlink:href="os__user__privileges_8h.html" target="_top" xlink:title="User privileges specification used in part by the task manager.">
<polygon fill="white" stroke="black" points="254.5,-0.5 254.5,-19.5 370.5,-19.5 370.5,-0.5 254.5,-0.5"/>
<text text-anchor="middle" x="312.5" y="-7.5" font-family="Helvetica,sans-Serif" font-size="10.00">os_user_privileges.h</text>
</a>
</g>
</g>
<!-- Node1&#45;&gt;Node7 -->
<g id="edge11" class="edge">
<title>Node1&#45;&gt;Node7</title>
<path fill="none" stroke="midnightblue" d="M341.28,-102.47C337.56,-89.44 332.38,-71.6 327.5,-56 323.52,-43.27 318.57,-28.63 315.47,-19.6"/>
<polygon fill="midnightblue" stroke="midnightblue" points="337.93,-103.47 344.02,-112.14 344.66,-101.56 337.93,-103.47"/>
</g>
<!-- Node8 -->
<g id="node8" class="node">
<title>Node8</title>
<g id="a_node8"><a xlink:href="os__scheduling__strategies_8h.html" target="_top" xlink:title="Scheduling library for the OS.">
<polygon fill="white" stroke="black" points="412,-56.5 412,-75.5 561,-75.5 561,-56.5 412,-56.5"/>
<text text-anchor="middle" x="486.5" y="-63.5" font-family="Helvetica,sans-Serif" font-size="10.00">os_scheduling_strategies.h</text>
</a>
</g>
</g>
<!-- Node1&#45;&gt;Node8 -->
<g id="edge8" class="edge">
<title>Node1&#45;&gt;Node8</title>
<path fill="none" stroke="midnightblue" d="M378.2,-108.77C404.5,-98.63 441.22,-84.47 464.42,-75.52"/>
<polygon fill="midnightblue" stroke="midnightblue" points="376.75,-105.58 368.68,-112.44 379.27,-112.11 376.75,-105.58"/>
</g>
<!-- Node4 -->
<g id="node4" class="node">
<title>Node4</title>
<g id="a_node4"><a xlink:href="os__memory_8c.html" target="_top" xlink:title=" ">
<polygon fill="white" stroke="black" points="155,-0.5 155,-19.5 236,-19.5 236,-0.5 155,-0.5"/>
<text text-anchor="middle" x="195.5" y="-7.5" font-family="Helvetica,sans-Serif" font-size="10.00">os_memory.c</text>
</a>
</g>
</g>
<!-- Node3&#45;&gt;Node4 -->
<g id="edge3" class="edge">
<title>Node3&#45;&gt;Node4</title>
<path fill="none" stroke="midnightblue" d="M255.67,-50.62C240.69,-40.76 221.3,-27.99 208.64,-19.65"/>
<polygon fill="midnightblue" stroke="midnightblue" points="254.05,-53.75 264.33,-56.32 257.9,-47.9 254.05,-53.75"/>
</g>
<!-- Node5 -->
<g id="node5" class="node">
<title>Node5</title>
<g id="a_node5"><a xlink:href="os__memory__strategies_8c.html" target="_top" xlink:title=" ">
<polygon fill="white" stroke="black" points="0,-0.5 0,-19.5 137,-19.5 137,-0.5 0,-0.5"/>
<text text-anchor="middle" x="68.5" y="-7.5" font-family="Helvetica,sans-Serif" font-size="10.00">os_memory_strategies.c</text>
</a>
</g>
</g>
<!-- Node3&#45;&gt;Node5 -->
<g id="edge4" class="edge">
<title>Node3&#45;&gt;Node5</title>
<path fill="none" stroke="midnightblue" d="M234.52,-53.89C195.05,-43.7 137.4,-28.8 101.46,-19.52"/>
<polygon fill="midnightblue" stroke="midnightblue" points="233.83,-57.33 244.38,-56.44 235.58,-50.55 233.83,-57.33"/>
</g>
<!-- Node3&#45;&gt;Node6 -->
<g id="edge5" class="edge">
<title>Node3&#45;&gt;Node6</title>
<path fill="none" stroke="midnightblue" d="M311.83,-53.04C341,-42.88 382.14,-28.55 408.05,-19.52"/>
<polygon fill="midnightblue" stroke="midnightblue" points="310.35,-49.85 302.06,-56.44 312.66,-56.46 310.35,-49.85"/>
</g>
<!-- Node3&#45;&gt;Node7 -->
<g id="edge6" class="edge">
<title>Node3&#45;&gt;Node7</title>
<path fill="none" stroke="midnightblue" d="M288.8,-47.57C294.82,-38.27 301.97,-27.25 306.83,-19.75"/>
<polygon fill="midnightblue" stroke="midnightblue" points="285.78,-45.79 283.28,-56.08 291.66,-49.6 285.78,-45.79"/>
</g>
<!-- Node8&#45;&gt;Node6 -->
<g id="edge9" class="edge">
<title>Node8&#45;&gt;Node6</title>
<path fill="none" stroke="midnightblue" d="M470.5,-49C460.93,-39.43 449.14,-27.64 441.25,-19.75"/>
<polygon fill="midnightblue" stroke="midnightblue" points="468.04,-51.49 477.58,-56.08 472.99,-46.54 468.04,-51.49"/>
</g>
<!-- Node9 -->
<g id="node9" class="node">
<title>Node9</title>
<g id="a_node9"><a xlink:href="os__scheduling__strategies_8c.html" target="_top" xlink:title=" ">
<polygon fill="white" stroke="black" points="494.5,-0.5 494.5,-19.5 642.5,-19.5 642.5,-0.5 494.5,-0.5"/>
<text text-anchor="middle" x="568.5" y="-7.5" font-family="Helvetica,sans-Serif" font-size="10.00">os_scheduling_strategies.c</text>
</a>
</g>
</g>
<!-- Node8&#45;&gt;Node9 -->
<g id="edge10" class="edge">
<title>Node8&#45;&gt;Node9</title>
<path fill="none" stroke="midnightblue" d="M508.33,-50.62C523.31,-40.76 542.7,-27.99 555.36,-19.65"/>
<polygon fill="midnightblue" stroke="midnightblue" points="506.1,-47.9 499.67,-56.32 509.95,-53.75 506.1,-47.9"/>
</g>
</g>
</svg>
