<?xml version="1.0" encoding="UTF-8" standalone="no"?>
<!DOCTYPE svg PUBLIC "-//W3C//DTD SVG 1.1//EN"
 "http://www.w3.org/Graphics/SVG/1.1/DTD/svg11.dtd">
<!-- Generated by graphviz version 2.43.0 (0)
 -->
<!-- Title: os_spi.h Pages: 1 -->
<svg width="504pt" height="140pt"
 viewBox="0.00 0.00 503.50 140.00" xmlns="http://www.w3.org/2000/svg" xmlns:xlink="http://www.w3.org/1999/xlink">
<g id="graph0" class="graph" transform="scale(1 1) rotate(0) translate(4 136)">
<title>os_spi.h</title>
<polygon fill="white" stroke="transparent" points="-4,4 -4,-136 499.5,-136 499.5,4 -4,4"/>
<!-- Node1 -->
<g id="node1" class="node">
<title>Node1</title>
<g id="a_node1"><a xlink:title="Driver for AVRs SPI module.">
<polygon fill="#bfbfbf" stroke="black" points="256.5,-112.5 256.5,-131.5 312.5,-131.5 312.5,-112.5 256.5,-112.5"/>
<text text-anchor="middle" x="284.5" y="-119.5" font-family="Helvetica,sans-Serif" font-size="10.00">os_spi.h</text>
</a>
</g>
</g>
<!-- Node2 -->
<g id="node2" class="node">
<title>Node2</title>
<g id="a_node2"><a xlink:href="util_8h.html" target="_top" xlink:title="Little helpers that don&#39;t fit elsewhere.">
<polygon fill="white" stroke="black" points="137,-56.5 137,-75.5 178,-75.5 178,-56.5 137,-56.5"/>
<text text-anchor="middle" x="157.5" y="-63.5" font-family="Helvetica,sans-Serif" font-size="10.00">util.h</text>
</a>
</g>
</g>
<!-- Node1&#45;&gt;Node2 -->
<g id="edge1" class="edge">
<title>Node1&#45;&gt;Node2</title>
<path fill="none" stroke="midnightblue" d="M264.38,-112.44C243.48,-103.56 210.57,-89.56 186.78,-79.45"/>
<polygon fill="midnightblue" stroke="midnightblue" points="188.1,-76.21 177.53,-75.52 185.36,-82.65 188.1,-76.21"/>
</g>
<!-- Node5 -->
<g id="node5" class="node">
<title>Node5</title>
<g id="a_node5"><a xlink:title=" ">
<polygon fill="white" stroke="#bfbfbf" points="194,-0.5 194,-19.5 247,-19.5 247,-0.5 194,-0.5"/>
<text text-anchor="middle" x="220.5" y="-7.5" font-family="Helvetica,sans-Serif" font-size="10.00">stdint.h</text>
</a>
</g>
</g>
<!-- Node1&#45;&gt;Node5 -->
<g id="edge7" class="edge">
<title>Node1&#45;&gt;Node5</title>
<path fill="none" stroke="midnightblue" d="M269.71,-112.24C257.72,-104.32 241.4,-91.54 232.5,-76 224.39,-61.84 221.59,-43.36 220.7,-29.72"/>
<polygon fill="midnightblue" stroke="midnightblue" points="224.19,-29.47 220.33,-19.61 217.2,-29.73 224.19,-29.47"/>
</g>
<!-- Node6 -->
<g id="node6" class="node">
<title>Node6</title>
<g id="a_node6"><a xlink:title=" ">
<polygon fill="white" stroke="#bfbfbf" points="241.5,-56.5 241.5,-75.5 327.5,-75.5 327.5,-56.5 241.5,-56.5"/>
<text text-anchor="middle" x="284.5" y="-63.5" font-family="Helvetica,sans-Serif" font-size="10.00">avr/interrupt.h</text>
</a>
</g>
</g>
<!-- Node1&#45;&gt;Node6 -->
<g id="edge5" class="edge">
<title>Node1&#45;&gt;Node6</title>
<path fill="none" stroke="midnightblue" d="M284.5,-112.08C284.5,-105.01 284.5,-94.86 284.5,-85.99"/>
<polygon fill="midnightblue" stroke="midnightblue" points="288,-85.75 284.5,-75.75 281,-85.75 288,-85.75"/>
</g>
<!-- Node7 -->
<g id="node7" class="node">
<title>Node7</title>
<g id="a_node7"><a xlink:title=" ">
<polygon fill="white" stroke="#bfbfbf" points="346,-56.5 346,-75.5 399,-75.5 399,-56.5 346,-56.5"/>
<text text-anchor="middle" x="372.5" y="-63.5" font-family="Helvetica,sans-Serif" font-size="10.00">avr/io.h</text>
</a>
</g>
</g>
<!-- Node1&#45;&gt;Node7 -->
<g id="edge6" class="edge">
<title>Node1&#45;&gt;Node7</title>
<path fill="none" stroke="midnightblue" d="M298.64,-112.32C312.37,-103.9 333.44,-90.97 349.56,-81.07"/>
<polygon fill="midnightblue" stroke="midnightblue" points="351.7,-83.87 358.4,-75.65 348.04,-77.9 351.7,-83.87"/>
</g>
<!-- Node8 -->
<g id="node8" class="node">
<title>Node8</title>
<g id="a_node8"><a xlink:title=" ">
<polygon fill="white" stroke="#bfbfbf" points="417.5,-56.5 417.5,-75.5 495.5,-75.5 495.5,-56.5 417.5,-56.5"/>
<text text-anchor="middle" x="456.5" y="-63.5" font-family="Helvetica,sans-Serif" font-size="10.00">util/atomic.h</text>
</a>
</g>
</g>
<!-- Node1&#45;&gt;Node8 -->
<g id="edge8" class="edge">
<title>Node1&#45;&gt;Node8</title>
<path fill="none" stroke="midnightblue" d="M311.75,-112.44C340.94,-103.28 387.42,-88.69 419.81,-78.52"/>
<polygon fill="midnightblue" stroke="midnightblue" points="420.88,-81.85 429.37,-75.52 418.78,-75.17 420.88,-81.85"/>
</g>
<!-- Node3 -->
<g id="node3" class="node">
<title>Node3</title>
<g id="a_node3"><a xlink:title=" ">
<polygon fill="white" stroke="#bfbfbf" points="0,-0.5 0,-19.5 95,-19.5 95,-0.5 0,-0.5"/>
<text text-anchor="middle" x="47.5" y="-7.5" font-family="Helvetica,sans-Serif" font-size="10.00">avr/pgmspace.h</text>
</a>
</g>
</g>
<!-- Node2&#45;&gt;Node3 -->
<g id="edge2" class="edge">
<title>Node2&#45;&gt;Node3</title>
<path fill="none" stroke="midnightblue" d="M139.83,-56.32C122.11,-47.62 94.6,-34.12 74.21,-24.11"/>
<polygon fill="midnightblue" stroke="midnightblue" points="75.65,-20.92 65.13,-19.65 72.56,-27.2 75.65,-20.92"/>
</g>
<!-- Node4 -->
<g id="node4" class="node">
<title>Node4</title>
<g id="a_node4"><a xlink:title=" ">
<polygon fill="white" stroke="#bfbfbf" points="113.5,-0.5 113.5,-19.5 175.5,-19.5 175.5,-0.5 113.5,-0.5"/>
<text text-anchor="middle" x="144.5" y="-7.5" font-family="Helvetica,sans-Serif" font-size="10.00">stdbool.h</text>
</a>
</g>
</g>
<!-- Node2&#45;&gt;Node4 -->
<g id="edge3" class="edge">
<title>Node2&#45;&gt;Node4</title>
<path fill="none" stroke="midnightblue" d="M155.35,-56.08C153.63,-48.93 151.15,-38.64 149,-29.69"/>
<polygon fill="midnightblue" stroke="midnightblue" points="152.35,-28.65 146.61,-19.75 145.54,-30.29 152.35,-28.65"/>
</g>
<!-- Node2&#45;&gt;Node5 -->
<g id="edge4" class="edge">
<title>Node2&#45;&gt;Node5</title>
<path fill="none" stroke="midnightblue" d="M167.62,-56.32C177.03,-48.26 191.24,-36.08 202.57,-26.37"/>
<polygon fill="midnightblue" stroke="midnightblue" points="204.88,-29 210.19,-19.83 200.32,-23.68 204.88,-29"/>
</g>
</g>
</svg>
