<?xml version="1.0" encoding="UTF-8" standalone="no"?>
<!DOCTYPE svg PUBLIC "-//W3C//DTD SVG 1.1//EN"
 "http://www.w3.org/Graphics/SVG/1.1/DTD/svg11.dtd">
<!-- Generated by graphviz version 2.43.0 (0)
 -->
<!-- Title: os_init Pages: 1 -->
<svg width="736pt" height="436pt"
 viewBox="0.00 0.00 736.00 436.00" xmlns="http://www.w3.org/2000/svg" xmlns:xlink="http://www.w3.org/1999/xlink">
<g id="graph0" class="graph" transform="scale(1 1) rotate(0) translate(4 432)">
<title>os_init</title>
<polygon fill="white" stroke="transparent" points="-4,4 -4,-432 732,-432 732,4 -4,4"/>
<!-- Node1 -->
<g id="node1" class="node">
<title>Node1</title>
<g id="a_node1"><a xlink:title="Initializes OS.">
<polygon fill="#bfbfbf" stroke="black" points="0,-171.5 0,-190.5 49,-190.5 49,-171.5 0,-171.5"/>
<text text-anchor="middle" x="24.5" y="-178.5" font-family="Helvetica,sans-Serif" font-size="10.00">os_init</text>
</a>
</g>
</g>
<!-- Node2 -->
<g id="node2" class="node">
<title>Node2</title>
<g id="a_node2"><a xlink:href="util_8c.html#a6203c4722e9cbe1542b6ccbe98362dd2" target="_top" xlink:title="Waits for some milliseconds.">
<polygon fill="white" stroke="black" points="283,-408.5 283,-427.5 341,-427.5 341,-408.5 283,-408.5"/>
<text text-anchor="middle" x="312" y="-415.5" font-family="Helvetica,sans-Serif" font-size="10.00">delayMs</text>
</a>
</g>
</g>
<!-- Node1&#45;&gt;Node2 -->
<g id="edge1" class="edge">
<title>Node1&#45;&gt;Node2</title>
<path fill="none" stroke="midnightblue" d="M26.22,-190.5C28.83,-218 40.1,-298.41 85,-342 136.85,-392.34 223.09,-409.37 272.7,-415.1"/>
<polygon fill="midnightblue" stroke="midnightblue" points="272.39,-418.59 282.7,-416.16 273.13,-411.63 272.39,-418.59"/>
</g>
<!-- Node5 -->
<g id="node5" class="node">
<title>Node5</title>
<g id="a_node5"><a xlink:href="os__mem__drivers_8c.html#a7b4035516f05b473e63dcccfdcbb5ca3" target="_top" xlink:title="Function that needs to be called once in order to initialise all used memories such as the internal S...">
<polygon fill="white" stroke="black" points="91,-228.5 91,-247.5 203,-247.5 203,-228.5 91,-228.5"/>
<text text-anchor="middle" x="147" y="-235.5" font-family="Helvetica,sans-Serif" font-size="10.00">initMemoryDevices</text>
</a>
</g>
</g>
<!-- Node1&#45;&gt;Node5 -->
<g id="edge4" class="edge">
<title>Node1&#45;&gt;Node5</title>
<path fill="none" stroke="midnightblue" d="M38.16,-190.5C49.83,-198.91 67.88,-211.04 85,-219 89.72,-221.19 94.76,-223.22 99.84,-225.07"/>
<polygon fill="midnightblue" stroke="midnightblue" points="99,-228.48 109.6,-228.4 101.26,-221.86 99,-228.48"/>
</g>
<!-- Node6 -->
<g id="node6" class="node">
<title>Node6</title>
<g id="a_node6"><a xlink:href="lcd_8c.html#a6842775ba83d166f02b8fef8bb63b1e6" target="_top" xlink:title="Initialize LCD.">
<polygon fill="white" stroke="black" points="121,-313.5 121,-332.5 173,-332.5 173,-313.5 121,-313.5"/>
<text text-anchor="middle" x="147" y="-320.5" font-family="Helvetica,sans-Serif" font-size="10.00">lcd_init</text>
</a>
</g>
</g>
<!-- Node1&#45;&gt;Node6 -->
<g id="edge5" class="edge">
<title>Node1&#45;&gt;Node6</title>
<path fill="none" stroke="midnightblue" d="M28.15,-190.56C34.53,-211.96 52.64,-264.24 85,-295 92.46,-302.09 102.03,-307.62 111.37,-311.82"/>
<polygon fill="midnightblue" stroke="midnightblue" points="110.34,-315.18 120.92,-315.73 112.99,-308.71 110.34,-315.18"/>
</g>
<!-- Node12 -->
<g id="node12" class="node">
<title>Node12</title>
<g id="a_node12"><a xlink:href="lcd_8c.html#a12c915502d2f5eb5bca74e503ad88669" target="_top" xlink:title="Write char PROGMEM* string.">
<polygon fill="white" stroke="black" points="91.5,-190.5 91.5,-209.5 202.5,-209.5 202.5,-190.5 91.5,-190.5"/>
<text text-anchor="middle" x="147" y="-197.5" font-family="Helvetica,sans-Serif" font-size="10.00">lcd_writeProgString</text>
</a>
</g>
</g>
<!-- Node1&#45;&gt;Node12 -->
<g id="edge15" class="edge">
<title>Node1&#45;&gt;Node12</title>
<path fill="none" stroke="midnightblue" d="M49.02,-184.71C58.4,-186.19 69.69,-187.97 81.21,-189.78"/>
<polygon fill="midnightblue" stroke="midnightblue" points="80.92,-193.28 91.35,-191.38 82.01,-186.37 80.92,-193.28"/>
</g>
<!-- Node14 -->
<g id="node14" class="node">
<title>Node14</title>
<g id="a_node14"><a xlink:href="os__core_8c.html#a4005609655750d34e92fce6c062f9f1c" target="_top" xlink:title="Examines the saved MCU status register and possibly prints an error if the reset source is not allowe...">
<polygon fill="white" stroke="black" points="86,-266.5 86,-285.5 208,-285.5 208,-266.5 86,-266.5"/>
<text text-anchor="middle" x="147" y="-273.5" font-family="Helvetica,sans-Serif" font-size="10.00">os_checkResetSource</text>
</a>
</g>
</g>
<!-- Node1&#45;&gt;Node14 -->
<g id="edge17" class="edge">
<title>Node1&#45;&gt;Node14</title>
<path fill="none" stroke="midnightblue" d="M30.52,-190.71C39.35,-206.85 59.21,-239.2 85,-257 87.87,-258.98 90.96,-260.76 94.16,-262.37"/>
<polygon fill="midnightblue" stroke="midnightblue" points="92.87,-265.62 103.43,-266.41 95.67,-259.2 92.87,-265.62"/>
</g>
<!-- Node16 -->
<g id="node16" class="node">
<title>Node16</title>
<g id="a_node16"><a xlink:href="os__core_8c.html#a6e2cb65995e0266255572244baf860f3" target="_top" xlink:title="Initializes timers.">
<polygon fill="white" stroke="black" points="107,-152.5 107,-171.5 187,-171.5 187,-152.5 107,-152.5"/>
<text text-anchor="middle" x="147" y="-159.5" font-family="Helvetica,sans-Serif" font-size="10.00">os_init_timer</text>
</a>
</g>
</g>
<!-- Node1&#45;&gt;Node16 -->
<g id="edge20" class="edge">
<title>Node1&#45;&gt;Node16</title>
<path fill="none" stroke="midnightblue" d="M49.02,-177.29C62.63,-175.15 80.29,-172.36 96.8,-169.76"/>
<polygon fill="midnightblue" stroke="midnightblue" points="97.55,-173.18 106.89,-168.17 96.46,-166.27 97.55,-173.18"/>
</g>
<!-- Node17 -->
<g id="node17" class="node">
<title>Node17</title>
<g id="a_node17"><a xlink:href="os__memheap__drivers_8c.html#a1735427417a3f887402129714eadcba0" target="_top" xlink:title="Function that initialises all Heaps of the OS.">
<polygon fill="white" stroke="black" points="107,-114.5 107,-133.5 187,-133.5 187,-114.5 107,-114.5"/>
<text text-anchor="middle" x="147" y="-121.5" font-family="Helvetica,sans-Serif" font-size="10.00">os_initHeaps</text>
</a>
</g>
</g>
<!-- Node1&#45;&gt;Node17 -->
<g id="edge21" class="edge">
<title>Node1&#45;&gt;Node17</title>
<path fill="none" stroke="midnightblue" d="M38.16,-171.5C49.83,-163.09 67.88,-150.96 85,-143 89.72,-140.81 94.76,-138.78 99.84,-136.93"/>
<polygon fill="midnightblue" stroke="midnightblue" points="101.26,-140.14 109.6,-133.6 99,-133.52 101.26,-140.14"/>
</g>
<!-- Node19 -->
<g id="node19" class="node">
<title>Node19</title>
<g id="a_node19"><a xlink:href="os__input_8c.html#a47d043a57e87cffbb40be4e33609175a" target="_top" xlink:title="Initializes DDR and PORT for input.">
<polygon fill="white" stroke="black" points="110,-76.5 110,-95.5 184,-95.5 184,-76.5 110,-76.5"/>
<text text-anchor="middle" x="147" y="-83.5" font-family="Helvetica,sans-Serif" font-size="10.00">os_initInput</text>
</a>
</g>
</g>
<!-- Node1&#45;&gt;Node19 -->
<g id="edge23" class="edge">
<title>Node1&#45;&gt;Node19</title>
<path fill="none" stroke="midnightblue" d="M30.52,-171.29C39.35,-155.15 59.21,-122.8 85,-105 89.62,-101.81 94.8,-99.14 100.14,-96.9"/>
<polygon fill="midnightblue" stroke="midnightblue" points="101.64,-100.08 109.82,-93.34 99.23,-93.51 101.64,-100.08"/>
</g>
<!-- Node20 -->
<g id="node20" class="node">
<title>Node20</title>
<g id="a_node20"><a xlink:href="os__core_8c.html#afcd3b8ded93499847533d52c2b08772a" target="_top" xlink:title=" ">
<polygon fill="white" stroke="black" points="98.5,-38.5 98.5,-57.5 195.5,-57.5 195.5,-38.5 98.5,-38.5"/>
<text text-anchor="middle" x="147" y="-45.5" font-family="Helvetica,sans-Serif" font-size="10.00">os_initScheduler</text>
</a>
</g>
</g>
<!-- Node1&#45;&gt;Node20 -->
<g id="edge24" class="edge">
<title>Node1&#45;&gt;Node20</title>
<path fill="none" stroke="midnightblue" d="M27.79,-171.46C33.52,-149.64 50.56,-95.77 85,-67 87.05,-65.29 89.25,-63.73 91.56,-62.31"/>
<polygon fill="midnightblue" stroke="midnightblue" points="93.6,-65.2 100.9,-57.51 90.4,-58.97 93.6,-65.2"/>
</g>
<!-- Node21 -->
<g id="node21" class="node">
<title>Node21</title>
<g id="a_node21"><a xlink:href="util_8c.html#a6370606c3e897e0d3064a0f154a536a2" target="_top" xlink:title="Resets system time back to 0.">
<polygon fill="white" stroke="black" points="85,-0.5 85,-19.5 209,-19.5 209,-0.5 85,-0.5"/>
<text text-anchor="middle" x="147" y="-7.5" font-family="Helvetica,sans-Serif" font-size="10.00">os_systemTime_reset</text>
</a>
</g>
</g>
<!-- Node1&#45;&gt;Node21 -->
<g id="edge25" class="edge">
<title>Node1&#45;&gt;Node21</title>
<path fill="none" stroke="midnightblue" d="M26.44,-171.21C29.54,-144.41 41.86,-69.17 85,-29 86.68,-27.43 88.49,-26 90.4,-24.68"/>
<polygon fill="midnightblue" stroke="midnightblue" points="92.31,-27.62 99.26,-19.62 88.84,-21.54 92.31,-27.62"/>
</g>
<!-- Node3 -->
<g id="node3" class="node">
<title>Node3</title>
<g id="a_node3"><a xlink:href="util_8c.html#a0ed4ceac216999d297c20ed56cd2f2e0" target="_top" xlink:title="Precise system time in ms.">
<polygon fill="white" stroke="black" points="415,-408.5 415,-427.5 549,-427.5 549,-408.5 415,-408.5"/>
<text text-anchor="middle" x="482" y="-415.5" font-family="Helvetica,sans-Serif" font-size="10.00">os_systemTime_precise</text>
</a>
</g>
</g>
<!-- Node2&#45;&gt;Node3 -->
<g id="edge2" class="edge">
<title>Node2&#45;&gt;Node3</title>
<path fill="none" stroke="midnightblue" d="M341.12,-418C358.54,-418 381.82,-418 404.38,-418"/>
<polygon fill="midnightblue" stroke="midnightblue" points="404.67,-421.5 414.67,-418 404.67,-414.5 404.67,-421.5"/>
</g>
<!-- Node4 -->
<g id="node4" class="node">
<title>Node4</title>
<g id="a_node4"><a xlink:href="util_8c.html#aa7568de3711b151bbc57bb3517a5cb0a" target="_top" xlink:title=" ">
<polygon fill="white" stroke="black" points="585,-408.5 585,-427.5 728,-427.5 728,-408.5 585,-408.5"/>
<text text-anchor="middle" x="656.5" y="-415.5" font-family="Helvetica,sans-Serif" font-size="10.00">os_systemTime_augment</text>
</a>
</g>
</g>
<!-- Node3&#45;&gt;Node4 -->
<g id="edge3" class="edge">
<title>Node3&#45;&gt;Node4</title>
<path fill="none" stroke="midnightblue" d="M549.2,-418C557.6,-418 566.27,-418 574.86,-418"/>
<polygon fill="midnightblue" stroke="midnightblue" points="574.89,-421.5 584.89,-418 574.89,-414.5 574.89,-421.5"/>
</g>
<!-- Node6&#45;&gt;Node2 -->
<g id="edge6" class="edge">
<title>Node6&#45;&gt;Node2</title>
<path fill="none" stroke="midnightblue" d="M158.95,-332.64C176.22,-347.46 211.31,-376.02 245,-394 253.86,-398.73 263.85,-402.9 273.33,-406.38"/>
<polygon fill="midnightblue" stroke="midnightblue" points="272.36,-409.75 282.96,-409.76 274.68,-403.15 272.36,-409.75"/>
</g>
<!-- Node7 -->
<g id="node7" class="node">
<title>Node7</title>
<g id="a_node7"><a xlink:href="lcd_8c.html#ad235a86241458b1e7b8771688bfdaf9a" target="_top" xlink:title="Clear all data from display.">
<polygon fill="white" stroke="black" points="282,-332.5 282,-351.5 342,-351.5 342,-332.5 282,-332.5"/>
<text text-anchor="middle" x="312" y="-339.5" font-family="Helvetica,sans-Serif" font-size="10.00">lcd_clear</text>
</a>
</g>
</g>
<!-- Node6&#45;&gt;Node7 -->
<g id="edge7" class="edge">
<title>Node6&#45;&gt;Node7</title>
<path fill="none" stroke="midnightblue" d="M173.11,-325.93C199.43,-328.99 241.13,-333.86 271.79,-337.43"/>
<polygon fill="midnightblue" stroke="midnightblue" points="271.39,-340.91 281.72,-338.59 272.2,-333.95 271.39,-340.91"/>
</g>
<!-- Node8 -->
<g id="node8" class="node">
<title>Node8</title>
<g id="a_node8"><a xlink:href="lcd_8c.html#acb116d89c358367b8fd1164120d320e3" target="_top" xlink:title="Send command to LCD.">
<polygon fill="white" stroke="black" points="439.5,-294.5 439.5,-313.5 524.5,-313.5 524.5,-294.5 439.5,-294.5"/>
<text text-anchor="middle" x="482" y="-301.5" font-family="Helvetica,sans-Serif" font-size="10.00">lcd_command</text>
</a>
</g>
</g>
<!-- Node6&#45;&gt;Node8 -->
<g id="edge10" class="edge">
<title>Node6&#45;&gt;Node8</title>
<path fill="none" stroke="midnightblue" d="M166.34,-332.58C185.4,-341.96 216.39,-355.6 245,-361 303.52,-372.05 321.37,-376.01 379,-361 409.64,-353.02 440.84,-333.58 460.52,-319.62"/>
<polygon fill="midnightblue" stroke="midnightblue" points="462.69,-322.37 468.71,-313.65 458.57,-316.71 462.69,-322.37"/>
</g>
<!-- Node10 -->
<g id="node10" class="node">
<title>Node10</title>
<g id="a_node10"><a xlink:href="lcd_8c.html#aca4a9d0155c7c7ec0c5ce4c2f5347847" target="_top" xlink:title=" ">
<polygon fill="white" stroke="black" points="277.5,-294.5 277.5,-313.5 346.5,-313.5 346.5,-294.5 277.5,-294.5"/>
<text text-anchor="middle" x="312" y="-301.5" font-family="Helvetica,sans-Serif" font-size="10.00">lcd_enable</text>
</a>
</g>
</g>
<!-- Node6&#45;&gt;Node10 -->
<g id="edge11" class="edge">
<title>Node6&#45;&gt;Node10</title>
<path fill="none" stroke="midnightblue" d="M173.11,-320.07C198.12,-317.16 237.01,-312.62 267.12,-309.11"/>
<polygon fill="midnightblue" stroke="midnightblue" points="267.84,-312.55 277.37,-307.92 267.03,-305.6 267.84,-312.55"/>
</g>
<!-- Node11 -->
<g id="node11" class="node">
<title>Node11</title>
<g id="a_node11"><a xlink:href="lcd_8c.html#a9145ad7b7dd6a45f9a84cf3d424c5cf2" target="_top" xlink:title="Register a custom designed character with the LCD.">
<polygon fill="white" stroke="black" points="245,-256.5 245,-275.5 379,-275.5 379,-256.5 245,-256.5"/>
<text text-anchor="middle" x="312" y="-263.5" font-family="Helvetica,sans-Serif" font-size="10.00">lcd_registerCustomChar</text>
</a>
</g>
</g>
<!-- Node6&#45;&gt;Node11 -->
<g id="edge12" class="edge">
<title>Node6&#45;&gt;Node11</title>
<path fill="none" stroke="midnightblue" d="M170.51,-313.49C190.04,-305.41 219.14,-293.77 245,-285 251.6,-282.76 258.63,-280.56 265.54,-278.48"/>
<polygon fill="midnightblue" stroke="midnightblue" points="266.92,-281.73 275.53,-275.55 264.95,-275.01 266.92,-281.73"/>
</g>
<!-- Node7&#45;&gt;Node8 -->
<g id="edge8" class="edge">
<title>Node7&#45;&gt;Node8</title>
<path fill="none" stroke="midnightblue" d="M342.26,-335.38C366.31,-329.94 400.97,-322.1 429.63,-315.62"/>
<polygon fill="midnightblue" stroke="midnightblue" points="430.5,-319.01 439.49,-313.39 428.96,-312.18 430.5,-319.01"/>
</g>
<!-- Node9 -->
<g id="node9" class="node">
<title>Node9</title>
<g id="a_node9"><a xlink:href="lcd_8c.html#a26a89cb41bb1496462fda420cbe79a07" target="_top" xlink:title=" ">
<polygon fill="white" stroke="black" points="609,-275.5 609,-294.5 704,-294.5 704,-275.5 609,-275.5"/>
<text text-anchor="middle" x="656.5" y="-282.5" font-family="Helvetica,sans-Serif" font-size="10.00">lcd_sendStream</text>
</a>
</g>
</g>
<!-- Node8&#45;&gt;Node9 -->
<g id="edge9" class="edge">
<title>Node8&#45;&gt;Node9</title>
<path fill="none" stroke="midnightblue" d="M524.76,-299.4C547.01,-296.95 574.69,-293.9 598.85,-291.24"/>
<polygon fill="midnightblue" stroke="midnightblue" points="599.41,-294.7 608.96,-290.13 598.64,-287.74 599.41,-294.7"/>
</g>
<!-- Node11&#45;&gt;Node8 -->
<g id="edge13" class="edge">
<title>Node11&#45;&gt;Node8</title>
<path fill="none" stroke="midnightblue" d="M355.39,-275.59C377.93,-280.69 405.82,-286.99 429.59,-292.37"/>
<polygon fill="midnightblue" stroke="midnightblue" points="428.97,-295.82 439.49,-294.61 430.51,-288.99 428.97,-295.82"/>
</g>
<!-- Node11&#45;&gt;Node9 -->
<g id="edge14" class="edge">
<title>Node11&#45;&gt;Node9</title>
<path fill="none" stroke="midnightblue" d="M379.04,-269.66C442.8,-273.2 538.34,-278.5 598.76,-281.85"/>
<polygon fill="midnightblue" stroke="midnightblue" points="598.71,-285.35 608.89,-282.41 599.09,-278.37 598.71,-285.35"/>
</g>
<!-- Node13 -->
<g id="node13" class="node">
<title>Node13</title>
<g id="a_node13"><a xlink:href="lcd_8c.html#a93cd5600fa3b27381a4cf57d21f27ebf" target="_top" xlink:title="Write one character.">
<polygon fill="white" stroke="black" points="270.5,-180.5 270.5,-199.5 353.5,-199.5 353.5,-180.5 270.5,-180.5"/>
<text text-anchor="middle" x="312" y="-187.5" font-family="Helvetica,sans-Serif" font-size="10.00">lcd_writeChar</text>
</a>
</g>
</g>
<!-- Node12&#45;&gt;Node13 -->
<g id="edge16" class="edge">
<title>Node12&#45;&gt;Node13</title>
<path fill="none" stroke="midnightblue" d="M202.73,-196.64C221.29,-195.5 241.94,-194.24 260.19,-193.12"/>
<polygon fill="midnightblue" stroke="midnightblue" points="260.57,-196.6 270.33,-192.49 260.14,-189.61 260.57,-196.6"/>
</g>
<!-- Node15 -->
<g id="node15" class="node">
<title>Node15</title>
<g id="a_node15"><a xlink:href="lcd_8c.html#ad9ccaf30ea478fef726c058ff4ee7dd1" target="_top" xlink:title="Next output will be written to line 2.">
<polygon fill="white" stroke="black" points="282,-218.5 282,-237.5 342,-237.5 342,-218.5 282,-218.5"/>
<text text-anchor="middle" x="312" y="-225.5" font-family="Helvetica,sans-Serif" font-size="10.00">lcd_line2</text>
</a>
</g>
</g>
<!-- Node14&#45;&gt;Node15 -->
<g id="edge18" class="edge">
<title>Node14&#45;&gt;Node15</title>
<path fill="none" stroke="midnightblue" d="M179.87,-266.38C198.78,-260.7 223.24,-253.38 245,-247 253.73,-244.44 263.12,-241.72 271.99,-239.16"/>
<polygon fill="midnightblue" stroke="midnightblue" points="273.1,-242.48 281.74,-236.35 271.16,-235.75 273.1,-242.48"/>
</g>
<!-- Node15&#45;&gt;Node8 -->
<g id="edge19" class="edge">
<title>Node15&#45;&gt;Node8</title>
<path fill="none" stroke="midnightblue" d="M342.08,-234.83C353.76,-237.97 367.22,-242.09 379,-247 407.25,-258.78 437.64,-276.47 457.82,-289.02"/>
<polygon fill="midnightblue" stroke="midnightblue" points="456.01,-292.01 466.34,-294.38 459.74,-286.09 456.01,-292.01"/>
</g>
<!-- Node18 -->
<g id="node18" class="node">
<title>Node18</title>
<g id="a_node18"><a xlink:href="os__memheap__drivers_8c.html#a013d9591c2f7facee08a568f343a37c9" target="_top" xlink:title="Private function that initialises a single heap.">
<polygon fill="white" stroke="black" points="275,-114.5 275,-133.5 349,-133.5 349,-114.5 275,-114.5"/>
<text text-anchor="middle" x="312" y="-121.5" font-family="Helvetica,sans-Serif" font-size="10.00">os_initHeap</text>
</a>
</g>
</g>
<!-- Node17&#45;&gt;Node18 -->
<g id="edge22" class="edge">
<title>Node17&#45;&gt;Node18</title>
<path fill="none" stroke="midnightblue" d="M187.04,-124C210.36,-124 240.12,-124 264.64,-124"/>
<polygon fill="midnightblue" stroke="midnightblue" points="264.79,-127.5 274.79,-124 264.79,-120.5 264.79,-127.5"/>
</g>
</g>
</svg>
