<?xml version="1.0" encoding="UTF-8" standalone="no"?>
<!DOCTYPE svg PUBLIC "-//W3C//DTD SVG 1.1//EN"
 "http://www.w3.org/Graphics/SVG/1.1/DTD/svg11.dtd">
<!-- Generated by graphviz version 2.43.0 (0)
 -->
<!-- Title: os_scheduling_strategies.c Pages: 1 -->
<svg width="369pt" height="308pt"
 viewBox="0.00 0.00 368.50 308.00" xmlns="http://www.w3.org/2000/svg" xmlns:xlink="http://www.w3.org/1999/xlink">
<g id="graph0" class="graph" transform="scale(1 1) rotate(0) translate(4 304)">
<title>os_scheduling_strategies.c</title>
<polygon fill="white" stroke="transparent" points="-4,4 -4,-304 364.5,-304 364.5,4 -4,4"/>
<!-- Node1 -->
<g id="node1" class="node">
<title>Node1</title>
<g id="a_node1"><a xlink:title=" ">
<polygon fill="#bfbfbf" stroke="black" points="154,-280.5 154,-299.5 302,-299.5 302,-280.5 154,-280.5"/>
<text text-anchor="middle" x="228" y="-287.5" font-family="Helvetica,sans-Serif" font-size="10.00">os_scheduling_strategies.c</text>
</a>
</g>
</g>
<!-- Node2 -->
<g id="node2" class="node">
<title>Node2</title>
<g id="a_node2"><a xlink:href="os__scheduling__strategies_8h.html" target="_top" xlink:title="Scheduling library for the OS.">
<polygon fill="white" stroke="black" points="102.5,-224.5 102.5,-243.5 251.5,-243.5 251.5,-224.5 102.5,-224.5"/>
<text text-anchor="middle" x="177" y="-231.5" font-family="Helvetica,sans-Serif" font-size="10.00">os_scheduling_strategies.h</text>
</a>
</g>
</g>
<!-- Node1&#45;&gt;Node2 -->
<g id="edge1" class="edge">
<title>Node1&#45;&gt;Node2</title>
<path fill="none" stroke="midnightblue" d="M219.58,-280.08C212.15,-272.22 201.15,-260.57 192.19,-251.08"/>
<polygon fill="midnightblue" stroke="midnightblue" points="194.68,-248.62 185.26,-243.75 189.59,-253.42 194.68,-248.62"/>
</g>
<!-- Node3 -->
<g id="node3" class="node">
<title>Node3</title>
<g id="a_node3"><a xlink:href="defines_8h.html" target="_top" xlink:title="Simple definitions and assembler&#45;macros, mostly 8/16&#45;Bit values.">
<polygon fill="white" stroke="black" points="44.5,-112.5 44.5,-131.5 105.5,-131.5 105.5,-112.5 44.5,-112.5"/>
<text text-anchor="middle" x="75" y="-119.5" font-family="Helvetica,sans-Serif" font-size="10.00">defines.h</text>
</a>
</g>
</g>
<!-- Node1&#45;&gt;Node3 -->
<g id="edge11" class="edge">
<title>Node1&#45;&gt;Node3</title>
<path fill="none" stroke="midnightblue" d="M156.75,-280.41C133.2,-274.04 108.96,-263.02 93,-244 68.62,-214.95 69.49,-167.55 72.25,-141.54"/>
<polygon fill="midnightblue" stroke="midnightblue" points="75.74,-141.88 73.53,-131.52 68.79,-141 75.74,-141.88"/>
</g>
<!-- Node8 -->
<g id="node8" class="node">
<title>Node8</title>
<g id="a_node8"><a xlink:title=" ">
<polygon fill="white" stroke="#bfbfbf" points="218,-56.5 218,-75.5 280,-75.5 280,-56.5 218,-56.5"/>
<text text-anchor="middle" x="249" y="-63.5" font-family="Helvetica,sans-Serif" font-size="10.00">stdbool.h</text>
</a>
</g>
</g>
<!-- Node1&#45;&gt;Node8 -->
<g id="edge12" class="edge">
<title>Node1&#45;&gt;Node8</title>
<path fill="none" stroke="midnightblue" d="M236.75,-280.29C244.56,-271.84 255.45,-258.25 260,-244 277.68,-188.64 263.31,-118.7 254.54,-85.77"/>
<polygon fill="midnightblue" stroke="midnightblue" points="257.8,-84.43 251.73,-75.75 251.06,-86.32 257.8,-84.43"/>
</g>
<!-- Node10 -->
<g id="node10" class="node">
<title>Node10</title>
<g id="a_node10"><a xlink:title=" ">
<polygon fill="white" stroke="#bfbfbf" points="307.5,-224.5 307.5,-243.5 360.5,-243.5 360.5,-224.5 307.5,-224.5"/>
<text text-anchor="middle" x="334" y="-231.5" font-family="Helvetica,sans-Serif" font-size="10.00">stdlib.h</text>
</a>
</g>
</g>
<!-- Node1&#45;&gt;Node10 -->
<g id="edge13" class="edge">
<title>Node1&#45;&gt;Node10</title>
<path fill="none" stroke="midnightblue" d="M245.03,-280.32C262.03,-271.66 288.38,-258.24 307.99,-248.25"/>
<polygon fill="midnightblue" stroke="midnightblue" points="309.69,-251.31 317.01,-243.65 306.51,-245.08 309.69,-251.31"/>
</g>
<!-- Node2&#45;&gt;Node3 -->
<g id="edge2" class="edge">
<title>Node2&#45;&gt;Node3</title>
<path fill="none" stroke="midnightblue" d="M166.84,-224.43C156.65,-215.66 140.68,-201.45 128,-188 113.39,-172.51 98.18,-153.5 87.82,-140.05"/>
<polygon fill="midnightblue" stroke="midnightblue" points="90.33,-137.58 81.49,-131.74 84.76,-141.82 90.33,-137.58"/>
</g>
<!-- Node6 -->
<g id="node6" class="node">
<title>Node6</title>
<g id="a_node6"><a xlink:href="os__scheduler_8h.html" target="_top" xlink:title="Scheduling module for the OS.">
<polygon fill="white" stroke="black" points="137.5,-168.5 137.5,-187.5 226.5,-187.5 226.5,-168.5 137.5,-168.5"/>
<text text-anchor="middle" x="182" y="-175.5" font-family="Helvetica,sans-Serif" font-size="10.00">os_scheduler.h</text>
</a>
</g>
</g>
<!-- Node2&#45;&gt;Node6 -->
<g id="edge5" class="edge">
<title>Node2&#45;&gt;Node6</title>
<path fill="none" stroke="midnightblue" d="M177.83,-224.08C178.48,-217.01 179.42,-206.86 180.24,-197.99"/>
<polygon fill="midnightblue" stroke="midnightblue" points="183.75,-198.03 181.19,-187.75 176.78,-197.39 183.75,-198.03"/>
</g>
<!-- Node4 -->
<g id="node4" class="node">
<title>Node4</title>
<g id="a_node4"><a xlink:href="atmega644constants_8h.html" target="_top" xlink:title="Constants for ATMega644 and EVA board. Defines several useful constants for the ATMega644.">
<polygon fill="white" stroke="black" points="0,-56.5 0,-75.5 128,-75.5 128,-56.5 0,-56.5"/>
<text text-anchor="middle" x="64" y="-63.5" font-family="Helvetica,sans-Serif" font-size="10.00">atmega644constants.h</text>
</a>
</g>
</g>
<!-- Node3&#45;&gt;Node4 -->
<g id="edge3" class="edge">
<title>Node3&#45;&gt;Node4</title>
<path fill="none" stroke="midnightblue" d="M73.18,-112.08C71.73,-104.93 69.63,-94.64 67.81,-85.69"/>
<polygon fill="midnightblue" stroke="midnightblue" points="71.21,-84.85 65.78,-75.75 64.35,-86.25 71.21,-84.85"/>
</g>
<!-- Node5 -->
<g id="node5" class="node">
<title>Node5</title>
<g id="a_node5"><a xlink:title=" ">
<polygon fill="white" stroke="#bfbfbf" points="37.5,-0.5 37.5,-19.5 90.5,-19.5 90.5,-0.5 37.5,-0.5"/>
<text text-anchor="middle" x="64" y="-7.5" font-family="Helvetica,sans-Serif" font-size="10.00">avr/io.h</text>
</a>
</g>
</g>
<!-- Node4&#45;&gt;Node5 -->
<g id="edge4" class="edge">
<title>Node4&#45;&gt;Node5</title>
<path fill="none" stroke="midnightblue" d="M64,-56.08C64,-49.01 64,-38.86 64,-29.99"/>
<polygon fill="midnightblue" stroke="midnightblue" points="67.5,-29.75 64,-19.75 60.5,-29.75 67.5,-29.75"/>
</g>
<!-- Node6&#45;&gt;Node3 -->
<g id="edge6" class="edge">
<title>Node6&#45;&gt;Node3</title>
<path fill="none" stroke="midnightblue" d="M164.81,-168.32C147.65,-159.66 121.05,-146.24 101.25,-136.25"/>
<polygon fill="midnightblue" stroke="midnightblue" points="102.65,-133.04 92.15,-131.65 99.5,-139.28 102.65,-133.04"/>
</g>
<!-- Node7 -->
<g id="node7" class="node">
<title>Node7</title>
<g id="a_node7"><a xlink:href="os__process_8h.html" target="_top" xlink:title="Struct specifying a process.">
<polygon fill="white" stroke="black" points="133,-112.5 133,-131.5 213,-131.5 213,-112.5 133,-112.5"/>
<text text-anchor="middle" x="173" y="-119.5" font-family="Helvetica,sans-Serif" font-size="10.00">os_process.h</text>
</a>
</g>
</g>
<!-- Node6&#45;&gt;Node7 -->
<g id="edge7" class="edge">
<title>Node6&#45;&gt;Node7</title>
<path fill="none" stroke="midnightblue" d="M180.51,-168.08C179.32,-160.93 177.61,-150.64 176.12,-141.69"/>
<polygon fill="midnightblue" stroke="midnightblue" points="179.55,-141.04 174.46,-131.75 172.65,-142.19 179.55,-141.04"/>
</g>
<!-- Node6&#45;&gt;Node8 -->
<g id="edge10" class="edge">
<title>Node6&#45;&gt;Node8</title>
<path fill="none" stroke="midnightblue" d="M191.24,-168.42C200.04,-159.85 213.22,-145.99 222,-132 231.22,-117.3 238.52,-98.9 243.19,-85.44"/>
<polygon fill="midnightblue" stroke="midnightblue" points="246.54,-86.45 246.36,-75.86 239.9,-84.25 246.54,-86.45"/>
</g>
<!-- Node7&#45;&gt;Node8 -->
<g id="edge8" class="edge">
<title>Node7&#45;&gt;Node8</title>
<path fill="none" stroke="midnightblue" d="M185.21,-112.32C196.78,-104.11 214.38,-91.6 228.16,-81.81"/>
<polygon fill="midnightblue" stroke="midnightblue" points="230.44,-84.48 236.57,-75.83 226.39,-78.77 230.44,-84.48"/>
</g>
<!-- Node9 -->
<g id="node9" class="node">
<title>Node9</title>
<g id="a_node9"><a xlink:title=" ">
<polygon fill="white" stroke="#bfbfbf" points="146.5,-56.5 146.5,-75.5 199.5,-75.5 199.5,-56.5 146.5,-56.5"/>
<text text-anchor="middle" x="173" y="-63.5" font-family="Helvetica,sans-Serif" font-size="10.00">stdint.h</text>
</a>
</g>
</g>
<!-- Node7&#45;&gt;Node9 -->
<g id="edge9" class="edge">
<title>Node7&#45;&gt;Node9</title>
<path fill="none" stroke="midnightblue" d="M173,-112.08C173,-105.01 173,-94.86 173,-85.99"/>
<polygon fill="midnightblue" stroke="midnightblue" points="176.5,-85.75 173,-75.75 169.5,-85.75 176.5,-85.75"/>
</g>
</g>
</svg>
