<?xml version="1.0" encoding="UTF-8" standalone="no"?>
<!DOCTYPE svg PUBLIC "-//W3C//DTD SVG 1.1//EN"
 "http://www.w3.org/Graphics/SVG/1.1/DTD/svg11.dtd">
<!-- Generated by graphviz version 2.43.0 (0)
 -->
<!-- Title: atmega644constants.h Pages: 1 -->
<svg width="992pt" height="308pt"
 viewBox="0.00 0.00 991.50 308.00" xmlns="http://www.w3.org/2000/svg" xmlns:xlink="http://www.w3.org/1999/xlink">
<g id="graph0" class="graph" transform="scale(1 1) rotate(0) translate(4 304)">
<title>atmega644constants.h</title>
<polygon fill="white" stroke="transparent" points="-4,4 -4,-304 987.5,-304 987.5,4 -4,4"/>
<!-- Node1 -->
<g id="node1" class="node">
<title>Node1</title>
<g id="a_node1"><a xlink:title="Constants for ATMega644 and EVA board. Defines several useful constants for the ATMega644.">
<polygon fill="#bfbfbf" stroke="black" points="664,-280.5 664,-299.5 792,-299.5 792,-280.5 664,-280.5"/>
<text text-anchor="middle" x="728" y="-287.5" font-family="Helvetica,sans-Serif" font-size="10.00">atmega644constants.h</text>
</a>
</g>
</g>
<!-- Node2 -->
<g id="node2" class="node">
<title>Node2</title>
<g id="a_node2"><a xlink:href="defines_8h.html" target="_top" xlink:title="Simple definitions and assembler&#45;macros, mostly 8/16&#45;Bit values.">
<polygon fill="white" stroke="black" points="509.5,-224.5 509.5,-243.5 570.5,-243.5 570.5,-224.5 509.5,-224.5"/>
<text text-anchor="middle" x="540" y="-231.5" font-family="Helvetica,sans-Serif" font-size="10.00">defines.h</text>
</a>
</g>
</g>
<!-- Node1&#45;&gt;Node2 -->
<g id="edge1" class="edge">
<title>Node1&#45;&gt;Node2</title>
<path fill="none" stroke="midnightblue" d="M688.2,-277.57C652.73,-267.38 601.63,-252.7 569.65,-243.52"/>
<polygon fill="midnightblue" stroke="midnightblue" points="687.63,-281.05 698.21,-280.44 689.57,-274.32 687.63,-281.05"/>
</g>
<!-- Node7 -->
<g id="node7" class="node">
<title>Node7</title>
<g id="a_node7"><a xlink:href="util_8c.html" target="_top" xlink:title=" ">
<polygon fill="white" stroke="black" points="942.5,-112.5 942.5,-131.5 983.5,-131.5 983.5,-112.5 942.5,-112.5"/>
<text text-anchor="middle" x="963" y="-119.5" font-family="Helvetica,sans-Serif" font-size="10.00">util.c</text>
</a>
</g>
</g>
<!-- Node1&#45;&gt;Node7 -->
<g id="edge39" class="edge">
<title>Node1&#45;&gt;Node7</title>
<path fill="none" stroke="midnightblue" d="M763.66,-276.98C805.4,-261.54 874.8,-231.45 922,-188 940.06,-171.37 953.34,-145.07 959.38,-131.59"/>
<polygon fill="midnightblue" stroke="midnightblue" points="762.4,-273.72 754.18,-280.41 764.78,-280.3 762.4,-273.72"/>
</g>
<!-- Node3 -->
<g id="node3" class="node">
<title>Node3</title>
<g id="a_node3"><a xlink:href="lcd_8h.html" target="_top" xlink:title="Library for LCD use.">
<polygon fill="white" stroke="black" points="846,-168.5 846,-187.5 886,-187.5 886,-168.5 846,-168.5"/>
<text text-anchor="middle" x="866" y="-175.5" font-family="Helvetica,sans-Serif" font-size="10.00">lcd.h</text>
</a>
</g>
</g>
<!-- Node2&#45;&gt;Node3 -->
<g id="edge2" class="edge">
<title>Node2&#45;&gt;Node3</title>
<path fill="none" stroke="midnightblue" d="M580.88,-228.09C637.58,-220.96 743.14,-206.55 832,-188 836.54,-187.05 841.38,-185.87 845.95,-184.68"/>
<polygon fill="midnightblue" stroke="midnightblue" points="580.37,-224.62 570.88,-229.33 581.24,-231.57 580.37,-224.62"/>
</g>
<!-- Node5 -->
<g id="node5" class="node">
<title>Node5</title>
<g id="a_node5"><a xlink:href="os__core_8c.html" target="_top" xlink:title=" ">
<polygon fill="white" stroke="black" points="566,-56.5 566,-75.5 628,-75.5 628,-56.5 566,-56.5"/>
<text text-anchor="middle" x="597" y="-63.5" font-family="Helvetica,sans-Serif" font-size="10.00">os_core.c</text>
</a>
</g>
</g>
<!-- Node2&#45;&gt;Node5 -->
<g id="edge7" class="edge">
<title>Node2&#45;&gt;Node5</title>
<path fill="none" stroke="midnightblue" d="M546.55,-214.77C549.47,-206.59 552.94,-196.82 556,-188 570.62,-145.88 587.56,-95.31 594.16,-75.52"/>
<polygon fill="midnightblue" stroke="midnightblue" points="543.18,-213.79 543.11,-224.39 549.77,-216.15 543.18,-213.79"/>
</g>
<!-- Node2&#45;&gt;Node7 -->
<g id="edge38" class="edge">
<title>Node2&#45;&gt;Node7</title>
<path fill="none" stroke="midnightblue" d="M580.96,-231.02C662.1,-226.58 840.18,-214.11 895,-188 922.72,-174.8 946.4,-145.93 957.02,-131.53"/>
<polygon fill="midnightblue" stroke="midnightblue" points="580.43,-227.54 570.63,-231.57 580.8,-234.53 580.43,-227.54"/>
</g>
<!-- Node8 -->
<g id="node8" class="node">
<title>Node8</title>
<g id="a_node8"><a xlink:href="os__mem__drivers_8c.html" target="_top" xlink:title=" ">
<polygon fill="white" stroke="black" points="290,-112.5 290,-131.5 396,-131.5 396,-112.5 290,-112.5"/>
<text text-anchor="middle" x="343" y="-119.5" font-family="Helvetica,sans-Serif" font-size="10.00">os_mem_drivers.c</text>
</a>
</g>
</g>
<!-- Node2&#45;&gt;Node8 -->
<g id="edge8" class="edge">
<title>Node2&#45;&gt;Node8</title>
<path fill="none" stroke="midnightblue" d="M499.65,-223.92C472.91,-216.76 437.77,-205.1 410,-188 384.61,-172.37 361.1,-145.63 349.89,-131.82"/>
<polygon fill="midnightblue" stroke="midnightblue" points="498.89,-227.34 509.45,-226.44 500.64,-220.56 498.89,-227.34"/>
</g>
<!-- Node9 -->
<g id="node9" class="node">
<title>Node9</title>
<g id="a_node9"><a xlink:href="os__mem__drivers_8h.html" target="_top" xlink:title="Drivers for OS memory management.">
<polygon fill="white" stroke="black" points="230.5,-168.5 230.5,-187.5 337.5,-187.5 337.5,-168.5 230.5,-168.5"/>
<text text-anchor="middle" x="284" y="-175.5" font-family="Helvetica,sans-Serif" font-size="10.00">os_mem_drivers.h</text>
</a>
</g>
</g>
<!-- Node2&#45;&gt;Node9 -->
<g id="edge9" class="edge">
<title>Node2&#45;&gt;Node9</title>
<path fill="none" stroke="midnightblue" d="M499.35,-224.43C451.39,-214.31 372.16,-197.6 324.34,-187.51"/>
<polygon fill="midnightblue" stroke="midnightblue" points="498.87,-227.9 509.37,-226.54 500.31,-221.05 498.87,-227.9"/>
</g>
<!-- Node10 -->
<g id="node10" class="node">
<title>Node10</title>
<g id="a_node10"><a xlink:href="os__memheap__drivers_8h.html" target="_top" xlink:title="Drivers for OS heap management.">
<polygon fill="white" stroke="black" points="102.5,-112.5 102.5,-131.5 233.5,-131.5 233.5,-112.5 102.5,-112.5"/>
<text text-anchor="middle" x="168" y="-119.5" font-family="Helvetica,sans-Serif" font-size="10.00">os_memheap_drivers.h</text>
</a>
</g>
</g>
<!-- Node2&#45;&gt;Node10 -->
<g id="edge26" class="edge">
<title>Node2&#45;&gt;Node10</title>
<path fill="none" stroke="midnightblue" d="M499.45,-230.94C424.55,-226.56 267.88,-214.43 221,-188 197.41,-174.7 180.12,-146.41 172.43,-131.94"/>
<polygon fill="midnightblue" stroke="midnightblue" points="499.27,-234.44 509.46,-231.51 499.67,-227.45 499.27,-234.44"/>
</g>
<!-- Node11 -->
<g id="node11" class="node">
<title>Node11</title>
<g id="a_node11"><a xlink:href="os__memheap__drivers_8c.html" target="_top" xlink:title=" ">
<polygon fill="white" stroke="black" points="0,-0.5 0,-19.5 130,-19.5 130,-0.5 0,-0.5"/>
<text text-anchor="middle" x="65" y="-7.5" font-family="Helvetica,sans-Serif" font-size="10.00">os_memheap_drivers.c</text>
</a>
</g>
</g>
<!-- Node2&#45;&gt;Node11 -->
<g id="edge25" class="edge">
<title>Node2&#45;&gt;Node11</title>
<path fill="none" stroke="midnightblue" d="M498.81,-232.52C433,-230.69 300.78,-222.57 195,-188 145.84,-171.93 124.22,-173.23 93,-132 66.45,-96.93 64.43,-40.92 64.71,-19.61"/>
<polygon fill="midnightblue" stroke="midnightblue" points="499.09,-236.03 509.17,-232.78 499.26,-229.03 499.09,-236.03"/>
</g>
<!-- Node15 -->
<g id="node15" class="node">
<title>Node15</title>
<g id="a_node15"><a xlink:href="os__user__privileges_8h.html" target="_top" xlink:title="User privileges specification used in part by the task manager.">
<polygon fill="white" stroke="black" points="403,-0.5 403,-19.5 519,-19.5 519,-0.5 403,-0.5"/>
<text text-anchor="middle" x="461" y="-7.5" font-family="Helvetica,sans-Serif" font-size="10.00">os_user_privileges.h</text>
</a>
</g>
</g>
<!-- Node2&#45;&gt;Node15 -->
<g id="edge37" class="edge">
<title>Node2&#45;&gt;Node15</title>
<path fill="none" stroke="midnightblue" d="M499.72,-223.62C480.88,-216.99 460.17,-205.98 449,-188 414.39,-132.27 445.68,-46.75 457.17,-19.59"/>
<polygon fill="midnightblue" stroke="midnightblue" points="498.75,-226.98 509.35,-226.7 500.89,-220.32 498.75,-226.98"/>
</g>
<!-- Node17 -->
<g id="node17" class="node">
<title>Node17</title>
<g id="a_node17"><a xlink:href="os__scheduler_8h.html" target="_top" xlink:title="Scheduling module for the OS.">
<polygon fill="white" stroke="black" points="457.5,-168.5 457.5,-187.5 546.5,-187.5 546.5,-168.5 457.5,-168.5"/>
<text text-anchor="middle" x="502" y="-175.5" font-family="Helvetica,sans-Serif" font-size="10.00">os_scheduler.h</text>
</a>
</g>
</g>
<!-- Node2&#45;&gt;Node17 -->
<g id="edge27" class="edge">
<title>Node2&#45;&gt;Node17</title>
<path fill="none" stroke="midnightblue" d="M527.94,-215.86C521.36,-206.5 513.49,-195.33 508.16,-187.75"/>
<polygon fill="midnightblue" stroke="midnightblue" points="525.11,-217.92 533.73,-224.08 530.83,-213.89 525.11,-217.92"/>
</g>
<!-- Node18 -->
<g id="node18" class="node">
<title>Node18</title>
<g id="a_node18"><a xlink:href="os__scheduling__strategies_8h.html" target="_top" xlink:title="Scheduling library for the OS.">
<polygon fill="white" stroke="black" points="641.5,-112.5 641.5,-131.5 790.5,-131.5 790.5,-112.5 641.5,-112.5"/>
<text text-anchor="middle" x="716" y="-119.5" font-family="Helvetica,sans-Serif" font-size="10.00">os_scheduling_strategies.h</text>
</a>
</g>
</g>
<!-- Node2&#45;&gt;Node18 -->
<g id="edge36" class="edge">
<title>Node2&#45;&gt;Node18</title>
<path fill="none" stroke="midnightblue" d="M562.39,-219.01C599.33,-195.92 671.98,-150.51 702.25,-131.59"/>
<polygon fill="midnightblue" stroke="midnightblue" points="560.44,-216.1 553.81,-224.37 564.15,-222.04 560.44,-216.1"/>
</g>
<!-- Node19 -->
<g id="node19" class="node">
<title>Node19</title>
<g id="a_node19"><a xlink:href="os__scheduling__strategies_8c.html" target="_top" xlink:title=" ">
<polygon fill="white" stroke="black" points="725,-56.5 725,-75.5 873,-75.5 873,-56.5 725,-56.5"/>
<text text-anchor="middle" x="799" y="-63.5" font-family="Helvetica,sans-Serif" font-size="10.00">os_scheduling_strategies.c</text>
</a>
</g>
</g>
<!-- Node2&#45;&gt;Node19 -->
<g id="edge35" class="edge">
<title>Node2&#45;&gt;Node19</title>
<path fill="none" stroke="midnightblue" d="M581,-230.71C640.87,-224.9 750.47,-204.38 800,-132 811.6,-115.05 806.2,-89.35 802.11,-75.9"/>
<polygon fill="midnightblue" stroke="midnightblue" points="580.44,-227.25 570.78,-231.61 581.05,-234.22 580.44,-227.25"/>
</g>
<!-- Node4 -->
<g id="node4" class="node">
<title>Node4</title>
<g id="a_node4"><a xlink:href="lcd_8c.html" target="_top" xlink:title="Library for LCD use.">
<polygon fill="white" stroke="black" points="846.5,-112.5 846.5,-131.5 885.5,-131.5 885.5,-112.5 846.5,-112.5"/>
<text text-anchor="middle" x="866" y="-119.5" font-family="Helvetica,sans-Serif" font-size="10.00">lcd.c</text>
</a>
</g>
</g>
<!-- Node3&#45;&gt;Node4 -->
<g id="edge3" class="edge">
<title>Node3&#45;&gt;Node4</title>
<path fill="none" stroke="midnightblue" d="M866,-157.8C866,-148.91 866,-138.78 866,-131.75"/>
<polygon fill="midnightblue" stroke="midnightblue" points="862.5,-158.08 866,-168.08 869.5,-158.08 862.5,-158.08"/>
</g>
<!-- Node3&#45;&gt;Node5 -->
<g id="edge4" class="edge">
<title>Node3&#45;&gt;Node5</title>
<path fill="none" stroke="midnightblue" d="M835.35,-174.3C779.73,-168.89 664.96,-155.2 633,-132 613.58,-117.91 603.38,-89.98 599.25,-75.76"/>
<polygon fill="midnightblue" stroke="midnightblue" points="835.36,-177.82 845.64,-175.27 836.02,-170.85 835.36,-177.82"/>
</g>
<!-- Node6 -->
<g id="node6" class="node">
<title>Node6</title>
<g id="a_node6"><a xlink:href="os__scheduler_8c.html" target="_top" xlink:title="Scheduling module for the OS.">
<polygon fill="white" stroke="black" points="537,-0.5 537,-19.5 625,-19.5 625,-0.5 537,-0.5"/>
<text text-anchor="middle" x="581" y="-7.5" font-family="Helvetica,sans-Serif" font-size="10.00">os_scheduler.c</text>
</a>
</g>
</g>
<!-- Node3&#45;&gt;Node6 -->
<g id="edge5" class="edge">
<title>Node3&#45;&gt;Node6</title>
<path fill="none" stroke="midnightblue" d="M879.99,-160.37C885.85,-152.34 891.99,-142.24 895,-132 901.81,-108.85 882.24,-56.22 882,-56 845.41,-22.22 699.51,-13.79 625.11,-11.69"/>
<polygon fill="midnightblue" stroke="midnightblue" points="877.07,-158.42 873.67,-168.46 882.59,-162.73 877.07,-158.42"/>
</g>
<!-- Node3&#45;&gt;Node7 -->
<g id="edge6" class="edge">
<title>Node3&#45;&gt;Node7</title>
<path fill="none" stroke="midnightblue" d="M890.34,-163.45C908.24,-153.48 932.05,-140.23 947.45,-131.65"/>
<polygon fill="midnightblue" stroke="midnightblue" points="888.62,-160.4 881.58,-168.32 892.02,-166.52 888.62,-160.4"/>
</g>
<!-- Node9&#45;&gt;Node8 -->
<g id="edge10" class="edge">
<title>Node9&#45;&gt;Node8</title>
<path fill="none" stroke="midnightblue" d="M300.89,-161.54C311.41,-151.91 324.57,-139.87 333.35,-131.83"/>
<polygon fill="midnightblue" stroke="midnightblue" points="298.49,-158.99 293.48,-168.32 303.22,-164.15 298.49,-158.99"/>
</g>
<!-- Node9&#45;&gt;Node10 -->
<g id="edge11" class="edge">
<title>Node9&#45;&gt;Node10</title>
<path fill="none" stroke="midnightblue" d="M256.28,-164.1C234.61,-154.01 205.1,-140.27 186.29,-131.52"/>
<polygon fill="midnightblue" stroke="midnightblue" points="255.08,-167.4 265.62,-168.44 258.03,-161.05 255.08,-167.4"/>
</g>
<!-- Node12 -->
<g id="node12" class="node">
<title>Node12</title>
<g id="a_node12"><a xlink:href="os__memory_8h.html" target="_top" xlink:title="Library for OS memory management.">
<polygon fill="white" stroke="black" points="303,-56.5 303,-75.5 385,-75.5 385,-56.5 303,-56.5"/>
<text text-anchor="middle" x="344" y="-63.5" font-family="Helvetica,sans-Serif" font-size="10.00">os_memory.h</text>
</a>
</g>
</g>
<!-- Node9&#45;&gt;Node12 -->
<g id="edge24" class="edge">
<title>Node9&#45;&gt;Node12</title>
<path fill="none" stroke="midnightblue" d="M278.48,-158.76C275.43,-145.12 273.58,-126.43 281,-112 289.8,-94.91 308.42,-82.87 323.15,-75.57"/>
<polygon fill="midnightblue" stroke="midnightblue" points="275.1,-159.65 281.03,-168.43 281.87,-157.87 275.1,-159.65"/>
</g>
<!-- Node10&#45;&gt;Node5 -->
<g id="edge12" class="edge">
<title>Node10&#45;&gt;Node5</title>
<path fill="none" stroke="midnightblue" d="M243.8,-111.46C339.27,-99.44 498.93,-79.34 565.92,-70.91"/>
<polygon fill="midnightblue" stroke="midnightblue" points="243.11,-108.02 233.62,-112.74 243.98,-114.96 243.11,-108.02"/>
</g>
<!-- Node10&#45;&gt;Node6 -->
<g id="edge23" class="edge">
<title>Node10&#45;&gt;Node6</title>
<path fill="none" stroke="midnightblue" d="M231.95,-110.69C277.5,-102.76 339.99,-90.69 394,-76 455.03,-59.4 524.93,-33.09 559.43,-19.59"/>
<polygon fill="midnightblue" stroke="midnightblue" points="231.17,-107.28 221.91,-112.42 232.36,-114.17 231.17,-107.28"/>
</g>
<!-- Node10&#45;&gt;Node11 -->
<g id="edge13" class="edge">
<title>Node10&#45;&gt;Node11</title>
<path fill="none" stroke="midnightblue" d="M152.92,-104.9C130.78,-81.25 90.23,-37.95 73.04,-19.59"/>
<polygon fill="midnightblue" stroke="midnightblue" points="150.53,-107.46 159.92,-112.37 155.64,-102.68 150.53,-107.46"/>
</g>
<!-- Node10&#45;&gt;Node12 -->
<g id="edge14" class="edge">
<title>Node10&#45;&gt;Node12</title>
<path fill="none" stroke="midnightblue" d="M205.69,-109.44C238.87,-99.26 286.43,-84.66 316.24,-75.52"/>
<polygon fill="midnightblue" stroke="midnightblue" points="204.42,-106.16 195.89,-112.44 206.47,-112.86 204.42,-106.16"/>
</g>
<!-- Node16 -->
<g id="node16" class="node">
<title>Node16</title>
<g id="a_node16"><a xlink:href="os__memory__strategies_8h.html" target="_top" xlink:title="Memory allocation library for the OS.">
<polygon fill="white" stroke="black" points="144.5,-56.5 144.5,-75.5 281.5,-75.5 281.5,-56.5 144.5,-56.5"/>
<text text-anchor="middle" x="213" y="-63.5" font-family="Helvetica,sans-Serif" font-size="10.00">os_memory_strategies.h</text>
</a>
</g>
</g>
<!-- Node10&#45;&gt;Node16 -->
<g id="edge19" class="edge">
<title>Node10&#45;&gt;Node16</title>
<path fill="none" stroke="midnightblue" d="M182.05,-104.14C189.89,-94.74 199.33,-83.4 205.71,-75.75"/>
<polygon fill="midnightblue" stroke="midnightblue" points="179.14,-102.16 175.43,-112.08 184.52,-106.64 179.14,-102.16"/>
</g>
<!-- Node12&#45;&gt;Node6 -->
<g id="edge17" class="edge">
<title>Node12&#45;&gt;Node6</title>
<path fill="none" stroke="midnightblue" d="M391.32,-54.22C436.11,-44.01 502.44,-28.9 543.62,-19.52"/>
<polygon fill="midnightblue" stroke="midnightblue" points="390.53,-50.81 381.55,-56.44 392.08,-57.63 390.53,-50.81"/>
</g>
<!-- Node13 -->
<g id="node13" class="node">
<title>Node13</title>
<g id="a_node13"><a xlink:href="os__memory_8c.html" target="_top" xlink:title=" ">
<polygon fill="white" stroke="black" points="303.5,-0.5 303.5,-19.5 384.5,-19.5 384.5,-0.5 303.5,-0.5"/>
<text text-anchor="middle" x="344" y="-7.5" font-family="Helvetica,sans-Serif" font-size="10.00">os_memory.c</text>
</a>
</g>
</g>
<!-- Node12&#45;&gt;Node13 -->
<g id="edge15" class="edge">
<title>Node12&#45;&gt;Node13</title>
<path fill="none" stroke="midnightblue" d="M344,-45.8C344,-36.91 344,-26.78 344,-19.75"/>
<polygon fill="midnightblue" stroke="midnightblue" points="340.5,-46.08 344,-56.08 347.5,-46.08 340.5,-46.08"/>
</g>
<!-- Node14 -->
<g id="node14" class="node">
<title>Node14</title>
<g id="a_node14"><a xlink:href="os__memory__strategies_8c.html" target="_top" xlink:title=" ">
<polygon fill="white" stroke="black" points="148.5,-0.5 148.5,-19.5 285.5,-19.5 285.5,-0.5 148.5,-0.5"/>
<text text-anchor="middle" x="217" y="-7.5" font-family="Helvetica,sans-Serif" font-size="10.00">os_memory_strategies.c</text>
</a>
</g>
</g>
<!-- Node12&#45;&gt;Node14 -->
<g id="edge16" class="edge">
<title>Node12&#45;&gt;Node14</title>
<path fill="none" stroke="midnightblue" d="M314.61,-52.5C290.8,-42.38 257.89,-28.39 237.03,-19.52"/>
<polygon fill="midnightblue" stroke="midnightblue" points="313.3,-55.75 323.88,-56.44 316.04,-49.31 313.3,-55.75"/>
</g>
<!-- Node12&#45;&gt;Node15 -->
<g id="edge18" class="edge">
<title>Node12&#45;&gt;Node15</title>
<path fill="none" stroke="midnightblue" d="M371.66,-52.23C393.55,-42.13 423.5,-28.31 442.55,-19.52"/>
<polygon fill="midnightblue" stroke="midnightblue" points="370.15,-49.08 362.54,-56.44 373.09,-55.43 370.15,-49.08"/>
</g>
<!-- Node16&#45;&gt;Node11 -->
<g id="edge20" class="edge">
<title>Node16&#45;&gt;Node11</title>
<path fill="none" stroke="midnightblue" d="M179.85,-52.91C152.03,-42.75 112.98,-28.51 88.34,-19.52"/>
<polygon fill="midnightblue" stroke="midnightblue" points="178.96,-56.3 189.55,-56.44 181.35,-49.73 178.96,-56.3"/>
</g>
<!-- Node16&#45;&gt;Node13 -->
<g id="edge21" class="edge">
<title>Node16&#45;&gt;Node13</title>
<path fill="none" stroke="midnightblue" d="M243.32,-52.5C267.88,-42.38 301.82,-28.39 323.34,-19.52"/>
<polygon fill="midnightblue" stroke="midnightblue" points="241.67,-49.4 233.76,-56.44 244.34,-55.87 241.67,-49.4"/>
</g>
<!-- Node16&#45;&gt;Node14 -->
<g id="edge22" class="edge">
<title>Node16&#45;&gt;Node14</title>
<path fill="none" stroke="midnightblue" d="M214.4,-46.1C215.06,-37.14 215.83,-26.86 216.35,-19.75"/>
<polygon fill="midnightblue" stroke="midnightblue" points="210.91,-45.85 213.66,-56.08 217.89,-46.37 210.91,-45.85"/>
</g>
<!-- Node17&#45;&gt;Node6 -->
<g id="edge30" class="edge">
<title>Node17&#45;&gt;Node6</title>
<path fill="none" stroke="midnightblue" d="M509.79,-158.92C520.15,-135.12 539.21,-92.07 557,-56 563.35,-43.14 571.27,-28.53 576.24,-19.54"/>
<polygon fill="midnightblue" stroke="midnightblue" points="506.45,-157.84 505.68,-168.4 512.87,-160.62 506.45,-157.84"/>
</g>
<!-- Node17&#45;&gt;Node8 -->
<g id="edge28" class="edge">
<title>Node17&#45;&gt;Node8</title>
<path fill="none" stroke="midnightblue" d="M467.17,-165.17C437.23,-155 394.78,-140.59 368.08,-131.52"/>
<polygon fill="midnightblue" stroke="midnightblue" points="466.21,-168.54 476.81,-168.44 468.46,-161.91 466.21,-168.54"/>
</g>
<!-- Node17&#45;&gt;Node12 -->
<g id="edge29" class="edge">
<title>Node17&#45;&gt;Node12</title>
<path fill="none" stroke="midnightblue" d="M481.05,-162.42C447.64,-139.15 383.28,-94.35 356.34,-75.59"/>
<polygon fill="midnightblue" stroke="midnightblue" points="479.4,-165.53 489.6,-168.37 483.39,-159.78 479.4,-165.53"/>
</g>
<!-- Node17&#45;&gt;Node15 -->
<g id="edge34" class="edge">
<title>Node17&#45;&gt;Node15</title>
<path fill="none" stroke="midnightblue" d="M497.29,-157.93C488.4,-121.92 469.45,-45.23 463.12,-19.57"/>
<polygon fill="midnightblue" stroke="midnightblue" points="494,-159.21 499.8,-168.08 500.8,-157.53 494,-159.21"/>
</g>
<!-- Node17&#45;&gt;Node18 -->
<g id="edge31" class="edge">
<title>Node17&#45;&gt;Node18</title>
<path fill="none" stroke="midnightblue" d="M545.76,-165.96C586.17,-155.76 645.37,-140.82 682.25,-131.52"/>
<polygon fill="midnightblue" stroke="midnightblue" points="544.75,-162.6 535.91,-168.44 546.46,-169.39 544.75,-162.6"/>
</g>
<!-- Node18&#45;&gt;Node6 -->
<g id="edge32" class="edge">
<title>Node18&#45;&gt;Node6</title>
<path fill="none" stroke="midnightblue" d="M697.54,-105.71C681.56,-92.5 657.81,-72.92 637,-56 621.32,-43.25 603.06,-28.62 591.77,-19.59"/>
<polygon fill="midnightblue" stroke="midnightblue" points="695.62,-108.66 705.55,-112.34 700.08,-103.27 695.62,-108.66"/>
</g>
<!-- Node18&#45;&gt;Node19 -->
<g id="edge33" class="edge">
<title>Node18&#45;&gt;Node19</title>
<path fill="none" stroke="midnightblue" d="M738.1,-106.62C753.26,-96.76 772.88,-83.99 785.7,-75.65"/>
<polygon fill="midnightblue" stroke="midnightblue" points="735.81,-103.94 729.34,-112.32 739.63,-109.8 735.81,-103.94"/>
</g>
</g>
</svg>
