<?xml version="1.0" encoding="UTF-8" standalone="no"?>
<!DOCTYPE svg PUBLIC "-//W3C//DTD SVG 1.1//EN"
 "http://www.w3.org/Graphics/SVG/1.1/DTD/svg11.dtd">
<!-- Generated by graphviz version 2.43.0 (0)
 -->
<!-- Title: lcd.c Pages: 1 -->
<svg width="540pt" height="252pt"
 viewBox="0.00 0.00 540.12 252.00" xmlns="http://www.w3.org/2000/svg" xmlns:xlink="http://www.w3.org/1999/xlink">
<g id="graph0" class="graph" transform="scale(1 1) rotate(0) translate(4 248)">
<title>lcd.c</title>
<polygon fill="white" stroke="transparent" points="-4,4 -4,-248 536.12,-248 536.12,4 -4,4"/>
<!-- Node1 -->
<g id="node1" class="node">
<title>Node1</title>
<g id="a_node1"><a xlink:title="Library for LCD use.">
<polygon fill="#bfbfbf" stroke="black" points="214.62,-224.5 214.62,-243.5 253.62,-243.5 253.62,-224.5 214.62,-224.5"/>
<text text-anchor="middle" x="234.12" y="-231.5" font-family="Helvetica,sans-Serif" font-size="10.00">lcd.c</text>
</a>
</g>
</g>
<!-- Node2 -->
<g id="node2" class="node">
<title>Node2</title>
<g id="a_node2"><a xlink:href="lcd_8h.html" target="_top" xlink:title="Library for LCD use.">
<polygon fill="white" stroke="black" points="166.12,-168.5 166.12,-187.5 206.12,-187.5 206.12,-168.5 166.12,-168.5"/>
<text text-anchor="middle" x="186.12" y="-175.5" font-family="Helvetica,sans-Serif" font-size="10.00">lcd.h</text>
</a>
</g>
</g>
<!-- Node1&#45;&gt;Node2 -->
<g id="edge1" class="edge">
<title>Node1&#45;&gt;Node2</title>
<path fill="none" stroke="midnightblue" d="M226.19,-224.08C219.27,-216.3 209.05,-204.8 200.67,-195.37"/>
<polygon fill="midnightblue" stroke="midnightblue" points="203.16,-192.9 193.9,-187.75 197.92,-197.55 203.16,-192.9"/>
</g>
<!-- Node6 -->
<g id="node6" class="node">
<title>Node6</title>
<g id="a_node6"><a xlink:title=" ">
<polygon fill="white" stroke="#bfbfbf" points="332.12,-112.5 332.12,-131.5 382.12,-131.5 382.12,-112.5 332.12,-112.5"/>
<text text-anchor="middle" x="357.12" y="-119.5" font-family="Helvetica,sans-Serif" font-size="10.00">stdio.h</text>
</a>
</g>
</g>
<!-- Node1&#45;&gt;Node6 -->
<g id="edge16" class="edge">
<title>Node1&#45;&gt;Node6</title>
<path fill="none" stroke="midnightblue" d="M234.38,-224.32C235.25,-210.7 238.8,-184.21 253.12,-168 262.76,-157.08 296.05,-143.74 322.39,-134.43"/>
<polygon fill="midnightblue" stroke="midnightblue" points="323.79,-137.65 332.09,-131.07 321.5,-131.04 323.79,-137.65"/>
</g>
<!-- Node9 -->
<g id="node9" class="node">
<title>Node9</title>
<g id="a_node9"><a xlink:title=" ">
<polygon fill="white" stroke="#bfbfbf" points="137.62,-0.5 137.62,-19.5 190.62,-19.5 190.62,-0.5 137.62,-0.5"/>
<text text-anchor="middle" x="164.12" y="-7.5" font-family="Helvetica,sans-Serif" font-size="10.00">avr/io.h</text>
</a>
</g>
</g>
<!-- Node1&#45;&gt;Node9 -->
<g id="edge15" class="edge">
<title>Node1&#45;&gt;Node9</title>
<path fill="none" stroke="midnightblue" d="M214.42,-227.1C166.87,-211.61 46.58,-164.75 4.12,-76 -19.6,-26.43 72.65,-14.52 126.98,-11.76"/>
<polygon fill="midnightblue" stroke="midnightblue" points="127.45,-15.24 137.29,-11.32 127.15,-8.24 127.45,-15.24"/>
</g>
<!-- Node10 -->
<g id="node10" class="node">
<title>Node10</title>
<g id="a_node10"><a xlink:href="util_8h.html" target="_top" xlink:title="Little helpers that don&#39;t fit elsewhere.">
<polygon fill="white" stroke="black" points="116.62,-112.5 116.62,-131.5 157.62,-131.5 157.62,-112.5 116.62,-112.5"/>
<text text-anchor="middle" x="137.12" y="-119.5" font-family="Helvetica,sans-Serif" font-size="10.00">util.h</text>
</a>
</g>
</g>
<!-- Node1&#45;&gt;Node10 -->
<g id="edge13" class="edge">
<title>Node1&#45;&gt;Node10</title>
<path fill="none" stroke="midnightblue" d="M214.58,-226.3C197.11,-219.34 172.02,-206.81 157.12,-188 146.59,-174.71 141.58,-155.88 139.21,-141.9"/>
<polygon fill="midnightblue" stroke="midnightblue" points="142.67,-141.35 137.82,-131.93 135.73,-142.32 142.67,-141.35"/>
</g>
<!-- Node11 -->
<g id="node11" class="node">
<title>Node11</title>
<g id="a_node11"><a xlink:title=" ">
<polygon fill="white" stroke="#bfbfbf" points="262.12,-168.5 262.12,-187.5 348.12,-187.5 348.12,-168.5 262.12,-168.5"/>
<text text-anchor="middle" x="305.12" y="-175.5" font-family="Helvetica,sans-Serif" font-size="10.00">avr/interrupt.h</text>
</a>
</g>
</g>
<!-- Node1&#45;&gt;Node11 -->
<g id="edge14" class="edge">
<title>Node1&#45;&gt;Node11</title>
<path fill="none" stroke="midnightblue" d="M245.52,-224.32C256.23,-216.18 272.46,-203.84 285.28,-194.09"/>
<polygon fill="midnightblue" stroke="midnightblue" points="287.66,-196.67 293.5,-187.83 283.42,-191.1 287.66,-196.67"/>
</g>
<!-- Node12 -->
<g id="node12" class="node">
<title>Node12</title>
<g id="a_node12"><a xlink:title=" ">
<polygon fill="white" stroke="#bfbfbf" points="366.12,-168.5 366.12,-187.5 444.12,-187.5 444.12,-168.5 366.12,-168.5"/>
<text text-anchor="middle" x="405.12" y="-175.5" font-family="Helvetica,sans-Serif" font-size="10.00">util/atomic.h</text>
</a>
</g>
</g>
<!-- Node1&#45;&gt;Node12 -->
<g id="edge17" class="edge">
<title>Node1&#45;&gt;Node12</title>
<path fill="none" stroke="midnightblue" d="M253.73,-226.81C281.6,-218.01 333.16,-201.72 368.28,-190.63"/>
<polygon fill="midnightblue" stroke="midnightblue" points="369.68,-193.86 378.17,-187.51 367.58,-187.18 369.68,-193.86"/>
</g>
<!-- Node13 -->
<g id="node13" class="node">
<title>Node13</title>
<g id="a_node13"><a xlink:title=" ">
<polygon fill="white" stroke="#bfbfbf" points="462.12,-168.5 462.12,-187.5 532.12,-187.5 532.12,-168.5 462.12,-168.5"/>
<text text-anchor="middle" x="497.12" y="-175.5" font-family="Helvetica,sans-Serif" font-size="10.00">util/delay.h</text>
</a>
</g>
</g>
<!-- Node1&#45;&gt;Node13 -->
<g id="edge18" class="edge">
<title>Node1&#45;&gt;Node13</title>
<path fill="none" stroke="midnightblue" d="M253.89,-228.94C295.69,-220.36 394,-200.17 452.03,-188.26"/>
<polygon fill="midnightblue" stroke="midnightblue" points="452.93,-191.65 462.02,-186.21 451.52,-184.79 452.93,-191.65"/>
</g>
<!-- Node3 -->
<g id="node3" class="node">
<title>Node3</title>
<g id="a_node3"><a xlink:title=" ">
<polygon fill="white" stroke="#bfbfbf" points="13.62,-56.5 13.62,-75.5 108.62,-75.5 108.62,-56.5 13.62,-56.5"/>
<text text-anchor="middle" x="61.12" y="-63.5" font-family="Helvetica,sans-Serif" font-size="10.00">avr/pgmspace.h</text>
</a>
</g>
</g>
<!-- Node2&#45;&gt;Node3 -->
<g id="edge2" class="edge">
<title>Node2&#45;&gt;Node3</title>
<path fill="none" stroke="midnightblue" d="M166.06,-168.58C149.09,-160.79 124.78,-148.01 107.12,-132 91.97,-118.27 78.97,-98.71 70.7,-84.64"/>
<polygon fill="midnightblue" stroke="midnightblue" points="73.73,-82.89 65.75,-75.92 67.64,-86.34 73.73,-82.89"/>
</g>
<!-- Node4 -->
<g id="node4" class="node">
<title>Node4</title>
<g id="a_node4"><a xlink:title=" ">
<polygon fill="white" stroke="#bfbfbf" points="127.12,-56.5 127.12,-75.5 189.12,-75.5 189.12,-56.5 127.12,-56.5"/>
<text text-anchor="middle" x="158.12" y="-63.5" font-family="Helvetica,sans-Serif" font-size="10.00">stdbool.h</text>
</a>
</g>
</g>
<!-- Node2&#45;&gt;Node4 -->
<g id="edge3" class="edge">
<title>Node2&#45;&gt;Node4</title>
<path fill="none" stroke="midnightblue" d="M183.92,-168.37C179.4,-150.62 168.98,-109.67 162.85,-85.6"/>
<polygon fill="midnightblue" stroke="midnightblue" points="166.16,-84.42 160.3,-75.59 159.38,-86.15 166.16,-84.42"/>
</g>
<!-- Node5 -->
<g id="node5" class="node">
<title>Node5</title>
<g id="a_node5"><a xlink:title=" ">
<polygon fill="white" stroke="#bfbfbf" points="207.62,-56.5 207.62,-75.5 260.62,-75.5 260.62,-56.5 207.62,-56.5"/>
<text text-anchor="middle" x="234.12" y="-63.5" font-family="Helvetica,sans-Serif" font-size="10.00">stdint.h</text>
</a>
</g>
</g>
<!-- Node2&#45;&gt;Node5 -->
<g id="edge4" class="edge">
<title>Node2&#45;&gt;Node5</title>
<path fill="none" stroke="midnightblue" d="M189.88,-168.37C197.7,-150.46 215.82,-108.92 226.29,-84.95"/>
<polygon fill="midnightblue" stroke="midnightblue" points="229.58,-86.16 230.37,-75.59 223.16,-83.36 229.58,-86.16"/>
</g>
<!-- Node2&#45;&gt;Node6 -->
<g id="edge5" class="edge">
<title>Node2&#45;&gt;Node6</title>
<path fill="none" stroke="midnightblue" d="M206.4,-170.59C234.91,-161.59 287.22,-145.07 322.09,-134.06"/>
<polygon fill="midnightblue" stroke="midnightblue" points="323.38,-137.32 331.87,-130.97 321.28,-130.65 323.38,-137.32"/>
</g>
<!-- Node7 -->
<g id="node7" class="node">
<title>Node7</title>
<g id="a_node7"><a xlink:href="defines_8h.html" target="_top" xlink:title="Simple definitions and assembler&#45;macros, mostly 8/16&#45;Bit values.">
<polygon fill="white" stroke="black" points="252.62,-112.5 252.62,-131.5 313.62,-131.5 313.62,-112.5 252.62,-112.5"/>
<text text-anchor="middle" x="283.12" y="-119.5" font-family="Helvetica,sans-Serif" font-size="10.00">defines.h</text>
</a>
</g>
</g>
<!-- Node2&#45;&gt;Node7 -->
<g id="edge6" class="edge">
<title>Node2&#45;&gt;Node7</title>
<path fill="none" stroke="midnightblue" d="M201.7,-168.32C217.12,-159.74 240.93,-146.49 258.83,-136.52"/>
<polygon fill="midnightblue" stroke="midnightblue" points="260.54,-139.58 267.57,-131.65 257.13,-133.46 260.54,-139.58"/>
</g>
<!-- Node2&#45;&gt;Node10 -->
<g id="edge9" class="edge">
<title>Node2&#45;&gt;Node10</title>
<path fill="none" stroke="midnightblue" d="M178.03,-168.08C170.96,-160.3 160.53,-148.8 151.97,-139.37"/>
<polygon fill="midnightblue" stroke="midnightblue" points="154.37,-136.8 145.06,-131.75 149.19,-141.51 154.37,-136.8"/>
</g>
<!-- Node8 -->
<g id="node8" class="node">
<title>Node8</title>
<g id="a_node8"><a xlink:href="atmega644constants_8h.html" target="_top" xlink:title="Constants for ATMega644 and EVA board. Defines several useful constants for the ATMega644.">
<polygon fill="white" stroke="black" points="279.12,-56.5 279.12,-75.5 407.12,-75.5 407.12,-56.5 279.12,-56.5"/>
<text text-anchor="middle" x="343.12" y="-63.5" font-family="Helvetica,sans-Serif" font-size="10.00">atmega644constants.h</text>
</a>
</g>
</g>
<!-- Node7&#45;&gt;Node8 -->
<g id="edge7" class="edge">
<title>Node7&#45;&gt;Node8</title>
<path fill="none" stroke="midnightblue" d="M292.76,-112.32C301.63,-104.34 314.99,-92.31 325.73,-82.65"/>
<polygon fill="midnightblue" stroke="midnightblue" points="328.21,-85.13 333.3,-75.83 323.53,-79.92 328.21,-85.13"/>
</g>
<!-- Node8&#45;&gt;Node9 -->
<g id="edge8" class="edge">
<title>Node8&#45;&gt;Node9</title>
<path fill="none" stroke="midnightblue" d="M314.75,-56.44C283.93,-47.15 234.58,-32.26 200.82,-22.07"/>
<polygon fill="midnightblue" stroke="midnightblue" points="201.47,-18.61 190.89,-19.08 199.45,-25.31 201.47,-18.61"/>
</g>
<!-- Node10&#45;&gt;Node3 -->
<g id="edge10" class="edge">
<title>Node10&#45;&gt;Node3</title>
<path fill="none" stroke="midnightblue" d="M124.91,-112.32C113.34,-104.11 95.74,-91.6 81.96,-81.81"/>
<polygon fill="midnightblue" stroke="midnightblue" points="83.73,-78.77 73.55,-75.83 79.67,-84.48 83.73,-78.77"/>
</g>
<!-- Node10&#45;&gt;Node4 -->
<g id="edge11" class="edge">
<title>Node10&#45;&gt;Node4</title>
<path fill="none" stroke="midnightblue" d="M140.59,-112.08C143.43,-104.77 147.55,-94.18 151.08,-85.1"/>
<polygon fill="midnightblue" stroke="midnightblue" points="154.35,-86.34 154.71,-75.75 147.83,-83.8 154.35,-86.34"/>
</g>
<!-- Node10&#45;&gt;Node5 -->
<g id="edge12" class="edge">
<title>Node10&#45;&gt;Node5</title>
<path fill="none" stroke="midnightblue" d="M152.7,-112.32C168.12,-103.74 191.93,-90.49 209.83,-80.52"/>
<polygon fill="midnightblue" stroke="midnightblue" points="211.54,-83.58 218.57,-75.65 208.13,-77.46 211.54,-83.58"/>
</g>
</g>
</svg>
