<?xml version="1.0" encoding="UTF-8" standalone="no"?>
<!DOCTYPE svg PUBLIC "-//W3C//DTD SVG 1.1//EN"
 "http://www.w3.org/Graphics/SVG/1.1/DTD/svg11.dtd">
<!-- Generated by graphviz version 2.43.0 (0)
 -->
<!-- Title: os_memheap_drivers.h Pages: 1 -->
<svg width="633pt" height="140pt"
 viewBox="0.00 0.00 633.00 140.00" xmlns="http://www.w3.org/2000/svg" xmlns:xlink="http://www.w3.org/1999/xlink">
<g id="graph0" class="graph" transform="scale(1 1) rotate(0) translate(4 136)">
<title>os_memheap_drivers.h</title>
<polygon fill="white" stroke="transparent" points="-4,4 -4,-136 629,-136 629,4 -4,4"/>
<!-- Node1 -->
<g id="node1" class="node">
<title>Node1</title>
<g id="a_node1"><a xlink:title="Drivers for OS heap management.">
<polygon fill="#bfbfbf" stroke="black" points="151.5,-112.5 151.5,-131.5 282.5,-131.5 282.5,-112.5 151.5,-112.5"/>
<text text-anchor="middle" x="217" y="-119.5" font-family="Helvetica,sans-Serif" font-size="10.00">os_memheap_drivers.h</text>
</a>
</g>
</g>
<!-- Node2 -->
<g id="node2" class="node">
<title>Node2</title>
<g id="a_node2"><a xlink:href="os__core_8c.html" target="_top" xlink:title=" ">
<polygon fill="white" stroke="black" points="30,-56.5 30,-75.5 92,-75.5 92,-56.5 30,-56.5"/>
<text text-anchor="middle" x="61" y="-63.5" font-family="Helvetica,sans-Serif" font-size="10.00">os_core.c</text>
</a>
</g>
</g>
<!-- Node1&#45;&gt;Node2 -->
<g id="edge1" class="edge">
<title>Node1&#45;&gt;Node2</title>
<path fill="none" stroke="midnightblue" d="M182.83,-109.17C153.46,-99 111.8,-84.59 85.6,-75.52"/>
<polygon fill="midnightblue" stroke="midnightblue" points="181.69,-112.48 192.28,-112.44 183.98,-105.86 181.69,-112.48"/>
</g>
<!-- Node3 -->
<g id="node3" class="node">
<title>Node3</title>
<g id="a_node3"><a xlink:href="os__memheap__drivers_8c.html" target="_top" xlink:title=" ">
<polygon fill="white" stroke="black" points="0,-0.5 0,-19.5 130,-19.5 130,-0.5 0,-0.5"/>
<text text-anchor="middle" x="65" y="-7.5" font-family="Helvetica,sans-Serif" font-size="10.00">os_memheap_drivers.c</text>
</a>
</g>
</g>
<!-- Node1&#45;&gt;Node3 -->
<g id="edge2" class="edge">
<title>Node1&#45;&gt;Node3</title>
<path fill="none" stroke="midnightblue" d="M190.92,-107.64C175.38,-99.26 155.52,-87.84 139,-76 113.71,-57.87 86.98,-32.66 73.63,-19.61"/>
<polygon fill="midnightblue" stroke="midnightblue" points="189.5,-110.84 199.98,-112.43 192.78,-104.66 189.5,-110.84"/>
</g>
<!-- Node4 -->
<g id="node4" class="node">
<title>Node4</title>
<g id="a_node4"><a xlink:href="os__memory_8h.html" target="_top" xlink:title="Library for OS memory management.">
<polygon fill="white" stroke="black" points="304,-56.5 304,-75.5 386,-75.5 386,-56.5 304,-56.5"/>
<text text-anchor="middle" x="345" y="-63.5" font-family="Helvetica,sans-Serif" font-size="10.00">os_memory.h</text>
</a>
</g>
</g>
<!-- Node1&#45;&gt;Node4 -->
<g id="edge3" class="edge">
<title>Node1&#45;&gt;Node4</title>
<path fill="none" stroke="midnightblue" d="M246.62,-108.5C270.62,-98.38 303.78,-84.39 324.81,-75.52"/>
<polygon fill="midnightblue" stroke="midnightblue" points="245.14,-105.33 237.28,-112.44 247.86,-111.78 245.14,-105.33"/>
</g>
<!-- Node7 -->
<g id="node7" class="node">
<title>Node7</title>
<g id="a_node7"><a xlink:href="os__scheduler_8c.html" target="_top" xlink:title="Scheduling module for the OS.">
<polygon fill="white" stroke="black" points="537,-0.5 537,-19.5 625,-19.5 625,-0.5 537,-0.5"/>
<text text-anchor="middle" x="581" y="-7.5" font-family="Helvetica,sans-Serif" font-size="10.00">os_scheduler.c</text>
</a>
</g>
</g>
<!-- Node1&#45;&gt;Node7 -->
<g id="edge12" class="edge">
<title>Node1&#45;&gt;Node7</title>
<path fill="none" stroke="midnightblue" d="M264.53,-110.19C300.56,-101.71 351.19,-89.16 395,-76 454.79,-58.03 523.86,-32.65 558.59,-19.55"/>
<polygon fill="midnightblue" stroke="midnightblue" points="263.71,-106.79 254.77,-112.48 265.3,-113.61 263.71,-106.79"/>
</g>
<!-- Node9 -->
<g id="node9" class="node">
<title>Node9</title>
<g id="a_node9"><a xlink:href="os__memory__strategies_8h.html" target="_top" xlink:title="Memory allocation library for the OS.">
<polygon fill="white" stroke="black" points="148.5,-56.5 148.5,-75.5 285.5,-75.5 285.5,-56.5 148.5,-56.5"/>
<text text-anchor="middle" x="217" y="-63.5" font-family="Helvetica,sans-Serif" font-size="10.00">os_memory_strategies.h</text>
</a>
</g>
</g>
<!-- Node1&#45;&gt;Node9 -->
<g id="edge8" class="edge">
<title>Node1&#45;&gt;Node9</title>
<path fill="none" stroke="midnightblue" d="M217,-101.8C217,-92.91 217,-82.78 217,-75.75"/>
<polygon fill="midnightblue" stroke="midnightblue" points="213.5,-102.08 217,-112.08 220.5,-102.08 213.5,-102.08"/>
</g>
<!-- Node5 -->
<g id="node5" class="node">
<title>Node5</title>
<g id="a_node5"><a xlink:href="os__memory_8c.html" target="_top" xlink:title=" ">
<polygon fill="white" stroke="black" points="303.5,-0.5 303.5,-19.5 384.5,-19.5 384.5,-0.5 303.5,-0.5"/>
<text text-anchor="middle" x="344" y="-7.5" font-family="Helvetica,sans-Serif" font-size="10.00">os_memory.c</text>
</a>
</g>
</g>
<!-- Node4&#45;&gt;Node5 -->
<g id="edge4" class="edge">
<title>Node4&#45;&gt;Node5</title>
<path fill="none" stroke="midnightblue" d="M344.64,-45.8C344.48,-36.91 344.29,-26.78 344.16,-19.75"/>
<polygon fill="midnightblue" stroke="midnightblue" points="341.15,-46.15 344.83,-56.08 348.15,-46.02 341.15,-46.15"/>
</g>
<!-- Node6 -->
<g id="node6" class="node">
<title>Node6</title>
<g id="a_node6"><a xlink:href="os__memory__strategies_8c.html" target="_top" xlink:title=" ">
<polygon fill="white" stroke="black" points="148.5,-0.5 148.5,-19.5 285.5,-19.5 285.5,-0.5 148.5,-0.5"/>
<text text-anchor="middle" x="217" y="-7.5" font-family="Helvetica,sans-Serif" font-size="10.00">os_memory_strategies.c</text>
</a>
</g>
</g>
<!-- Node4&#45;&gt;Node6 -->
<g id="edge5" class="edge">
<title>Node4&#45;&gt;Node6</title>
<path fill="none" stroke="midnightblue" d="M315.38,-52.5C291.38,-42.38 258.22,-28.39 237.19,-19.52"/>
<polygon fill="midnightblue" stroke="midnightblue" points="314.14,-55.78 324.72,-56.44 316.86,-49.33 314.14,-55.78"/>
</g>
<!-- Node4&#45;&gt;Node7 -->
<g id="edge6" class="edge">
<title>Node4&#45;&gt;Node7</title>
<path fill="none" stroke="midnightblue" d="M392.41,-54.15C437,-43.95 502.85,-28.88 543.78,-19.52"/>
<polygon fill="midnightblue" stroke="midnightblue" points="391.36,-50.8 382.39,-56.44 392.92,-57.62 391.36,-50.8"/>
</g>
<!-- Node8 -->
<g id="node8" class="node">
<title>Node8</title>
<g id="a_node8"><a xlink:href="os__user__privileges_8h.html" target="_top" xlink:title="User privileges specification used in part by the task manager.">
<polygon fill="white" stroke="black" points="403,-0.5 403,-19.5 519,-19.5 519,-0.5 403,-0.5"/>
<text text-anchor="middle" x="461" y="-7.5" font-family="Helvetica,sans-Serif" font-size="10.00">os_user_privileges.h</text>
</a>
</g>
</g>
<!-- Node4&#45;&gt;Node8 -->
<g id="edge7" class="edge">
<title>Node4&#45;&gt;Node8</title>
<path fill="none" stroke="midnightblue" d="M372.72,-52.1C394.39,-42.01 423.9,-28.27 442.71,-19.52"/>
<polygon fill="midnightblue" stroke="midnightblue" points="370.97,-49.05 363.38,-56.44 373.92,-55.4 370.97,-49.05"/>
</g>
<!-- Node9&#45;&gt;Node3 -->
<g id="edge9" class="edge">
<title>Node9&#45;&gt;Node3</title>
<path fill="none" stroke="midnightblue" d="M183.33,-53.04C154.73,-42.88 114.39,-28.55 88.97,-19.52"/>
<polygon fill="midnightblue" stroke="midnightblue" points="182.32,-56.39 192.92,-56.44 184.66,-49.8 182.32,-56.39"/>
</g>
<!-- Node9&#45;&gt;Node5 -->
<g id="edge10" class="edge">
<title>Node9&#45;&gt;Node5</title>
<path fill="none" stroke="midnightblue" d="M246.39,-52.5C270.2,-42.38 303.11,-28.39 323.97,-19.52"/>
<polygon fill="midnightblue" stroke="midnightblue" points="244.96,-49.31 237.12,-56.44 247.7,-55.75 244.96,-49.31"/>
</g>
<!-- Node9&#45;&gt;Node6 -->
<g id="edge11" class="edge">
<title>Node9&#45;&gt;Node6</title>
<path fill="none" stroke="midnightblue" d="M217,-45.8C217,-36.91 217,-26.78 217,-19.75"/>
<polygon fill="midnightblue" stroke="midnightblue" points="213.5,-46.08 217,-56.08 220.5,-46.08 213.5,-46.08"/>
</g>
</g>
</svg>
