<?xml version="1.0" encoding="UTF-8" standalone="no"?>
<!DOCTYPE svg PUBLIC "-//W3C//DTD SVG 1.1//EN"
 "http://www.w3.org/Graphics/SVG/1.1/DTD/svg11.dtd">
<!-- Generated by graphviz version 2.43.0 (0)
 -->
<!-- Title: os_mem_drivers.c Pages: 1 -->
<svg width="652pt" height="252pt"
 viewBox="0.00 0.00 651.62 252.00" xmlns="http://www.w3.org/2000/svg" xmlns:xlink="http://www.w3.org/1999/xlink">
<g id="graph0" class="graph" transform="scale(1 1) rotate(0) translate(4 248)">
<title>os_mem_drivers.c</title>
<polygon fill="white" stroke="transparent" points="-4,4 -4,-248 647.62,-248 647.62,4 -4,4"/>
<!-- Node1 -->
<g id="node1" class="node">
<title>Node1</title>
<g id="a_node1"><a xlink:title=" ">
<polygon fill="#bfbfbf" stroke="black" points="204.62,-224.5 204.62,-243.5 310.62,-243.5 310.62,-224.5 204.62,-224.5"/>
<text text-anchor="middle" x="257.62" y="-231.5" font-family="Helvetica,sans-Serif" font-size="10.00">os_mem_drivers.c</text>
</a>
</g>
</g>
<!-- Node2 -->
<g id="node2" class="node">
<title>Node2</title>
<g id="a_node2"><a xlink:href="os__mem__drivers_8h.html" target="_top" xlink:title="Drivers for OS memory management.">
<polygon fill="white" stroke="black" points="204.12,-168.5 204.12,-187.5 311.12,-187.5 311.12,-168.5 204.12,-168.5"/>
<text text-anchor="middle" x="257.62" y="-175.5" font-family="Helvetica,sans-Serif" font-size="10.00">os_mem_drivers.h</text>
</a>
</g>
</g>
<!-- Node1&#45;&gt;Node2 -->
<g id="edge1" class="edge">
<title>Node1&#45;&gt;Node2</title>
<path fill="none" stroke="midnightblue" d="M257.62,-224.08C257.62,-217.01 257.62,-206.86 257.62,-197.99"/>
<polygon fill="midnightblue" stroke="midnightblue" points="261.12,-197.75 257.62,-187.75 254.12,-197.75 261.12,-197.75"/>
</g>
<!-- Node3 -->
<g id="node3" class="node">
<title>Node3</title>
<g id="a_node3"><a xlink:href="defines_8h.html" target="_top" xlink:title="Simple definitions and assembler&#45;macros, mostly 8/16&#45;Bit values.">
<polygon fill="white" stroke="black" points="27.12,-112.5 27.12,-131.5 88.12,-131.5 88.12,-112.5 27.12,-112.5"/>
<text text-anchor="middle" x="57.62" y="-119.5" font-family="Helvetica,sans-Serif" font-size="10.00">defines.h</text>
</a>
</g>
</g>
<!-- Node1&#45;&gt;Node3 -->
<g id="edge6" class="edge">
<title>Node1&#45;&gt;Node3</title>
<path fill="none" stroke="midnightblue" d="M204.61,-231.84C166.44,-228.31 116,-217.73 82.62,-188 69.23,-176.08 62.97,-156.17 60.06,-141.53"/>
<polygon fill="midnightblue" stroke="midnightblue" points="63.5,-140.87 58.43,-131.57 56.59,-142 63.5,-140.87"/>
</g>
<!-- Node5 -->
<g id="node5" class="node">
<title>Node5</title>
<g id="a_node5"><a xlink:title=" ">
<polygon fill="white" stroke="#bfbfbf" points="55.12,-0.5 55.12,-19.5 108.12,-19.5 108.12,-0.5 55.12,-0.5"/>
<text text-anchor="middle" x="81.62" y="-7.5" font-family="Helvetica,sans-Serif" font-size="10.00">avr/io.h</text>
</a>
</g>
</g>
<!-- Node1&#45;&gt;Node5 -->
<g id="edge24" class="edge">
<title>Node1&#45;&gt;Node5</title>
<path fill="none" stroke="midnightblue" d="M204.2,-229.68C163.4,-225.08 107.13,-214.11 64.62,-188 36.93,-170.99 31.13,-161.55 17.62,-132 3.47,-101.07 -7.96,-85.7 8.62,-56 16.77,-41.39 31.84,-30.94 46.17,-23.8"/>
<polygon fill="midnightblue" stroke="midnightblue" points="47.76,-26.92 55.4,-19.59 44.85,-20.56 47.76,-26.92"/>
</g>
<!-- Node7 -->
<g id="node7" class="node">
<title>Node7</title>
<g id="a_node7"><a xlink:href="os__scheduler_8h.html" target="_top" xlink:title="Scheduling module for the OS.">
<polygon fill="white" stroke="black" points="92.12,-168.5 92.12,-187.5 181.12,-187.5 181.12,-168.5 92.12,-168.5"/>
<text text-anchor="middle" x="136.62" y="-175.5" font-family="Helvetica,sans-Serif" font-size="10.00">os_scheduler.h</text>
</a>
</g>
</g>
<!-- Node1&#45;&gt;Node7 -->
<g id="edge7" class="edge">
<title>Node1&#45;&gt;Node7</title>
<path fill="none" stroke="midnightblue" d="M238.44,-224.44C218.71,-215.64 187.73,-201.81 165.12,-191.72"/>
<polygon fill="midnightblue" stroke="midnightblue" points="166.26,-188.4 155.7,-187.52 163.4,-194.79 166.26,-188.4"/>
</g>
<!-- Node11 -->
<g id="node11" class="node">
<title>Node11</title>
<g id="a_node11"><a xlink:href="os__spi_8h.html" target="_top" xlink:title="Driver for AVRs SPI module.">
<polygon fill="white" stroke="black" points="371.62,-168.5 371.62,-187.5 427.62,-187.5 427.62,-168.5 371.62,-168.5"/>
<text text-anchor="middle" x="399.62" y="-175.5" font-family="Helvetica,sans-Serif" font-size="10.00">os_spi.h</text>
</a>
</g>
</g>
<!-- Node1&#45;&gt;Node11 -->
<g id="edge13" class="edge">
<title>Node1&#45;&gt;Node11</title>
<path fill="none" stroke="midnightblue" d="M280.12,-224.44C303.69,-215.48 340.94,-201.31 367.58,-191.18"/>
<polygon fill="midnightblue" stroke="midnightblue" points="369.12,-194.34 377.22,-187.52 366.63,-187.8 369.12,-194.34"/>
</g>
<!-- Node12 -->
<g id="node12" class="node">
<title>Node12</title>
<g id="a_node12"><a xlink:href="util_8h.html" target="_top" xlink:title="Little helpers that don&#39;t fit elsewhere.">
<polygon fill="white" stroke="black" points="326.12,-112.5 326.12,-131.5 367.12,-131.5 367.12,-112.5 326.12,-112.5"/>
<text text-anchor="middle" x="346.62" y="-119.5" font-family="Helvetica,sans-Serif" font-size="10.00">util.h</text>
</a>
</g>
</g>
<!-- Node1&#45;&gt;Node12 -->
<g id="edge22" class="edge">
<title>Node1&#45;&gt;Node12</title>
<path fill="none" stroke="midnightblue" d="M274.07,-224.45C287.84,-216.59 307.17,-203.76 319.62,-188 330.49,-174.23 337.66,-155.45 341.86,-141.62"/>
<polygon fill="midnightblue" stroke="midnightblue" points="345.29,-142.35 344.61,-131.78 338.55,-140.47 345.29,-142.35"/>
</g>
<!-- Node14 -->
<g id="node14" class="node">
<title>Node14</title>
<g id="a_node14"><a xlink:title=" ">
<polygon fill="white" stroke="#bfbfbf" points="557.62,-112.5 557.62,-131.5 643.62,-131.5 643.62,-112.5 557.62,-112.5"/>
<text text-anchor="middle" x="600.62" y="-119.5" font-family="Helvetica,sans-Serif" font-size="10.00">avr/interrupt.h</text>
</a>
</g>
</g>
<!-- Node1&#45;&gt;Node14 -->
<g id="edge23" class="edge">
<title>Node1&#45;&gt;Node14</title>
<path fill="none" stroke="midnightblue" d="M297.85,-224.47C334.41,-216.35 389.65,-203.14 436.62,-188 485.09,-172.37 539.79,-149.62 572.17,-135.59"/>
<polygon fill="midnightblue" stroke="midnightblue" points="573.71,-138.74 581.48,-131.54 570.91,-132.33 573.71,-138.74"/>
</g>
<!-- Node2&#45;&gt;Node3 -->
<g id="edge2" class="edge">
<title>Node2&#45;&gt;Node3</title>
<path fill="none" stroke="midnightblue" d="M225.93,-168.44C191.24,-159.08 135.57,-144.05 97.83,-133.86"/>
<polygon fill="midnightblue" stroke="midnightblue" points="98.74,-130.48 88.17,-131.25 96.92,-137.24 98.74,-130.48"/>
</g>
<!-- Node6 -->
<g id="node6" class="node">
<title>Node6</title>
<g id="a_node6"><a xlink:title=" ">
<polygon fill="white" stroke="#bfbfbf" points="243.12,-112.5 243.12,-131.5 308.12,-131.5 308.12,-112.5 243.12,-112.5"/>
<text text-anchor="middle" x="275.62" y="-119.5" font-family="Helvetica,sans-Serif" font-size="10.00">inttypes.h</text>
</a>
</g>
</g>
<!-- Node2&#45;&gt;Node6 -->
<g id="edge5" class="edge">
<title>Node2&#45;&gt;Node6</title>
<path fill="none" stroke="midnightblue" d="M260.59,-168.08C263,-160.85 266.48,-150.41 269.48,-141.4"/>
<polygon fill="midnightblue" stroke="midnightblue" points="272.86,-142.34 272.7,-131.75 266.22,-140.13 272.86,-142.34"/>
</g>
<!-- Node4 -->
<g id="node4" class="node">
<title>Node4</title>
<g id="a_node4"><a xlink:href="atmega644constants_8h.html" target="_top" xlink:title="Constants for ATMega644 and EVA board. Defines several useful constants for the ATMega644.">
<polygon fill="white" stroke="black" points="17.62,-56.5 17.62,-75.5 145.62,-75.5 145.62,-56.5 17.62,-56.5"/>
<text text-anchor="middle" x="81.62" y="-63.5" font-family="Helvetica,sans-Serif" font-size="10.00">atmega644constants.h</text>
</a>
</g>
</g>
<!-- Node3&#45;&gt;Node4 -->
<g id="edge3" class="edge">
<title>Node3&#45;&gt;Node4</title>
<path fill="none" stroke="midnightblue" d="M61.58,-112.08C64.83,-104.77 69.54,-94.18 73.57,-85.1"/>
<polygon fill="midnightblue" stroke="midnightblue" points="76.86,-86.31 77.73,-75.75 70.47,-83.47 76.86,-86.31"/>
</g>
<!-- Node4&#45;&gt;Node5 -->
<g id="edge4" class="edge">
<title>Node4&#45;&gt;Node5</title>
<path fill="none" stroke="midnightblue" d="M81.62,-56.08C81.62,-49.01 81.62,-38.86 81.62,-29.99"/>
<polygon fill="midnightblue" stroke="midnightblue" points="85.12,-29.75 81.62,-19.75 78.12,-29.75 85.12,-29.75"/>
</g>
<!-- Node7&#45;&gt;Node3 -->
<g id="edge8" class="edge">
<title>Node7&#45;&gt;Node3</title>
<path fill="none" stroke="midnightblue" d="M123.92,-168.32C111.71,-159.98 93.04,-147.21 78.61,-137.35"/>
<polygon fill="midnightblue" stroke="midnightblue" points="80.51,-134.41 70.28,-131.65 76.56,-140.19 80.51,-134.41"/>
</g>
<!-- Node8 -->
<g id="node8" class="node">
<title>Node8</title>
<g id="a_node8"><a xlink:href="os__process_8h.html" target="_top" xlink:title="Struct specifying a process.">
<polygon fill="white" stroke="black" points="144.62,-112.5 144.62,-131.5 224.62,-131.5 224.62,-112.5 144.62,-112.5"/>
<text text-anchor="middle" x="184.62" y="-119.5" font-family="Helvetica,sans-Serif" font-size="10.00">os_process.h</text>
</a>
</g>
</g>
<!-- Node7&#45;&gt;Node8 -->
<g id="edge9" class="edge">
<title>Node7&#45;&gt;Node8</title>
<path fill="none" stroke="midnightblue" d="M144.54,-168.08C151.46,-160.3 161.68,-148.8 170.07,-139.37"/>
<polygon fill="midnightblue" stroke="midnightblue" points="172.81,-141.55 176.84,-131.75 167.58,-136.9 172.81,-141.55"/>
</g>
<!-- Node9 -->
<g id="node9" class="node">
<title>Node9</title>
<g id="a_node9"><a xlink:title=" ">
<polygon fill="white" stroke="#bfbfbf" points="163.62,-56.5 163.62,-75.5 225.62,-75.5 225.62,-56.5 163.62,-56.5"/>
<text text-anchor="middle" x="194.62" y="-63.5" font-family="Helvetica,sans-Serif" font-size="10.00">stdbool.h</text>
</a>
</g>
</g>
<!-- Node7&#45;&gt;Node9 -->
<g id="edge12" class="edge">
<title>Node7&#45;&gt;Node9</title>
<path fill="none" stroke="midnightblue" d="M134.13,-168.46C130.85,-155.5 126.5,-130.41 135.62,-112 142.22,-98.66 154.88,-88.19 166.79,-80.73"/>
<polygon fill="midnightblue" stroke="midnightblue" points="168.73,-83.64 175.63,-75.6 165.22,-77.59 168.73,-83.64"/>
</g>
<!-- Node8&#45;&gt;Node9 -->
<g id="edge10" class="edge">
<title>Node8&#45;&gt;Node9</title>
<path fill="none" stroke="midnightblue" d="M186.27,-112.08C187.59,-104.93 189.5,-94.64 191.15,-85.69"/>
<polygon fill="midnightblue" stroke="midnightblue" points="194.62,-86.22 193,-75.75 187.73,-84.95 194.62,-86.22"/>
</g>
<!-- Node10 -->
<g id="node10" class="node">
<title>Node10</title>
<g id="a_node10"><a xlink:title=" ">
<polygon fill="white" stroke="#bfbfbf" points="363.12,-56.5 363.12,-75.5 416.12,-75.5 416.12,-56.5 363.12,-56.5"/>
<text text-anchor="middle" x="389.62" y="-63.5" font-family="Helvetica,sans-Serif" font-size="10.00">stdint.h</text>
</a>
</g>
</g>
<!-- Node8&#45;&gt;Node10 -->
<g id="edge11" class="edge">
<title>Node8&#45;&gt;Node10</title>
<path fill="none" stroke="midnightblue" d="M217.1,-112.44C254.1,-102.7 314.41,-86.81 353.03,-76.64"/>
<polygon fill="midnightblue" stroke="midnightblue" points="354.06,-79.99 362.84,-74.05 352.28,-73.22 354.06,-79.99"/>
</g>
<!-- Node11&#45;&gt;Node5 -->
<g id="edge19" class="edge">
<title>Node11&#45;&gt;Node5</title>
<path fill="none" stroke="midnightblue" d="M424.93,-168.42C456.1,-157.59 505.56,-139.5 510.62,-132 515.58,-124.63 514.85,-119.81 510.62,-112 488.88,-71.9 467.4,-71.8 424.62,-56 318.41,-16.77 182.64,-10.92 118.42,-10.55"/>
<polygon fill="midnightblue" stroke="midnightblue" points="118.39,-7.05 108.38,-10.54 118.38,-14.05 118.39,-7.05"/>
</g>
<!-- Node11&#45;&gt;Node10 -->
<g id="edge20" class="edge">
<title>Node11&#45;&gt;Node10</title>
<path fill="none" stroke="midnightblue" d="M398.83,-168.37C397.22,-150.62 393.49,-109.67 391.31,-85.6"/>
<polygon fill="midnightblue" stroke="midnightblue" points="394.79,-85.23 390.4,-75.59 387.82,-85.87 394.79,-85.23"/>
</g>
<!-- Node11&#45;&gt;Node12 -->
<g id="edge14" class="edge">
<title>Node11&#45;&gt;Node12</title>
<path fill="none" stroke="midnightblue" d="M390.86,-168.08C383.15,-160.22 371.71,-148.57 362.4,-139.08"/>
<polygon fill="midnightblue" stroke="midnightblue" points="364.71,-136.44 355.2,-131.75 359.71,-141.34 364.71,-136.44"/>
</g>
<!-- Node11&#45;&gt;Node14 -->
<g id="edge18" class="edge">
<title>Node11&#45;&gt;Node14</title>
<path fill="none" stroke="midnightblue" d="M427.99,-169.38C462.13,-160.2 519.76,-144.72 558.95,-134.19"/>
<polygon fill="midnightblue" stroke="midnightblue" points="559.99,-137.54 568.74,-131.56 558.17,-130.78 559.99,-137.54"/>
</g>
<!-- Node15 -->
<g id="node15" class="node">
<title>Node15</title>
<g id="a_node15"><a xlink:title=" ">
<polygon fill="white" stroke="#bfbfbf" points="423.62,-112.5 423.62,-131.5 501.62,-131.5 501.62,-112.5 423.62,-112.5"/>
<text text-anchor="middle" x="462.62" y="-119.5" font-family="Helvetica,sans-Serif" font-size="10.00">util/atomic.h</text>
</a>
</g>
</g>
<!-- Node11&#45;&gt;Node15 -->
<g id="edge21" class="edge">
<title>Node11&#45;&gt;Node15</title>
<path fill="none" stroke="midnightblue" d="M409.74,-168.32C419.14,-160.26 433.36,-148.08 444.68,-138.37"/>
<polygon fill="midnightblue" stroke="midnightblue" points="446.99,-141 452.31,-131.83 442.44,-135.68 446.99,-141"/>
</g>
<!-- Node12&#45;&gt;Node9 -->
<g id="edge16" class="edge">
<title>Node12&#45;&gt;Node9</title>
<path fill="none" stroke="midnightblue" d="M325.8,-113.6C300.67,-104.68 258.08,-89.55 228.26,-78.95"/>
<polygon fill="midnightblue" stroke="midnightblue" points="229.28,-75.6 218.68,-75.55 226.94,-82.2 229.28,-75.6"/>
</g>
<!-- Node12&#45;&gt;Node10 -->
<g id="edge17" class="edge">
<title>Node12&#45;&gt;Node10</title>
<path fill="none" stroke="midnightblue" d="M353.72,-112.08C359.85,-104.38 368.89,-93.03 376.36,-83.65"/>
<polygon fill="midnightblue" stroke="midnightblue" points="379.16,-85.75 382.65,-75.75 373.68,-81.39 379.16,-85.75"/>
</g>
<!-- Node13 -->
<g id="node13" class="node">
<title>Node13</title>
<g id="a_node13"><a xlink:title=" ">
<polygon fill="white" stroke="#bfbfbf" points="250.12,-56.5 250.12,-75.5 345.12,-75.5 345.12,-56.5 250.12,-56.5"/>
<text text-anchor="middle" x="297.62" y="-63.5" font-family="Helvetica,sans-Serif" font-size="10.00">avr/pgmspace.h</text>
</a>
</g>
</g>
<!-- Node12&#45;&gt;Node13 -->
<g id="edge15" class="edge">
<title>Node12&#45;&gt;Node13</title>
<path fill="none" stroke="midnightblue" d="M338.52,-112.08C331.46,-104.3 321.03,-92.8 312.47,-83.37"/>
<polygon fill="midnightblue" stroke="midnightblue" points="314.87,-80.8 305.56,-75.75 309.68,-85.51 314.87,-80.8"/>
</g>
</g>
</svg>
