<?xml version="1.0" encoding="UTF-8" standalone="no"?>
<!DOCTYPE svg PUBLIC "-//W3C//DTD SVG 1.1//EN"
 "http://www.w3.org/Graphics/SVG/1.1/DTD/svg11.dtd">
<!-- Generated by graphviz version 2.43.0 (0)
 -->
<!-- Title: util.c Pages: 1 -->
<svg width="615pt" height="252pt"
 viewBox="0.00 0.00 614.50 252.00" xmlns="http://www.w3.org/2000/svg" xmlns:xlink="http://www.w3.org/1999/xlink">
<g id="graph0" class="graph" transform="scale(1 1) rotate(0) translate(4 248)">
<title>util.c</title>
<polygon fill="white" stroke="transparent" points="-4,4 -4,-248 610.5,-248 610.5,4 -4,4"/>
<!-- Node1 -->
<g id="node1" class="node">
<title>Node1</title>
<g id="a_node1"><a xlink:title=" ">
<polygon fill="#bfbfbf" stroke="black" points="344,-224.5 344,-243.5 385,-243.5 385,-224.5 344,-224.5"/>
<text text-anchor="middle" x="364.5" y="-231.5" font-family="Helvetica,sans-Serif" font-size="10.00">util.c</text>
</a>
</g>
</g>
<!-- Node2 -->
<g id="node2" class="node">
<title>Node2</title>
<g id="a_node2"><a xlink:href="util_8h.html" target="_top" xlink:title="Little helpers that don&#39;t fit elsewhere.">
<polygon fill="white" stroke="black" points="182,-112.5 182,-131.5 223,-131.5 223,-112.5 182,-112.5"/>
<text text-anchor="middle" x="202.5" y="-119.5" font-family="Helvetica,sans-Serif" font-size="10.00">util.h</text>
</a>
</g>
</g>
<!-- Node1&#45;&gt;Node2 -->
<g id="edge1" class="edge">
<title>Node1&#45;&gt;Node2</title>
<path fill="none" stroke="midnightblue" d="M351.79,-224.37C323.99,-205.49 257.56,-160.38 223.47,-137.24"/>
<polygon fill="midnightblue" stroke="midnightblue" points="225.39,-134.31 215.15,-131.59 221.46,-140.1 225.39,-134.31"/>
</g>
<!-- Node6 -->
<g id="node6" class="node">
<title>Node6</title>
<g id="a_node6"><a xlink:href="atmega644constants_8h.html" target="_top" xlink:title="Constants for ATMega644 and EVA board. Defines several useful constants for the ATMega644.">
<polygon fill="white" stroke="black" points="336.5,-56.5 336.5,-75.5 464.5,-75.5 464.5,-56.5 336.5,-56.5"/>
<text text-anchor="middle" x="400.5" y="-63.5" font-family="Helvetica,sans-Serif" font-size="10.00">atmega644constants.h</text>
</a>
</g>
</g>
<!-- Node1&#45;&gt;Node6 -->
<g id="edge5" class="edge">
<title>Node1&#45;&gt;Node6</title>
<path fill="none" stroke="midnightblue" d="M373.52,-224.32C389.71,-208.04 423.15,-171.03 435.5,-132 438.18,-123.52 438.38,-120.41 435.5,-112 431.78,-101.16 424.27,-90.92 417.15,-82.96"/>
<polygon fill="midnightblue" stroke="midnightblue" points="419.5,-80.35 410.06,-75.55 414.45,-85.19 419.5,-80.35"/>
</g>
<!-- Node7 -->
<g id="node7" class="node">
<title>Node7</title>
<g id="a_node7"><a xlink:title=" ">
<polygon fill="white" stroke="#bfbfbf" points="420,-0.5 420,-19.5 473,-19.5 473,-0.5 420,-0.5"/>
<text text-anchor="middle" x="446.5" y="-7.5" font-family="Helvetica,sans-Serif" font-size="10.00">avr/io.h</text>
</a>
</g>
</g>
<!-- Node1&#45;&gt;Node7 -->
<g id="edge21" class="edge">
<title>Node1&#45;&gt;Node7</title>
<path fill="none" stroke="midnightblue" d="M380.31,-224.47C393.81,-216.53 412.96,-203.58 425.5,-188 459.45,-145.81 463.01,-129.13 473.5,-76 475.22,-67.28 475.87,-64.57 473.5,-56 470.71,-45.92 464.99,-35.83 459.53,-27.77"/>
<polygon fill="midnightblue" stroke="midnightblue" points="462.35,-25.69 453.65,-19.64 456.68,-29.79 462.35,-25.69"/>
</g>
<!-- Node8 -->
<g id="node8" class="node">
<title>Node8</title>
<g id="a_node8"><a xlink:href="defines_8h.html" target="_top" xlink:title="Simple definitions and assembler&#45;macros, mostly 8/16&#45;Bit values.">
<polygon fill="white" stroke="black" points="365,-112.5 365,-131.5 426,-131.5 426,-112.5 365,-112.5"/>
<text text-anchor="middle" x="395.5" y="-119.5" font-family="Helvetica,sans-Serif" font-size="10.00">defines.h</text>
</a>
</g>
</g>
<!-- Node1&#45;&gt;Node8 -->
<g id="edge7" class="edge">
<title>Node1&#45;&gt;Node8</title>
<path fill="none" stroke="midnightblue" d="M366.93,-224.37C371.96,-206.54 383.58,-165.3 390.35,-141.27"/>
<polygon fill="midnightblue" stroke="midnightblue" points="393.73,-142.17 393.08,-131.59 387,-140.27 393.73,-142.17"/>
</g>
<!-- Node9 -->
<g id="node9" class="node">
<title>Node9</title>
<g id="a_node9"><a xlink:href="lcd_8h.html" target="_top" xlink:title="Library for LCD use.">
<polygon fill="white" stroke="black" points="182.5,-168.5 182.5,-187.5 222.5,-187.5 222.5,-168.5 182.5,-168.5"/>
<text text-anchor="middle" x="202.5" y="-175.5" font-family="Helvetica,sans-Serif" font-size="10.00">lcd.h</text>
</a>
</g>
</g>
<!-- Node1&#45;&gt;Node9 -->
<g id="edge9" class="edge">
<title>Node1&#45;&gt;Node9</title>
<path fill="none" stroke="midnightblue" d="M343.98,-226.16C315.79,-216.76 264.88,-199.79 232.43,-188.98"/>
<polygon fill="midnightblue" stroke="midnightblue" points="233.19,-185.54 222.6,-185.7 230.98,-192.18 233.19,-185.54"/>
</g>
<!-- Node11 -->
<g id="node11" class="node">
<title>Node11</title>
<g id="a_node11"><a xlink:href="os__core_8h.html" target="_top" xlink:title="Core of the OS.">
<polygon fill="white" stroke="black" points="40,-168.5 40,-187.5 103,-187.5 103,-168.5 40,-168.5"/>
<text text-anchor="middle" x="71.5" y="-175.5" font-family="Helvetica,sans-Serif" font-size="10.00">os_core.h</text>
</a>
</g>
</g>
<!-- Node1&#45;&gt;Node11 -->
<g id="edge16" class="edge">
<title>Node1&#45;&gt;Node11</title>
<path fill="none" stroke="midnightblue" d="M343.9,-229.2C296.14,-220.4 177.13,-198.47 113.38,-186.72"/>
<polygon fill="midnightblue" stroke="midnightblue" points="113.74,-183.23 103.27,-184.85 112.47,-190.11 113.74,-183.23"/>
</g>
<!-- Node12 -->
<g id="node12" class="node">
<title>Node12</title>
<g id="a_node12"><a xlink:href="os__input_8h.html" target="_top" xlink:title="Input library for the OS.">
<polygon fill="white" stroke="black" points="280,-112.5 280,-131.5 347,-131.5 347,-112.5 280,-112.5"/>
<text text-anchor="middle" x="313.5" y="-119.5" font-family="Helvetica,sans-Serif" font-size="10.00">os_input.h</text>
</a>
</g>
</g>
<!-- Node1&#45;&gt;Node12 -->
<g id="edge18" class="edge">
<title>Node1&#45;&gt;Node12</title>
<path fill="none" stroke="midnightblue" d="M360.5,-224.37C352.19,-206.46 332.94,-164.92 321.82,-140.95"/>
<polygon fill="midnightblue" stroke="midnightblue" points="324.86,-139.19 317.48,-131.59 318.51,-142.14 324.86,-139.19"/>
</g>
<!-- Node13 -->
<g id="node13" class="node">
<title>Node13</title>
<g id="a_node13"><a xlink:title=" ">
<polygon fill="white" stroke="#bfbfbf" points="520.5,-168.5 520.5,-187.5 606.5,-187.5 606.5,-168.5 520.5,-168.5"/>
<text text-anchor="middle" x="563.5" y="-175.5" font-family="Helvetica,sans-Serif" font-size="10.00">avr/interrupt.h</text>
</a>
</g>
</g>
<!-- Node1&#45;&gt;Node13 -->
<g id="edge20" class="edge">
<title>Node1&#45;&gt;Node13</title>
<path fill="none" stroke="midnightblue" d="M385.05,-227.42C417.25,-218.69 480.24,-201.59 522.1,-190.23"/>
<polygon fill="midnightblue" stroke="midnightblue" points="523.27,-193.54 532,-187.55 521.43,-186.79 523.27,-193.54"/>
</g>
<!-- Node3 -->
<g id="node3" class="node">
<title>Node3</title>
<g id="a_node3"><a xlink:title=" ">
<polygon fill="white" stroke="#bfbfbf" points="0,-56.5 0,-75.5 95,-75.5 95,-56.5 0,-56.5"/>
<text text-anchor="middle" x="47.5" y="-63.5" font-family="Helvetica,sans-Serif" font-size="10.00">avr/pgmspace.h</text>
</a>
</g>
</g>
<!-- Node2&#45;&gt;Node3 -->
<g id="edge2" class="edge">
<title>Node2&#45;&gt;Node3</title>
<path fill="none" stroke="midnightblue" d="M181.92,-113.83C156.28,-104.9 112.13,-89.52 81.45,-78.83"/>
<polygon fill="midnightblue" stroke="midnightblue" points="82.6,-75.52 72,-75.54 80.3,-82.13 82.6,-75.52"/>
</g>
<!-- Node4 -->
<g id="node4" class="node">
<title>Node4</title>
<g id="a_node4"><a xlink:title=" ">
<polygon fill="white" stroke="#bfbfbf" points="133.5,-56.5 133.5,-75.5 195.5,-75.5 195.5,-56.5 133.5,-56.5"/>
<text text-anchor="middle" x="164.5" y="-63.5" font-family="Helvetica,sans-Serif" font-size="10.00">stdbool.h</text>
</a>
</g>
</g>
<!-- Node2&#45;&gt;Node4 -->
<g id="edge3" class="edge">
<title>Node2&#45;&gt;Node4</title>
<path fill="none" stroke="midnightblue" d="M196.23,-112.08C190.86,-104.46 182.98,-93.26 176.42,-83.94"/>
<polygon fill="midnightblue" stroke="midnightblue" points="179.28,-81.91 170.66,-75.75 173.55,-85.94 179.28,-81.91"/>
</g>
<!-- Node5 -->
<g id="node5" class="node">
<title>Node5</title>
<g id="a_node5"><a xlink:title=" ">
<polygon fill="white" stroke="#bfbfbf" points="225,-56.5 225,-75.5 278,-75.5 278,-56.5 225,-56.5"/>
<text text-anchor="middle" x="251.5" y="-63.5" font-family="Helvetica,sans-Serif" font-size="10.00">stdint.h</text>
</a>
</g>
</g>
<!-- Node2&#45;&gt;Node5 -->
<g id="edge4" class="edge">
<title>Node2&#45;&gt;Node5</title>
<path fill="none" stroke="midnightblue" d="M210.59,-112.08C217.66,-104.3 228.09,-92.8 236.65,-83.37"/>
<polygon fill="midnightblue" stroke="midnightblue" points="239.43,-85.51 243.56,-75.75 234.25,-80.8 239.43,-85.51"/>
</g>
<!-- Node6&#45;&gt;Node7 -->
<g id="edge6" class="edge">
<title>Node6&#45;&gt;Node7</title>
<path fill="none" stroke="midnightblue" d="M408.1,-56.08C414.73,-48.3 424.52,-36.8 432.56,-27.37"/>
<polygon fill="midnightblue" stroke="midnightblue" points="435.23,-29.63 439.05,-19.75 429.9,-25.09 435.23,-29.63"/>
</g>
<!-- Node8&#45;&gt;Node6 -->
<g id="edge8" class="edge">
<title>Node8&#45;&gt;Node6</title>
<path fill="none" stroke="midnightblue" d="M396.33,-112.08C396.98,-105.01 397.92,-94.86 398.74,-85.99"/>
<polygon fill="midnightblue" stroke="midnightblue" points="402.25,-86.03 399.69,-75.75 395.28,-85.39 402.25,-86.03"/>
</g>
<!-- Node9&#45;&gt;Node2 -->
<g id="edge15" class="edge">
<title>Node9&#45;&gt;Node2</title>
<path fill="none" stroke="midnightblue" d="M202.5,-168.08C202.5,-161.01 202.5,-150.86 202.5,-141.99"/>
<polygon fill="midnightblue" stroke="midnightblue" points="206,-141.75 202.5,-131.75 199,-141.75 206,-141.75"/>
</g>
<!-- Node9&#45;&gt;Node3 -->
<g id="edge10" class="edge">
<title>Node9&#45;&gt;Node3</title>
<path fill="none" stroke="midnightblue" d="M182.37,-176.01C152.81,-173.47 97.77,-164.38 66.5,-132 54.64,-119.72 50.12,-100.46 48.43,-86.09"/>
<polygon fill="midnightblue" stroke="midnightblue" points="51.9,-85.52 47.6,-75.84 44.92,-86.09 51.9,-85.52"/>
</g>
<!-- Node9&#45;&gt;Node4 -->
<g id="edge11" class="edge">
<title>Node9&#45;&gt;Node4</title>
<path fill="none" stroke="midnightblue" d="M194.95,-168.38C187.88,-159.79 177.66,-145.91 172.5,-132 166.99,-117.16 165.11,-99.24 164.54,-85.97"/>
<polygon fill="midnightblue" stroke="midnightblue" points="168.03,-85.63 164.31,-75.71 161.03,-85.79 168.03,-85.63"/>
</g>
<!-- Node9&#45;&gt;Node5 -->
<g id="edge12" class="edge">
<title>Node9&#45;&gt;Node5</title>
<path fill="none" stroke="midnightblue" d="M209.57,-168.18C216.27,-159.44 226.23,-145.45 232.5,-132 239.49,-117.01 244.53,-98.88 247.66,-85.58"/>
<polygon fill="midnightblue" stroke="midnightblue" points="251.1,-86.23 249.83,-75.71 244.26,-84.72 251.1,-86.23"/>
</g>
<!-- Node9&#45;&gt;Node8 -->
<g id="edge14" class="edge">
<title>Node9&#45;&gt;Node8</title>
<path fill="none" stroke="midnightblue" d="M222.79,-171.32C254.11,-162.56 314.82,-145.57 355.27,-134.26"/>
<polygon fill="midnightblue" stroke="midnightblue" points="356.4,-137.58 365.08,-131.51 354.51,-130.83 356.4,-137.58"/>
</g>
<!-- Node10 -->
<g id="node10" class="node">
<title>Node10</title>
<g id="a_node10"><a xlink:title=" ">
<polygon fill="white" stroke="#bfbfbf" points="75.5,-112.5 75.5,-131.5 125.5,-131.5 125.5,-112.5 75.5,-112.5"/>
<text text-anchor="middle" x="100.5" y="-119.5" font-family="Helvetica,sans-Serif" font-size="10.00">stdio.h</text>
</a>
</g>
</g>
<!-- Node9&#45;&gt;Node10 -->
<g id="edge13" class="edge">
<title>Node9&#45;&gt;Node10</title>
<path fill="none" stroke="midnightblue" d="M186.11,-168.32C169.83,-159.7 144.63,-146.36 125.78,-136.39"/>
<polygon fill="midnightblue" stroke="midnightblue" points="127.32,-133.24 116.85,-131.65 124.05,-139.43 127.32,-133.24"/>
</g>
<!-- Node11&#45;&gt;Node3 -->
<g id="edge17" class="edge">
<title>Node11&#45;&gt;Node3</title>
<path fill="none" stroke="midnightblue" d="M60.79,-168.3C51.56,-160.07 38.91,-146.79 33.5,-132 27.87,-116.6 32.8,-98.28 38.3,-85.02"/>
<polygon fill="midnightblue" stroke="midnightblue" points="41.62,-86.17 42.64,-75.63 35.27,-83.23 41.62,-86.17"/>
</g>
<!-- Node12&#45;&gt;Node5 -->
<g id="edge19" class="edge">
<title>Node12&#45;&gt;Node5</title>
<path fill="none" stroke="midnightblue" d="M303.54,-112.32C294.37,-104.34 280.56,-92.31 269.47,-82.65"/>
<polygon fill="midnightblue" stroke="midnightblue" points="271.48,-79.76 261.64,-75.83 266.88,-85.04 271.48,-79.76"/>
</g>
</g>
</svg>
