<?xml version="1.0" encoding="UTF-8" standalone="no"?>
<!DOCTYPE svg PUBLIC "-//W3C//DTD SVG 1.1//EN"
 "http://www.w3.org/Graphics/SVG/1.1/DTD/svg11.dtd">
<!-- Generated by graphviz version 2.43.0 (0)
 -->
<!-- Title: util.h Pages: 1 -->
<svg width="492pt" height="140pt"
 viewBox="0.00 0.00 492.00 140.00" xmlns="http://www.w3.org/2000/svg" xmlns:xlink="http://www.w3.org/1999/xlink">
<g id="graph0" class="graph" transform="scale(1 1) rotate(0) translate(4 136)">
<title>util.h</title>
<polygon fill="white" stroke="transparent" points="-4,4 -4,-136 488,-136 488,4 -4,4"/>
<!-- Node1 -->
<g id="node1" class="node">
<title>Node1</title>
<g id="a_node1"><a xlink:title="Little helpers that don&#39;t fit elsewhere.">
<polygon fill="#bfbfbf" stroke="black" points="223,-112.5 223,-131.5 264,-131.5 264,-112.5 223,-112.5"/>
<text text-anchor="middle" x="243.5" y="-119.5" font-family="Helvetica,sans-Serif" font-size="10.00">util.h</text>
</a>
</g>
</g>
<!-- Node2 -->
<g id="node2" class="node">
<title>Node2</title>
<g id="a_node2"><a xlink:href="lcd_8c.html" target="_top" xlink:title="Library for LCD use.">
<polygon fill="white" stroke="black" points="0,-0.5 0,-19.5 39,-19.5 39,-0.5 0,-0.5"/>
<text text-anchor="middle" x="19.5" y="-7.5" font-family="Helvetica,sans-Serif" font-size="10.00">lcd.c</text>
</a>
</g>
</g>
<!-- Node1&#45;&gt;Node2 -->
<g id="edge1" class="edge">
<title>Node1&#45;&gt;Node2</title>
<path fill="none" stroke="midnightblue" d="M213.21,-111.67C188.29,-103.55 152.34,-90.76 122.5,-76 87.82,-58.84 50.09,-33 31.39,-19.66"/>
<polygon fill="midnightblue" stroke="midnightblue" points="212.25,-115.04 222.84,-114.76 214.38,-108.37 212.25,-115.04"/>
</g>
<!-- Node3 -->
<g id="node3" class="node">
<title>Node3</title>
<g id="a_node3"><a xlink:href="lcd_8h.html" target="_top" xlink:title="Library for LCD use.">
<polygon fill="white" stroke="black" points="156.5,-56.5 156.5,-75.5 196.5,-75.5 196.5,-56.5 156.5,-56.5"/>
<text text-anchor="middle" x="176.5" y="-63.5" font-family="Helvetica,sans-Serif" font-size="10.00">lcd.h</text>
</a>
</g>
</g>
<!-- Node1&#45;&gt;Node3 -->
<g id="edge2" class="edge">
<title>Node1&#45;&gt;Node3</title>
<path fill="none" stroke="midnightblue" d="M224.67,-105.82C212.66,-96.15 197.53,-83.95 187.46,-75.83"/>
<polygon fill="midnightblue" stroke="midnightblue" points="222.75,-108.77 232.74,-112.32 227.15,-103.32 222.75,-108.77"/>
</g>
<!-- Node4 -->
<g id="node4" class="node">
<title>Node4</title>
<g id="a_node4"><a xlink:href="os__core_8c.html" target="_top" xlink:title=" ">
<polygon fill="white" stroke="black" points="57.5,-0.5 57.5,-19.5 119.5,-19.5 119.5,-0.5 57.5,-0.5"/>
<text text-anchor="middle" x="88.5" y="-7.5" font-family="Helvetica,sans-Serif" font-size="10.00">os_core.c</text>
</a>
</g>
</g>
<!-- Node1&#45;&gt;Node4 -->
<g id="edge7" class="edge">
<title>Node1&#45;&gt;Node4</title>
<path fill="none" stroke="midnightblue" d="M213.28,-110.41C193.48,-102.64 167.64,-90.87 147.5,-76 124.94,-59.34 104.33,-33.05 94.52,-19.58"/>
<polygon fill="midnightblue" stroke="midnightblue" points="212.15,-113.73 222.74,-114 214.63,-107.18 212.15,-113.73"/>
</g>
<!-- Node5 -->
<g id="node5" class="node">
<title>Node5</title>
<g id="a_node5"><a xlink:href="os__scheduler_8c.html" target="_top" xlink:title="Scheduling module for the OS.">
<polygon fill="white" stroke="black" points="137.5,-0.5 137.5,-19.5 225.5,-19.5 225.5,-0.5 137.5,-0.5"/>
<text text-anchor="middle" x="181.5" y="-7.5" font-family="Helvetica,sans-Serif" font-size="10.00">os_scheduler.c</text>
</a>
</g>
</g>
<!-- Node1&#45;&gt;Node5 -->
<g id="edge10" class="edge">
<title>Node1&#45;&gt;Node5</title>
<path fill="none" stroke="midnightblue" d="M233.72,-103.64C220.25,-79.74 196.51,-37.63 186.34,-19.59"/>
<polygon fill="midnightblue" stroke="midnightblue" points="230.68,-105.38 238.63,-112.37 236.77,-101.94 230.68,-105.38"/>
</g>
<!-- Node6 -->
<g id="node6" class="node">
<title>Node6</title>
<g id="a_node6"><a xlink:href="util_8c.html" target="_top" xlink:title=" ">
<polygon fill="white" stroke="black" points="244,-0.5 244,-19.5 285,-19.5 285,-0.5 244,-0.5"/>
<text text-anchor="middle" x="264.5" y="-7.5" font-family="Helvetica,sans-Serif" font-size="10.00">util.c</text>
</a>
</g>
</g>
<!-- Node1&#45;&gt;Node6 -->
<g id="edge14" class="edge">
<title>Node1&#45;&gt;Node6</title>
<path fill="none" stroke="midnightblue" d="M247.06,-102.35C251.66,-78.25 259.48,-37.31 262.86,-19.59"/>
<polygon fill="midnightblue" stroke="midnightblue" points="243.59,-101.89 245.15,-112.37 250.46,-103.2 243.59,-101.89"/>
</g>
<!-- Node7 -->
<g id="node7" class="node">
<title>Node7</title>
<g id="a_node7"><a xlink:href="os__mem__drivers_8c.html" target="_top" xlink:title=" ">
<polygon fill="white" stroke="black" points="303.5,-0.5 303.5,-19.5 409.5,-19.5 409.5,-0.5 303.5,-0.5"/>
<text text-anchor="middle" x="356.5" y="-7.5" font-family="Helvetica,sans-Serif" font-size="10.00">os_mem_drivers.c</text>
</a>
</g>
</g>
<!-- Node1&#45;&gt;Node7 -->
<g id="edge8" class="edge">
<title>Node1&#45;&gt;Node7</title>
<path fill="none" stroke="midnightblue" d="M259.73,-105.21C283.95,-81.63 328.73,-38.03 347.67,-19.59"/>
<polygon fill="midnightblue" stroke="midnightblue" points="257.09,-102.89 252.37,-112.37 261.97,-107.9 257.09,-102.89"/>
</g>
<!-- Node8 -->
<g id="node8" class="node">
<title>Node8</title>
<g id="a_node8"><a xlink:href="os__memory_8c.html" target="_top" xlink:title=" ">
<polygon fill="white" stroke="black" points="403,-56.5 403,-75.5 484,-75.5 484,-56.5 403,-56.5"/>
<text text-anchor="middle" x="443.5" y="-63.5" font-family="Helvetica,sans-Serif" font-size="10.00">os_memory.c</text>
</a>
</g>
</g>
<!-- Node1&#45;&gt;Node8 -->
<g id="edge9" class="edge">
<title>Node1&#45;&gt;Node8</title>
<path fill="none" stroke="midnightblue" d="M273.94,-112.78C311.21,-102.72 374.03,-85.76 411.84,-75.55"/>
<polygon fill="midnightblue" stroke="midnightblue" points="272.89,-109.44 264.15,-115.42 274.72,-116.2 272.89,-109.44"/>
</g>
<!-- Node9 -->
<g id="node9" class="node">
<title>Node9</title>
<g id="a_node9"><a xlink:href="os__spi_8h.html" target="_top" xlink:title="Driver for AVRs SPI module.">
<polygon fill="white" stroke="black" points="328.5,-56.5 328.5,-75.5 384.5,-75.5 384.5,-56.5 328.5,-56.5"/>
<text text-anchor="middle" x="356.5" y="-63.5" font-family="Helvetica,sans-Serif" font-size="10.00">os_spi.h</text>
</a>
</g>
</g>
<!-- Node1&#45;&gt;Node9 -->
<g id="edge11" class="edge">
<title>Node1&#45;&gt;Node9</title>
<path fill="none" stroke="midnightblue" d="M270.5,-108.1C291.61,-98.01 320.36,-84.27 338.68,-75.52"/>
<polygon fill="midnightblue" stroke="midnightblue" points="268.92,-104.97 261.41,-112.44 271.94,-111.29 268.92,-104.97"/>
</g>
<!-- Node3&#45;&gt;Node2 -->
<g id="edge3" class="edge">
<title>Node3&#45;&gt;Node2</title>
<path fill="none" stroke="midnightblue" d="M146.71,-54.75C115.13,-43.89 66.18,-27.06 39.13,-17.75"/>
<polygon fill="midnightblue" stroke="midnightblue" points="145.7,-58.11 156.3,-58.05 147.98,-51.49 145.7,-58.11"/>
</g>
<!-- Node3&#45;&gt;Node4 -->
<g id="edge4" class="edge">
<title>Node3&#45;&gt;Node4</title>
<path fill="none" stroke="midnightblue" d="M153.52,-50.9C137.39,-41 116.32,-28.07 102.6,-19.65"/>
<polygon fill="midnightblue" stroke="midnightblue" points="152.01,-54.08 162.36,-56.32 155.67,-48.11 152.01,-54.08"/>
</g>
<!-- Node3&#45;&gt;Node5 -->
<g id="edge5" class="edge">
<title>Node3&#45;&gt;Node5</title>
<path fill="none" stroke="midnightblue" d="M178.25,-46.1C179.08,-37.14 180.03,-26.86 180.69,-19.75"/>
<polygon fill="midnightblue" stroke="midnightblue" points="174.76,-45.8 177.33,-56.08 181.73,-46.45 174.76,-45.8"/>
</g>
<!-- Node3&#45;&gt;Node6 -->
<g id="edge6" class="edge">
<title>Node3&#45;&gt;Node6</title>
<path fill="none" stroke="midnightblue" d="M199.48,-50.9C215.61,-41 236.68,-28.07 250.4,-19.65"/>
<polygon fill="midnightblue" stroke="midnightblue" points="197.33,-48.11 190.64,-56.32 200.99,-54.08 197.33,-48.11"/>
</g>
<!-- Node9&#45;&gt;Node7 -->
<g id="edge12" class="edge">
<title>Node9&#45;&gt;Node7</title>
<path fill="none" stroke="midnightblue" d="M356.5,-45.8C356.5,-36.91 356.5,-26.78 356.5,-19.75"/>
<polygon fill="midnightblue" stroke="midnightblue" points="353,-46.08 356.5,-56.08 360,-46.08 353,-46.08"/>
</g>
<!-- Node10 -->
<g id="node10" class="node">
<title>Node10</title>
<g id="a_node10"><a xlink:href="os__spi_8c.html" target="_top" xlink:title="Driver for AVRs SPI module.">
<polygon fill="white" stroke="black" points="427.5,-0.5 427.5,-19.5 483.5,-19.5 483.5,-0.5 427.5,-0.5"/>
<text text-anchor="middle" x="455.5" y="-7.5" font-family="Helvetica,sans-Serif" font-size="10.00">os_spi.c</text>
</a>
</g>
</g>
<!-- Node9&#45;&gt;Node10 -->
<g id="edge13" class="edge">
<title>Node9&#45;&gt;Node10</title>
<path fill="none" stroke="midnightblue" d="M381.34,-51.45C399.61,-41.48 423.92,-28.23 439.63,-19.65"/>
<polygon fill="midnightblue" stroke="midnightblue" points="379.51,-48.46 372.41,-56.32 382.86,-54.61 379.51,-48.46"/>
</g>
</g>
</svg>
