<?xml version="1.0" encoding="UTF-8" standalone="no"?>
<!DOCTYPE svg PUBLIC "-//W3C//DTD SVG 1.1//EN"
 "http://www.w3.org/Graphics/SVG/1.1/DTD/svg11.dtd">
<!-- Generated by graphviz version 2.43.0 (0)
 -->
<!-- Title: atmega644constants.h Pages: 1 -->
<svg width="577pt" height="252pt"
 viewBox="0.00 0.00 577.27 252.00" xmlns="http://www.w3.org/2000/svg" xmlns:xlink="http://www.w3.org/1999/xlink">
<g id="graph0" class="graph" transform="scale(1 1) rotate(0) translate(4 248)">
<title>atmega644constants.h</title>
<polygon fill="white" stroke="transparent" points="-4,4 -4,-248 573.27,-248 573.27,4 -4,4"/>
<!-- Node1 -->
<g id="node1" class="node">
<title>Node1</title>
<g id="a_node1"><a xlink:title="Constants for ATMega644 and EVA board. Defines several useful constants for the ATMega644.">
<polygon fill="#bfbfbf" stroke="black" points="36.5,-224.5 36.5,-243.5 164.5,-243.5 164.5,-224.5 36.5,-224.5"/>
<text text-anchor="middle" x="100.5" y="-231.5" font-family="Helvetica,sans-Serif" font-size="10.00">atmega644constants.h</text>
</a>
</g>
</g>
<!-- Node2 -->
<g id="node2" class="node">
<title>Node2</title>
<g id="a_node2"><a xlink:href="defines_8h.html" target="_top" xlink:title="Simple definitions and assembler&#45;macros, mostly 8/16&#45;Bit values.">
<polygon fill="white" stroke="black" points="196,-168.5 196,-187.5 257,-187.5 257,-168.5 196,-168.5"/>
<text text-anchor="middle" x="226.5" y="-175.5" font-family="Helvetica,sans-Serif" font-size="10.00">defines.h</text>
</a>
</g>
</g>
<!-- Node1&#45;&gt;Node2 -->
<g id="edge1" class="edge">
<title>Node1&#45;&gt;Node2</title>
<path fill="none" stroke="midnightblue" d="M129.66,-220.5C153.28,-210.38 185.93,-196.39 206.63,-187.52"/>
<polygon fill="midnightblue" stroke="midnightblue" points="128.28,-217.29 120.47,-224.44 131.04,-223.72 128.28,-217.29"/>
</g>
<!-- Node7 -->
<g id="node7" class="node">
<title>Node7</title>
<g id="a_node7"><a xlink:href="util_8c.html" target="_top" xlink:title=" ">
<polygon fill="white" stroke="black" points="0,-56.5 0,-75.5 41,-75.5 41,-56.5 0,-56.5"/>
<text text-anchor="middle" x="20.5" y="-63.5" font-family="Helvetica,sans-Serif" font-size="10.00">util.c</text>
</a>
</g>
</g>
<!-- Node1&#45;&gt;Node7 -->
<g id="edge18" class="edge">
<title>Node1&#45;&gt;Node7</title>
<path fill="none" stroke="midnightblue" d="M91.76,-214.86C74.6,-179.25 37.1,-101.45 24.63,-75.57"/>
<polygon fill="midnightblue" stroke="midnightblue" points="88.7,-216.59 96.2,-224.08 95.01,-213.55 88.7,-216.59"/>
</g>
<!-- Node3 -->
<g id="node3" class="node">
<title>Node3</title>
<g id="a_node3"><a xlink:href="lcd_8h.html" target="_top" xlink:title="Library for LCD use.">
<polygon fill="white" stroke="black" points="97.5,-112.5 97.5,-131.5 137.5,-131.5 137.5,-112.5 97.5,-112.5"/>
<text text-anchor="middle" x="117.5" y="-119.5" font-family="Helvetica,sans-Serif" font-size="10.00">lcd.h</text>
</a>
</g>
</g>
<!-- Node2&#45;&gt;Node3 -->
<g id="edge2" class="edge">
<title>Node2&#45;&gt;Node3</title>
<path fill="none" stroke="midnightblue" d="M199.98,-163.86C179.77,-153.85 152.51,-140.35 134.97,-131.65"/>
<polygon fill="midnightblue" stroke="midnightblue" points="198.47,-167.02 208.99,-168.32 201.58,-160.75 198.47,-167.02"/>
</g>
<!-- Node5 -->
<g id="node5" class="node">
<title>Node5</title>
<g id="a_node5"><a xlink:href="os__core_8c.html" target="_top" xlink:title=" ">
<polygon fill="white" stroke="black" points="155.5,-56.5 155.5,-75.5 217.5,-75.5 217.5,-56.5 155.5,-56.5"/>
<text text-anchor="middle" x="186.5" y="-63.5" font-family="Helvetica,sans-Serif" font-size="10.00">os_core.c</text>
</a>
</g>
</g>
<!-- Node2&#45;&gt;Node5 -->
<g id="edge7" class="edge">
<title>Node2&#45;&gt;Node5</title>
<path fill="none" stroke="midnightblue" d="M219.52,-158.78C216.41,-150.61 212.73,-140.83 209.5,-132 202.18,-111.99 193.92,-88.38 189.57,-75.85"/>
<polygon fill="midnightblue" stroke="midnightblue" points="216.35,-160.3 223.19,-168.39 222.89,-157.8 216.35,-160.3"/>
</g>
<!-- Node2&#45;&gt;Node7 -->
<g id="edge17" class="edge">
<title>Node2&#45;&gt;Node7</title>
<path fill="none" stroke="midnightblue" d="M185.72,-168.78C157.12,-161.84 118.74,-150.09 88.5,-132 62.71,-116.58 38.86,-89.74 27.49,-75.87"/>
<polygon fill="midnightblue" stroke="midnightblue" points="185.25,-172.27 195.78,-171.13 186.84,-165.45 185.25,-172.27"/>
</g>
<!-- Node8 -->
<g id="node8" class="node">
<title>Node8</title>
<g id="a_node8"><a xlink:href="os__scheduler_8h.html" target="_top" xlink:title="Scheduling module for the OS.">
<polygon fill="white" stroke="black" points="219,-112.5 219,-131.5 308,-131.5 308,-112.5 219,-112.5"/>
<text text-anchor="middle" x="263.5" y="-119.5" font-family="Helvetica,sans-Serif" font-size="10.00">os_scheduler.h</text>
</a>
</g>
</g>
<!-- Node2&#45;&gt;Node8 -->
<g id="edge8" class="edge">
<title>Node2&#45;&gt;Node8</title>
<path fill="none" stroke="midnightblue" d="M238.45,-159.57C244.81,-150.27 252.37,-139.25 257.5,-131.75"/>
<polygon fill="midnightblue" stroke="midnightblue" points="235.37,-157.86 232.61,-168.08 241.15,-161.81 235.37,-157.86"/>
</g>
<!-- Node9 -->
<g id="node9" class="node">
<title>Node9</title>
<g id="a_node9"><a xlink:href="os__scheduling__strategies_8h.html" target="_top" xlink:title="Scheduling library for the OS.">
<polygon fill="white" stroke="black" points="273,-56.5 273,-75.5 422,-75.5 422,-56.5 273,-56.5"/>
<text text-anchor="middle" x="347.5" y="-63.5" font-family="Helvetica,sans-Serif" font-size="10.00">os_scheduling_strategies.h</text>
</a>
</g>
</g>
<!-- Node2&#45;&gt;Node9 -->
<g id="edge15" class="edge">
<title>Node2&#45;&gt;Node9</title>
<path fill="none" stroke="midnightblue" d="M264.12,-164.72C281.77,-157.44 302.04,-146.73 316.5,-132 332.61,-115.58 341.58,-89.19 345.35,-75.64"/>
<polygon fill="midnightblue" stroke="midnightblue" points="262.69,-161.52 254.64,-168.41 265.23,-168.04 262.69,-161.52"/>
</g>
<!-- Node10 -->
<g id="node10" class="node">
<title>Node10</title>
<g id="a_node10"><a xlink:href="os__scheduling__strategies_8c.html" target="_top" xlink:title=" ">
<polygon fill="white" stroke="black" points="408.5,-0.5 408.5,-19.5 556.5,-19.5 556.5,-0.5 408.5,-0.5"/>
<text text-anchor="middle" x="482.5" y="-7.5" font-family="Helvetica,sans-Serif" font-size="10.00">os_scheduling_strategies.c</text>
</a>
</g>
</g>
<!-- Node2&#45;&gt;Node10 -->
<g id="edge14" class="edge">
<title>Node2&#45;&gt;Node10</title>
<path fill="none" stroke="midnightblue" d="M267.15,-170.96C348.92,-157.89 528.58,-124.22 564.5,-76 583,-51.16 540.49,-30.58 510.02,-19.6"/>
<polygon fill="midnightblue" stroke="midnightblue" points="266.55,-167.51 257.21,-172.52 267.63,-174.43 266.55,-167.51"/>
</g>
<!-- Node11 -->
<g id="node11" class="node">
<title>Node11</title>
<g id="a_node11"><a xlink:href="os__user__privileges_8h.html" target="_top" xlink:title="User privileges specification used in part by the task manager.">
<polygon fill="white" stroke="black" points="439.5,-56.5 439.5,-75.5 555.5,-75.5 555.5,-56.5 439.5,-56.5"/>
<text text-anchor="middle" x="497.5" y="-63.5" font-family="Helvetica,sans-Serif" font-size="10.00">os_user_privileges.h</text>
</a>
</g>
</g>
<!-- Node2&#45;&gt;Node11 -->
<g id="edge16" class="edge">
<title>Node2&#45;&gt;Node11</title>
<path fill="none" stroke="midnightblue" d="M257.07,-164.61C279.37,-155.58 310.31,-143.03 337.5,-132 387.37,-111.76 445.97,-87.95 476.54,-75.52"/>
<polygon fill="midnightblue" stroke="midnightblue" points="255.73,-161.38 247.78,-168.38 258.36,-167.87 255.73,-161.38"/>
</g>
<!-- Node4 -->
<g id="node4" class="node">
<title>Node4</title>
<g id="a_node4"><a xlink:href="lcd_8c.html" target="_top" xlink:title="Library for LCD use.">
<polygon fill="white" stroke="black" points="98,-56.5 98,-75.5 137,-75.5 137,-56.5 98,-56.5"/>
<text text-anchor="middle" x="117.5" y="-63.5" font-family="Helvetica,sans-Serif" font-size="10.00">lcd.c</text>
</a>
</g>
</g>
<!-- Node3&#45;&gt;Node4 -->
<g id="edge3" class="edge">
<title>Node3&#45;&gt;Node4</title>
<path fill="none" stroke="midnightblue" d="M117.5,-101.8C117.5,-92.91 117.5,-82.78 117.5,-75.75"/>
<polygon fill="midnightblue" stroke="midnightblue" points="114,-102.08 117.5,-112.08 121,-102.08 114,-102.08"/>
</g>
<!-- Node3&#45;&gt;Node5 -->
<g id="edge4" class="edge">
<title>Node3&#45;&gt;Node5</title>
<path fill="none" stroke="midnightblue" d="M136.54,-106.1C148.96,-96.38 164.74,-84.03 175.21,-75.83"/>
<polygon fill="midnightblue" stroke="midnightblue" points="134.3,-103.4 128.59,-112.32 138.62,-108.92 134.3,-103.4"/>
</g>
<!-- Node6 -->
<g id="node6" class="node">
<title>Node6</title>
<g id="a_node6"><a xlink:href="os__scheduler_8c.html" target="_top" xlink:title="Scheduling module for the OS.">
<polygon fill="white" stroke="black" points="201.5,-0.5 201.5,-19.5 289.5,-19.5 289.5,-0.5 201.5,-0.5"/>
<text text-anchor="middle" x="245.5" y="-7.5" font-family="Helvetica,sans-Serif" font-size="10.00">os_scheduler.c</text>
</a>
</g>
</g>
<!-- Node3&#45;&gt;Node6 -->
<g id="edge5" class="edge">
<title>Node3&#45;&gt;Node6</title>
<path fill="none" stroke="midnightblue" d="M101.13,-104.61C89.33,-90.76 77.29,-70.87 88.5,-56 102.11,-37.94 159.71,-24.92 201.19,-17.66"/>
<polygon fill="midnightblue" stroke="midnightblue" points="98.9,-107.35 108.24,-112.35 104.05,-102.62 98.9,-107.35"/>
</g>
<!-- Node3&#45;&gt;Node7 -->
<g id="edge6" class="edge">
<title>Node3&#45;&gt;Node7</title>
<path fill="none" stroke="midnightblue" d="M93.16,-107.45C75.26,-97.48 51.45,-84.23 36.05,-75.65"/>
<polygon fill="midnightblue" stroke="midnightblue" points="91.48,-110.52 101.92,-112.32 94.88,-104.4 91.48,-110.52"/>
</g>
<!-- Node8&#45;&gt;Node6 -->
<g id="edge9" class="edge">
<title>Node8&#45;&gt;Node6</title>
<path fill="none" stroke="midnightblue" d="M260.45,-102.35C256.51,-78.25 249.8,-37.31 246.91,-19.59"/>
<polygon fill="midnightblue" stroke="midnightblue" points="257.02,-103.06 262.09,-112.37 263.93,-101.93 257.02,-103.06"/>
</g>
<!-- Node8&#45;&gt;Node9 -->
<g id="edge10" class="edge">
<title>Node8&#45;&gt;Node9</title>
<path fill="none" stroke="midnightblue" d="M285.43,-106.9C300.84,-97 320.95,-84.07 334.04,-75.65"/>
<polygon fill="midnightblue" stroke="midnightblue" points="283.52,-103.97 277,-112.32 287.3,-109.86 283.52,-103.97"/>
</g>
<!-- Node8&#45;&gt;Node11 -->
<g id="edge13" class="edge">
<title>Node8&#45;&gt;Node11</title>
<path fill="none" stroke="midnightblue" d="M310.5,-110.15C354.72,-99.95 420.02,-84.88 460.6,-75.52"/>
<polygon fill="midnightblue" stroke="midnightblue" points="309.53,-106.78 300.58,-112.44 311.11,-113.61 309.53,-106.78"/>
</g>
<!-- Node9&#45;&gt;Node6 -->
<g id="edge11" class="edge">
<title>Node9&#45;&gt;Node6</title>
<path fill="none" stroke="midnightblue" d="M322.17,-51.59C303.31,-41.61 278.12,-28.27 261.85,-19.65"/>
<polygon fill="midnightblue" stroke="midnightblue" points="320.64,-54.74 331.11,-56.32 323.91,-48.55 320.64,-54.74"/>
</g>
<!-- Node9&#45;&gt;Node10 -->
<g id="edge12" class="edge">
<title>Node9&#45;&gt;Node10</title>
<path fill="none" stroke="midnightblue" d="M378.41,-52.64C403.74,-42.5 438.93,-28.43 461.21,-19.52"/>
<polygon fill="midnightblue" stroke="midnightblue" points="376.88,-49.48 368.89,-56.44 379.48,-55.98 376.88,-49.48"/>
</g>
</g>
</svg>
