<?xml version="1.0" encoding="UTF-8" standalone="no"?>
<!DOCTYPE svg PUBLIC "-//W3C//DTD SVG 1.1//EN"
 "http://www.w3.org/Graphics/SVG/1.1/DTD/svg11.dtd">
<!-- Generated by graphviz version 2.43.0 (0)
 -->
<!-- Title: defines.h Pages: 1 -->
<svg width="578pt" height="196pt"
 viewBox="0.00 0.00 577.54 196.00" xmlns="http://www.w3.org/2000/svg" xmlns:xlink="http://www.w3.org/1999/xlink">
<g id="graph0" class="graph" transform="scale(1 1) rotate(0) translate(4 192)">
<title>defines.h</title>
<polygon fill="white" stroke="transparent" points="-4,4 -4,-192 573.54,-192 573.54,4 -4,4"/>
<!-- Node1 -->
<g id="node1" class="node">
<title>Node1</title>
<g id="a_node1"><a xlink:title="Simple definitions and assembler&#45;macros, mostly 8/16&#45;Bit values.">
<polygon fill="#bfbfbf" stroke="black" points="244.5,-168.5 244.5,-187.5 305.5,-187.5 305.5,-168.5 244.5,-168.5"/>
<text text-anchor="middle" x="275" y="-175.5" font-family="Helvetica,sans-Serif" font-size="10.00">defines.h</text>
</a>
</g>
</g>
<!-- Node2 -->
<g id="node2" class="node">
<title>Node2</title>
<g id="a_node2"><a xlink:href="lcd_8h.html" target="_top" xlink:title="Library for LCD use.">
<polygon fill="white" stroke="black" points="128,-112.5 128,-131.5 168,-131.5 168,-112.5 128,-112.5"/>
<text text-anchor="middle" x="148" y="-119.5" font-family="Helvetica,sans-Serif" font-size="10.00">lcd.h</text>
</a>
</g>
</g>
<!-- Node1&#45;&gt;Node2 -->
<g id="edge1" class="edge">
<title>Node1&#45;&gt;Node2</title>
<path fill="none" stroke="midnightblue" d="M245.61,-164.5C221.8,-154.38 188.89,-140.39 168.03,-131.52"/>
<polygon fill="midnightblue" stroke="midnightblue" points="244.3,-167.75 254.88,-168.44 247.04,-161.31 244.3,-167.75"/>
</g>
<!-- Node4 -->
<g id="node4" class="node">
<title>Node4</title>
<g id="a_node4"><a xlink:href="os__core_8c.html" target="_top" xlink:title=" ">
<polygon fill="white" stroke="black" points="0,-56.5 0,-75.5 62,-75.5 62,-56.5 0,-56.5"/>
<text text-anchor="middle" x="31" y="-63.5" font-family="Helvetica,sans-Serif" font-size="10.00">os_core.c</text>
</a>
</g>
</g>
<!-- Node1&#45;&gt;Node4 -->
<g id="edge6" class="edge">
<title>Node1&#45;&gt;Node4</title>
<path fill="none" stroke="midnightblue" d="M234.2,-169.39C201.85,-162.39 156.06,-150.29 119,-132 87.66,-116.53 55.91,-89.72 40.53,-75.86"/>
<polygon fill="midnightblue" stroke="midnightblue" points="233.7,-172.87 244.21,-171.49 235.14,-166.01 233.7,-172.87"/>
</g>
<!-- Node6 -->
<g id="node6" class="node">
<title>Node6</title>
<g id="a_node6"><a xlink:href="util_8c.html" target="_top" xlink:title=" ">
<polygon fill="white" stroke="black" points="176.5,-56.5 176.5,-75.5 217.5,-75.5 217.5,-56.5 176.5,-56.5"/>
<text text-anchor="middle" x="197" y="-63.5" font-family="Helvetica,sans-Serif" font-size="10.00">util.c</text>
</a>
</g>
</g>
<!-- Node1&#45;&gt;Node6 -->
<g id="edge16" class="edge">
<title>Node1&#45;&gt;Node6</title>
<path fill="none" stroke="midnightblue" d="M252.61,-162.51C241.83,-154.59 229.44,-143.96 221,-132 208.37,-114.12 201.57,-88.81 198.69,-75.67"/>
<polygon fill="midnightblue" stroke="midnightblue" points="250.61,-165.38 260.8,-168.26 254.62,-159.65 250.61,-165.38"/>
</g>
<!-- Node7 -->
<g id="node7" class="node">
<title>Node7</title>
<g id="a_node7"><a xlink:href="os__scheduler_8h.html" target="_top" xlink:title="Scheduling module for the OS.">
<polygon fill="white" stroke="black" points="230.5,-112.5 230.5,-131.5 319.5,-131.5 319.5,-112.5 230.5,-112.5"/>
<text text-anchor="middle" x="275" y="-119.5" font-family="Helvetica,sans-Serif" font-size="10.00">os_scheduler.h</text>
</a>
</g>
</g>
<!-- Node1&#45;&gt;Node7 -->
<g id="edge7" class="edge">
<title>Node1&#45;&gt;Node7</title>
<path fill="none" stroke="midnightblue" d="M275,-157.8C275,-148.91 275,-138.78 275,-131.75"/>
<polygon fill="midnightblue" stroke="midnightblue" points="271.5,-158.08 275,-168.08 278.5,-158.08 271.5,-158.08"/>
</g>
<!-- Node8 -->
<g id="node8" class="node">
<title>Node8</title>
<g id="a_node8"><a xlink:href="os__scheduling__strategies_8h.html" target="_top" xlink:title="Scheduling library for the OS.">
<polygon fill="white" stroke="black" points="273.5,-56.5 273.5,-75.5 422.5,-75.5 422.5,-56.5 273.5,-56.5"/>
<text text-anchor="middle" x="348" y="-63.5" font-family="Helvetica,sans-Serif" font-size="10.00">os_scheduling_strategies.h</text>
</a>
</g>
</g>
<!-- Node1&#45;&gt;Node8 -->
<g id="edge14" class="edge">
<title>Node1&#45;&gt;Node8</title>
<path fill="none" stroke="midnightblue" d="M297.57,-162.39C308.14,-154.52 320.11,-143.97 328,-132 339.82,-114.06 344.94,-88.77 346.92,-75.66"/>
<polygon fill="midnightblue" stroke="midnightblue" points="295.29,-159.71 289.14,-168.34 299.32,-165.43 295.29,-159.71"/>
</g>
<!-- Node9 -->
<g id="node9" class="node">
<title>Node9</title>
<g id="a_node9"><a xlink:href="os__scheduling__strategies_8c.html" target="_top" xlink:title=" ">
<polygon fill="white" stroke="black" points="409,-0.5 409,-19.5 557,-19.5 557,-0.5 409,-0.5"/>
<text text-anchor="middle" x="483" y="-7.5" font-family="Helvetica,sans-Serif" font-size="10.00">os_scheduling_strategies.c</text>
</a>
</g>
</g>
<!-- Node1&#45;&gt;Node9 -->
<g id="edge13" class="edge">
<title>Node1&#45;&gt;Node9</title>
<path fill="none" stroke="midnightblue" d="M316.16,-176.56C381.6,-173.38 507.81,-156.48 565,-76 582.89,-50.83 540.86,-30.42 510.6,-19.56"/>
<polygon fill="midnightblue" stroke="midnightblue" points="315.67,-173.08 305.82,-176.98 315.95,-180.08 315.67,-173.08"/>
</g>
<!-- Node10 -->
<g id="node10" class="node">
<title>Node10</title>
<g id="a_node10"><a xlink:href="os__user__privileges_8h.html" target="_top" xlink:title="User privileges specification used in part by the task manager.">
<polygon fill="white" stroke="black" points="440,-56.5 440,-75.5 556,-75.5 556,-56.5 440,-56.5"/>
<text text-anchor="middle" x="498" y="-63.5" font-family="Helvetica,sans-Serif" font-size="10.00">os_user_privileges.h</text>
</a>
</g>
</g>
<!-- Node1&#45;&gt;Node10 -->
<g id="edge15" class="edge">
<title>Node1&#45;&gt;Node10</title>
<path fill="none" stroke="midnightblue" d="M301.6,-163.88C347.82,-141.08 441.74,-94.75 480.58,-75.59"/>
<polygon fill="midnightblue" stroke="midnightblue" points="299.92,-160.81 292.5,-168.37 303.02,-167.08 299.92,-160.81"/>
</g>
<!-- Node3 -->
<g id="node3" class="node">
<title>Node3</title>
<g id="a_node3"><a xlink:href="lcd_8c.html" target="_top" xlink:title="Library for LCD use.">
<polygon fill="white" stroke="black" points="80.5,-56.5 80.5,-75.5 119.5,-75.5 119.5,-56.5 80.5,-56.5"/>
<text text-anchor="middle" x="100" y="-63.5" font-family="Helvetica,sans-Serif" font-size="10.00">lcd.c</text>
</a>
</g>
</g>
<!-- Node2&#45;&gt;Node3 -->
<g id="edge2" class="edge">
<title>Node2&#45;&gt;Node3</title>
<path fill="none" stroke="midnightblue" d="M133.27,-104.43C124.86,-94.97 114.65,-83.48 107.78,-75.75"/>
<polygon fill="midnightblue" stroke="midnightblue" points="130.81,-106.93 140.07,-112.08 136.05,-102.28 130.81,-106.93"/>
</g>
<!-- Node2&#45;&gt;Node4 -->
<g id="edge3" class="edge">
<title>Node2&#45;&gt;Node4</title>
<path fill="none" stroke="midnightblue" d="M120.34,-108.23C98.45,-98.13 68.5,-84.31 49.45,-75.52"/>
<polygon fill="midnightblue" stroke="midnightblue" points="118.91,-111.43 129.46,-112.44 121.85,-105.08 118.91,-111.43"/>
</g>
<!-- Node5 -->
<g id="node5" class="node">
<title>Node5</title>
<g id="a_node5"><a xlink:href="os__scheduler_8c.html" target="_top" xlink:title="Scheduling module for the OS.">
<polygon fill="white" stroke="black" points="202,-0.5 202,-19.5 290,-19.5 290,-0.5 202,-0.5"/>
<text text-anchor="middle" x="246" y="-7.5" font-family="Helvetica,sans-Serif" font-size="10.00">os_scheduler.c</text>
</a>
</g>
</g>
<!-- Node2&#45;&gt;Node5 -->
<g id="edge4" class="edge">
<title>Node2&#45;&gt;Node5</title>
<path fill="none" stroke="midnightblue" d="M149.65,-102.54C151.73,-88.5 156.42,-69.39 167,-56 180.8,-38.54 203.36,-26.66 220.85,-19.51"/>
<polygon fill="midnightblue" stroke="midnightblue" points="146.17,-102.16 148.48,-112.5 153.12,-102.97 146.17,-102.16"/>
</g>
<!-- Node2&#45;&gt;Node6 -->
<g id="edge5" class="edge">
<title>Node2&#45;&gt;Node6</title>
<path fill="none" stroke="midnightblue" d="M163.03,-104.43C171.62,-94.97 182.04,-83.48 189.06,-75.75"/>
<polygon fill="midnightblue" stroke="midnightblue" points="160.22,-102.33 156.09,-112.08 165.4,-107.03 160.22,-102.33"/>
</g>
<!-- Node7&#45;&gt;Node5 -->
<g id="edge8" class="edge">
<title>Node7&#45;&gt;Node5</title>
<path fill="none" stroke="midnightblue" d="M270.17,-102.67C263.83,-78.62 252.96,-37.39 248.27,-19.59"/>
<polygon fill="midnightblue" stroke="midnightblue" points="266.79,-103.59 272.72,-112.37 273.56,-101.81 266.79,-103.59"/>
</g>
<!-- Node7&#45;&gt;Node8 -->
<g id="edge9" class="edge">
<title>Node7&#45;&gt;Node8</title>
<path fill="none" stroke="midnightblue" d="M295.14,-106.1C308.28,-96.38 324.98,-84.03 336.06,-75.83"/>
<polygon fill="midnightblue" stroke="midnightblue" points="292.69,-103.56 286.73,-112.32 296.85,-109.19 292.69,-103.56"/>
</g>
<!-- Node7&#45;&gt;Node10 -->
<g id="edge12" class="edge">
<title>Node7&#45;&gt;Node10</title>
<path fill="none" stroke="midnightblue" d="M320.06,-110.09C362.19,-99.89 424.24,-84.86 462.83,-75.52"/>
<polygon fill="midnightblue" stroke="midnightblue" points="319.23,-106.69 310.34,-112.44 320.88,-113.49 319.23,-106.69"/>
</g>
<!-- Node8&#45;&gt;Node5 -->
<g id="edge10" class="edge">
<title>Node8&#45;&gt;Node5</title>
<path fill="none" stroke="midnightblue" d="M322.67,-51.59C303.81,-41.61 278.62,-28.27 262.35,-19.65"/>
<polygon fill="midnightblue" stroke="midnightblue" points="321.14,-54.74 331.61,-56.32 324.41,-48.55 321.14,-54.74"/>
</g>
<!-- Node8&#45;&gt;Node9 -->
<g id="edge11" class="edge">
<title>Node8&#45;&gt;Node9</title>
<path fill="none" stroke="midnightblue" d="M378.91,-52.64C404.24,-42.5 439.43,-28.43 461.71,-19.52"/>
<polygon fill="midnightblue" stroke="midnightblue" points="377.38,-49.48 369.39,-56.44 379.98,-55.98 377.38,-49.48"/>
</g>
</g>
</svg>
