<?xml version="1.0" encoding="UTF-8" standalone="no"?>
<!DOCTYPE svg PUBLIC "-//W3C//DTD SVG 1.1//EN"
 "http://www.w3.org/Graphics/SVG/1.1/DTD/svg11.dtd">
<!-- Generated by graphviz version 2.43.0 (0)
 -->
<!-- Title: os_scheduler.c Pages: 1 -->
<svg width="605pt" height="308pt"
 viewBox="0.00 0.00 604.59 308.00" xmlns="http://www.w3.org/2000/svg" xmlns:xlink="http://www.w3.org/1999/xlink">
<g id="graph0" class="graph" transform="scale(1 1) rotate(0) translate(4 304)">
<title>os_scheduler.c</title>
<polygon fill="white" stroke="transparent" points="-4,4 -4,-304 600.59,-304 600.59,4 -4,4"/>
<!-- Node1 -->
<g id="node1" class="node">
<title>Node1</title>
<g id="a_node1"><a xlink:title="Scheduling module for the OS.">
<polygon fill="#bfbfbf" stroke="black" points="297.09,-280.5 297.09,-299.5 385.09,-299.5 385.09,-280.5 297.09,-280.5"/>
<text text-anchor="middle" x="341.09" y="-287.5" font-family="Helvetica,sans-Serif" font-size="10.00">os_scheduler.c</text>
</a>
</g>
</g>
<!-- Node2 -->
<g id="node2" class="node">
<title>Node2</title>
<g id="a_node2"><a xlink:href="os__scheduler_8h.html" target="_top" xlink:title="Scheduling module for the OS.">
<polygon fill="white" stroke="black" points="97.59,-168.5 97.59,-187.5 186.59,-187.5 186.59,-168.5 97.59,-168.5"/>
<text text-anchor="middle" x="142.09" y="-175.5" font-family="Helvetica,sans-Serif" font-size="10.00">os_scheduler.h</text>
</a>
</g>
</g>
<!-- Node1&#45;&gt;Node2 -->
<g id="edge1" class="edge">
<title>Node1&#45;&gt;Node2</title>
<path fill="none" stroke="midnightblue" d="M296.97,-283.69C248.64,-276.98 175.41,-263.83 156.09,-244 144.4,-231.99 141.47,-212.7 141.12,-198.24"/>
<polygon fill="midnightblue" stroke="midnightblue" points="144.62,-197.97 141.27,-187.92 137.62,-197.87 144.62,-197.97"/>
</g>
<!-- Node7 -->
<g id="node7" class="node">
<title>Node7</title>
<g id="a_node7"><a xlink:title=" ">
<polygon fill="white" stroke="#bfbfbf" points="65.09,-56.5 65.09,-75.5 127.09,-75.5 127.09,-56.5 65.09,-56.5"/>
<text text-anchor="middle" x="96.09" y="-63.5" font-family="Helvetica,sans-Serif" font-size="10.00">stdbool.h</text>
</a>
</g>
</g>
<!-- Node1&#45;&gt;Node7 -->
<g id="edge30" class="edge">
<title>Node1&#45;&gt;Node7</title>
<path fill="none" stroke="midnightblue" d="M297.09,-289.74C216.54,-290.06 50.29,-285.52 14.09,-244 -29.79,-193.66 42.58,-115.85 78.15,-82.76"/>
<polygon fill="midnightblue" stroke="midnightblue" points="80.87,-85.02 85.92,-75.7 76.16,-79.84 80.87,-85.02"/>
</g>
<!-- Node9 -->
<g id="node9" class="node">
<title>Node9</title>
<g id="a_node9"><a xlink:href="lcd_8h.html" target="_top" xlink:title="Library for LCD use.">
<polygon fill="white" stroke="black" points="369.09,-168.5 369.09,-187.5 409.09,-187.5 409.09,-168.5 369.09,-168.5"/>
<text text-anchor="middle" x="389.09" y="-175.5" font-family="Helvetica,sans-Serif" font-size="10.00">lcd.h</text>
</a>
</g>
</g>
<!-- Node1&#45;&gt;Node9 -->
<g id="edge9" class="edge">
<title>Node1&#45;&gt;Node9</title>
<path fill="none" stroke="midnightblue" d="M344.86,-280.37C352.67,-262.46 370.8,-220.92 381.26,-196.95"/>
<polygon fill="midnightblue" stroke="midnightblue" points="384.55,-198.16 385.34,-187.59 378.14,-195.36 384.55,-198.16"/>
</g>
<!-- Node12 -->
<g id="node12" class="node">
<title>Node12</title>
<g id="a_node12"><a xlink:href="util_8h.html" target="_top" xlink:title="Little helpers that don&#39;t fit elsewhere.">
<polygon fill="white" stroke="black" points="318.59,-112.5 318.59,-131.5 359.59,-131.5 359.59,-112.5 318.59,-112.5"/>
<text text-anchor="middle" x="339.09" y="-119.5" font-family="Helvetica,sans-Serif" font-size="10.00">util.h</text>
</a>
</g>
</g>
<!-- Node1&#45;&gt;Node12 -->
<g id="edge28" class="edge">
<title>Node1&#45;&gt;Node12</title>
<path fill="none" stroke="midnightblue" d="M340.98,-280.08C340.67,-253.95 339.74,-177.21 339.32,-141.58"/>
<polygon fill="midnightblue" stroke="midnightblue" points="342.82,-141.53 339.19,-131.57 335.82,-141.61 342.82,-141.53"/>
</g>
<!-- Node13 -->
<g id="node13" class="node">
<title>Node13</title>
<g id="a_node13"><a xlink:href="os__core_8h.html" target="_top" xlink:title="Core of the OS.">
<polygon fill="white" stroke="black" points="533.59,-168.5 533.59,-187.5 596.59,-187.5 596.59,-168.5 533.59,-168.5"/>
<text text-anchor="middle" x="565.09" y="-175.5" font-family="Helvetica,sans-Serif" font-size="10.00">os_core.h</text>
</a>
</g>
</g>
<!-- Node1&#45;&gt;Node13 -->
<g id="edge19" class="edge">
<title>Node1&#45;&gt;Node13</title>
<path fill="none" stroke="midnightblue" d="M358.67,-280.37C397.76,-261.17 492.1,-214.84 538.47,-192.07"/>
<polygon fill="midnightblue" stroke="midnightblue" points="540.16,-195.14 547.6,-187.59 537.08,-188.86 540.16,-195.14"/>
</g>
<!-- Node14 -->
<g id="node14" class="node">
<title>Node14</title>
<g id="a_node14"><a xlink:href="os__input_8h.html" target="_top" xlink:title="Input library for the OS.">
<polygon fill="white" stroke="black" points="441.59,-168.5 441.59,-187.5 508.59,-187.5 508.59,-168.5 441.59,-168.5"/>
<text text-anchor="middle" x="475.09" y="-175.5" font-family="Helvetica,sans-Serif" font-size="10.00">os_input.h</text>
</a>
</g>
</g>
<!-- Node1&#45;&gt;Node14 -->
<g id="edge21" class="edge">
<title>Node1&#45;&gt;Node14</title>
<path fill="none" stroke="midnightblue" d="M351.61,-280.37C374.31,-261.73 428.15,-217.53 456.66,-194.13"/>
<polygon fill="midnightblue" stroke="midnightblue" points="459.12,-196.64 464.63,-187.59 454.68,-191.23 459.12,-196.64"/>
</g>
<!-- Node15 -->
<g id="node15" class="node">
<title>Node15</title>
<g id="a_node15"><a xlink:href="os__scheduling__strategies_8h.html" target="_top" xlink:title="Scheduling library for the OS.">
<polygon fill="white" stroke="black" points="164.59,-224.5 164.59,-243.5 313.59,-243.5 313.59,-224.5 164.59,-224.5"/>
<text text-anchor="middle" x="239.09" y="-231.5" font-family="Helvetica,sans-Serif" font-size="10.00">os_scheduling_strategies.h</text>
</a>
</g>
</g>
<!-- Node1&#45;&gt;Node15 -->
<g id="edge23" class="edge">
<title>Node1&#45;&gt;Node15</title>
<path fill="none" stroke="midnightblue" d="M324.7,-280.32C308.42,-271.7 283.22,-258.36 264.38,-248.39"/>
<polygon fill="midnightblue" stroke="midnightblue" points="265.91,-245.24 255.44,-243.65 262.64,-251.43 265.91,-245.24"/>
</g>
<!-- Node16 -->
<g id="node16" class="node">
<title>Node16</title>
<g id="a_node16"><a xlink:href="os__taskman_8h.html" target="_top" xlink:title="TaskManager library for the OS.">
<polygon fill="white" stroke="black" points="23.59,-224.5 23.59,-243.5 108.59,-243.5 108.59,-224.5 23.59,-224.5"/>
<text text-anchor="middle" x="66.09" y="-231.5" font-family="Helvetica,sans-Serif" font-size="10.00">os_taskman.h</text>
</a>
</g>
</g>
<!-- Node1&#45;&gt;Node16 -->
<g id="edge26" class="edge">
<title>Node1&#45;&gt;Node16</title>
<path fill="none" stroke="midnightblue" d="M297.52,-280.44C249.1,-270.94 170.92,-255.58 119.02,-245.39"/>
<polygon fill="midnightblue" stroke="midnightblue" points="119.5,-241.92 109.01,-243.43 118.15,-248.79 119.5,-241.92"/>
</g>
<!-- Node17 -->
<g id="node17" class="node">
<title>Node17</title>
<g id="a_node17"><a xlink:title=" ">
<polygon fill="white" stroke="#bfbfbf" points="483.09,-224.5 483.09,-243.5 569.09,-243.5 569.09,-224.5 483.09,-224.5"/>
<text text-anchor="middle" x="526.09" y="-231.5" font-family="Helvetica,sans-Serif" font-size="10.00">avr/interrupt.h</text>
</a>
</g>
</g>
<!-- Node1&#45;&gt;Node17 -->
<g id="edge29" class="edge">
<title>Node1&#45;&gt;Node17</title>
<path fill="none" stroke="midnightblue" d="M370.41,-280.44C401.93,-271.24 452.22,-256.56 487.08,-246.39"/>
<polygon fill="midnightblue" stroke="midnightblue" points="488.3,-249.68 496.91,-243.52 486.33,-242.96 488.3,-249.68"/>
</g>
<!-- Node3 -->
<g id="node3" class="node">
<title>Node3</title>
<g id="a_node3"><a xlink:href="defines_8h.html" target="_top" xlink:title="Simple definitions and assembler&#45;macros, mostly 8/16&#45;Bit values.">
<polygon fill="white" stroke="black" points="200.59,-112.5 200.59,-131.5 261.59,-131.5 261.59,-112.5 200.59,-112.5"/>
<text text-anchor="middle" x="231.09" y="-119.5" font-family="Helvetica,sans-Serif" font-size="10.00">defines.h</text>
</a>
</g>
</g>
<!-- Node2&#45;&gt;Node3 -->
<g id="edge2" class="edge">
<title>Node2&#45;&gt;Node3</title>
<path fill="none" stroke="midnightblue" d="M156.39,-168.32C170.27,-159.9 191.58,-146.97 207.9,-137.07"/>
<polygon fill="midnightblue" stroke="midnightblue" points="210.09,-139.83 216.83,-131.65 206.46,-133.85 210.09,-139.83"/>
</g>
<!-- Node6 -->
<g id="node6" class="node">
<title>Node6</title>
<g id="a_node6"><a xlink:href="os__process_8h.html" target="_top" xlink:title="Struct specifying a process.">
<polygon fill="white" stroke="black" points="102.09,-112.5 102.09,-131.5 182.09,-131.5 182.09,-112.5 102.09,-112.5"/>
<text text-anchor="middle" x="142.09" y="-119.5" font-family="Helvetica,sans-Serif" font-size="10.00">os_process.h</text>
</a>
</g>
</g>
<!-- Node2&#45;&gt;Node6 -->
<g id="edge5" class="edge">
<title>Node2&#45;&gt;Node6</title>
<path fill="none" stroke="midnightblue" d="M142.09,-168.08C142.09,-161.01 142.09,-150.86 142.09,-141.99"/>
<polygon fill="midnightblue" stroke="midnightblue" points="145.59,-141.75 142.09,-131.75 138.59,-141.75 145.59,-141.75"/>
</g>
<!-- Node2&#45;&gt;Node7 -->
<g id="edge8" class="edge">
<title>Node2&#45;&gt;Node7</title>
<path fill="none" stroke="midnightblue" d="M127.43,-168.4C115.69,-160.58 100.06,-147.86 93.09,-132 86.7,-117.46 88.24,-99.28 90.92,-85.84"/>
<polygon fill="midnightblue" stroke="midnightblue" points="94.38,-86.4 93.29,-75.86 87.57,-84.78 94.38,-86.4"/>
</g>
<!-- Node4 -->
<g id="node4" class="node">
<title>Node4</title>
<g id="a_node4"><a xlink:href="atmega644constants_8h.html" target="_top" xlink:title="Constants for ATMega644 and EVA board. Defines several useful constants for the ATMega644.">
<polygon fill="white" stroke="black" points="167.09,-56.5 167.09,-75.5 295.09,-75.5 295.09,-56.5 167.09,-56.5"/>
<text text-anchor="middle" x="231.09" y="-63.5" font-family="Helvetica,sans-Serif" font-size="10.00">atmega644constants.h</text>
</a>
</g>
</g>
<!-- Node3&#45;&gt;Node4 -->
<g id="edge3" class="edge">
<title>Node3&#45;&gt;Node4</title>
<path fill="none" stroke="midnightblue" d="M231.09,-112.08C231.09,-105.01 231.09,-94.86 231.09,-85.99"/>
<polygon fill="midnightblue" stroke="midnightblue" points="234.59,-85.75 231.09,-75.75 227.59,-85.75 234.59,-85.75"/>
</g>
<!-- Node5 -->
<g id="node5" class="node">
<title>Node5</title>
<g id="a_node5"><a xlink:title=" ">
<polygon fill="white" stroke="#bfbfbf" points="204.59,-0.5 204.59,-19.5 257.59,-19.5 257.59,-0.5 204.59,-0.5"/>
<text text-anchor="middle" x="231.09" y="-7.5" font-family="Helvetica,sans-Serif" font-size="10.00">avr/io.h</text>
</a>
</g>
</g>
<!-- Node4&#45;&gt;Node5 -->
<g id="edge4" class="edge">
<title>Node4&#45;&gt;Node5</title>
<path fill="none" stroke="midnightblue" d="M231.09,-56.08C231.09,-49.01 231.09,-38.86 231.09,-29.99"/>
<polygon fill="midnightblue" stroke="midnightblue" points="234.59,-29.75 231.09,-19.75 227.59,-29.75 234.59,-29.75"/>
</g>
<!-- Node6&#45;&gt;Node7 -->
<g id="edge6" class="edge">
<title>Node6&#45;&gt;Node7</title>
<path fill="none" stroke="midnightblue" d="M134.5,-112.08C127.86,-104.3 118.07,-92.8 110.03,-83.37"/>
<polygon fill="midnightblue" stroke="midnightblue" points="112.7,-81.09 103.55,-75.75 107.37,-85.63 112.7,-81.09"/>
</g>
<!-- Node8 -->
<g id="node8" class="node">
<title>Node8</title>
<g id="a_node8"><a xlink:title=" ">
<polygon fill="white" stroke="#bfbfbf" points="363.59,-56.5 363.59,-75.5 416.59,-75.5 416.59,-56.5 363.59,-56.5"/>
<text text-anchor="middle" x="390.09" y="-63.5" font-family="Helvetica,sans-Serif" font-size="10.00">stdint.h</text>
</a>
</g>
</g>
<!-- Node6&#45;&gt;Node8 -->
<g id="edge7" class="edge">
<title>Node6&#45;&gt;Node8</title>
<path fill="none" stroke="midnightblue" d="M181.39,-112.44C228.75,-102.13 307.69,-84.94 353.71,-74.92"/>
<polygon fill="midnightblue" stroke="midnightblue" points="354.53,-78.32 363.56,-72.78 353.05,-71.48 354.53,-78.32"/>
</g>
<!-- Node9&#45;&gt;Node3 -->
<g id="edge14" class="edge">
<title>Node9&#45;&gt;Node3</title>
<path fill="none" stroke="midnightblue" d="M369.08,-170.16C343.16,-161.3 297.54,-145.71 265.88,-134.89"/>
<polygon fill="midnightblue" stroke="midnightblue" points="266.74,-131.48 256.14,-131.56 264.47,-138.11 266.74,-131.48"/>
</g>
<!-- Node9&#45;&gt;Node7 -->
<g id="edge11" class="edge">
<title>Node9&#45;&gt;Node7</title>
<path fill="none" stroke="midnightblue" d="M373.99,-168.4C344.61,-151.72 281.69,-116.2 271.09,-112 226.77,-94.42 173.39,-81.85 137.33,-74.54"/>
<polygon fill="midnightblue" stroke="midnightblue" points="137.67,-71.04 127.18,-72.53 136.31,-77.91 137.67,-71.04"/>
</g>
<!-- Node9&#45;&gt;Node8 -->
<g id="edge12" class="edge">
<title>Node9&#45;&gt;Node8</title>
<path fill="none" stroke="midnightblue" d="M403.46,-168.33C414.97,-160.47 430.28,-147.72 437.09,-132 445.27,-113.13 428.37,-94.41 412.61,-81.93"/>
<polygon fill="midnightblue" stroke="midnightblue" points="414.27,-78.8 404.14,-75.69 410.11,-84.44 414.27,-78.8"/>
</g>
<!-- Node10 -->
<g id="node10" class="node">
<title>Node10</title>
<g id="a_node10"><a xlink:title=" ">
<polygon fill="white" stroke="#bfbfbf" points="484.59,-56.5 484.59,-75.5 579.59,-75.5 579.59,-56.5 484.59,-56.5"/>
<text text-anchor="middle" x="532.09" y="-63.5" font-family="Helvetica,sans-Serif" font-size="10.00">avr/pgmspace.h</text>
</a>
</g>
</g>
<!-- Node9&#45;&gt;Node10 -->
<g id="edge10" class="edge">
<title>Node9&#45;&gt;Node10</title>
<path fill="none" stroke="midnightblue" d="M401.81,-168.26C414.65,-159.36 434.99,-145.04 452.09,-132 473.71,-115.52 497.83,-95.72 513.88,-82.34"/>
<polygon fill="midnightblue" stroke="midnightblue" points="516.48,-84.73 521.9,-75.62 511.98,-79.36 516.48,-84.73"/>
</g>
<!-- Node11 -->
<g id="node11" class="node">
<title>Node11</title>
<g id="a_node11"><a xlink:title=" ">
<polygon fill="white" stroke="#bfbfbf" points="378.09,-112.5 378.09,-131.5 428.09,-131.5 428.09,-112.5 378.09,-112.5"/>
<text text-anchor="middle" x="403.09" y="-119.5" font-family="Helvetica,sans-Serif" font-size="10.00">stdio.h</text>
</a>
</g>
</g>
<!-- Node9&#45;&gt;Node11 -->
<g id="edge13" class="edge">
<title>Node9&#45;&gt;Node11</title>
<path fill="none" stroke="midnightblue" d="M391.4,-168.08C393.26,-160.93 395.93,-150.64 398.25,-141.69"/>
<polygon fill="midnightblue" stroke="midnightblue" points="401.7,-142.31 400.82,-131.75 394.93,-140.55 401.7,-142.31"/>
</g>
<!-- Node9&#45;&gt;Node12 -->
<g id="edge15" class="edge">
<title>Node9&#45;&gt;Node12</title>
<path fill="none" stroke="midnightblue" d="M380.84,-168.08C373.63,-160.3 362.98,-148.8 354.25,-139.37"/>
<polygon fill="midnightblue" stroke="midnightblue" points="356.56,-136.71 347.19,-131.75 351.42,-141.47 356.56,-136.71"/>
</g>
<!-- Node12&#45;&gt;Node7 -->
<g id="edge17" class="edge">
<title>Node12&#45;&gt;Node7</title>
<path fill="none" stroke="midnightblue" d="M318.4,-115.54C313.7,-114.34 308.73,-113.1 304.09,-112 246.3,-98.32 179.07,-84.08 137.05,-75.37"/>
<polygon fill="midnightblue" stroke="midnightblue" points="137.69,-71.93 127.19,-73.34 136.27,-78.79 137.69,-71.93"/>
</g>
<!-- Node12&#45;&gt;Node8 -->
<g id="edge18" class="edge">
<title>Node12&#45;&gt;Node8</title>
<path fill="none" stroke="midnightblue" d="M347.51,-112.08C354.94,-104.22 365.94,-92.57 374.9,-83.08"/>
<polygon fill="midnightblue" stroke="midnightblue" points="377.5,-85.42 381.83,-75.75 372.42,-80.62 377.5,-85.42"/>
</g>
<!-- Node12&#45;&gt;Node10 -->
<g id="edge16" class="edge">
<title>Node12&#45;&gt;Node10</title>
<path fill="none" stroke="midnightblue" d="M359.73,-114.74C362.86,-113.81 366.06,-112.87 369.09,-112 410.38,-100.11 457.74,-87.11 490.73,-78.15"/>
<polygon fill="midnightblue" stroke="midnightblue" points="491.74,-81.5 500.48,-75.5 489.91,-74.74 491.74,-81.5"/>
</g>
<!-- Node13&#45;&gt;Node10 -->
<g id="edge20" class="edge">
<title>Node13&#45;&gt;Node10</title>
<path fill="none" stroke="midnightblue" d="M562.56,-168.15C558.96,-155.63 552.14,-132.04 546.09,-112 543.43,-103.18 540.4,-93.41 537.84,-85.23"/>
<polygon fill="midnightblue" stroke="midnightblue" points="541.16,-84.1 534.82,-75.61 534.48,-86.2 541.16,-84.1"/>
</g>
<!-- Node14&#45;&gt;Node8 -->
<g id="edge22" class="edge">
<title>Node14&#45;&gt;Node8</title>
<path fill="none" stroke="midnightblue" d="M473.71,-168.22C471.25,-154.94 465.13,-129.45 452.09,-112 442.48,-99.14 428.15,-88.4 415.69,-80.64"/>
<polygon fill="midnightblue" stroke="midnightblue" points="417.43,-77.61 407.04,-75.54 413.87,-83.63 417.43,-77.61"/>
</g>
<!-- Node15&#45;&gt;Node2 -->
<g id="edge25" class="edge">
<title>Node15&#45;&gt;Node2</title>
<path fill="none" stroke="midnightblue" d="M223.51,-224.32C208.09,-215.74 184.28,-202.49 166.38,-192.52"/>
<polygon fill="midnightblue" stroke="midnightblue" points="168.08,-189.46 157.64,-187.65 164.67,-195.58 168.08,-189.46"/>
</g>
<!-- Node15&#45;&gt;Node3 -->
<g id="edge24" class="edge">
<title>Node15&#45;&gt;Node3</title>
<path fill="none" stroke="midnightblue" d="M238.46,-224.37C237.17,-206.62 234.19,-165.67 232.44,-141.6"/>
<polygon fill="midnightblue" stroke="midnightblue" points="235.93,-141.31 231.72,-131.59 228.95,-141.82 235.93,-141.31"/>
</g>
<!-- Node16&#45;&gt;Node7 -->
<g id="edge27" class="edge">
<title>Node16&#45;&gt;Node7</title>
<path fill="none" stroke="midnightblue" d="M67.18,-224.45C69.77,-204.6 76.69,-153.91 85.09,-112 86.85,-103.22 89.16,-93.56 91.21,-85.45"/>
<polygon fill="midnightblue" stroke="midnightblue" points="94.65,-86.14 93.77,-75.58 87.87,-84.38 94.65,-86.14"/>
</g>
</g>
</svg>
