<?xml version="1.0" encoding="UTF-8" standalone="no"?>
<!DOCTYPE svg PUBLIC "-//W3C//DTD SVG 1.1//EN"
 "http://www.w3.org/Graphics/SVG/1.1/DTD/svg11.dtd">
<!-- Generated by graphviz version 2.43.0 (0)
 -->
<!-- Title: os_core.c Pages: 1 -->
<svg width="637pt" height="252pt"
 viewBox="0.00 0.00 637.00 252.00" xmlns="http://www.w3.org/2000/svg" xmlns:xlink="http://www.w3.org/1999/xlink">
<g id="graph0" class="graph" transform="scale(1 1) rotate(0) translate(4 248)">
<title>os_core.c</title>
<polygon fill="white" stroke="transparent" points="-4,4 -4,-248 633,-248 633,4 -4,4"/>
<!-- Node1 -->
<g id="node1" class="node">
<title>Node1</title>
<g id="a_node1"><a xlink:title=" ">
<polygon fill="#bfbfbf" stroke="black" points="294,-224.5 294,-243.5 356,-243.5 356,-224.5 294,-224.5"/>
<text text-anchor="middle" x="325" y="-231.5" font-family="Helvetica,sans-Serif" font-size="10.00">os_core.c</text>
</a>
</g>
</g>
<!-- Node2 -->
<g id="node2" class="node">
<title>Node2</title>
<g id="a_node2"><a xlink:href="os__core_8h.html" target="_top" xlink:title="Core of the OS.">
<polygon fill="white" stroke="black" points="112.5,-112.5 112.5,-131.5 175.5,-131.5 175.5,-112.5 112.5,-112.5"/>
<text text-anchor="middle" x="144" y="-119.5" font-family="Helvetica,sans-Serif" font-size="10.00">os_core.h</text>
</a>
</g>
</g>
<!-- Node1&#45;&gt;Node2 -->
<g id="edge1" class="edge">
<title>Node1&#45;&gt;Node2</title>
<path fill="none" stroke="midnightblue" d="M310.8,-224.37C279.61,-205.41 204.88,-160 166.94,-136.94"/>
<polygon fill="midnightblue" stroke="midnightblue" points="168.5,-133.79 158.14,-131.59 164.86,-139.78 168.5,-133.79"/>
</g>
<!-- Node4 -->
<g id="node4" class="node">
<title>Node4</title>
<g id="a_node4"><a xlink:href="defines_8h.html" target="_top" xlink:title="Simple definitions and assembler&#45;macros, mostly 8/16&#45;Bit values.">
<polygon fill="white" stroke="black" points="33.5,-112.5 33.5,-131.5 94.5,-131.5 94.5,-112.5 33.5,-112.5"/>
<text text-anchor="middle" x="64" y="-119.5" font-family="Helvetica,sans-Serif" font-size="10.00">defines.h</text>
</a>
</g>
</g>
<!-- Node1&#45;&gt;Node4 -->
<g id="edge3" class="edge">
<title>Node1&#45;&gt;Node4</title>
<path fill="none" stroke="midnightblue" d="M303.87,-224.49C281.68,-215.52 245.82,-200.94 215,-188 172.44,-170.14 123.39,-148.9 93.04,-135.69"/>
<polygon fill="midnightblue" stroke="midnightblue" points="94.06,-132.31 83.5,-131.53 91.27,-138.73 94.06,-132.31"/>
</g>
<!-- Node7 -->
<g id="node7" class="node">
<title>Node7</title>
<g id="a_node7"><a xlink:href="lcd_8h.html" target="_top" xlink:title="Library for LCD use.">
<polygon fill="white" stroke="black" points="281,-168.5 281,-187.5 321,-187.5 321,-168.5 281,-168.5"/>
<text text-anchor="middle" x="301" y="-175.5" font-family="Helvetica,sans-Serif" font-size="10.00">lcd.h</text>
</a>
</g>
</g>
<!-- Node1&#45;&gt;Node7 -->
<g id="edge6" class="edge">
<title>Node1&#45;&gt;Node7</title>
<path fill="none" stroke="midnightblue" d="M321.04,-224.08C317.79,-216.77 313.08,-206.18 309.05,-197.1"/>
<polygon fill="midnightblue" stroke="midnightblue" points="312.15,-195.47 304.89,-187.75 305.75,-198.31 312.15,-195.47"/>
</g>
<!-- Node10 -->
<g id="node10" class="node">
<title>Node10</title>
<g id="a_node10"><a xlink:title=" ">
<polygon fill="white" stroke="#bfbfbf" points="368,-112.5 368,-131.5 418,-131.5 418,-112.5 368,-112.5"/>
<text text-anchor="middle" x="393" y="-119.5" font-family="Helvetica,sans-Serif" font-size="10.00">stdio.h</text>
</a>
</g>
</g>
<!-- Node1&#45;&gt;Node10 -->
<g id="edge21" class="edge">
<title>Node1&#45;&gt;Node10</title>
<path fill="none" stroke="midnightblue" d="M330.34,-224.37C341.51,-206.3 367.55,-164.18 382.3,-140.31"/>
<polygon fill="midnightblue" stroke="midnightblue" points="385.41,-141.94 387.69,-131.59 379.45,-138.26 385.41,-141.94"/>
</g>
<!-- Node11 -->
<g id="node11" class="node">
<title>Node11</title>
<g id="a_node11"><a xlink:href="util_8h.html" target="_top" xlink:title="Little helpers that don&#39;t fit elsewhere.">
<polygon fill="white" stroke="black" points="232.5,-112.5 232.5,-131.5 273.5,-131.5 273.5,-112.5 232.5,-112.5"/>
<text text-anchor="middle" x="253" y="-119.5" font-family="Helvetica,sans-Serif" font-size="10.00">util.h</text>
</a>
</g>
</g>
<!-- Node1&#45;&gt;Node11 -->
<g id="edge18" class="edge">
<title>Node1&#45;&gt;Node11</title>
<path fill="none" stroke="midnightblue" d="M310.81,-224.37C298.8,-216.37 281.99,-203.39 272,-188 262.9,-173.98 258.05,-155.48 255.53,-141.8"/>
<polygon fill="midnightblue" stroke="midnightblue" points="258.95,-140.98 253.93,-131.65 252.03,-142.08 258.95,-140.98"/>
</g>
<!-- Node12 -->
<g id="node12" class="node">
<title>Node12</title>
<g id="a_node12"><a xlink:href="os__input_8h.html" target="_top" xlink:title="Input library for the OS.">
<polygon fill="white" stroke="black" points="377.5,-168.5 377.5,-187.5 444.5,-187.5 444.5,-168.5 377.5,-168.5"/>
<text text-anchor="middle" x="411" y="-175.5" font-family="Helvetica,sans-Serif" font-size="10.00">os_input.h</text>
</a>
</g>
</g>
<!-- Node1&#45;&gt;Node12 -->
<g id="edge16" class="edge">
<title>Node1&#45;&gt;Node12</title>
<path fill="none" stroke="midnightblue" d="M338.82,-224.32C352.23,-215.9 372.82,-202.97 388.59,-193.07"/>
<polygon fill="midnightblue" stroke="midnightblue" points="390.61,-195.94 397.22,-187.65 386.89,-190.01 390.61,-195.94"/>
</g>
<!-- Node13 -->
<g id="node13" class="node">
<title>Node13</title>
<g id="a_node13"><a xlink:title=" ">
<polygon fill="white" stroke="#bfbfbf" points="463,-168.5 463,-187.5 549,-187.5 549,-168.5 463,-168.5"/>
<text text-anchor="middle" x="506" y="-175.5" font-family="Helvetica,sans-Serif" font-size="10.00">avr/interrupt.h</text>
</a>
</g>
</g>
<!-- Node1&#45;&gt;Node13 -->
<g id="edge19" class="edge">
<title>Node1&#45;&gt;Node13</title>
<path fill="none" stroke="midnightblue" d="M353.68,-224.44C384.53,-215.24 433.73,-200.56 467.83,-190.39"/>
<polygon fill="midnightblue" stroke="midnightblue" points="468.87,-193.73 477.45,-187.52 466.87,-187.02 468.87,-193.73"/>
</g>
<!-- Node14 -->
<g id="node14" class="node">
<title>Node14</title>
<g id="a_node14"><a xlink:title=" ">
<polygon fill="white" stroke="#bfbfbf" points="567,-168.5 567,-187.5 629,-187.5 629,-168.5 567,-168.5"/>
<text text-anchor="middle" x="598" y="-175.5" font-family="Helvetica,sans-Serif" font-size="10.00">avr/wdt.h</text>
</a>
</g>
</g>
<!-- Node1&#45;&gt;Node14 -->
<g id="edge20" class="edge">
<title>Node1&#45;&gt;Node14</title>
<path fill="none" stroke="midnightblue" d="M356.34,-227.26C399.3,-219.33 479.12,-204.34 556.65,-188.24"/>
<polygon fill="midnightblue" stroke="midnightblue" points="557.5,-191.63 566.58,-186.17 556.07,-184.78 557.5,-191.63"/>
</g>
<!-- Node3 -->
<g id="node3" class="node">
<title>Node3</title>
<g id="a_node3"><a xlink:title=" ">
<polygon fill="white" stroke="#bfbfbf" points="151.5,-56.5 151.5,-75.5 246.5,-75.5 246.5,-56.5 151.5,-56.5"/>
<text text-anchor="middle" x="199" y="-63.5" font-family="Helvetica,sans-Serif" font-size="10.00">avr/pgmspace.h</text>
</a>
</g>
</g>
<!-- Node2&#45;&gt;Node3 -->
<g id="edge2" class="edge">
<title>Node2&#45;&gt;Node3</title>
<path fill="none" stroke="midnightblue" d="M153.08,-112.08C161.17,-104.14 173.2,-92.34 182.91,-82.8"/>
<polygon fill="midnightblue" stroke="midnightblue" points="185.4,-85.25 190.09,-75.75 180.5,-80.26 185.4,-85.25"/>
</g>
<!-- Node5 -->
<g id="node5" class="node">
<title>Node5</title>
<g id="a_node5"><a xlink:href="atmega644constants_8h.html" target="_top" xlink:title="Constants for ATMega644 and EVA board. Defines several useful constants for the ATMega644.">
<polygon fill="white" stroke="black" points="0,-56.5 0,-75.5 128,-75.5 128,-56.5 0,-56.5"/>
<text text-anchor="middle" x="64" y="-63.5" font-family="Helvetica,sans-Serif" font-size="10.00">atmega644constants.h</text>
</a>
</g>
</g>
<!-- Node4&#45;&gt;Node5 -->
<g id="edge4" class="edge">
<title>Node4&#45;&gt;Node5</title>
<path fill="none" stroke="midnightblue" d="M64,-112.08C64,-105.01 64,-94.86 64,-85.99"/>
<polygon fill="midnightblue" stroke="midnightblue" points="67.5,-85.75 64,-75.75 60.5,-85.75 67.5,-85.75"/>
</g>
<!-- Node6 -->
<g id="node6" class="node">
<title>Node6</title>
<g id="a_node6"><a xlink:title=" ">
<polygon fill="white" stroke="#bfbfbf" points="37.5,-0.5 37.5,-19.5 90.5,-19.5 90.5,-0.5 37.5,-0.5"/>
<text text-anchor="middle" x="64" y="-7.5" font-family="Helvetica,sans-Serif" font-size="10.00">avr/io.h</text>
</a>
</g>
</g>
<!-- Node5&#45;&gt;Node6 -->
<g id="edge5" class="edge">
<title>Node5&#45;&gt;Node6</title>
<path fill="none" stroke="midnightblue" d="M64,-56.08C64,-49.01 64,-38.86 64,-29.99"/>
<polygon fill="midnightblue" stroke="midnightblue" points="67.5,-29.75 64,-19.75 60.5,-29.75 67.5,-29.75"/>
</g>
<!-- Node7&#45;&gt;Node3 -->
<g id="edge7" class="edge">
<title>Node7&#45;&gt;Node3</title>
<path fill="none" stroke="midnightblue" d="M280.77,-169.89C263.27,-162.79 238.42,-150.29 223,-132 211.74,-118.65 205.53,-99.53 202.27,-85.49"/>
<polygon fill="midnightblue" stroke="midnightblue" points="205.66,-84.62 200.24,-75.52 198.8,-86.01 205.66,-84.62"/>
</g>
<!-- Node7&#45;&gt;Node4 -->
<g id="edge11" class="edge">
<title>Node7&#45;&gt;Node4</title>
<path fill="none" stroke="midnightblue" d="M280.76,-172.42C246.53,-164.68 174.78,-148.42 104.55,-132.35"/>
<polygon fill="midnightblue" stroke="midnightblue" points="105.18,-128.9 94.65,-130.08 103.62,-135.73 105.18,-128.9"/>
</g>
<!-- Node8 -->
<g id="node8" class="node">
<title>Node8</title>
<g id="a_node8"><a xlink:title=" ">
<polygon fill="white" stroke="#bfbfbf" points="265,-56.5 265,-75.5 327,-75.5 327,-56.5 265,-56.5"/>
<text text-anchor="middle" x="296" y="-63.5" font-family="Helvetica,sans-Serif" font-size="10.00">stdbool.h</text>
</a>
</g>
</g>
<!-- Node7&#45;&gt;Node8 -->
<g id="edge8" class="edge">
<title>Node7&#45;&gt;Node8</title>
<path fill="none" stroke="midnightblue" d="M300.61,-168.37C299.8,-150.62 297.94,-109.67 296.85,-85.6"/>
<polygon fill="midnightblue" stroke="midnightblue" points="300.34,-85.42 296.39,-75.59 293.35,-85.74 300.34,-85.42"/>
</g>
<!-- Node9 -->
<g id="node9" class="node">
<title>Node9</title>
<g id="a_node9"><a xlink:title=" ">
<polygon fill="white" stroke="#bfbfbf" points="345.5,-56.5 345.5,-75.5 398.5,-75.5 398.5,-56.5 345.5,-56.5"/>
<text text-anchor="middle" x="372" y="-63.5" font-family="Helvetica,sans-Serif" font-size="10.00">stdint.h</text>
</a>
</g>
</g>
<!-- Node7&#45;&gt;Node9 -->
<g id="edge9" class="edge">
<title>Node7&#45;&gt;Node9</title>
<path fill="none" stroke="midnightblue" d="M306.57,-168.37C318.24,-150.3 345.42,-108.18 360.83,-84.31"/>
<polygon fill="midnightblue" stroke="midnightblue" points="363.97,-85.89 366.45,-75.59 358.09,-82.1 363.97,-85.89"/>
</g>
<!-- Node7&#45;&gt;Node10 -->
<g id="edge10" class="edge">
<title>Node7&#45;&gt;Node10</title>
<path fill="none" stroke="midnightblue" d="M315.78,-168.32C330.27,-159.82 352.57,-146.73 369.49,-136.8"/>
<polygon fill="midnightblue" stroke="midnightblue" points="371.4,-139.74 378.26,-131.65 367.86,-133.7 371.4,-139.74"/>
</g>
<!-- Node7&#45;&gt;Node11 -->
<g id="edge12" class="edge">
<title>Node7&#45;&gt;Node11</title>
<path fill="none" stroke="midnightblue" d="M293.07,-168.08C286.15,-160.3 275.93,-148.8 267.55,-139.37"/>
<polygon fill="midnightblue" stroke="midnightblue" points="270.04,-136.9 260.78,-131.75 264.81,-141.55 270.04,-136.9"/>
</g>
<!-- Node11&#45;&gt;Node3 -->
<g id="edge13" class="edge">
<title>Node11&#45;&gt;Node3</title>
<path fill="none" stroke="midnightblue" d="M244.08,-112.08C236.22,-104.22 224.57,-92.57 215.08,-83.08"/>
<polygon fill="midnightblue" stroke="midnightblue" points="217.3,-80.35 207.75,-75.75 212.35,-85.3 217.3,-80.35"/>
</g>
<!-- Node11&#45;&gt;Node8 -->
<g id="edge14" class="edge">
<title>Node11&#45;&gt;Node8</title>
<path fill="none" stroke="midnightblue" d="M260.1,-112.08C266.24,-104.38 275.27,-93.03 282.74,-83.65"/>
<polygon fill="midnightblue" stroke="midnightblue" points="285.54,-85.75 289.03,-75.75 280.06,-81.39 285.54,-85.75"/>
</g>
<!-- Node11&#45;&gt;Node9 -->
<g id="edge15" class="edge">
<title>Node11&#45;&gt;Node9</title>
<path fill="none" stroke="midnightblue" d="M271.86,-112.44C291.27,-103.64 321.73,-89.81 343.96,-79.72"/>
<polygon fill="midnightblue" stroke="midnightblue" points="345.57,-82.84 353.23,-75.52 342.68,-76.46 345.57,-82.84"/>
</g>
<!-- Node12&#45;&gt;Node9 -->
<g id="edge17" class="edge">
<title>Node12&#45;&gt;Node9</title>
<path fill="none" stroke="midnightblue" d="M416.76,-168.21C424.41,-155.36 435.96,-130.9 427,-112 420.87,-99.07 409.01,-88.62 397.86,-81.05"/>
<polygon fill="midnightblue" stroke="midnightblue" points="399.53,-77.97 389.2,-75.61 395.81,-83.9 399.53,-77.97"/>
</g>
</g>
</svg>
