<?xml version="1.0" encoding="UTF-8" standalone="no"?>
<!DOCTYPE svg PUBLIC "-//W3C//DTD SVG 1.1//EN"
 "http://www.w3.org/Graphics/SVG/1.1/DTD/svg11.dtd">
<!-- Generated by graphviz version 2.43.0 (0)
 -->
<!-- Title: os_init Pages: 1 -->
<svg width="736pt" height="379pt"
 viewBox="0.00 0.00 736.00 379.00" xmlns="http://www.w3.org/2000/svg" xmlns:xlink="http://www.w3.org/1999/xlink">
<g id="graph0" class="graph" transform="scale(1 1) rotate(0) translate(4 375)">
<title>os_init</title>
<polygon fill="white" stroke="transparent" points="-4,4 -4,-375 732,-375 732,4 -4,4"/>
<!-- Node1 -->
<g id="node1" class="node">
<title>Node1</title>
<g id="a_node1"><a xlink:title="Initializes OS.">
<polygon fill="#bfbfbf" stroke="black" points="0,-133.5 0,-152.5 49,-152.5 49,-133.5 0,-133.5"/>
<text text-anchor="middle" x="24.5" y="-140.5" font-family="Helvetica,sans-Serif" font-size="10.00">os_init</text>
</a>
</g>
</g>
<!-- Node2 -->
<g id="node2" class="node">
<title>Node2</title>
<g id="a_node2"><a xlink:href="util_8c.html#a6203c4722e9cbe1542b6ccbe98362dd2" target="_top" xlink:title="Waits for some milliseconds.">
<polygon fill="white" stroke="black" points="283,-351.5 283,-370.5 341,-370.5 341,-351.5 283,-351.5"/>
<text text-anchor="middle" x="312" y="-358.5" font-family="Helvetica,sans-Serif" font-size="10.00">delayMs</text>
</a>
</g>
</g>
<!-- Node1&#45;&gt;Node2 -->
<g id="edge1" class="edge">
<title>Node1&#45;&gt;Node2</title>
<path fill="none" stroke="midnightblue" d="M26.85,-152.8C30.85,-178.26 45.02,-247.14 85,-285 137.48,-334.69 223.49,-351.95 272.89,-357.91"/>
<polygon fill="midnightblue" stroke="midnightblue" points="272.52,-361.39 282.85,-359.01 273.29,-354.43 272.52,-361.39"/>
</g>
<!-- Node5 -->
<g id="node5" class="node">
<title>Node5</title>
<g id="a_node5"><a xlink:href="lcd_8c.html#a6842775ba83d166f02b8fef8bb63b1e6" target="_top" xlink:title="Initialize LCD.">
<polygon fill="white" stroke="black" points="121,-256.5 121,-275.5 173,-275.5 173,-256.5 121,-256.5"/>
<text text-anchor="middle" x="147" y="-263.5" font-family="Helvetica,sans-Serif" font-size="10.00">lcd_init</text>
</a>
</g>
</g>
<!-- Node1&#45;&gt;Node5 -->
<g id="edge4" class="edge">
<title>Node1&#45;&gt;Node5</title>
<path fill="none" stroke="midnightblue" d="M31.95,-152.75C42.18,-167.85 63.23,-197.4 85,-219 96.76,-230.67 111.43,-242.05 123.43,-250.7"/>
<polygon fill="midnightblue" stroke="midnightblue" points="121.43,-253.57 131.63,-256.47 125.47,-247.85 121.43,-253.57"/>
</g>
<!-- Node11 -->
<g id="node11" class="node">
<title>Node11</title>
<g id="a_node11"><a xlink:href="lcd_8c.html#a12c915502d2f5eb5bca74e503ad88669" target="_top" xlink:title="Write char PROGMEM* string.">
<polygon fill="white" stroke="black" points="91.5,-152.5 91.5,-171.5 202.5,-171.5 202.5,-152.5 91.5,-152.5"/>
<text text-anchor="middle" x="147" y="-159.5" font-family="Helvetica,sans-Serif" font-size="10.00">lcd_writeProgString</text>
</a>
</g>
</g>
<!-- Node1&#45;&gt;Node11 -->
<g id="edge14" class="edge">
<title>Node1&#45;&gt;Node11</title>
<path fill="none" stroke="midnightblue" d="M49.02,-146.71C58.4,-148.19 69.69,-149.97 81.21,-151.78"/>
<polygon fill="midnightblue" stroke="midnightblue" points="80.92,-155.28 91.35,-153.38 82.01,-148.37 80.92,-155.28"/>
</g>
<!-- Node13 -->
<g id="node13" class="node">
<title>Node13</title>
<g id="a_node13"><a xlink:href="os__core_8c.html#a4005609655750d34e92fce6c062f9f1c" target="_top" xlink:title="Examines the saved MCU status register and possibly prints an error if the reset source is not allowe...">
<polygon fill="white" stroke="black" points="86,-190.5 86,-209.5 208,-209.5 208,-190.5 86,-190.5"/>
<text text-anchor="middle" x="147" y="-197.5" font-family="Helvetica,sans-Serif" font-size="10.00">os_checkResetSource</text>
</a>
</g>
</g>
<!-- Node1&#45;&gt;Node13 -->
<g id="edge16" class="edge">
<title>Node1&#45;&gt;Node13</title>
<path fill="none" stroke="midnightblue" d="M38.16,-152.5C49.83,-160.91 67.88,-173.04 85,-181 89.72,-183.19 94.76,-185.22 99.84,-187.07"/>
<polygon fill="midnightblue" stroke="midnightblue" points="99,-190.48 109.6,-190.4 101.26,-183.86 99,-190.48"/>
</g>
<!-- Node15 -->
<g id="node15" class="node">
<title>Node15</title>
<g id="a_node15"><a xlink:href="os__core_8c.html#a6e2cb65995e0266255572244baf860f3" target="_top" xlink:title="Initializes timers.">
<polygon fill="white" stroke="black" points="107,-114.5 107,-133.5 187,-133.5 187,-114.5 107,-114.5"/>
<text text-anchor="middle" x="147" y="-121.5" font-family="Helvetica,sans-Serif" font-size="10.00">os_init_timer</text>
</a>
</g>
</g>
<!-- Node1&#45;&gt;Node15 -->
<g id="edge19" class="edge">
<title>Node1&#45;&gt;Node15</title>
<path fill="none" stroke="midnightblue" d="M49.02,-139.29C62.63,-137.15 80.29,-134.36 96.8,-131.76"/>
<polygon fill="midnightblue" stroke="midnightblue" points="97.55,-135.18 106.89,-130.17 96.46,-128.27 97.55,-135.18"/>
</g>
<!-- Node16 -->
<g id="node16" class="node">
<title>Node16</title>
<g id="a_node16"><a xlink:href="os__input_8c.html#a47d043a57e87cffbb40be4e33609175a" target="_top" xlink:title="Initializes DDR and PORT for input.">
<polygon fill="white" stroke="black" points="110,-76.5 110,-95.5 184,-95.5 184,-76.5 110,-76.5"/>
<text text-anchor="middle" x="147" y="-83.5" font-family="Helvetica,sans-Serif" font-size="10.00">os_initInput</text>
</a>
</g>
</g>
<!-- Node1&#45;&gt;Node16 -->
<g id="edge20" class="edge">
<title>Node1&#45;&gt;Node16</title>
<path fill="none" stroke="midnightblue" d="M38.16,-133.5C49.83,-125.09 67.88,-112.96 85,-105 89.9,-102.72 95.15,-100.62 100.43,-98.71"/>
<polygon fill="midnightblue" stroke="midnightblue" points="101.57,-102.02 109.92,-95.49 99.32,-95.39 101.57,-102.02"/>
</g>
<!-- Node17 -->
<g id="node17" class="node">
<title>Node17</title>
<g id="a_node17"><a xlink:href="os__core_8c.html#afcd3b8ded93499847533d52c2b08772a" target="_top" xlink:title=" ">
<polygon fill="white" stroke="black" points="98.5,-38.5 98.5,-57.5 195.5,-57.5 195.5,-38.5 98.5,-38.5"/>
<text text-anchor="middle" x="147" y="-45.5" font-family="Helvetica,sans-Serif" font-size="10.00">os_initScheduler</text>
</a>
</g>
</g>
<!-- Node1&#45;&gt;Node17 -->
<g id="edge21" class="edge">
<title>Node1&#45;&gt;Node17</title>
<path fill="none" stroke="midnightblue" d="M30.52,-133.29C39.35,-117.15 59.21,-84.8 85,-67 87.87,-65.02 90.96,-63.24 94.16,-61.63"/>
<polygon fill="midnightblue" stroke="midnightblue" points="95.67,-64.8 103.43,-57.59 92.87,-58.38 95.67,-64.8"/>
</g>
<!-- Node18 -->
<g id="node18" class="node">
<title>Node18</title>
<g id="a_node18"><a xlink:href="util_8c.html#a6370606c3e897e0d3064a0f154a536a2" target="_top" xlink:title="Resets system time back to 0.">
<polygon fill="white" stroke="black" points="85,-0.5 85,-19.5 209,-19.5 209,-0.5 85,-0.5"/>
<text text-anchor="middle" x="147" y="-7.5" font-family="Helvetica,sans-Serif" font-size="10.00">os_systemTime_reset</text>
</a>
</g>
</g>
<!-- Node1&#45;&gt;Node18 -->
<g id="edge22" class="edge">
<title>Node1&#45;&gt;Node18</title>
<path fill="none" stroke="midnightblue" d="M27.79,-133.46C33.52,-111.64 50.56,-57.77 85,-29 87.05,-27.29 89.25,-25.73 91.56,-24.31"/>
<polygon fill="midnightblue" stroke="midnightblue" points="93.6,-27.2 100.9,-19.51 90.4,-20.97 93.6,-27.2"/>
</g>
<!-- Node3 -->
<g id="node3" class="node">
<title>Node3</title>
<g id="a_node3"><a xlink:href="util_8c.html#a0ed4ceac216999d297c20ed56cd2f2e0" target="_top" xlink:title="Precise system time in ms.">
<polygon fill="white" stroke="black" points="415,-351.5 415,-370.5 549,-370.5 549,-351.5 415,-351.5"/>
<text text-anchor="middle" x="482" y="-358.5" font-family="Helvetica,sans-Serif" font-size="10.00">os_systemTime_precise</text>
</a>
</g>
</g>
<!-- Node2&#45;&gt;Node3 -->
<g id="edge2" class="edge">
<title>Node2&#45;&gt;Node3</title>
<path fill="none" stroke="midnightblue" d="M341.12,-361C358.54,-361 381.82,-361 404.38,-361"/>
<polygon fill="midnightblue" stroke="midnightblue" points="404.67,-364.5 414.67,-361 404.67,-357.5 404.67,-364.5"/>
</g>
<!-- Node4 -->
<g id="node4" class="node">
<title>Node4</title>
<g id="a_node4"><a xlink:href="util_8c.html#aa7568de3711b151bbc57bb3517a5cb0a" target="_top" xlink:title=" ">
<polygon fill="white" stroke="black" points="585,-351.5 585,-370.5 728,-370.5 728,-351.5 585,-351.5"/>
<text text-anchor="middle" x="656.5" y="-358.5" font-family="Helvetica,sans-Serif" font-size="10.00">os_systemTime_augment</text>
</a>
</g>
</g>
<!-- Node3&#45;&gt;Node4 -->
<g id="edge3" class="edge">
<title>Node3&#45;&gt;Node4</title>
<path fill="none" stroke="midnightblue" d="M549.2,-361C557.6,-361 566.27,-361 574.86,-361"/>
<polygon fill="midnightblue" stroke="midnightblue" points="574.89,-364.5 584.89,-361 574.89,-357.5 574.89,-364.5"/>
</g>
<!-- Node5&#45;&gt;Node2 -->
<g id="edge5" class="edge">
<title>Node5&#45;&gt;Node2</title>
<path fill="none" stroke="midnightblue" d="M159.06,-275.55C180.34,-293.78 226.52,-332.56 245,-342 253.65,-346.42 263.49,-349.96 272.88,-352.72"/>
<polygon fill="midnightblue" stroke="midnightblue" points="272.24,-356.17 282.81,-355.42 274.07,-349.42 272.24,-356.17"/>
</g>
<!-- Node6 -->
<g id="node6" class="node">
<title>Node6</title>
<g id="a_node6"><a xlink:href="lcd_8c.html#ad235a86241458b1e7b8771688bfdaf9a" target="_top" xlink:title="Clear all data from display.">
<polygon fill="white" stroke="black" points="282,-275.5 282,-294.5 342,-294.5 342,-275.5 282,-275.5"/>
<text text-anchor="middle" x="312" y="-282.5" font-family="Helvetica,sans-Serif" font-size="10.00">lcd_clear</text>
</a>
</g>
</g>
<!-- Node5&#45;&gt;Node6 -->
<g id="edge6" class="edge">
<title>Node5&#45;&gt;Node6</title>
<path fill="none" stroke="midnightblue" d="M173.11,-268.93C199.43,-271.99 241.13,-276.86 271.79,-280.43"/>
<polygon fill="midnightblue" stroke="midnightblue" points="271.39,-283.91 281.72,-281.59 272.2,-276.95 271.39,-283.91"/>
</g>
<!-- Node7 -->
<g id="node7" class="node">
<title>Node7</title>
<g id="a_node7"><a xlink:href="lcd_8c.html#acb116d89c358367b8fd1164120d320e3" target="_top" xlink:title="Send command to LCD.">
<polygon fill="white" stroke="black" points="439.5,-275.5 439.5,-294.5 524.5,-294.5 524.5,-275.5 439.5,-275.5"/>
<text text-anchor="middle" x="482" y="-282.5" font-family="Helvetica,sans-Serif" font-size="10.00">lcd_command</text>
</a>
</g>
</g>
<!-- Node5&#45;&gt;Node7 -->
<g id="edge9" class="edge">
<title>Node5&#45;&gt;Node7</title>
<path fill="none" stroke="midnightblue" d="M166.34,-256.42C185.4,-247.04 216.39,-233.4 245,-228 303.52,-216.95 321.37,-212.99 379,-228 409.64,-235.98 440.84,-255.42 460.52,-269.38"/>
<polygon fill="midnightblue" stroke="midnightblue" points="458.57,-272.29 468.71,-275.35 462.69,-266.63 458.57,-272.29"/>
</g>
<!-- Node9 -->
<g id="node9" class="node">
<title>Node9</title>
<g id="a_node9"><a xlink:href="lcd_8c.html#aca4a9d0155c7c7ec0c5ce4c2f5347847" target="_top" xlink:title=" ">
<polygon fill="white" stroke="black" points="277.5,-237.5 277.5,-256.5 346.5,-256.5 346.5,-237.5 277.5,-237.5"/>
<text text-anchor="middle" x="312" y="-244.5" font-family="Helvetica,sans-Serif" font-size="10.00">lcd_enable</text>
</a>
</g>
</g>
<!-- Node5&#45;&gt;Node9 -->
<g id="edge10" class="edge">
<title>Node5&#45;&gt;Node9</title>
<path fill="none" stroke="midnightblue" d="M173.11,-263.07C198.12,-260.16 237.01,-255.62 267.12,-252.11"/>
<polygon fill="midnightblue" stroke="midnightblue" points="267.84,-255.55 277.37,-250.92 267.03,-248.6 267.84,-255.55"/>
</g>
<!-- Node10 -->
<g id="node10" class="node">
<title>Node10</title>
<g id="a_node10"><a xlink:href="lcd_8c.html#a9145ad7b7dd6a45f9a84cf3d424c5cf2" target="_top" xlink:title="Register a custom designed character with the LCD.">
<polygon fill="white" stroke="black" points="245,-313.5 245,-332.5 379,-332.5 379,-313.5 245,-313.5"/>
<text text-anchor="middle" x="312" y="-320.5" font-family="Helvetica,sans-Serif" font-size="10.00">lcd_registerCustomChar</text>
</a>
</g>
</g>
<!-- Node5&#45;&gt;Node10 -->
<g id="edge11" class="edge">
<title>Node5&#45;&gt;Node10</title>
<path fill="none" stroke="midnightblue" d="M170.51,-275.51C190.04,-283.59 219.14,-295.23 245,-304 251.6,-306.24 258.63,-308.44 265.54,-310.52"/>
<polygon fill="midnightblue" stroke="midnightblue" points="264.95,-313.99 275.53,-313.45 266.92,-307.27 264.95,-313.99"/>
</g>
<!-- Node6&#45;&gt;Node7 -->
<g id="edge7" class="edge">
<title>Node6&#45;&gt;Node7</title>
<path fill="none" stroke="midnightblue" d="M342.26,-285C366.21,-285 400.67,-285 429.25,-285"/>
<polygon fill="midnightblue" stroke="midnightblue" points="429.49,-288.5 439.49,-285 429.49,-281.5 429.49,-288.5"/>
</g>
<!-- Node8 -->
<g id="node8" class="node">
<title>Node8</title>
<g id="a_node8"><a xlink:href="lcd_8c.html#a26a89cb41bb1496462fda420cbe79a07" target="_top" xlink:title=" ">
<polygon fill="white" stroke="black" points="609,-294.5 609,-313.5 704,-313.5 704,-294.5 609,-294.5"/>
<text text-anchor="middle" x="656.5" y="-301.5" font-family="Helvetica,sans-Serif" font-size="10.00">lcd_sendStream</text>
</a>
</g>
</g>
<!-- Node7&#45;&gt;Node8 -->
<g id="edge8" class="edge">
<title>Node7&#45;&gt;Node8</title>
<path fill="none" stroke="midnightblue" d="M524.76,-289.6C547.01,-292.05 574.69,-295.1 598.85,-297.76"/>
<polygon fill="midnightblue" stroke="midnightblue" points="598.64,-301.26 608.96,-298.87 599.41,-294.3 598.64,-301.26"/>
</g>
<!-- Node10&#45;&gt;Node7 -->
<g id="edge12" class="edge">
<title>Node10&#45;&gt;Node7</title>
<path fill="none" stroke="midnightblue" d="M355.39,-313.41C377.93,-308.31 405.82,-302.01 429.59,-296.63"/>
<polygon fill="midnightblue" stroke="midnightblue" points="430.51,-300.01 439.49,-294.39 428.97,-293.18 430.51,-300.01"/>
</g>
<!-- Node10&#45;&gt;Node8 -->
<g id="edge13" class="edge">
<title>Node10&#45;&gt;Node8</title>
<path fill="none" stroke="midnightblue" d="M379.04,-319.34C442.8,-315.8 538.34,-310.5 598.76,-307.15"/>
<polygon fill="midnightblue" stroke="midnightblue" points="599.09,-310.63 608.89,-306.59 598.71,-303.65 599.09,-310.63"/>
</g>
<!-- Node12 -->
<g id="node12" class="node">
<title>Node12</title>
<g id="a_node12"><a xlink:href="lcd_8c.html#a93cd5600fa3b27381a4cf57d21f27ebf" target="_top" xlink:title="Write one character.">
<polygon fill="white" stroke="black" points="270.5,-123.5 270.5,-142.5 353.5,-142.5 353.5,-123.5 270.5,-123.5"/>
<text text-anchor="middle" x="312" y="-130.5" font-family="Helvetica,sans-Serif" font-size="10.00">lcd_writeChar</text>
</a>
</g>
</g>
<!-- Node11&#45;&gt;Node12 -->
<g id="edge15" class="edge">
<title>Node11&#45;&gt;Node12</title>
<path fill="none" stroke="midnightblue" d="M201.82,-152.42C220.68,-149.07 241.78,-145.32 260.37,-142.01"/>
<polygon fill="midnightblue" stroke="midnightblue" points="261.17,-145.42 270.4,-140.22 259.94,-138.53 261.17,-145.42"/>
</g>
<!-- Node14 -->
<g id="node14" class="node">
<title>Node14</title>
<g id="a_node14"><a xlink:href="lcd_8c.html#ad9ccaf30ea478fef726c058ff4ee7dd1" target="_top" xlink:title="Next output will be written to line 2.">
<polygon fill="white" stroke="black" points="282,-161.5 282,-180.5 342,-180.5 342,-161.5 282,-161.5"/>
<text text-anchor="middle" x="312" y="-168.5" font-family="Helvetica,sans-Serif" font-size="10.00">lcd_line2</text>
</a>
</g>
</g>
<!-- Node13&#45;&gt;Node14 -->
<g id="edge17" class="edge">
<title>Node13&#45;&gt;Node14</title>
<path fill="none" stroke="midnightblue" d="M201.82,-190.42C224.77,-186.34 251.05,-181.67 272.07,-177.93"/>
<polygon fill="midnightblue" stroke="midnightblue" points="272.7,-181.37 281.93,-176.17 271.47,-174.48 272.7,-181.37"/>
</g>
<!-- Node14&#45;&gt;Node7 -->
<g id="edge18" class="edge">
<title>Node14&#45;&gt;Node7</title>
<path fill="none" stroke="midnightblue" d="M342.32,-179.05C354.16,-182.95 367.68,-188.28 379,-195 413.27,-215.35 446.68,-247.98 465.47,-267.85"/>
<polygon fill="midnightblue" stroke="midnightblue" points="463,-270.34 472.37,-275.28 468.13,-265.57 463,-270.34"/>
</g>
</g>
</svg>
